<svg xmlns="http://www.w3.org/2000/svg" xmlns:xlink="http://www.w3.org/1999/xlink" contentStyleType="text/css" data-diagram-type="CLASS" height="1052px" preserveAspectRatio="none" style="width:1306px;height:1052px;background:#FFFFFF;" version="1.1" viewBox="0 0 1306 1052" width="1306px" zoomAndPan="magnify"><title>PVMS - Domain Model</title><defs/><g><g class="title" data-source-line="1"><text fill="#000000" font-family="sans-serif" font-size="14" font-weight="bold" lengthAdjust="spacing" textLength="147.7861" x="572.5288" y="25.1074">PVMS - Domain Model</text></g><!--class SNSUser--><g class="entity" data-entity="SNSUser" data-source-line="7" data-uid="ent0002" id="entity_SNSUser"><rect fill="#F1F1F1" height="170.3477" rx="2.5" ry="2.5" style="stroke:#181818;stroke-width:0.5;" width="188.2373" x="308.12" y="46.6211"/><ellipse cx="368.8163" cy="62.6211" fill="#ADD1B2" rx="11" ry="11" style="stroke:#181818;stroke-width:1;"/><path d="M371.5819,58.4961 Q371.7382,58.2773 371.9257,58.168 Q372.1132,58.0586 372.3319,58.0586 Q372.7069,58.0586 372.9413,58.3242 Q373.1757,58.5742 373.1757,59.1836 L373.1757,60.6367 Q373.1757,61.2461 372.9413,61.5117 Q372.7069,61.7773 372.3319,61.7773 Q371.9882,61.7773 371.785,61.5742 Q371.5819,61.3867 371.4725,60.8711 Q371.4257,60.5117 371.2382,60.3242 Q370.91,59.9492 370.3007,59.7305 Q369.6913,59.5117 369.0663,59.5117 Q368.3007,59.5117 367.66,59.8398 Q367.035,60.168 366.535,60.918 Q366.0507,61.668 366.0507,62.6992 L366.0507,63.793 Q366.0507,65.0273 366.9413,65.8555 Q367.8319,66.668 369.4257,66.668 Q370.3632,66.668 371.0194,66.418 Q371.41,66.2617 371.8319,65.8242 Q372.0975,65.5586 372.2382,65.4805 Q372.3944,65.4023 372.5975,65.4023 Q372.9257,65.4023 373.1757,65.668 Q373.4413,65.918 373.4413,66.2617 Q373.4413,66.6055 373.0975,67.0117 Q372.5975,67.5898 371.8007,67.918 Q370.7225,68.3711 369.4257,68.3711 Q367.91,68.3711 366.7069,67.7461 Q365.7225,67.2461 365.035,66.1836 Q364.3475,65.1055 364.3475,63.8242 L364.3475,62.668 Q364.3475,61.3398 364.9569,60.1992 Q365.5819,59.043 366.6757,58.4336 Q367.7694,57.8086 369.0038,57.8086 Q369.7382,57.8086 370.3788,57.9805 Q371.035,58.1367 371.5819,58.4961 Z " fill="#000000"/><text fill="#000000" font-family="sans-serif" font-size="14" lengthAdjust="spacing" textLength="58.3447" x="389.3163" y="68.418">SNSUser</text><line style="stroke:#181818;stroke-width:0.5;" x1="309.12" x2="495.3573" y1="78.6211" y2="78.6211"/><text fill="#000000" font-family="sans-serif" font-size="14" lengthAdjust="spacing" textLength="91.4375" x="314.12" y="97.7285">+name : String</text><text fill="#000000" font-family="sans-serif" font-size="14" lengthAdjust="spacing" textLength="120.2305" x="314.12" y="116.3496">+dateOfBirth : Date</text><text fill="#000000" font-family="sans-serif" font-size="14" lengthAdjust="spacing" textLength="78.2031" x="314.12" y="134.9707">+sex : String</text><text fill="#000000" font-family="sans-serif" font-size="14" lengthAdjust="spacing" textLength="145.1338" x="314.12" y="153.5918">+postalAddress : String</text><text fill="#000000" font-family="sans-serif" font-size="14" lengthAdjust="spacing" textLength="95.3477" x="314.12" y="172.2129">+phone : String</text><text fill="#000000" font-family="sans-serif" font-size="14" lengthAdjust="spacing" textLength="89.8721" x="314.12" y="190.834">+email : String</text><text fill="#000000" font-family="sans-serif" font-size="14" lengthAdjust="spacing" textLength="176.2373" x="314.12" y="209.4551">+citizenCardNumber : String</text></g><!--class StaffMember--><g class="entity" data-entity="StaffMember" data-source-line="19" data-uid="ent0003" id="entity_StaffMember"><rect fill="#F1F1F1" height="114.4844" rx="2.5" ry="2.5" style="stroke:#181818;stroke-width:0.5;" width="157.1338" x="779.62" y="74.6211"/><ellipse cx="814.8682" cy="90.6211" fill="#A9DCDF" rx="11" ry="11" style="stroke:#181818;stroke-width:1;"/><path d="M817.0557,92.3867 L812.9151,92.3867 L812.4932,93.418 L812.9151,93.418 Q813.5245,93.418 813.7901,93.6523 Q814.0557,93.8867 814.0557,94.2773 Q814.0557,94.6523 813.7901,94.8867 Q813.5245,95.1211 812.9151,95.1211 L810.6182,95.1211 Q810.0089,95.1211 809.7589,94.8867 Q809.4932,94.6523 809.4932,94.2617 Q809.4932,93.8867 809.7745,93.6523 Q810.0401,93.4023 810.6651,93.418 L813.337,86.7617 L812.2276,86.7617 Q811.6182,86.7617 811.3526,86.5273 Q811.087,86.293 811.087,85.9023 Q811.087,85.5273 811.3526,85.293 Q811.6182,85.0586 812.2276,85.0586 L815.8995,85.0586 L819.2901,93.418 Q819.8839,93.418 820.0714,93.5586 Q820.462,93.8242 820.462,94.2773 Q820.462,94.6523 820.1964,94.8867 Q819.9464,95.1211 819.337,95.1211 L817.0401,95.1211 Q816.4307,95.1211 816.1651,94.8867 Q815.8995,94.6523 815.8995,94.2617 Q815.8995,93.8867 816.1651,93.6523 Q816.4307,93.418 817.0401,93.418 L817.462,93.418 L817.0557,92.3867 Z M816.337,90.6836 L814.9776,87.3086 L813.6026,90.6836 L816.337,90.6836 Z " fill="#000000"/><text fill="#000000" font-family="sans-serif" font-size="14" font-style="italic" lengthAdjust="spacing" textLength="80.1377" x="833.3679" y="96.418">StaffMember</text><line style="stroke:#181818;stroke-width:0.5;" x1="780.62" x2="935.7538" y1="106.6211" y2="106.6211"/><text fill="#000000" font-family="sans-serif" font-size="14" lengthAdjust="spacing" textLength="91.4375" x="785.62" y="125.7285">+name : String</text><text fill="#000000" font-family="sans-serif" font-size="14" lengthAdjust="spacing" textLength="145.1338" x="785.62" y="144.3496">+postalAddress : String</text><text fill="#000000" font-family="sans-serif" font-size="14" lengthAdjust="spacing" textLength="95.3477" x="785.62" y="162.9707">+phone : String</text><text fill="#000000" font-family="sans-serif" font-size="14" lengthAdjust="spacing" textLength="89.8721" x="785.62" y="181.5918">+email : String</text></g><!--class Receptionist--><g class="entity" data-entity="Receptionist" data-source-line="27" data-uid="ent0004" id="entity_Receptionist"><rect fill="#F1F1F1" height="40" rx="2.5" ry="2.5" style="stroke:#181818;stroke-width:0.5;" width="109.041" x="722.62" y="332.6211"/><ellipse cx="737.62" cy="348.6211" fill="#ADD1B2" rx="11" ry="11" style="stroke:#181818;stroke-width:1;"/><path d="M740.3856,344.4961 Q740.5419,344.2773 740.7294,344.168 Q740.9169,344.0586 741.1356,344.0586 Q741.5106,344.0586 741.745,344.3242 Q741.9794,344.5742 741.9794,345.1836 L741.9794,346.6367 Q741.9794,347.2461 741.745,347.5117 Q741.5106,347.7773 741.1356,347.7773 Q740.7919,347.7773 740.5888,347.5742 Q740.3856,347.3867 740.2763,346.8711 Q740.2294,346.5117 740.0419,346.3242 Q739.7138,345.9492 739.1044,345.7305 Q738.495,345.5117 737.87,345.5117 Q737.1044,345.5117 736.4638,345.8398 Q735.8388,346.168 735.3388,346.918 Q734.8544,347.668 734.8544,348.6992 L734.8544,349.793 Q734.8544,351.0273 735.745,351.8555 Q736.6356,352.668 738.2294,352.668 Q739.1669,352.668 739.8231,352.418 Q740.2138,352.2617 740.6356,351.8242 Q740.9013,351.5586 741.0419,351.4805 Q741.1981,351.4023 741.4013,351.4023 Q741.7294,351.4023 741.9794,351.668 Q742.245,351.918 742.245,352.2617 Q742.245,352.6055 741.9013,353.0117 Q741.4013,353.5898 740.6044,353.918 Q739.5263,354.3711 738.2294,354.3711 Q736.7138,354.3711 735.5106,353.7461 Q734.5263,353.2461 733.8388,352.1836 Q733.1513,351.1055 733.1513,349.8242 L733.1513,348.668 Q733.1513,347.3398 733.7606,346.1992 Q734.3856,345.043 735.4794,344.4336 Q736.5731,343.8086 737.8075,343.8086 Q738.5419,343.8086 739.1825,343.9805 Q739.8388,344.1367 740.3856,344.4961 Z " fill="#000000"/><text fill="#000000" font-family="sans-serif" font-size="14" lengthAdjust="spacing" textLength="77.041" x="751.62" y="354.418">Receptionist</text><line style="stroke:#181818;stroke-width:0.5;" x1="723.62" x2="830.661" y1="364.6211" y2="364.6211"/></g><!--class Nurse--><g class="entity" data-entity="Nurse" data-source-line="28" data-uid="ent0006" id="entity_Nurse"><rect fill="#F1F1F1" height="40" rx="2.5" ry="2.5" style="stroke:#181818;stroke-width:0.5;" width="69.3447" x="126.62" y="332.6211"/><ellipse cx="141.62" cy="348.6211" fill="#ADD1B2" rx="11" ry="11" style="stroke:#181818;stroke-width:1;"/><path d="M144.3856,344.4961 Q144.5419,344.2773 144.7294,344.168 Q144.9169,344.0586 145.1356,344.0586 Q145.5106,344.0586 145.745,344.3242 Q145.9794,344.5742 145.9794,345.1836 L145.9794,346.6367 Q145.9794,347.2461 145.745,347.5117 Q145.5106,347.7773 145.1356,347.7773 Q144.7919,347.7773 144.5888,347.5742 Q144.3856,347.3867 144.2763,346.8711 Q144.2294,346.5117 144.0419,346.3242 Q143.7138,345.9492 143.1044,345.7305 Q142.495,345.5117 141.87,345.5117 Q141.1044,345.5117 140.4638,345.8398 Q139.8388,346.168 139.3388,346.918 Q138.8544,347.668 138.8544,348.6992 L138.8544,349.793 Q138.8544,351.0273 139.745,351.8555 Q140.6356,352.668 142.2294,352.668 Q143.1669,352.668 143.8231,352.418 Q144.2138,352.2617 144.6356,351.8242 Q144.9013,351.5586 145.0419,351.4805 Q145.1981,351.4023 145.4013,351.4023 Q145.7294,351.4023 145.9794,351.668 Q146.245,351.918 146.245,352.2617 Q146.245,352.6055 145.9013,353.0117 Q145.4013,353.5898 144.6044,353.918 Q143.5263,354.3711 142.2294,354.3711 Q140.7138,354.3711 139.5106,353.7461 Q138.5263,353.2461 137.8388,352.1836 Q137.1513,351.1055 137.1513,349.8242 L137.1513,348.668 Q137.1513,347.3398 137.7606,346.1992 Q138.3856,345.043 139.4794,344.4336 Q140.5731,343.8086 141.8075,343.8086 Q142.5419,343.8086 143.1825,343.9805 Q143.8388,344.1367 144.3856,344.4961 Z " fill="#000000"/><text fill="#000000" font-family="sans-serif" font-size="14" lengthAdjust="spacing" textLength="37.3447" x="155.62" y="354.418">Nurse</text><line style="stroke:#181818;stroke-width:0.5;" x1="127.62" x2="194.9647" y1="364.6211" y2="364.6211"/></g><g class="entity" data-entity="GMN8" data-source-line="29" data-uid="ent0009" id="entity_GMN8"><path d="M231.12,339.1211 L231.12,348.6211 L195.8,352.6211 L231.12,356.6211 L231.12,366.4121 A0,0 0 0 0 231.12,366.4121 L460.9706,366.4121 A0,0 0 0 0 460.9706,366.4121 L460.9706,349.1211 L450.9706,339.1211 L231.12,339.1211 A0,0 0 0 0 231.12,339.1211" fill="#FEFFDD" style="stroke:#181818;stroke-width:0.5;"/><path d="M450.9706,339.1211 L450.9706,349.1211 L460.9706,349.1211 L450.9706,339.1211" fill="#FEFFDD" style="stroke:#181818;stroke-width:0.5;"/><text fill="#000000" font-family="sans-serif" font-size="13" lengthAdjust="spacing" textLength="208.8506" x="237.12" y="358.1494">Authorized to access full health data</text></g><!--class DGSAdministrator--><g class="entity" data-entity="DGSAdministrator" data-source-line="30" data-uid="ent0011" id="entity_DGSAdministrator"><rect fill="#F1F1F1" height="40" rx="2.5" ry="2.5" style="stroke:#181818;stroke-width:0.5;" width="144.8066" x="866.62" y="332.6211"/><ellipse cx="881.62" cy="348.6211" fill="#ADD1B2" rx="11" ry="11" style="stroke:#181818;stroke-width:1;"/><path d="M884.3856,344.4961 Q884.5419,344.2773 884.7294,344.168 Q884.9169,344.0586 885.1356,344.0586 Q885.5106,344.0586 885.745,344.3242 Q885.9794,344.5742 885.9794,345.1836 L885.9794,346.6367 Q885.9794,347.2461 885.745,347.5117 Q885.5106,347.7773 885.1356,347.7773 Q884.7919,347.7773 884.5888,347.5742 Q884.3856,347.3867 884.2763,346.8711 Q884.2294,346.5117 884.0419,346.3242 Q883.7138,345.9492 883.1044,345.7305 Q882.495,345.5117 881.87,345.5117 Q881.1044,345.5117 880.4638,345.8398 Q879.8388,346.168 879.3388,346.918 Q878.8544,347.668 878.8544,348.6992 L878.8544,349.793 Q878.8544,351.0273 879.745,351.8555 Q880.6356,352.668 882.2294,352.668 Q883.1669,352.668 883.8231,352.418 Q884.2138,352.2617 884.6356,351.8242 Q884.9013,351.5586 885.0419,351.4805 Q885.1981,351.4023 885.4013,351.4023 Q885.7294,351.4023 885.9794,351.668 Q886.245,351.918 886.245,352.2617 Q886.245,352.6055 885.9013,353.0117 Q885.4013,353.5898 884.6044,353.918 Q883.5263,354.3711 882.2294,354.3711 Q880.7138,354.3711 879.5106,353.7461 Q878.5263,353.2461 877.8388,352.1836 Q877.1513,351.1055 877.1513,349.8242 L877.1513,348.668 Q877.1513,347.3398 877.7606,346.1992 Q878.3856,345.043 879.4794,344.4336 Q880.5731,343.8086 881.8075,343.8086 Q882.5419,343.8086 883.1825,343.9805 Q883.8388,344.1367 884.3856,344.4961 Z " fill="#000000"/><text fill="#000000" font-family="sans-serif" font-size="14" lengthAdjust="spacing" textLength="112.8066" x="895.62" y="354.418">DGSAdministrator</text><line style="stroke:#181818;stroke-width:0.5;" x1="867.62" x2="1010.4266" y1="364.6211" y2="364.6211"/></g><!--class VaccinationCenter--><g class="entity" data-entity="VaccinationCenter" data-source-line="33" data-uid="ent0013" id="entity_VaccinationCenter"><rect fill="#F1F1F1" height="188.9688" rx="2.5" ry="2.5" style="stroke:#181818;stroke-width:0.5;" width="210.8164" x="891.62" y="488.6211"/><ellipse cx="935.6076" cy="504.6211" fill="#A9DCDF" rx="11" ry="11" style="stroke:#181818;stroke-width:1;"/><path d="M937.7951,506.3867 L933.6545,506.3867 L933.2326,507.418 L933.6545,507.418 Q934.2639,507.418 934.5295,507.6523 Q934.7951,507.8867 934.7951,508.2773 Q934.7951,508.6523 934.5295,508.8867 Q934.2639,509.1211 933.6545,509.1211 L931.3576,509.1211 Q930.7483,509.1211 930.4983,508.8867 Q930.2326,508.6523 930.2326,508.2617 Q930.2326,507.8867 930.5139,507.6523 Q930.7795,507.4023 931.4045,507.418 L934.0764,500.7617 L932.967,500.7617 Q932.3576,500.7617 932.092,500.5273 Q931.8264,500.293 931.8264,499.9023 Q931.8264,499.5273 932.092,499.293 Q932.3576,499.0586 932.967,499.0586 L936.6389,499.0586 L940.0295,507.418 Q940.6233,507.418 940.8108,507.5586 Q941.2014,507.8242 941.2014,508.2773 Q941.2014,508.6523 940.9358,508.8867 Q940.6858,509.1211 940.0764,509.1211 L937.7795,509.1211 Q937.1701,509.1211 936.9045,508.8867 Q936.6389,508.6523 936.6389,508.2617 Q936.6389,507.8867 936.9045,507.6523 Q937.1701,507.418 937.7795,507.418 L938.2014,507.418 L937.7951,506.3867 Z M937.0764,504.6836 L935.717,501.3086 L934.342,504.6836 L937.0764,504.6836 Z " fill="#000000"/><text fill="#000000" font-family="sans-serif" font-size="14" font-style="italic" lengthAdjust="spacing" textLength="114.3994" x="956.0493" y="510.418">VaccinationCenter</text><line style="stroke:#181818;stroke-width:0.5;" x1="892.62" x2="1101.4364" y1="520.6211" y2="520.6211"/><text fill="#000000" font-family="sans-serif" font-size="14" lengthAdjust="spacing" textLength="91.4375" x="897.62" y="539.7285">+name : String</text><text fill="#000000" font-family="sans-serif" font-size="14" lengthAdjust="spacing" textLength="145.1338" x="897.62" y="558.3496">+postalAddress : String</text><text fill="#000000" font-family="sans-serif" font-size="14" lengthAdjust="spacing" textLength="95.3477" x="897.62" y="576.9707">+phone : String</text><text fill="#000000" font-family="sans-serif" font-size="14" lengthAdjust="spacing" textLength="89.8721" x="897.62" y="595.5918">+email : String</text><text fill="#000000" font-family="sans-serif" font-size="14" lengthAdjust="spacing" textLength="103.8857" x="897.62" y="614.2129">+website : String</text><text fill="#000000" font-family="sans-serif" font-size="14" lengthAdjust="spacing" textLength="198.8164" x="897.62" y="632.834">+maxVaccinesPerHour : Integer</text><text fill="#000000" font-family="sans-serif" font-size="14" lengthAdjust="spacing" textLength="138.127" x="897.62" y="651.4551">+openingHours : Time</text><text fill="#000000" font-family="sans-serif" font-size="14" lengthAdjust="spacing" textLength="131.8789" x="897.62" y="670.0762">+closingHours : Time</text></g><!--class HealthcareCenter--><g class="entity" data-entity="HealthcareCenter" data-source-line="45" data-uid="ent0014" id="entity_HealthcareCenter"><rect fill="#F1F1F1" height="40" rx="2.5" ry="2.5" style="stroke:#181818;stroke-width:0.5;" width="141.7236" x="1158.12" y="793.6211"/><ellipse cx="1173.12" cy="809.6211" fill="#ADD1B2" rx="11" ry="11" style="stroke:#181818;stroke-width:1;"/><path d="M1175.8856,805.4961 Q1176.0419,805.2773 1176.2294,805.168 Q1176.4169,805.0586 1176.6356,805.0586 Q1177.0106,805.0586 1177.245,805.3242 Q1177.4794,805.5742 1177.4794,806.1836 L1177.4794,807.6367 Q1177.4794,808.2461 1177.245,808.5117 Q1177.0106,808.7773 1176.6356,808.7773 Q1176.2919,808.7773 1176.0888,808.5742 Q1175.8856,808.3867 1175.7763,807.8711 Q1175.7294,807.5117 1175.5419,807.3242 Q1175.2138,806.9492 1174.6044,806.7305 Q1173.995,806.5117 1173.37,806.5117 Q1172.6044,806.5117 1171.9638,806.8398 Q1171.3388,807.168 1170.8388,807.918 Q1170.3544,808.668 1170.3544,809.6992 L1170.3544,810.793 Q1170.3544,812.0273 1171.245,812.8555 Q1172.1356,813.668 1173.7294,813.668 Q1174.6669,813.668 1175.3231,813.418 Q1175.7138,813.2617 1176.1356,812.8242 Q1176.4013,812.5586 1176.5419,812.4805 Q1176.6981,812.4023 1176.9013,812.4023 Q1177.2294,812.4023 1177.4794,812.668 Q1177.745,812.918 1177.745,813.2617 Q1177.745,813.6055 1177.4013,814.0117 Q1176.9013,814.5898 1176.1044,814.918 Q1175.0263,815.3711 1173.7294,815.3711 Q1172.2138,815.3711 1171.0106,814.7461 Q1170.0263,814.2461 1169.3388,813.1836 Q1168.6513,812.1055 1168.6513,810.8242 L1168.6513,809.668 Q1168.6513,808.3398 1169.2606,807.1992 Q1169.8856,806.043 1170.9794,805.4336 Q1172.0731,804.8086 1173.3075,804.8086 Q1174.0419,804.8086 1174.6825,804.9805 Q1175.3388,805.1367 1175.8856,805.4961 Z " fill="#000000"/><text fill="#000000" font-family="sans-serif" font-size="14" lengthAdjust="spacing" textLength="109.7236" x="1187.12" y="815.418">HealthcareCenter</text><line style="stroke:#181818;stroke-width:0.5;" x1="1159.12" x2="1298.8436" y1="825.6211" y2="825.6211"/></g><!--class CommunityMassVaccinationCenter--><g class="entity" data-entity="CommunityMassVaccinationCenter" data-source-line="46" data-uid="ent0016" id="entity_CommunityMassVaccinationCenter"><rect fill="#F1F1F1" height="40" rx="2.5" ry="2.5" style="stroke:#181818;stroke-width:0.5;" width="250.6406" x="871.62" y="793.6211"/><ellipse cx="886.62" cy="809.6211" fill="#ADD1B2" rx="11" ry="11" style="stroke:#181818;stroke-width:1;"/><path d="M889.3856,805.4961 Q889.5419,805.2773 889.7294,805.168 Q889.9169,805.0586 890.1356,805.0586 Q890.5106,805.0586 890.745,805.3242 Q890.9794,805.5742 890.9794,806.1836 L890.9794,807.6367 Q890.9794,808.2461 890.745,808.5117 Q890.5106,808.7773 890.1356,808.7773 Q889.7919,808.7773 889.5888,808.5742 Q889.3856,808.3867 889.2763,807.8711 Q889.2294,807.5117 889.0419,807.3242 Q888.7138,806.9492 888.1044,806.7305 Q887.495,806.5117 886.87,806.5117 Q886.1044,806.5117 885.4638,806.8398 Q884.8388,807.168 884.3388,807.918 Q883.8544,808.668 883.8544,809.6992 L883.8544,810.793 Q883.8544,812.0273 884.745,812.8555 Q885.6356,813.668 887.2294,813.668 Q888.1669,813.668 888.8231,813.418 Q889.2138,813.2617 889.6356,812.8242 Q889.9013,812.5586 890.0419,812.4805 Q890.1981,812.4023 890.4013,812.4023 Q890.7294,812.4023 890.9794,812.668 Q891.245,812.918 891.245,813.2617 Q891.245,813.6055 890.9013,814.0117 Q890.4013,814.5898 889.6044,814.918 Q888.5263,815.3711 887.2294,815.3711 Q885.7138,815.3711 884.5106,814.7461 Q883.5263,814.2461 882.8388,813.1836 Q882.1513,812.1055 882.1513,810.8242 L882.1513,809.668 Q882.1513,808.3398 882.7606,807.1992 Q883.3856,806.043 884.4794,805.4336 Q885.5731,804.8086 886.8075,804.8086 Q887.5419,804.8086 888.1825,804.9805 Q888.8388,805.1367 889.3856,805.4961 Z " fill="#000000"/><text fill="#000000" font-family="sans-serif" font-size="14" lengthAdjust="spacing" textLength="218.6406" x="900.62" y="815.418">CommunityMassVaccinationCenter</text><line style="stroke:#181818;stroke-width:0.5;" x1="872.62" x2="1121.2606" y1="825.6211" y2="825.6211"/></g><!--class VaccineType--><g class="entity" data-entity="VaccineType" data-source-line="49" data-uid="ent0018" id="entity_VaccineType"><rect fill="#F1F1F1" height="77.2422" rx="2.5" ry="2.5" style="stroke:#181818;stroke-width:0.5;" width="169.5684" x="666.12" y="775.1211"/><ellipse cx="706.607" cy="791.1211" fill="#ADD1B2" rx="11" ry="11" style="stroke:#181818;stroke-width:1;"/><path d="M709.3726,786.9961 Q709.5288,786.7773 709.7163,786.668 Q709.9038,786.5586 710.1226,786.5586 Q710.4976,786.5586 710.732,786.8242 Q710.9663,787.0742 710.9663,787.6836 L710.9663,789.1367 Q710.9663,789.7461 710.732,790.0117 Q710.4976,790.2773 710.1226,790.2773 Q709.7788,790.2773 709.5757,790.0742 Q709.3726,789.8867 709.2632,789.3711 Q709.2163,789.0117 709.0288,788.8242 Q708.7007,788.4492 708.0913,788.2305 Q707.482,788.0117 706.857,788.0117 Q706.0913,788.0117 705.4507,788.3398 Q704.8257,788.668 704.3257,789.418 Q703.8413,790.168 703.8413,791.1992 L703.8413,792.293 Q703.8413,793.5273 704.732,794.3555 Q705.6226,795.168 707.2163,795.168 Q708.1538,795.168 708.8101,794.918 Q709.2007,794.7617 709.6226,794.3242 Q709.8882,794.0586 710.0288,793.9805 Q710.1851,793.9023 710.3882,793.9023 Q710.7163,793.9023 710.9663,794.168 Q711.232,794.418 711.232,794.7617 Q711.232,795.1055 710.8882,795.5117 Q710.3882,796.0898 709.5913,796.418 Q708.5132,796.8711 707.2163,796.8711 Q705.7007,796.8711 704.4976,796.2461 Q703.5132,795.7461 702.8257,794.6836 Q702.1382,793.6055 702.1382,792.3242 L702.1382,791.168 Q702.1382,789.8398 702.7476,788.6992 Q703.3726,787.543 704.4663,786.9336 Q705.5601,786.3086 706.7945,786.3086 Q707.5288,786.3086 708.1695,786.4805 Q708.8257,786.6367 709.3726,786.9961 Z " fill="#000000"/><text fill="#000000" font-family="sans-serif" font-size="14" lengthAdjust="spacing" textLength="80.9307" x="726.2707" y="796.918">VaccineType</text><line style="stroke:#181818;stroke-width:0.5;" x1="667.12" x2="834.6884" y1="807.1211" y2="807.1211"/><text fill="#000000" font-family="sans-serif" font-size="14" lengthAdjust="spacing" textLength="104.6719" x="672.12" y="826.2285">+disease : String</text><text fill="#000000" font-family="sans-serif" font-size="14" lengthAdjust="spacing" textLength="157.5684" x="672.12" y="844.8496">+shortDescription : String</text></g><!--class Vaccine--><g class="entity" data-entity="Vaccine" data-source-line="58" data-uid="ent0020" id="entity_Vaccine"><rect fill="#F1F1F1" height="95.8633" rx="2.5" ry="2.5" style="stroke:#181818;stroke-width:0.5;" width="177.3271" x="444.62" y="949.6211"/><ellipse cx="504.1303" cy="965.6211" fill="#ADD1B2" rx="11" ry="11" style="stroke:#181818;stroke-width:1;"/><path d="M506.8959,961.4961 Q507.0521,961.2773 507.2396,961.168 Q507.4271,961.0586 507.6459,961.0586 Q508.0209,961.0586 508.2553,961.3242 Q508.4896,961.5742 508.4896,962.1836 L508.4896,963.6367 Q508.4896,964.2461 508.2553,964.5117 Q508.0209,964.7773 507.6459,964.7773 Q507.3021,964.7773 507.099,964.5742 Q506.8959,964.3867 506.7865,963.8711 Q506.7396,963.5117 506.5521,963.3242 Q506.224,962.9492 505.6146,962.7305 Q505.0053,962.5117 504.3803,962.5117 Q503.6146,962.5117 502.974,962.8398 Q502.349,963.168 501.849,963.918 Q501.3646,964.668 501.3646,965.6992 L501.3646,966.793 Q501.3646,968.0273 502.2553,968.8555 Q503.1459,969.668 504.7396,969.668 Q505.6771,969.668 506.3334,969.418 Q506.724,969.2617 507.1459,968.8242 Q507.4115,968.5586 507.5521,968.4805 Q507.7084,968.4023 507.9115,968.4023 Q508.2396,968.4023 508.4896,968.668 Q508.7553,968.918 508.7553,969.2617 Q508.7553,969.6055 508.4115,970.0117 Q507.9115,970.5898 507.1146,970.918 Q506.0365,971.3711 504.7396,971.3711 Q503.224,971.3711 502.0209,970.7461 Q501.0365,970.2461 500.349,969.1836 Q499.6615,968.1055 499.6615,966.8242 L499.6615,965.668 Q499.6615,964.3398 500.2709,963.1992 Q500.8959,962.043 501.9896,961.4336 Q503.0834,960.8086 504.3178,960.8086 Q505.0521,960.8086 505.6928,960.9805 Q506.349,961.1367 506.8959,961.4961 Z " fill="#000000"/><text fill="#000000" font-family="sans-serif" font-size="14" lengthAdjust="spacing" textLength="49.8066" x="524.6303" y="971.418">Vaccine</text><line style="stroke:#181818;stroke-width:0.5;" x1="445.62" x2="620.9471" y1="981.6211" y2="981.6211"/><text fill="#000000" font-family="sans-serif" font-size="14" lengthAdjust="spacing" textLength="165.3271" x="450.62" y="1000.7285">+commercialName : String</text><text fill="#000000" font-family="sans-serif" font-size="14" lengthAdjust="spacing" textLength="92.2236" x="450.62" y="1019.3496">+brand : String</text><text fill="#000000" font-family="sans-serif" font-size="14" lengthAdjust="spacing" textLength="156.8164" x="450.62" y="1037.9707">+technologyUsed : String</text></g><!--class AppointmentStatus--><g class="entity" data-entity="AppointmentStatus" data-source-line="68" data-uid="ent0022" id="entity_AppointmentStatus"><rect fill="#F1F1F1" height="170.3477" rx="2.5" ry="2.5" style="stroke:#181818;stroke-width:0.5;" width="150.2959" x="972.12" y="46.6211"/><ellipse cx="987.12" cy="62.6211" fill="#EB937F" rx="11" ry="11" style="stroke:#181818;stroke-width:1;"/><path d="M985.9794,63.418 L985.9794,65.918 L990.3075,65.918 L990.3075,64.9961 Q990.3075,64.3867 990.5419,64.1211 Q990.7919,63.8555 991.1669,63.8555 Q991.5419,63.8555 991.7763,64.1211 Q992.0106,64.3867 992.0106,64.9961 L992.0106,67.6211 L984.0106,67.6211 Q983.3856,67.6211 983.12,67.3867 Q982.87,67.1523 982.87,66.7617 Q982.87,66.3867 983.1356,66.1523 Q983.4013,65.918 984.0106,65.918 L984.2763,65.918 L984.2763,59.2617 L984.0106,59.2617 Q983.3856,59.2617 983.12,59.0273 Q982.87,58.793 982.87,58.4023 Q982.87,58.0273 983.12,57.793 Q983.3856,57.5586 984.0106,57.5586 L991.6356,57.5586 L991.6356,60.1523 Q991.6356,60.7617 991.4013,61.0273 Q991.1825,61.2773 990.7919,61.2773 Q990.4169,61.2773 990.1825,61.0273 Q989.9481,60.7617 989.9481,60.1523 L989.9481,59.2617 L985.9794,59.2617 L985.9794,61.7148 L987.4638,61.7148 Q987.4638,61.0586 987.5888,60.8711 Q987.8544,60.4648 988.3231,60.4648 Q988.6981,60.4648 988.9325,60.7305 Q989.1669,60.9805 989.1669,61.5898 L989.1669,63.5586 Q989.1669,64.1055 989.0419,64.293 Q988.7763,64.6836 988.3231,64.6836 Q987.8544,64.6836 987.5888,64.2773 Q987.4638,64.0898 987.4638,63.418 L985.9794,63.418 Z " fill="#000000"/><text fill="#000000" font-family="sans-serif" font-size="14" lengthAdjust="spacing" textLength="118.2959" x="1001.12" y="68.418">AppointmentStatus</text><line style="stroke:#181818;stroke-width:0.5;" x1="973.12" x2="1121.4159" y1="78.6211" y2="78.6211"/><text fill="#000000" font-family="sans-serif" font-size="14" lengthAdjust="spacing" textLength="66.165" x="978.12" y="97.7285">Scheduled</text><text fill="#000000" font-family="sans-serif" font-size="14" lengthAdjust="spacing" textLength="44.3447" x="978.12" y="116.3496">Arrived</text><text fill="#000000" font-family="sans-serif" font-size="14" lengthAdjust="spacing" textLength="40.4688" x="978.12" y="134.9707">Ready</text><text fill="#000000" font-family="sans-serif" font-size="14" lengthAdjust="spacing" textLength="67.6963" x="978.12" y="153.5918">InProgress</text><text fill="#000000" font-family="sans-serif" font-size="14" lengthAdjust="spacing" textLength="69.2686" x="978.12" y="172.2129">Vaccinated</text><text fill="#000000" font-family="sans-serif" font-size="14" lengthAdjust="spacing" textLength="62.2617" x="978.12" y="190.834">Cancelled</text><text fill="#000000" font-family="sans-serif" font-size="14" lengthAdjust="spacing" textLength="52.917" x="978.12" y="209.4551">NoShow</text></g><!--class Appointment--><g class="entity" data-entity="Appointment" data-source-line="78" data-uid="ent0023" id="entity_Appointment"><rect fill="#F1F1F1" height="114.4844" rx="2.5" ry="2.5" style="stroke:#181818;stroke-width:0.5;" width="191.3271" x="496.62" y="295.6211"/><ellipse cx="548.7304" cy="311.6211" fill="#ADD1B2" rx="11" ry="11" style="stroke:#181818;stroke-width:1;"/><path d="M551.496,307.4961 Q551.6522,307.2773 551.8397,307.168 Q552.0272,307.0586 552.246,307.0586 Q552.621,307.0586 552.8554,307.3242 Q553.0897,307.5742 553.0897,308.1836 L553.0897,309.6367 Q553.0897,310.2461 552.8554,310.5117 Q552.621,310.7773 552.246,310.7773 Q551.9022,310.7773 551.6991,310.5742 Q551.496,310.3867 551.3866,309.8711 Q551.3397,309.5117 551.1522,309.3242 Q550.8241,308.9492 550.2147,308.7305 Q549.6054,308.5117 548.9804,308.5117 Q548.2147,308.5117 547.5741,308.8398 Q546.9491,309.168 546.4491,309.918 Q545.9647,310.668 545.9647,311.6992 L545.9647,312.793 Q545.9647,314.0273 546.8554,314.8555 Q547.746,315.668 549.3397,315.668 Q550.2772,315.668 550.9335,315.418 Q551.3241,315.2617 551.746,314.8242 Q552.0116,314.5586 552.1522,314.4805 Q552.3085,314.4023 552.5116,314.4023 Q552.8397,314.4023 553.0897,314.668 Q553.3554,314.918 553.3554,315.2617 Q553.3554,315.6055 553.0116,316.0117 Q552.5116,316.5898 551.7147,316.918 Q550.6366,317.3711 549.3397,317.3711 Q547.8241,317.3711 546.621,316.7461 Q545.6366,316.2461 544.9491,315.1836 Q544.2616,314.1055 544.2616,312.8242 L544.2616,311.668 Q544.2616,310.3398 544.871,309.1992 Q545.496,308.043 546.5897,307.4336 Q547.6835,306.8086 548.9179,306.8086 Q549.6522,306.8086 550.2929,306.9805 Q550.9491,307.1367 551.496,307.4961 Z " fill="#000000"/><text fill="#000000" font-family="sans-serif" font-size="14" lengthAdjust="spacing" textLength="78.6064" x="569.2304" y="317.418">Appointment</text><line style="stroke:#181818;stroke-width:0.5;" x1="497.62" x2="686.9471" y1="327.6211" y2="327.6211"/><text fill="#000000" font-family="sans-serif" font-size="14" lengthAdjust="spacing" textLength="76.665" x="502.62" y="346.7285">+date : Date</text><text fill="#000000" font-family="sans-serif" font-size="14" lengthAdjust="spacing" textLength="77.4033" x="502.62" y="365.3496">+time : Time</text><text fill="#000000" font-family="sans-serif" font-size="14" lengthAdjust="spacing" textLength="175.4922" x="502.62" y="383.9707">+status : AppointmentStatus</text><text fill="#000000" font-family="sans-serif" font-size="14" lengthAdjust="spacing" textLength="179.3271" x="502.62" y="402.5918">+arrivalDateTime : DateTime</text></g><!--class VaccinationEvent--><g class="entity" data-entity="VaccinationEvent" data-source-line="86" data-uid="ent0024" id="entity_VaccinationEvent"><rect fill="#F1F1F1" height="77.2422" rx="2.5" ry="2.5" style="stroke:#181818;stroke-width:0.5;" width="240.3613" x="290.12" y="544.6211"/><ellipse cx="351.9613" cy="560.6211" fill="#ADD1B2" rx="11" ry="11" style="stroke:#181818;stroke-width:1;"/><path d="M354.7269,556.4961 Q354.8832,556.2773 355.0707,556.168 Q355.2582,556.0586 355.4769,556.0586 Q355.8519,556.0586 356.0863,556.3242 Q356.3207,556.5742 356.3207,557.1836 L356.3207,558.6367 Q356.3207,559.2461 356.0863,559.5117 Q355.8519,559.7773 355.4769,559.7773 Q355.1332,559.7773 354.9301,559.5742 Q354.7269,559.3867 354.6176,558.8711 Q354.5707,558.5117 354.3832,558.3242 Q354.0551,557.9492 353.4457,557.7305 Q352.8363,557.5117 352.2113,557.5117 Q351.4457,557.5117 350.8051,557.8398 Q350.1801,558.168 349.6801,558.918 Q349.1957,559.668 349.1957,560.6992 L349.1957,561.793 Q349.1957,563.0273 350.0863,563.8555 Q350.9769,564.668 352.5707,564.668 Q353.5082,564.668 354.1644,564.418 Q354.5551,564.2617 354.9769,563.8242 Q355.2426,563.5586 355.3832,563.4805 Q355.5394,563.4023 355.7426,563.4023 Q356.0707,563.4023 356.3207,563.668 Q356.5863,563.918 356.5863,564.2617 Q356.5863,564.6055 356.2426,565.0117 Q355.7426,565.5898 354.9457,565.918 Q353.8676,566.3711 352.5707,566.3711 Q351.0551,566.3711 349.8519,565.7461 Q348.8676,565.2461 348.1801,564.1836 Q347.4926,563.1055 347.4926,561.8242 L347.4926,560.668 Q347.4926,559.3398 348.1019,558.1992 Q348.7269,557.043 349.8207,556.4336 Q350.9144,555.8086 352.1488,555.8086 Q352.8832,555.8086 353.5238,555.9805 Q354.1801,556.1367 354.7269,556.4961 Z " fill="#000000"/><text fill="#000000" font-family="sans-serif" font-size="14" lengthAdjust="spacing" textLength="108.1787" x="372.4613" y="566.418">VaccinationEvent</text><line style="stroke:#181818;stroke-width:0.5;" x1="291.12" x2="529.4813" y1="576.6211" y2="576.6211"/><text fill="#000000" font-family="sans-serif" font-size="14" lengthAdjust="spacing" textLength="120.9961" x="296.12" y="595.7285">+lotNumber : String</text><text fill="#000000" font-family="sans-serif" font-size="14" lengthAdjust="spacing" textLength="228.3613" x="296.12" y="614.3496">+administrationDateTime : DateTime</text></g><!--class AdverseReaction--><g class="entity" data-entity="AdverseReaction" data-source-line="92" data-uid="ent0025" id="entity_AdverseReaction"><rect fill="#F1F1F1" height="114.4844" rx="2.5" ry="2.5" style="stroke:#181818;stroke-width:0.5;" width="163.3477" x="270.62" y="756.6211"/><ellipse cx="296.7505" cy="772.6211" fill="#ADD1B2" rx="11" ry="11" style="stroke:#181818;stroke-width:1;"/><path d="M299.5161,768.4961 Q299.6723,768.2773 299.8598,768.168 Q300.0473,768.0586 300.2661,768.0586 Q300.6411,768.0586 300.8755,768.3242 Q301.1098,768.5742 301.1098,769.1836 L301.1098,770.6367 Q301.1098,771.2461 300.8755,771.5117 Q300.6411,771.7773 300.2661,771.7773 Q299.9223,771.7773 299.7192,771.5742 Q299.5161,771.3867 299.4067,770.8711 Q299.3598,770.5117 299.1723,770.3242 Q298.8442,769.9492 298.2348,769.7305 Q297.6255,769.5117 297.0005,769.5117 Q296.2348,769.5117 295.5942,769.8398 Q294.9692,770.168 294.4692,770.918 Q293.9848,771.668 293.9848,772.6992 L293.9848,773.793 Q293.9848,775.0273 294.8755,775.8555 Q295.7661,776.668 297.3598,776.668 Q298.2973,776.668 298.9536,776.418 Q299.3442,776.2617 299.7661,775.8242 Q300.0317,775.5586 300.1723,775.4805 Q300.3286,775.4023 300.5317,775.4023 Q300.8598,775.4023 301.1098,775.668 Q301.3755,775.918 301.3755,776.2617 Q301.3755,776.6055 301.0317,777.0117 Q300.5317,777.5898 299.7348,777.918 Q298.6567,778.3711 297.3598,778.3711 Q295.8442,778.3711 294.6411,777.7461 Q293.6567,777.2461 292.9692,776.1836 Q292.2817,775.1055 292.2817,773.8242 L292.2817,772.668 Q292.2817,771.3398 292.8911,770.1992 Q293.5161,769.043 294.6098,768.4336 Q295.7036,767.8086 296.938,767.8086 Q297.6723,767.8086 298.313,767.9805 Q298.9692,768.1367 299.5161,768.4961 Z " fill="#000000"/><text fill="#000000" font-family="sans-serif" font-size="14" lengthAdjust="spacing" textLength="106.6133" x="313.2239" y="778.418">AdverseReaction</text><line style="stroke:#181818;stroke-width:0.5;" x1="271.62" x2="432.9677" y1="788.6211" y2="788.6211"/><text fill="#000000" font-family="sans-serif" font-size="14" lengthAdjust="spacing" textLength="124.1201" x="276.62" y="807.7285">+description : String</text><text fill="#000000" font-family="sans-serif" font-size="14" lengthAdjust="spacing" textLength="104.6514" x="276.62" y="826.3496">+severity : String</text><text fill="#000000" font-family="sans-serif" font-size="14" lengthAdjust="spacing" textLength="151.3477" x="276.62" y="844.9707">+observedAt : DateTime</text><text fill="#000000" font-family="sans-serif" font-size="14" lengthAdjust="spacing" textLength="90.665" x="276.62" y="863.5918">+notes : String</text></g><!--class VaccinationCertificate--><g class="entity" data-entity="VaccinationCertificate" data-source-line="100" data-uid="ent0026" id="entity_VaccinationCertificate"><rect fill="#F1F1F1" height="58.6211" rx="2.5" ry="2.5" style="stroke:#181818;stroke-width:0.5;" width="167.3994" x="68.62" y="784.1211"/><ellipse cx="83.62" cy="800.1211" fill="#ADD1B2" rx="11" ry="11" style="stroke:#181818;stroke-width:1;"/><path d="M86.3856,795.9961 Q86.5419,795.7773 86.7294,795.668 Q86.9169,795.5586 87.1356,795.5586 Q87.5106,795.5586 87.745,795.8242 Q87.9794,796.0742 87.9794,796.6836 L87.9794,798.1367 Q87.9794,798.7461 87.745,799.0117 Q87.5106,799.2773 87.1356,799.2773 Q86.7919,799.2773 86.5888,799.0742 Q86.3856,798.8867 86.2763,798.3711 Q86.2294,798.0117 86.0419,797.8242 Q85.7138,797.4492 85.1044,797.2305 Q84.495,797.0117 83.87,797.0117 Q83.1044,797.0117 82.4638,797.3398 Q81.8388,797.668 81.3388,798.418 Q80.8544,799.168 80.8544,800.1992 L80.8544,801.293 Q80.8544,802.5273 81.745,803.3555 Q82.6356,804.168 84.2294,804.168 Q85.1669,804.168 85.8231,803.918 Q86.2138,803.7617 86.6356,803.3242 Q86.9013,803.0586 87.0419,802.9805 Q87.1981,802.9023 87.4013,802.9023 Q87.7294,802.9023 87.9794,803.168 Q88.245,803.418 88.245,803.7617 Q88.245,804.1055 87.9013,804.5117 Q87.4013,805.0898 86.6044,805.418 Q85.5263,805.8711 84.2294,805.8711 Q82.7138,805.8711 81.5106,805.2461 Q80.5263,804.7461 79.8388,803.6836 Q79.1513,802.6055 79.1513,801.3242 L79.1513,800.168 Q79.1513,798.8398 79.7606,797.6992 Q80.3856,796.543 81.4794,795.9336 Q82.5731,795.3086 83.8075,795.3086 Q84.5419,795.3086 85.1825,795.4805 Q85.8388,795.6367 86.3856,795.9961 Z " fill="#000000"/><text fill="#000000" font-family="sans-serif" font-size="14" lengthAdjust="spacing" textLength="135.3994" x="97.62" y="805.918">VaccinationCertificate</text><line style="stroke:#181818;stroke-width:0.5;" x1="69.62" x2="235.0194" y1="816.1211" y2="816.1211"/><text fill="#000000" font-family="sans-serif" font-size="14" lengthAdjust="spacing" textLength="111.6719" x="74.62" y="835.2285">+issueDate : Date</text></g><!--class Outbreak--><g class="entity" data-entity="Outbreak" data-source-line="106" data-uid="ent0027" id="entity_Outbreak"><rect fill="#F1F1F1" height="95.8633" rx="2.5" ry="2.5" style="stroke:#181818;stroke-width:0.5;" width="126.7959" x="687.62" y="535.1211"/><ellipse cx="719.3645" cy="551.1211" fill="#ADD1B2" rx="11" ry="11" style="stroke:#181818;stroke-width:1;"/><path d="M722.1301,546.9961 Q722.2864,546.7773 722.4739,546.668 Q722.6614,546.5586 722.8801,546.5586 Q723.2551,546.5586 723.4895,546.8242 Q723.7239,547.0742 723.7239,547.6836 L723.7239,549.1367 Q723.7239,549.7461 723.4895,550.0117 Q723.2551,550.2773 722.8801,550.2773 Q722.5364,550.2773 722.3332,550.0742 Q722.1301,549.8867 722.0207,549.3711 Q721.9739,549.0117 721.7864,548.8242 Q721.4582,548.4492 720.8489,548.2305 Q720.2395,548.0117 719.6145,548.0117 Q718.8489,548.0117 718.2082,548.3398 Q717.5832,548.668 717.0832,549.418 Q716.5989,550.168 716.5989,551.1992 L716.5989,552.293 Q716.5989,553.5273 717.4895,554.3555 Q718.3801,555.168 719.9739,555.168 Q720.9114,555.168 721.5676,554.918 Q721.9582,554.7617 722.3801,554.3242 Q722.6457,554.0586 722.7864,553.9805 Q722.9426,553.9023 723.1457,553.9023 Q723.4739,553.9023 723.7239,554.168 Q723.9895,554.418 723.9895,554.7617 Q723.9895,555.1055 723.6457,555.5117 Q723.1457,556.0898 722.3489,556.418 Q721.2707,556.8711 719.9739,556.8711 Q718.4582,556.8711 717.2551,556.2461 Q716.2707,555.7461 715.5832,554.6836 Q714.8957,553.6055 714.8957,552.3242 L714.8957,551.168 Q714.8957,549.8398 715.5051,548.6992 Q716.1301,547.543 717.2239,546.9336 Q718.3176,546.3086 719.552,546.3086 Q720.2864,546.3086 720.927,546.4805 Q721.5832,546.6367 722.1301,546.9961 Z " fill="#000000"/><text fill="#000000" font-family="sans-serif" font-size="14" lengthAdjust="spacing" textLength="57.5859" x="737.0855" y="556.918">Outbreak</text><line style="stroke:#181818;stroke-width:0.5;" x1="688.62" x2="813.4159" y1="567.1211" y2="567.1211"/><text fill="#000000" font-family="sans-serif" font-size="14" lengthAdjust="spacing" textLength="91.4375" x="693.62" y="586.2285">+name : String</text><text fill="#000000" font-family="sans-serif" font-size="14" lengthAdjust="spacing" textLength="106.2168" x="693.62" y="604.8496">+startDate : Date</text><text fill="#000000" font-family="sans-serif" font-size="14" lengthAdjust="spacing" textLength="114.7959" x="693.62" y="623.4707">+current : Boolean</text></g><!--reverse link StaffMember to Receptionist--><g class="link" data-entity-1="StaffMember" data-entity-2="Receptionist" data-source-line="27" data-uid="lnk5" id="link_StaffMember_Receptionist"><path d="M831.117,205.6138 C813.637,252.8838 795.89,300.8511 784.16,332.5711" fill="none" id="StaffMember-backto-Receptionist" style="stroke:#181818;stroke-width:1;"/><polygon fill="none" points="837.36,188.7311,825.4894,203.5327,836.7445,207.6948,837.36,188.7311" style="stroke:#181818;stroke-width:1;"/></g><!--reverse link StaffMember to Nurse--><g class="link" data-entity-1="StaffMember" data-entity-2="Nurse" data-source-line="28" data-uid="lnk7" id="link_StaffMember_Nurse"><path d="M762.0586,156.1509 C592.8186,197.6809 225.51,288.2811 213.12,295.6211 C197.48,304.8911 183.69,320.2711 174.24,332.5811" fill="none" id="StaffMember-backto-Nurse" style="stroke:#181818;stroke-width:1;"/><polygon fill="none" points="779.54,151.8611,760.6287,150.3237,763.4886,161.978,779.54,151.8611" style="stroke:#181818;stroke-width:1;"/></g><!--reverse link StaffMember to DGSAdministrator--><g class="link" data-entity-1="StaffMember" data-entity-2="DGSAdministrator" data-source-line="30" data-uid="lnk12" id="link_StaffMember_DGSAdministrator"><path d="M885.113,205.6138 C902.593,252.8838 920.34,300.8511 932.07,332.5711" fill="none" id="StaffMember-backto-DGSAdministrator" style="stroke:#181818;stroke-width:1;"/><polygon fill="none" points="878.87,188.7311,879.4855,207.6948,890.7406,203.5327,878.87,188.7311" style="stroke:#181818;stroke-width:1;"/></g><!--reverse link VaccinationCenter to HealthcareCenter--><g class="link" data-entity-1="VaccinationCenter" data-entity-2="HealthcareCenter" data-source-line="45" data-uid="lnk15" id="link_VaccinationCenter_HealthcareCenter"><path d="M1104.9742,690.352 C1148.7742,733.492 1183.87,768.0611 1209.81,793.6111" fill="none" id="VaccinationCenter-backto-HealthcareCenter" style="stroke:#181818;stroke-width:1;"/><polygon fill="none" points="1092.15,677.7211,1100.7639,694.6268,1109.1845,686.0773,1092.15,677.7211" style="stroke:#181818;stroke-width:1;"/></g><!--reverse link VaccinationCenter to CommunityMassVaccinationCenter--><g class="link" data-entity-1="VaccinationCenter" data-entity-2="CommunityMassVaccinationCenter" data-source-line="46" data-uid="lnk17" id="link_VaccinationCenter_CommunityMassVaccinationCenter"><path d="M997.12,695.7211 C997.12,738.8611 997.12,768.0611 997.12,793.6111" fill="none" id="VaccinationCenter-backto-CommunityMassVaccinationCenter" style="stroke:#181818;stroke-width:1;"/><polygon fill="none" points="997.12,677.7211,991.12,695.7211,1003.12,695.7211,997.12,677.7211" style="stroke:#181818;stroke-width:1;"/></g><!--link VaccinationCenter to VaccineType--><g class="link" data-entity-1="VaccinationCenter" data-entity-2="VaccineType" data-source-line="49" data-uid="lnk19" id="link_VaccinationCenter_VaccineType"><path codeLine="49" d="M896.35,677.7211 C859.59,711.8611 820.1,748.5411 791.59,775.0311" fill="none" id="VaccinationCenter-VaccineType" style="stroke:#181818;stroke-width:1;"/><polygon fill="#000000" points="860.4566,720.6695,869.0839,716.6669,865.0836,712.3603,860.4566,720.6695" style="stroke:#000000;stroke-width:1;"/><text fill="#000000" font-family="sans-serif" font-size="13" lengthAdjust="spacing" textLength="49.8608" x="873.12" y="722.6494">supports</text><text fill="#000000" font-family="sans-serif" font-size="13" lengthAdjust="spacing" textLength="7.23" x="881.3827" y="699.6553">1</text><text fill="#000000" font-family="sans-serif" font-size="13" lengthAdjust="spacing" textLength="19.5127" x="777.9941" y="763.97">0..*</text></g><!--link VaccineType to Vaccine--><g class="link" data-entity-1="VaccineType" data-entity-2="Vaccine" data-source-line="65" data-uid="lnk21" id="link_VaccineType_Vaccine"><path codeLine="65" d="M705.95,852.3311 C672.15,880.5511 625.71,919.3211 589.48,949.5611" fill="none" id="VaccineType-Vaccine" style="stroke:#181818;stroke-width:1;"/><polygon fill="#000000" points="643.2817,913.4709,652.1087,909.9304,648.3419,905.4182,643.2817,913.4709" style="stroke:#000000;stroke-width:1;"/><text fill="#000000" font-family="sans-serif" font-size="13" lengthAdjust="spacing" textLength="78.7744" x="656.12" y="915.6494">has brands of</text><text fill="#000000" font-family="sans-serif" font-size="13" lengthAdjust="spacing" textLength="7.23" x="690.6417" y="874.4778">1</text><text fill="#000000" font-family="sans-serif" font-size="13" lengthAdjust="spacing" textLength="19.5127" x="577.3762" y="938.3136">1..*</text></g><!--link SNSUser to Appointment--><g class="link" data-entity-1="SNSUser" data-entity-2="Appointment" data-source-line="114" data-uid="lnk28" id="link_SNSUser_Appointment"><path codeLine="114" d="M475.03,216.6611 C497.95,243.0811 522.68,271.5911 543.49,295.5711" fill="none" id="SNSUser-Appointment" style="stroke:#181818;stroke-width:1;"/><polygon fill="#000000" points="523.3966,260.0434,519.6891,251.2852,515.2493,255.1371,523.3966,260.0434" style="stroke:#000000;stroke-width:1;"/><text fill="#000000" font-family="sans-serif" font-size="13" lengthAdjust="spacing" textLength="58.5381" x="529.12" y="261.6494">schedules</text><text fill="#000000" font-family="sans-serif" font-size="13" lengthAdjust="spacing" textLength="7.23" x="474.2115" y="239.0178">1</text><text fill="#000000" font-family="sans-serif" font-size="13" lengthAdjust="spacing" textLength="19.5127" x="517.054" y="284.1884">0..*</text></g><!--link Appointment to VaccinationCenter--><g class="link" data-entity-1="Appointment" data-entity-2="VaccinationCenter" data-source-line="115" data-uid="lnk29" id="link_Appointment_VaccinationCenter"><path codeLine="115" d="M687.63,407.2611 C731.64,431.9911 784.55,461.7711 832.12,488.6211 C851.33,499.4711 871.78,511.0411 891.52,522.2211" fill="none" id="Appointment-VaccinationCenter" style="stroke:#181818;stroke-width:1;"/><polygon fill="#000000" points="781.4754,451.7223,775.0398,444.7198,772.153,449.8399,781.4754,451.7223" style="stroke:#000000;stroke-width:1;"/><text fill="#000000" font-family="sans-serif" font-size="13" lengthAdjust="spacing" textLength="10.8418" x="786.12" y="454.6494">at</text><text fill="#000000" font-family="sans-serif" font-size="13" lengthAdjust="spacing" textLength="19.5127" x="696.0054" y="407.9585">0..*</text><text fill="#000000" font-family="sans-serif" font-size="13" lengthAdjust="spacing" textLength="7.23" x="876.5232" y="514.1647">1</text></g><!--link Appointment to VaccineType--><g class="link" data-entity-1="Appointment" data-entity-2="VaccineType" data-source-line="116" data-uid="lnk30" id="link_Appointment_VaccineType"><path codeLine="116" d="M587.85,409.6811 C585.03,476.5511 587.55,590.2611 627.12,677.6211 C644.38,715.7411 676.63,750.3211 703.91,774.9411" fill="none" id="Appointment-VaccineType" style="stroke:#181818;stroke-width:1;"/><polygon fill="#000000" points="633.6341,588.0318,633.696,578.5215,628.0941,580.3014,633.6341,588.0318" style="stroke:#000000;stroke-width:1;"/><text fill="#000000" font-family="sans-serif" font-size="13" lengthAdjust="spacing" textLength="28.1709" x="641.12" y="588.6494">is for</text><text fill="#000000" font-family="sans-serif" font-size="13" lengthAdjust="spacing" textLength="19.5127" x="567.0976" y="432.0969">0..*</text><text fill="#000000" font-family="sans-serif" font-size="13" lengthAdjust="spacing" textLength="7.23" x="688.2511" y="763.8645">1</text></g><!--link Appointment to VaccinationEvent--><g class="link" data-entity-1="Appointment" data-entity-2="VaccinationEvent" data-source-line="118" data-uid="lnk31" id="link_Appointment_VaccinationEvent"><path codeLine="118" d="M537.71,410.0711 C528.94,419.7411 520.12,429.8311 512.12,439.6211 C484.1,473.8911 454.98,515.2411 435.06,544.5511" fill="none" id="Appointment-VaccinationEvent" style="stroke:#181818;stroke-width:1;"/><polygon fill="#000000" points="514.0863,453.2411,521.9105,447.8344,517.2382,444.268,514.0863,453.2411" style="stroke:#000000;stroke-width:1;"/><text fill="#000000" font-family="sans-serif" font-size="13" lengthAdjust="spacing" textLength="52.019" x="526.12" y="454.6494">results in</text><text fill="#000000" font-family="sans-serif" font-size="13" lengthAdjust="spacing" textLength="7.23" x="523.6463" y="432.1253">1</text><text fill="#000000" font-family="sans-serif" font-size="13" lengthAdjust="spacing" textLength="21.6836" x="416.5696" y="533.4935">0..1</text></g><!--link VaccinationEvent to Vaccine--><g class="link" data-entity-1="VaccinationEvent" data-entity-2="Vaccine" data-source-line="119" data-uid="lnk32" id="link_VaccinationEvent_Vaccine"><path codeLine="119" d="M422.7,621.8511 C430.75,646.2511 441.29,678.7411 450.12,707.6211 C476.04,792.4911 504.13,892.0911 520.09,949.4211" fill="none" id="VaccinationEvent-Vaccine" style="stroke:#181818;stroke-width:1;"/><polygon fill="#000000" points="504.5449,818.5593,504.7843,809.0517,499.1502,810.7268,504.5449,818.5593" style="stroke:#000000;stroke-width:1;"/><text fill="#000000" font-family="sans-serif" font-size="13" lengthAdjust="spacing" textLength="112.0044" x="512.12" y="819.1494">records brand/lot of</text><text fill="#000000" font-family="sans-serif" font-size="13" lengthAdjust="spacing" textLength="19.5127" x="404.2424" y="644.0013">0..*</text><text fill="#000000" font-family="sans-serif" font-size="13" lengthAdjust="spacing" textLength="7.23" x="510.7586" y="938.5061">1</text></g><!--link VaccinationEvent to AdverseReaction--><g class="link" data-entity-1="VaccinationEvent" data-entity-2="AdverseReaction" data-source-line="120" data-uid="lnk33" id="link_VaccinationEvent_AdverseReaction"><path codeLine="120" d="M400.54,621.8511 C391.24,658.4911 377.01,714.5411 366.38,756.4311" fill="none" id="VaccinationEvent-AdverseReaction" style="stroke:#181818;stroke-width:1;"/><polygon fill="#000000" points="381.8899,722.1129,386.9638,714.0689,381.2666,712.6228,381.8899,722.1129" style="stroke:#000000;stroke-width:1;"/><text fill="#000000" font-family="sans-serif" font-size="13" lengthAdjust="spacing" textLength="49.8608" x="392.12" y="722.6494">captures</text><text fill="#000000" font-family="sans-serif" font-size="13" lengthAdjust="spacing" textLength="7.23" x="391.2806" y="644.0013">1</text><text fill="#000000" font-family="sans-serif" font-size="13" lengthAdjust="spacing" textLength="19.5127" x="347.9702" y="745.4417">0..*</text></g><!--link SNSUser to VaccinationCertificate--><g class="link" data-entity-1="SNSUser" data-entity-2="VaccinationCertificate" data-source-line="122" data-uid="lnk34" id="link_SNSUser_VaccinationCertificate"><path codeLine="122" d="M307.77,159.0711 C240.6,183.1511 154.49,225.8411 109.12,295.6211 C6,454.1811 101,700.5011 138.46,783.9011" fill="none" id="SNSUser-VaccinationCertificate" style="stroke:#181818;stroke-width:1;"/><polygon fill="#000000" points="67.8123,454.0926,73.0146,446.131,67.3413,444.5937,67.8123,454.0926" style="stroke:#000000;stroke-width:1;"/><text fill="#000000" font-family="sans-serif" font-size="13" lengthAdjust="spacing" textLength="41.9199" x="78.12" y="454.6494">obtains</text><text fill="#000000" font-family="sans-serif" font-size="13" lengthAdjust="spacing" textLength="7.23" x="292.9723" y="157.6072">1</text><text fill="#000000" font-family="sans-serif" font-size="13" lengthAdjust="spacing" textLength="19.5127" x="114.4061" y="772.6421">0..*</text></g><!--link VaccinationEvent to VaccinationCertificate--><g class="link" data-entity-1="VaccinationEvent" data-entity-2="VaccinationCertificate" data-source-line="123" data-uid="lnk35" id="link_VaccinationEvent_VaccinationCertificate"><path codeLine="123" d="M367.51,621.8511 C316.13,667.3611 230.91,742.8411 184.56,783.8911" fill="none" id="VaccinationEvent-VaccinationCertificate" style="stroke:#181818;stroke-width:1;"/><polygon fill="#000000" points="267.377,720.5818,276.0967,716.7846,272.1995,712.3845,267.377,720.5818" style="stroke:#000000;stroke-width:1;"/><text fill="#000000" font-family="sans-serif" font-size="13" lengthAdjust="spacing" textLength="63.5908" x="280.12" y="722.6494">documents</text><text fill="#000000" font-family="sans-serif" font-size="13" lengthAdjust="spacing" textLength="7.23" x="352.5736" y="644.0013">1</text><text fill="#000000" font-family="sans-serif" font-size="13" lengthAdjust="spacing" textLength="7.23" x="183.8721" y="772.6299">1</text></g><!--link Nurse to VaccinationEvent--><g class="link" data-entity-1="Nurse" data-entity-2="VaccinationEvent" data-source-line="124" data-uid="lnk36" id="link_Nurse_VaccinationEvent"><path codeLine="124" d="M177.98,372.7511 C187.93,383.7911 200.93,397.7911 213.12,409.6211 C263.01,458.0811 323.63,510.2311 364.34,544.3511" fill="none" id="Nurse-VaccinationEvent" style="stroke:#181818;stroke-width:1;"/><polygon fill="#000000" points="269.7982,452.6535,265.135,444.3646,261.1535,448.6886,269.7982,452.6535" style="stroke:#000000;stroke-width:1;"/><text fill="#000000" font-family="sans-serif" font-size="13" lengthAdjust="spacing" textLength="66.4663" x="275.12" y="454.6494">administers</text><text fill="#000000" font-family="sans-serif" font-size="13" lengthAdjust="spacing" textLength="7.23" x="174.5551" y="394.5128">1</text><text fill="#000000" font-family="sans-serif" font-size="13" lengthAdjust="spacing" textLength="19.5127" x="335.8518" y="533.2591">0..*</text></g><!--link Nurse to VaccinationCertificate--><g class="link" data-entity-1="Nurse" data-entity-2="VaccinationCertificate" data-source-line="125" data-uid="lnk37" id="link_Nurse_VaccinationCertificate"><path codeLine="125" d="M160.74,372.7611 C159.33,444.5311 154.36,697.9411 152.68,783.8711" fill="none" id="Nurse-VaccinationCertificate" style="stroke:#181818;stroke-width:1;"/><polygon fill="#000000" points="164.022,588.2656,167.1377,579.2799,161.2609,579.1647,164.022,588.2656" style="stroke:#000000;stroke-width:1;"/><text fill="#000000" font-family="sans-serif" font-size="13" lengthAdjust="spacing" textLength="79.479" x="173.12" y="588.6494">issues on-site</text><text fill="#000000" font-family="sans-serif" font-size="13" lengthAdjust="spacing" textLength="7.23" x="152.6818" y="394.5255">1</text><text fill="#000000" font-family="sans-serif" font-size="13" lengthAdjust="spacing" textLength="19.5127" x="131.8478" y="773.0794">0..*</text></g><!--link StaffMember to VaccinationCenter--><g class="link" data-entity-1="StaffMember" data-entity-2="VaccinationCenter" data-source-line="127" data-uid="lnk38" id="link_StaffMember_VaccinationCenter"><path codeLine="127" d="M921.96,189.0011 C968.06,230.4311 1023.2,281.8111 1029.12,295.6211 C1055.13,356.3511 1045.81,430.6211 1030.67,488.3311" fill="none" id="StaffMember-VaccinationCenter" style="stroke:#181818;stroke-width:1;"/><polygon fill="#000000" points="1051.8268,357.4663,1051.5016,347.9613,1045.9768,349.9677,1051.8268,357.4663" style="stroke:#000000;stroke-width:1;"/><text fill="#000000" font-family="sans-serif" font-size="13" lengthAdjust="spacing" textLength="48.4009" x="1059.12" y="358.1494">works at</text><text fill="#000000" font-family="sans-serif" font-size="13" lengthAdjust="spacing" textLength="19.5127" x="909.6058" y="211.0468">0..*</text><text fill="#000000" font-family="sans-serif" font-size="13" lengthAdjust="spacing" textLength="19.5127" x="1013.538" y="477.4636">0..*</text></g><!--link Outbreak to VaccineType--><g class="link" data-entity-1="Outbreak" data-entity-2="VaccineType" data-source-line="129" data-uid="lnk39" id="link_Outbreak_VaccineType"><path codeLine="129" d="M751.12,631.1911 C751.12,673.7811 751.12,735.6911 751.12,775.0511" fill="none" id="Outbreak-VaccineType" style="stroke:#181818;stroke-width:1;"/><polygon fill="#000000" points="756.12,722.2666,759.0589,713.2215,753.1811,713.2215,756.12,722.2666" style="stroke:#000000;stroke-width:1;"/><text fill="#000000" font-family="sans-serif" font-size="13" lengthAdjust="spacing" textLength="58.5317" x="765.12" y="722.6494">defaultFor</text><text fill="#000000" font-family="sans-serif" font-size="13" lengthAdjust="spacing" textLength="21.6836" x="728.7687" y="652.8497">0..1</text><text fill="#000000" font-family="sans-serif" font-size="13" lengthAdjust="spacing" textLength="7.23" x="743.5753" y="763.9935">1</text></g><!--SRC=[jLPBRziu4BxhLmnyQ84kqZPN0nj0ZRlR7E86TTgUQN9i4P58WnpciOlzxpia9KUo9Q70OdsnHCxpcszcH9fgXBiVjnkuW9LjX3PmQnNMHL5fXT0WLLRvmZzeSn1ED21huNr9vFGs4Dv8QpRwBuIFHV4MVX_xmMQzWUyUdH-_BvB5A1M5uE-Y0FWDZ6WGbh1XFsQVJfGW_Bhxf1rLVB7YjtJiyNaeTx2UH5qgvP3D3gygQqwi8gTS3u-a9ix8N0kdrg7PSap7wtzciYInsqraABQUd92KXMun6PrCz3ybm15cFB-Xn0DfQxGdm6T2etpVVoks3ixZwBsnXE3qlYAmkrPk2MLWGZZ6Hm5P45B667UXhg52KNDfk4oYjRtwSrEgHiS8d23hHjrC0dgDXgP9SuJq1yUWZOYPPet_2TXuz8HRh-b4hX7FEGRqT-Y-s13vSiEHx3cxA60FQ5WutaIlzxh9p9MrzQVdn_9zIMXAuR3DgiFkBDzMuTesJJ2QNcxvxHoKQNKkmCzAomeUSnP0BmVq841cJIaCYBQCB7vkUd6vW8iBM7ny__xTedM0zso4a_BXSB2EF5nD5xf3RtOyzCss1LRQe_0drV3CJbgXbqudzezqHckgCoCPE7HIYtfznfYj4qODZmXbPMnjzoyyhjJ0V3_63fJBFYWiNGcVhVhOLJEeb0oSDjGmnXxUmEV7z30E4PhGz1MuloXuJX1W8ojKeKR5pwLp-Z4zVKEXNlZ_njmvku_jm2zTPPF4jJ0IwwotjflAFhq2sFDqh8L8RN6SogGJb4Uk-npHyZpAT2rYPAAEwlTPitiyBLiYNWAZSrrREXtJoUJhv66DMSkbUkH1WmoAJ9JfSXfZKLuvBC-TDZorMrvV36z9VITf4l4azPD4R5l9aTvf6M5itMll0wvwkCuidw-1jWx50to05Uv4g6c-cuxoaxEI2yPzT59L6PoBo2_XaxKr2ZCNK-czvQwAsKq5q-tyuGJfquidI4lWE4BwDwrmwh75o1POWg1VKEa6bUOjnXkA6tAWyHhOq4bcu1AuTHBO_DbqLPpTZpfCMj8wrGw23qpWF0lEzOUudD1qoQFvGC4bQ2QmdA3OajbA_AtdvxnUpgWhAqCUJLT5_ZIOzDj1zRf3Va5fw2sr0WzCSv7MRyoszo7LGtd4Jak69-iUVAP4SMH_MzTHGgZSHtz4KlmB]--></g></svg>