<svg xmlns="http://www.w3.org/2000/svg" xmlns:xlink="http://www.w3.org/1999/xlink" contentStyleType="text/css" data-diagram-type="CLASS" height="1501px" preserveAspectRatio="none" style="width:1613px;height:1501px;background:#FFFFFF;" version="1.1" viewBox="0 0 1613 1501" width="1613px" zoomAndPan="magnify"><title>PVMS - Domain Model</title><defs/><g><g class="title" data-source-line="1"><text fill="#000000" font-family="sans-serif" font-size="14" font-weight="bold" lengthAdjust="spacing" textLength="147.7861" x="726.0322" y="25.1074">PVMS - Domain Model</text></g><!--class SNSUser--><g class="entity" data-entity="SNSUser" data-source-line="7" data-uid="ent0002" id="entity_SNSUser"><rect fill="#F1F1F1" height="188.9688" rx="2.5" ry="2.5" style="stroke:#181818;stroke-width:0.5;" width="243.5195" x="649" y="476.6211"/><ellipse cx="737.3374" cy="492.6211" fill="#ADD1B2" rx="11" ry="11" style="stroke:#181818;stroke-width:1;"/><path d="M740.103,488.4961 Q740.2593,488.2773 740.4468,488.168 Q740.6343,488.0586 740.853,488.0586 Q741.228,488.0586 741.4624,488.3242 Q741.6968,488.5742 741.6968,489.1836 L741.6968,490.6367 Q741.6968,491.2461 741.4624,491.5117 Q741.228,491.7773 740.853,491.7773 Q740.5093,491.7773 740.3062,491.5742 Q740.103,491.3867 739.9937,490.8711 Q739.9468,490.5117 739.7593,490.3242 Q739.4312,489.9492 738.8218,489.7305 Q738.2124,489.5117 737.5874,489.5117 Q736.8218,489.5117 736.1812,489.8398 Q735.5562,490.168 735.0562,490.918 Q734.5718,491.668 734.5718,492.6992 L734.5718,493.793 Q734.5718,495.0273 735.4624,495.8555 Q736.353,496.668 737.9468,496.668 Q738.8843,496.668 739.5405,496.418 Q739.9312,496.2617 740.353,495.8242 Q740.6187,495.5586 740.7593,495.4805 Q740.9155,495.4023 741.1187,495.4023 Q741.4468,495.4023 741.6968,495.668 Q741.9624,495.918 741.9624,496.2617 Q741.9624,496.6055 741.6187,497.0117 Q741.1187,497.5898 740.3218,497.918 Q739.2437,498.3711 737.9468,498.3711 Q736.4312,498.3711 735.228,497.7461 Q734.2437,497.2461 733.5562,496.1836 Q732.8687,495.1055 732.8687,493.8242 L732.8687,492.668 Q732.8687,491.3398 733.478,490.1992 Q734.103,489.043 735.1968,488.4336 Q736.2905,487.8086 737.5249,487.8086 Q738.2593,487.8086 738.8999,487.9805 Q739.5562,488.1367 740.103,488.4961 Z " fill="#000000"/><text fill="#000000" font-family="sans-serif" font-size="14" lengthAdjust="spacing" textLength="58.3447" x="757.8374" y="498.418">SNSUser</text><line style="stroke:#181818;stroke-width:0.5;" x1="650" x2="891.5195" y1="508.6211" y2="508.6211"/><text fill="#000000" font-family="sans-serif" font-size="14" lengthAdjust="spacing" textLength="212.8369" x="655" y="527.7285">+snsUserNumber : String {unique}</text><text fill="#000000" font-family="sans-serif" font-size="14" lengthAdjust="spacing" textLength="91.4375" x="655" y="546.3496">+name : String</text><text fill="#000000" font-family="sans-serif" font-size="14" lengthAdjust="spacing" textLength="106.2236" x="655" y="564.9707">+birthDate : Date</text><text fill="#000000" font-family="sans-serif" font-size="14" lengthAdjust="spacing" textLength="113.2236" x="655" y="583.5918">+sex : String [0..1]</text><text fill="#000000" font-family="sans-serif" font-size="14" lengthAdjust="spacing" textLength="145.1338" x="655" y="602.2129">+postalAddress : String</text><text fill="#000000" font-family="sans-serif" font-size="14" lengthAdjust="spacing" textLength="150.6299" x="655" y="620.834">+phone : String {unique}</text><text fill="#000000" font-family="sans-serif" font-size="14" lengthAdjust="spacing" textLength="145.1543" x="655" y="639.4551">+email : String {unique}</text><text fill="#000000" font-family="sans-serif" font-size="14" lengthAdjust="spacing" textLength="231.5195" x="655" y="658.0762">+citizenCardNumber : String {unique}</text></g><!--class StaffMember--><g class="entity" data-entity="StaffMember" data-source-line="19" data-uid="ent0003" id="entity_StaffMember"><rect fill="#F1F1F1" height="114.4844" rx="2.5" ry="2.5" style="stroke:#181818;stroke-width:0.5;" width="157.1338" x="1058.5" y="74.6211"/><ellipse cx="1093.7482" cy="90.6211" fill="#A9DCDF" rx="11" ry="11" style="stroke:#181818;stroke-width:1;"/><path d="M1095.9357,92.3867 L1091.7951,92.3867 L1091.3732,93.418 L1091.7951,93.418 Q1092.4045,93.418 1092.6701,93.6523 Q1092.9357,93.8867 1092.9357,94.2773 Q1092.9357,94.6523 1092.6701,94.8867 Q1092.4045,95.1211 1091.7951,95.1211 L1089.4982,95.1211 Q1088.8889,95.1211 1088.6389,94.8867 Q1088.3732,94.6523 1088.3732,94.2617 Q1088.3732,93.8867 1088.6545,93.6523 Q1088.9201,93.4023 1089.5451,93.418 L1092.217,86.7617 L1091.1076,86.7617 Q1090.4982,86.7617 1090.2326,86.5273 Q1089.967,86.293 1089.967,85.9023 Q1089.967,85.5273 1090.2326,85.293 Q1090.4982,85.0586 1091.1076,85.0586 L1094.7795,85.0586 L1098.1701,93.418 Q1098.7639,93.418 1098.9514,93.5586 Q1099.342,93.8242 1099.342,94.2773 Q1099.342,94.6523 1099.0764,94.8867 Q1098.8264,95.1211 1098.217,95.1211 L1095.9201,95.1211 Q1095.3107,95.1211 1095.0451,94.8867 Q1094.7795,94.6523 1094.7795,94.2617 Q1094.7795,93.8867 1095.0451,93.6523 Q1095.3107,93.418 1095.9201,93.418 L1096.342,93.418 L1095.9357,92.3867 Z M1095.217,90.6836 L1093.8576,87.3086 L1092.4826,90.6836 L1095.217,90.6836 Z " fill="#000000"/><text fill="#000000" font-family="sans-serif" font-size="14" font-style="italic" lengthAdjust="spacing" textLength="80.1377" x="1112.2479" y="96.418">StaffMember</text><line style="stroke:#181818;stroke-width:0.5;" x1="1059.5" x2="1214.6338" y1="106.6211" y2="106.6211"/><text fill="#000000" font-family="sans-serif" font-size="14" lengthAdjust="spacing" textLength="91.4375" x="1064.5" y="125.7285">+name : String</text><text fill="#000000" font-family="sans-serif" font-size="14" lengthAdjust="spacing" textLength="145.1338" x="1064.5" y="144.3496">+postalAddress : String</text><text fill="#000000" font-family="sans-serif" font-size="14" lengthAdjust="spacing" textLength="95.3477" x="1064.5" y="162.9707">+phone : String</text><text fill="#000000" font-family="sans-serif" font-size="14" lengthAdjust="spacing" textLength="89.8721" x="1064.5" y="181.5918">+email : String</text></g><!--class Receptionist--><g class="entity" data-entity="Receptionist" data-source-line="27" data-uid="ent0004" id="entity_Receptionist"><rect fill="#F1F1F1" height="40" rx="2.5" ry="2.5" style="stroke:#181818;stroke-width:0.5;" width="109.041" x="716.5" y="277.6211"/><ellipse cx="731.5" cy="293.6211" fill="#ADD1B2" rx="11" ry="11" style="stroke:#181818;stroke-width:1;"/><path d="M734.2656,289.4961 Q734.4219,289.2773 734.6094,289.168 Q734.7969,289.0586 735.0156,289.0586 Q735.3906,289.0586 735.625,289.3242 Q735.8594,289.5742 735.8594,290.1836 L735.8594,291.6367 Q735.8594,292.2461 735.625,292.5117 Q735.3906,292.7773 735.0156,292.7773 Q734.6719,292.7773 734.4688,292.5742 Q734.2656,292.3867 734.1563,291.8711 Q734.1094,291.5117 733.9219,291.3242 Q733.5938,290.9492 732.9844,290.7305 Q732.375,290.5117 731.75,290.5117 Q730.9844,290.5117 730.3438,290.8398 Q729.7188,291.168 729.2188,291.918 Q728.7344,292.668 728.7344,293.6992 L728.7344,294.793 Q728.7344,296.0273 729.625,296.8555 Q730.5156,297.668 732.1094,297.668 Q733.0469,297.668 733.7031,297.418 Q734.0938,297.2617 734.5156,296.8242 Q734.7813,296.5586 734.9219,296.4805 Q735.0781,296.4023 735.2813,296.4023 Q735.6094,296.4023 735.8594,296.668 Q736.125,296.918 736.125,297.2617 Q736.125,297.6055 735.7813,298.0117 Q735.2813,298.5898 734.4844,298.918 Q733.4063,299.3711 732.1094,299.3711 Q730.5938,299.3711 729.3906,298.7461 Q728.4063,298.2461 727.7188,297.1836 Q727.0313,296.1055 727.0313,294.8242 L727.0313,293.668 Q727.0313,292.3398 727.6406,291.1992 Q728.2656,290.043 729.3594,289.4336 Q730.4531,288.8086 731.6875,288.8086 Q732.4219,288.8086 733.0625,288.9805 Q733.7188,289.1367 734.2656,289.4961 Z " fill="#000000"/><text fill="#000000" font-family="sans-serif" font-size="14" lengthAdjust="spacing" textLength="77.041" x="745.5" y="299.418">Receptionist</text><line style="stroke:#181818;stroke-width:0.5;" x1="717.5" x2="824.541" y1="309.6211" y2="309.6211"/></g><!--class Nurse--><g class="entity" data-entity="Nurse" data-source-line="28" data-uid="ent0006" id="entity_Nurse"><rect fill="#F1F1F1" height="40" rx="2.5" ry="2.5" style="stroke:#181818;stroke-width:0.5;" width="69.3447" x="1272.5" y="781.6211"/><ellipse cx="1287.5" cy="797.6211" fill="#ADD1B2" rx="11" ry="11" style="stroke:#181818;stroke-width:1;"/><path d="M1290.2656,793.4961 Q1290.4219,793.2773 1290.6094,793.168 Q1290.7969,793.0586 1291.0156,793.0586 Q1291.3906,793.0586 1291.625,793.3242 Q1291.8594,793.5742 1291.8594,794.1836 L1291.8594,795.6367 Q1291.8594,796.2461 1291.625,796.5117 Q1291.3906,796.7773 1291.0156,796.7773 Q1290.6719,796.7773 1290.4688,796.5742 Q1290.2656,796.3867 1290.1563,795.8711 Q1290.1094,795.5117 1289.9219,795.3242 Q1289.5938,794.9492 1288.9844,794.7305 Q1288.375,794.5117 1287.75,794.5117 Q1286.9844,794.5117 1286.3438,794.8398 Q1285.7188,795.168 1285.2188,795.918 Q1284.7344,796.668 1284.7344,797.6992 L1284.7344,798.793 Q1284.7344,800.0273 1285.625,800.8555 Q1286.5156,801.668 1288.1094,801.668 Q1289.0469,801.668 1289.7031,801.418 Q1290.0938,801.2617 1290.5156,800.8242 Q1290.7813,800.5586 1290.9219,800.4805 Q1291.0781,800.4023 1291.2813,800.4023 Q1291.6094,800.4023 1291.8594,800.668 Q1292.125,800.918 1292.125,801.2617 Q1292.125,801.6055 1291.7813,802.0117 Q1291.2813,802.5898 1290.4844,802.918 Q1289.4063,803.3711 1288.1094,803.3711 Q1286.5938,803.3711 1285.3906,802.7461 Q1284.4063,802.2461 1283.7188,801.1836 Q1283.0313,800.1055 1283.0313,798.8242 L1283.0313,797.668 Q1283.0313,796.3398 1283.6406,795.1992 Q1284.2656,794.043 1285.3594,793.4336 Q1286.4531,792.8086 1287.6875,792.8086 Q1288.4219,792.8086 1289.0625,792.9805 Q1289.7188,793.1367 1290.2656,793.4961 Z " fill="#000000"/><text fill="#000000" font-family="sans-serif" font-size="14" lengthAdjust="spacing" textLength="37.3447" x="1301.5" y="803.418">Nurse</text><line style="stroke:#181818;stroke-width:0.5;" x1="1273.5" x2="1340.8447" y1="813.6211" y2="813.6211"/></g><g class="entity" data-entity="GMN8" data-source-line="29" data-uid="ent0009" id="entity_GMN8"><path d="M1377,788.1211 L1377,797.6211 L1341.69,801.6211 L1377,805.6211 L1377,815.4121 A0,0 0 0 0 1377,815.4121 L1606.8506,815.4121 A0,0 0 0 0 1606.8506,815.4121 L1606.8506,798.1211 L1596.8506,788.1211 L1377,788.1211 A0,0 0 0 0 1377,788.1211" fill="#FEFFDD" style="stroke:#181818;stroke-width:0.5;"/><path d="M1596.8506,788.1211 L1596.8506,798.1211 L1606.8506,798.1211 L1596.8506,788.1211" fill="#FEFFDD" style="stroke:#181818;stroke-width:0.5;"/><text fill="#000000" font-family="sans-serif" font-size="13" lengthAdjust="spacing" textLength="208.8506" x="1383" y="807.1494">Authorized to access full health data</text></g><!--class DGSAdministrator--><g class="entity" data-entity="DGSAdministrator" data-source-line="30" data-uid="ent0011" id="entity_DGSAdministrator"><rect fill="#F1F1F1" height="40" rx="2.5" ry="2.5" style="stroke:#181818;stroke-width:0.5;" width="144.8066" x="1313.5" y="277.6211"/><ellipse cx="1328.5" cy="293.6211" fill="#ADD1B2" rx="11" ry="11" style="stroke:#181818;stroke-width:1;"/><path d="M1331.2656,289.4961 Q1331.4219,289.2773 1331.6094,289.168 Q1331.7969,289.0586 1332.0156,289.0586 Q1332.3906,289.0586 1332.625,289.3242 Q1332.8594,289.5742 1332.8594,290.1836 L1332.8594,291.6367 Q1332.8594,292.2461 1332.625,292.5117 Q1332.3906,292.7773 1332.0156,292.7773 Q1331.6719,292.7773 1331.4688,292.5742 Q1331.2656,292.3867 1331.1563,291.8711 Q1331.1094,291.5117 1330.9219,291.3242 Q1330.5938,290.9492 1329.9844,290.7305 Q1329.375,290.5117 1328.75,290.5117 Q1327.9844,290.5117 1327.3438,290.8398 Q1326.7188,291.168 1326.2188,291.918 Q1325.7344,292.668 1325.7344,293.6992 L1325.7344,294.793 Q1325.7344,296.0273 1326.625,296.8555 Q1327.5156,297.668 1329.1094,297.668 Q1330.0469,297.668 1330.7031,297.418 Q1331.0938,297.2617 1331.5156,296.8242 Q1331.7813,296.5586 1331.9219,296.4805 Q1332.0781,296.4023 1332.2813,296.4023 Q1332.6094,296.4023 1332.8594,296.668 Q1333.125,296.918 1333.125,297.2617 Q1333.125,297.6055 1332.7813,298.0117 Q1332.2813,298.5898 1331.4844,298.918 Q1330.4063,299.3711 1329.1094,299.3711 Q1327.5938,299.3711 1326.3906,298.7461 Q1325.4063,298.2461 1324.7188,297.1836 Q1324.0313,296.1055 1324.0313,294.8242 L1324.0313,293.668 Q1324.0313,292.3398 1324.6406,291.1992 Q1325.2656,290.043 1326.3594,289.4336 Q1327.4531,288.8086 1328.6875,288.8086 Q1329.4219,288.8086 1330.0625,288.9805 Q1330.7188,289.1367 1331.2656,289.4961 Z " fill="#000000"/><text fill="#000000" font-family="sans-serif" font-size="14" lengthAdjust="spacing" textLength="112.8066" x="1342.5" y="299.418">DGSAdministrator</text><line style="stroke:#181818;stroke-width:0.5;" x1="1314.5" x2="1457.3066" y1="309.6211" y2="309.6211"/></g><!--class VaccinationCenter--><g class="entity" data-entity="VaccinationCenter" data-source-line="33" data-uid="ent0013" id="entity_VaccinationCenter"><rect fill="#F1F1F1" height="188.9688" rx="2.5" ry="2.5" style="stroke:#181818;stroke-width:0.5;" width="210.8164" x="408.5" y="937.6211"/><ellipse cx="452.4876" cy="953.6211" fill="#A9DCDF" rx="11" ry="11" style="stroke:#181818;stroke-width:1;"/><path d="M454.6751,955.3867 L450.5345,955.3867 L450.1126,956.418 L450.5345,956.418 Q451.1439,956.418 451.4095,956.6523 Q451.6751,956.8867 451.6751,957.2773 Q451.6751,957.6523 451.4095,957.8867 Q451.1439,958.1211 450.5345,958.1211 L448.2376,958.1211 Q447.6283,958.1211 447.3783,957.8867 Q447.1126,957.6523 447.1126,957.2617 Q447.1126,956.8867 447.3939,956.6523 Q447.6595,956.4023 448.2845,956.418 L450.9564,949.7617 L449.847,949.7617 Q449.2376,949.7617 448.972,949.5273 Q448.7064,949.293 448.7064,948.9023 Q448.7064,948.5273 448.972,948.293 Q449.2376,948.0586 449.847,948.0586 L453.5189,948.0586 L456.9095,956.418 Q457.5033,956.418 457.6908,956.5586 Q458.0814,956.8242 458.0814,957.2773 Q458.0814,957.6523 457.8158,957.8867 Q457.5658,958.1211 456.9564,958.1211 L454.6595,958.1211 Q454.0501,958.1211 453.7845,957.8867 Q453.5189,957.6523 453.5189,957.2617 Q453.5189,956.8867 453.7845,956.6523 Q454.0501,956.418 454.6595,956.418 L455.0814,956.418 L454.6751,955.3867 Z M453.9564,953.6836 L452.597,950.3086 L451.222,953.6836 L453.9564,953.6836 Z " fill="#000000"/><text fill="#000000" font-family="sans-serif" font-size="14" font-style="italic" lengthAdjust="spacing" textLength="114.3994" x="472.9293" y="959.418">VaccinationCenter</text><line style="stroke:#181818;stroke-width:0.5;" x1="409.5" x2="618.3164" y1="969.6211" y2="969.6211"/><text fill="#000000" font-family="sans-serif" font-size="14" lengthAdjust="spacing" textLength="91.4375" x="414.5" y="988.7285">+name : String</text><text fill="#000000" font-family="sans-serif" font-size="14" lengthAdjust="spacing" textLength="145.1338" x="414.5" y="1007.3496">+postalAddress : String</text><text fill="#000000" font-family="sans-serif" font-size="14" lengthAdjust="spacing" textLength="95.3477" x="414.5" y="1025.9707">+phone : String</text><text fill="#000000" font-family="sans-serif" font-size="14" lengthAdjust="spacing" textLength="89.8721" x="414.5" y="1044.5918">+email : String</text><text fill="#000000" font-family="sans-serif" font-size="14" lengthAdjust="spacing" textLength="103.8857" x="414.5" y="1063.2129">+website : String</text><text fill="#000000" font-family="sans-serif" font-size="14" lengthAdjust="spacing" textLength="198.8164" x="414.5" y="1081.834">+maxVaccinesPerHour : Integer</text><text fill="#000000" font-family="sans-serif" font-size="14" lengthAdjust="spacing" textLength="138.127" x="414.5" y="1100.4551">+openingHours : Time</text><text fill="#000000" font-family="sans-serif" font-size="14" lengthAdjust="spacing" textLength="131.8789" x="414.5" y="1119.0762">+closingHours : Time</text></g><!--class HealthcareCenter--><g class="entity" data-entity="HealthcareCenter" data-source-line="45" data-uid="ent0014" id="entity_HealthcareCenter"><rect fill="#F1F1F1" height="40" rx="2.5" ry="2.5" style="stroke:#181818;stroke-width:0.5;" width="141.7236" x="212" y="1242.6211"/><ellipse cx="227" cy="1258.6211" fill="#ADD1B2" rx="11" ry="11" style="stroke:#181818;stroke-width:1;"/><path d="M229.7656,1254.4961 Q229.9219,1254.2773 230.1094,1254.168 Q230.2969,1254.0586 230.5156,1254.0586 Q230.8906,1254.0586 231.125,1254.3242 Q231.3594,1254.5742 231.3594,1255.1836 L231.3594,1256.6367 Q231.3594,1257.2461 231.125,1257.5117 Q230.8906,1257.7773 230.5156,1257.7773 Q230.1719,1257.7773 229.9688,1257.5742 Q229.7656,1257.3867 229.6563,1256.8711 Q229.6094,1256.5117 229.4219,1256.3242 Q229.0938,1255.9492 228.4844,1255.7305 Q227.875,1255.5117 227.25,1255.5117 Q226.4844,1255.5117 225.8438,1255.8398 Q225.2188,1256.168 224.7188,1256.918 Q224.2344,1257.668 224.2344,1258.6992 L224.2344,1259.793 Q224.2344,1261.0273 225.125,1261.8555 Q226.0156,1262.668 227.6094,1262.668 Q228.5469,1262.668 229.2031,1262.418 Q229.5938,1262.2617 230.0156,1261.8242 Q230.2813,1261.5586 230.4219,1261.4805 Q230.5781,1261.4023 230.7813,1261.4023 Q231.1094,1261.4023 231.3594,1261.668 Q231.625,1261.918 231.625,1262.2617 Q231.625,1262.6055 231.2813,1263.0117 Q230.7813,1263.5898 229.9844,1263.918 Q228.9063,1264.3711 227.6094,1264.3711 Q226.0938,1264.3711 224.8906,1263.7461 Q223.9063,1263.2461 223.2188,1262.1836 Q222.5313,1261.1055 222.5313,1259.8242 L222.5313,1258.668 Q222.5313,1257.3398 223.1406,1256.1992 Q223.7656,1255.043 224.8594,1254.4336 Q225.9531,1253.8086 227.1875,1253.8086 Q227.9219,1253.8086 228.5625,1253.9805 Q229.2188,1254.1367 229.7656,1254.4961 Z " fill="#000000"/><text fill="#000000" font-family="sans-serif" font-size="14" lengthAdjust="spacing" textLength="109.7236" x="241" y="1264.418">HealthcareCenter</text><line style="stroke:#181818;stroke-width:0.5;" x1="213" x2="352.7236" y1="1274.6211" y2="1274.6211"/></g><!--class CommunityMassVaccinationCenter--><g class="entity" data-entity="CommunityMassVaccinationCenter" data-source-line="46" data-uid="ent0016" id="entity_CommunityMassVaccinationCenter"><rect fill="#F1F1F1" height="40" rx="2.5" ry="2.5" style="stroke:#181818;stroke-width:0.5;" width="250.6406" x="389.5" y="1242.6211"/><ellipse cx="404.5" cy="1258.6211" fill="#ADD1B2" rx="11" ry="11" style="stroke:#181818;stroke-width:1;"/><path d="M407.2656,1254.4961 Q407.4219,1254.2773 407.6094,1254.168 Q407.7969,1254.0586 408.0156,1254.0586 Q408.3906,1254.0586 408.625,1254.3242 Q408.8594,1254.5742 408.8594,1255.1836 L408.8594,1256.6367 Q408.8594,1257.2461 408.625,1257.5117 Q408.3906,1257.7773 408.0156,1257.7773 Q407.6719,1257.7773 407.4688,1257.5742 Q407.2656,1257.3867 407.1563,1256.8711 Q407.1094,1256.5117 406.9219,1256.3242 Q406.5938,1255.9492 405.9844,1255.7305 Q405.375,1255.5117 404.75,1255.5117 Q403.9844,1255.5117 403.3438,1255.8398 Q402.7188,1256.168 402.2188,1256.918 Q401.7344,1257.668 401.7344,1258.6992 L401.7344,1259.793 Q401.7344,1261.0273 402.625,1261.8555 Q403.5156,1262.668 405.1094,1262.668 Q406.0469,1262.668 406.7031,1262.418 Q407.0938,1262.2617 407.5156,1261.8242 Q407.7813,1261.5586 407.9219,1261.4805 Q408.0781,1261.4023 408.2813,1261.4023 Q408.6094,1261.4023 408.8594,1261.668 Q409.125,1261.918 409.125,1262.2617 Q409.125,1262.6055 408.7813,1263.0117 Q408.2813,1263.5898 407.4844,1263.918 Q406.4063,1264.3711 405.1094,1264.3711 Q403.5938,1264.3711 402.3906,1263.7461 Q401.4063,1263.2461 400.7188,1262.1836 Q400.0313,1261.1055 400.0313,1259.8242 L400.0313,1258.668 Q400.0313,1257.3398 400.6406,1256.1992 Q401.2656,1255.043 402.3594,1254.4336 Q403.4531,1253.8086 404.6875,1253.8086 Q405.4219,1253.8086 406.0625,1253.9805 Q406.7188,1254.1367 407.2656,1254.4961 Z " fill="#000000"/><text fill="#000000" font-family="sans-serif" font-size="14" lengthAdjust="spacing" textLength="218.6406" x="418.5" y="1264.418">CommunityMassVaccinationCenter</text><line style="stroke:#181818;stroke-width:0.5;" x1="390.5" x2="639.1406" y1="1274.6211" y2="1274.6211"/></g><!--class VaccineType--><g class="entity" data-entity="VaccineType" data-source-line="49" data-uid="ent0018" id="entity_VaccineType"><rect fill="#F1F1F1" height="77.2422" rx="2.5" ry="2.5" style="stroke:#181818;stroke-width:0.5;" width="169.5684" x="7" y="1224.1211"/><ellipse cx="47.487" cy="1240.1211" fill="#ADD1B2" rx="11" ry="11" style="stroke:#181818;stroke-width:1;"/><path d="M50.2526,1235.9961 Q50.4088,1235.7773 50.5963,1235.668 Q50.7838,1235.5586 51.0026,1235.5586 Q51.3776,1235.5586 51.612,1235.8242 Q51.8463,1236.0742 51.8463,1236.6836 L51.8463,1238.1367 Q51.8463,1238.7461 51.612,1239.0117 Q51.3776,1239.2773 51.0026,1239.2773 Q50.6588,1239.2773 50.4557,1239.0742 Q50.2526,1238.8867 50.1432,1238.3711 Q50.0963,1238.0117 49.9088,1237.8242 Q49.5807,1237.4492 48.9713,1237.2305 Q48.362,1237.0117 47.737,1237.0117 Q46.9713,1237.0117 46.3307,1237.3398 Q45.7057,1237.668 45.2057,1238.418 Q44.7213,1239.168 44.7213,1240.1992 L44.7213,1241.293 Q44.7213,1242.5273 45.612,1243.3555 Q46.5026,1244.168 48.0963,1244.168 Q49.0338,1244.168 49.6901,1243.918 Q50.0807,1243.7617 50.5026,1243.3242 Q50.7682,1243.0586 50.9088,1242.9805 Q51.0651,1242.9023 51.2682,1242.9023 Q51.5963,1242.9023 51.8463,1243.168 Q52.112,1243.418 52.112,1243.7617 Q52.112,1244.1055 51.7682,1244.5117 Q51.2682,1245.0898 50.4713,1245.418 Q49.3932,1245.8711 48.0963,1245.8711 Q46.5807,1245.8711 45.3776,1245.2461 Q44.3932,1244.7461 43.7057,1243.6836 Q43.0182,1242.6055 43.0182,1241.3242 L43.0182,1240.168 Q43.0182,1238.8398 43.6276,1237.6992 Q44.2526,1236.543 45.3463,1235.9336 Q46.4401,1235.3086 47.6745,1235.3086 Q48.4088,1235.3086 49.0495,1235.4805 Q49.7057,1235.6367 50.2526,1235.9961 Z " fill="#000000"/><text fill="#000000" font-family="sans-serif" font-size="14" lengthAdjust="spacing" textLength="80.9307" x="67.1507" y="1245.918">VaccineType</text><line style="stroke:#181818;stroke-width:0.5;" x1="8" x2="175.5684" y1="1256.1211" y2="1256.1211"/><text fill="#000000" font-family="sans-serif" font-size="14" lengthAdjust="spacing" textLength="104.6719" x="13" y="1275.2285">+disease : String</text><text fill="#000000" font-family="sans-serif" font-size="14" lengthAdjust="spacing" textLength="157.5684" x="13" y="1293.8496">+shortDescription : String</text></g><!--class Vaccine--><g class="entity" data-entity="Vaccine" data-source-line="58" data-uid="ent0020" id="entity_Vaccine"><rect fill="#F1F1F1" height="95.8633" rx="2.5" ry="2.5" style="stroke:#181818;stroke-width:0.5;" width="177.3271" x="488.5" y="1398.6211"/><ellipse cx="548.0103" cy="1414.6211" fill="#ADD1B2" rx="11" ry="11" style="stroke:#181818;stroke-width:1;"/><path d="M550.7759,1410.4961 Q550.9321,1410.2773 551.1196,1410.168 Q551.3071,1410.0586 551.5259,1410.0586 Q551.9009,1410.0586 552.1353,1410.3242 Q552.3696,1410.5742 552.3696,1411.1836 L552.3696,1412.6367 Q552.3696,1413.2461 552.1353,1413.5117 Q551.9009,1413.7773 551.5259,1413.7773 Q551.1821,1413.7773 550.979,1413.5742 Q550.7759,1413.3867 550.6665,1412.8711 Q550.6196,1412.5117 550.4321,1412.3242 Q550.104,1411.9492 549.4946,1411.7305 Q548.8853,1411.5117 548.2603,1411.5117 Q547.4946,1411.5117 546.854,1411.8398 Q546.229,1412.168 545.729,1412.918 Q545.2446,1413.668 545.2446,1414.6992 L545.2446,1415.793 Q545.2446,1417.0273 546.1353,1417.8555 Q547.0259,1418.668 548.6196,1418.668 Q549.5571,1418.668 550.2134,1418.418 Q550.604,1418.2617 551.0259,1417.8242 Q551.2915,1417.5586 551.4321,1417.4805 Q551.5884,1417.4023 551.7915,1417.4023 Q552.1196,1417.4023 552.3696,1417.668 Q552.6353,1417.918 552.6353,1418.2617 Q552.6353,1418.6055 552.2915,1419.0117 Q551.7915,1419.5898 550.9946,1419.918 Q549.9165,1420.3711 548.6196,1420.3711 Q547.104,1420.3711 545.9009,1419.7461 Q544.9165,1419.2461 544.229,1418.1836 Q543.5415,1417.1055 543.5415,1415.8242 L543.5415,1414.668 Q543.5415,1413.3398 544.1509,1412.1992 Q544.7759,1411.043 545.8696,1410.4336 Q546.9634,1409.8086 548.1978,1409.8086 Q548.9321,1409.8086 549.5728,1409.9805 Q550.229,1410.1367 550.7759,1410.4961 Z " fill="#000000"/><text fill="#000000" font-family="sans-serif" font-size="14" lengthAdjust="spacing" textLength="49.8066" x="568.5103" y="1420.418">Vaccine</text><line style="stroke:#181818;stroke-width:0.5;" x1="489.5" x2="664.8271" y1="1430.6211" y2="1430.6211"/><text fill="#000000" font-family="sans-serif" font-size="14" lengthAdjust="spacing" textLength="165.3271" x="494.5" y="1449.7285">+commercialName : String</text><text fill="#000000" font-family="sans-serif" font-size="14" lengthAdjust="spacing" textLength="92.2236" x="494.5" y="1468.3496">+brand : String</text><text fill="#000000" font-family="sans-serif" font-size="14" lengthAdjust="spacing" textLength="156.8164" x="494.5" y="1486.9707">+technologyUsed : String</text></g><!--class AppointmentStatus--><g class="entity" data-entity="AppointmentStatus" data-source-line="68" data-uid="ent0022" id="entity_AppointmentStatus"><rect fill="#F1F1F1" height="170.3477" rx="2.5" ry="2.5" style="stroke:#181818;stroke-width:0.5;" width="150.2959" x="1251" y="46.6211"/><ellipse cx="1266" cy="62.6211" fill="#EB937F" rx="11" ry="11" style="stroke:#181818;stroke-width:1;"/><path d="M1264.8594,63.418 L1264.8594,65.918 L1269.1875,65.918 L1269.1875,64.9961 Q1269.1875,64.3867 1269.4219,64.1211 Q1269.6719,63.8555 1270.0469,63.8555 Q1270.4219,63.8555 1270.6563,64.1211 Q1270.8906,64.3867 1270.8906,64.9961 L1270.8906,67.6211 L1262.8906,67.6211 Q1262.2656,67.6211 1262,67.3867 Q1261.75,67.1523 1261.75,66.7617 Q1261.75,66.3867 1262.0156,66.1523 Q1262.2813,65.918 1262.8906,65.918 L1263.1563,65.918 L1263.1563,59.2617 L1262.8906,59.2617 Q1262.2656,59.2617 1262,59.0273 Q1261.75,58.793 1261.75,58.4023 Q1261.75,58.0273 1262,57.793 Q1262.2656,57.5586 1262.8906,57.5586 L1270.5156,57.5586 L1270.5156,60.1523 Q1270.5156,60.7617 1270.2813,61.0273 Q1270.0625,61.2773 1269.6719,61.2773 Q1269.2969,61.2773 1269.0625,61.0273 Q1268.8281,60.7617 1268.8281,60.1523 L1268.8281,59.2617 L1264.8594,59.2617 L1264.8594,61.7148 L1266.3438,61.7148 Q1266.3438,61.0586 1266.4688,60.8711 Q1266.7344,60.4648 1267.2031,60.4648 Q1267.5781,60.4648 1267.8125,60.7305 Q1268.0469,60.9805 1268.0469,61.5898 L1268.0469,63.5586 Q1268.0469,64.1055 1267.9219,64.293 Q1267.6563,64.6836 1267.2031,64.6836 Q1266.7344,64.6836 1266.4688,64.2773 Q1266.3438,64.0898 1266.3438,63.418 L1264.8594,63.418 Z " fill="#000000"/><text fill="#000000" font-family="sans-serif" font-size="14" lengthAdjust="spacing" textLength="118.2959" x="1280" y="68.418">AppointmentStatus</text><line style="stroke:#181818;stroke-width:0.5;" x1="1252" x2="1400.2959" y1="78.6211" y2="78.6211"/><text fill="#000000" font-family="sans-serif" font-size="14" lengthAdjust="spacing" textLength="66.165" x="1257" y="97.7285">Scheduled</text><text fill="#000000" font-family="sans-serif" font-size="14" lengthAdjust="spacing" textLength="44.3447" x="1257" y="116.3496">Arrived</text><text fill="#000000" font-family="sans-serif" font-size="14" lengthAdjust="spacing" textLength="40.4688" x="1257" y="134.9707">Ready</text><text fill="#000000" font-family="sans-serif" font-size="14" lengthAdjust="spacing" textLength="67.6963" x="1257" y="153.5918">InProgress</text><text fill="#000000" font-family="sans-serif" font-size="14" lengthAdjust="spacing" textLength="69.2686" x="1257" y="172.2129">Vaccinated</text><text fill="#000000" font-family="sans-serif" font-size="14" lengthAdjust="spacing" textLength="62.2617" x="1257" y="190.834">Cancelled</text><text fill="#000000" font-family="sans-serif" font-size="14" lengthAdjust="spacing" textLength="52.917" x="1257" y="209.4551">NoShow</text></g><!--class Appointment--><g class="entity" data-entity="Appointment" data-source-line="78" data-uid="ent0023" id="entity_Appointment"><rect fill="#F1F1F1" height="114.4844" rx="2.5" ry="2.5" style="stroke:#181818;stroke-width:0.5;" width="191.3271" x="638.5" y="744.6211"/><ellipse cx="690.6104" cy="760.6211" fill="#ADD1B2" rx="11" ry="11" style="stroke:#181818;stroke-width:1;"/><path d="M693.376,756.4961 Q693.5322,756.2773 693.7197,756.168 Q693.9072,756.0586 694.126,756.0586 Q694.501,756.0586 694.7354,756.3242 Q694.9697,756.5742 694.9697,757.1836 L694.9697,758.6367 Q694.9697,759.2461 694.7354,759.5117 Q694.501,759.7773 694.126,759.7773 Q693.7822,759.7773 693.5791,759.5742 Q693.376,759.3867 693.2666,758.8711 Q693.2197,758.5117 693.0322,758.3242 Q692.7041,757.9492 692.0947,757.7305 Q691.4854,757.5117 690.8604,757.5117 Q690.0947,757.5117 689.4541,757.8398 Q688.8291,758.168 688.3291,758.918 Q687.8447,759.668 687.8447,760.6992 L687.8447,761.793 Q687.8447,763.0273 688.7354,763.8555 Q689.626,764.668 691.2197,764.668 Q692.1572,764.668 692.8135,764.418 Q693.2041,764.2617 693.626,763.8242 Q693.8916,763.5586 694.0322,763.4805 Q694.1885,763.4023 694.3916,763.4023 Q694.7197,763.4023 694.9697,763.668 Q695.2354,763.918 695.2354,764.2617 Q695.2354,764.6055 694.8916,765.0117 Q694.3916,765.5898 693.5947,765.918 Q692.5166,766.3711 691.2197,766.3711 Q689.7041,766.3711 688.501,765.7461 Q687.5166,765.2461 686.8291,764.1836 Q686.1416,763.1055 686.1416,761.8242 L686.1416,760.668 Q686.1416,759.3398 686.751,758.1992 Q687.376,757.043 688.4697,756.4336 Q689.5635,755.8086 690.7979,755.8086 Q691.5322,755.8086 692.1729,755.9805 Q692.8291,756.1367 693.376,756.4961 Z " fill="#000000"/><text fill="#000000" font-family="sans-serif" font-size="14" lengthAdjust="spacing" textLength="78.6064" x="711.1104" y="766.418">Appointment</text><line style="stroke:#181818;stroke-width:0.5;" x1="639.5" x2="828.8271" y1="776.6211" y2="776.6211"/><text fill="#000000" font-family="sans-serif" font-size="14" lengthAdjust="spacing" textLength="76.665" x="644.5" y="795.7285">+date : Date</text><text fill="#000000" font-family="sans-serif" font-size="14" lengthAdjust="spacing" textLength="77.4033" x="644.5" y="814.3496">+time : Time</text><text fill="#000000" font-family="sans-serif" font-size="14" lengthAdjust="spacing" textLength="175.4922" x="644.5" y="832.9707">+status : AppointmentStatus</text><text fill="#000000" font-family="sans-serif" font-size="14" lengthAdjust="spacing" textLength="179.3271" x="644.5" y="851.5918">+arrivalDateTime : DateTime</text></g><!--class VaccinationEvent--><g class="entity" data-entity="VaccinationEvent" data-source-line="86" data-uid="ent0024" id="entity_VaccinationEvent"><rect fill="#F1F1F1" height="77.2422" rx="2.5" ry="2.5" style="stroke:#181818;stroke-width:0.5;" width="240.3613" x="926" y="993.6211"/><ellipse cx="987.8413" cy="1009.6211" fill="#ADD1B2" rx="11" ry="11" style="stroke:#181818;stroke-width:1;"/><path d="M990.6069,1005.4961 Q990.7632,1005.2773 990.9507,1005.168 Q991.1382,1005.0586 991.3569,1005.0586 Q991.7319,1005.0586 991.9663,1005.3242 Q992.2007,1005.5742 992.2007,1006.1836 L992.2007,1007.6367 Q992.2007,1008.2461 991.9663,1008.5117 Q991.7319,1008.7773 991.3569,1008.7773 Q991.0132,1008.7773 990.8101,1008.5742 Q990.6069,1008.3867 990.4976,1007.8711 Q990.4507,1007.5117 990.2632,1007.3242 Q989.9351,1006.9492 989.3257,1006.7305 Q988.7163,1006.5117 988.0913,1006.5117 Q987.3257,1006.5117 986.6851,1006.8398 Q986.0601,1007.168 985.5601,1007.918 Q985.0757,1008.668 985.0757,1009.6992 L985.0757,1010.793 Q985.0757,1012.0273 985.9663,1012.8555 Q986.8569,1013.668 988.4507,1013.668 Q989.3882,1013.668 990.0444,1013.418 Q990.4351,1013.2617 990.8569,1012.8242 Q991.1226,1012.5586 991.2632,1012.4805 Q991.4194,1012.4023 991.6226,1012.4023 Q991.9507,1012.4023 992.2007,1012.668 Q992.4663,1012.918 992.4663,1013.2617 Q992.4663,1013.6055 992.1226,1014.0117 Q991.6226,1014.5898 990.8257,1014.918 Q989.7476,1015.3711 988.4507,1015.3711 Q986.9351,1015.3711 985.7319,1014.7461 Q984.7476,1014.2461 984.0601,1013.1836 Q983.3726,1012.1055 983.3726,1010.8242 L983.3726,1009.668 Q983.3726,1008.3398 983.9819,1007.1992 Q984.6069,1006.043 985.7007,1005.4336 Q986.7944,1004.8086 988.0288,1004.8086 Q988.7632,1004.8086 989.4038,1004.9805 Q990.0601,1005.1367 990.6069,1005.4961 Z " fill="#000000"/><text fill="#000000" font-family="sans-serif" font-size="14" lengthAdjust="spacing" textLength="108.1787" x="1008.3413" y="1015.418">VaccinationEvent</text><line style="stroke:#181818;stroke-width:0.5;" x1="927" x2="1165.3613" y1="1025.6211" y2="1025.6211"/><text fill="#000000" font-family="sans-serif" font-size="14" lengthAdjust="spacing" textLength="120.9961" x="932" y="1044.7285">+lotNumber : String</text><text fill="#000000" font-family="sans-serif" font-size="14" lengthAdjust="spacing" textLength="228.3613" x="932" y="1063.3496">+administrationDateTime : DateTime</text></g><!--class AdverseReaction--><g class="entity" data-entity="AdverseReaction" data-source-line="92" data-uid="ent0025" id="entity_AdverseReaction"><rect fill="#F1F1F1" height="114.4844" rx="2.5" ry="2.5" style="stroke:#181818;stroke-width:0.5;" width="163.3477" x="827.5" y="1205.6211"/><ellipse cx="853.6305" cy="1221.6211" fill="#ADD1B2" rx="11" ry="11" style="stroke:#181818;stroke-width:1;"/><path d="M856.3961,1217.4961 Q856.5523,1217.2773 856.7398,1217.168 Q856.9273,1217.0586 857.1461,1217.0586 Q857.5211,1217.0586 857.7555,1217.3242 Q857.9898,1217.5742 857.9898,1218.1836 L857.9898,1219.6367 Q857.9898,1220.2461 857.7555,1220.5117 Q857.5211,1220.7773 857.1461,1220.7773 Q856.8023,1220.7773 856.5992,1220.5742 Q856.3961,1220.3867 856.2867,1219.8711 Q856.2398,1219.5117 856.0523,1219.3242 Q855.7242,1218.9492 855.1148,1218.7305 Q854.5055,1218.5117 853.8805,1218.5117 Q853.1148,1218.5117 852.4742,1218.8398 Q851.8492,1219.168 851.3492,1219.918 Q850.8648,1220.668 850.8648,1221.6992 L850.8648,1222.793 Q850.8648,1224.0273 851.7555,1224.8555 Q852.6461,1225.668 854.2398,1225.668 Q855.1773,1225.668 855.8336,1225.418 Q856.2242,1225.2617 856.6461,1224.8242 Q856.9117,1224.5586 857.0523,1224.4805 Q857.2086,1224.4023 857.4117,1224.4023 Q857.7398,1224.4023 857.9898,1224.668 Q858.2555,1224.918 858.2555,1225.2617 Q858.2555,1225.6055 857.9117,1226.0117 Q857.4117,1226.5898 856.6148,1226.918 Q855.5367,1227.3711 854.2398,1227.3711 Q852.7242,1227.3711 851.5211,1226.7461 Q850.5367,1226.2461 849.8492,1225.1836 Q849.1617,1224.1055 849.1617,1222.8242 L849.1617,1221.668 Q849.1617,1220.3398 849.7711,1219.1992 Q850.3961,1218.043 851.4898,1217.4336 Q852.5836,1216.8086 853.818,1216.8086 Q854.5523,1216.8086 855.193,1216.9805 Q855.8492,1217.1367 856.3961,1217.4961 Z " fill="#000000"/><text fill="#000000" font-family="sans-serif" font-size="14" lengthAdjust="spacing" textLength="106.6133" x="870.1039" y="1227.418">AdverseReaction</text><line style="stroke:#181818;stroke-width:0.5;" x1="828.5" x2="989.8477" y1="1237.6211" y2="1237.6211"/><text fill="#000000" font-family="sans-serif" font-size="14" lengthAdjust="spacing" textLength="124.1201" x="833.5" y="1256.7285">+description : String</text><text fill="#000000" font-family="sans-serif" font-size="14" lengthAdjust="spacing" textLength="104.6514" x="833.5" y="1275.3496">+severity : String</text><text fill="#000000" font-family="sans-serif" font-size="14" lengthAdjust="spacing" textLength="151.3477" x="833.5" y="1293.9707">+observedAt : DateTime</text><text fill="#000000" font-family="sans-serif" font-size="14" lengthAdjust="spacing" textLength="90.665" x="833.5" y="1312.5918">+notes : String</text></g><!--class VaccinationCertificate--><g class="entity" data-entity="VaccinationCertificate" data-source-line="100" data-uid="ent0026" id="entity_VaccinationCertificate"><rect fill="#F1F1F1" height="58.6211" rx="2.5" ry="2.5" style="stroke:#181818;stroke-width:0.5;" width="167.3994" x="1223.5" y="1233.1211"/><ellipse cx="1238.5" cy="1249.1211" fill="#ADD1B2" rx="11" ry="11" style="stroke:#181818;stroke-width:1;"/><path d="M1241.2656,1244.9961 Q1241.4219,1244.7773 1241.6094,1244.668 Q1241.7969,1244.5586 1242.0156,1244.5586 Q1242.3906,1244.5586 1242.625,1244.8242 Q1242.8594,1245.0742 1242.8594,1245.6836 L1242.8594,1247.1367 Q1242.8594,1247.7461 1242.625,1248.0117 Q1242.3906,1248.2773 1242.0156,1248.2773 Q1241.6719,1248.2773 1241.4688,1248.0742 Q1241.2656,1247.8867 1241.1563,1247.3711 Q1241.1094,1247.0117 1240.9219,1246.8242 Q1240.5938,1246.4492 1239.9844,1246.2305 Q1239.375,1246.0117 1238.75,1246.0117 Q1237.9844,1246.0117 1237.3438,1246.3398 Q1236.7188,1246.668 1236.2188,1247.418 Q1235.7344,1248.168 1235.7344,1249.1992 L1235.7344,1250.293 Q1235.7344,1251.5273 1236.625,1252.3555 Q1237.5156,1253.168 1239.1094,1253.168 Q1240.0469,1253.168 1240.7031,1252.918 Q1241.0938,1252.7617 1241.5156,1252.3242 Q1241.7813,1252.0586 1241.9219,1251.9805 Q1242.0781,1251.9023 1242.2813,1251.9023 Q1242.6094,1251.9023 1242.8594,1252.168 Q1243.125,1252.418 1243.125,1252.7617 Q1243.125,1253.1055 1242.7813,1253.5117 Q1242.2813,1254.0898 1241.4844,1254.418 Q1240.4063,1254.8711 1239.1094,1254.8711 Q1237.5938,1254.8711 1236.3906,1254.2461 Q1235.4063,1253.7461 1234.7188,1252.6836 Q1234.0313,1251.6055 1234.0313,1250.3242 L1234.0313,1249.168 Q1234.0313,1247.8398 1234.6406,1246.6992 Q1235.2656,1245.543 1236.3594,1244.9336 Q1237.4531,1244.3086 1238.6875,1244.3086 Q1239.4219,1244.3086 1240.0625,1244.4805 Q1240.7188,1244.6367 1241.2656,1244.9961 Z " fill="#000000"/><text fill="#000000" font-family="sans-serif" font-size="14" lengthAdjust="spacing" textLength="135.3994" x="1252.5" y="1254.918">VaccinationCertificate</text><line style="stroke:#181818;stroke-width:0.5;" x1="1224.5" x2="1389.8994" y1="1265.1211" y2="1265.1211"/><text fill="#000000" font-family="sans-serif" font-size="14" lengthAdjust="spacing" textLength="111.6719" x="1229.5" y="1284.2285">+issueDate : Date</text></g><!--class Outbreak--><g class="entity" data-entity="Outbreak" data-source-line="106" data-uid="ent0027" id="entity_Outbreak"><rect fill="#F1F1F1" height="95.8633" rx="2.5" ry="2.5" style="stroke:#181818;stroke-width:0.5;" width="126.7959" x="28.5" y="984.1211"/><ellipse cx="60.2445" cy="1000.1211" fill="#ADD1B2" rx="11" ry="11" style="stroke:#181818;stroke-width:1;"/><path d="M63.0101,995.9961 Q63.1664,995.7773 63.3539,995.668 Q63.5414,995.5586 63.7601,995.5586 Q64.1351,995.5586 64.3695,995.8242 Q64.6039,996.0742 64.6039,996.6836 L64.6039,998.1367 Q64.6039,998.7461 64.3695,999.0117 Q64.1351,999.2773 63.7601,999.2773 Q63.4164,999.2773 63.2132,999.0742 Q63.0101,998.8867 62.9007,998.3711 Q62.8539,998.0117 62.6664,997.8242 Q62.3382,997.4492 61.7289,997.2305 Q61.1195,997.0117 60.4945,997.0117 Q59.7289,997.0117 59.0882,997.3398 Q58.4632,997.668 57.9632,998.418 Q57.4789,999.168 57.4789,1000.1992 L57.4789,1001.293 Q57.4789,1002.5273 58.3695,1003.3555 Q59.2601,1004.168 60.8539,1004.168 Q61.7914,1004.168 62.4476,1003.918 Q62.8382,1003.7617 63.2601,1003.3242 Q63.5257,1003.0586 63.6664,1002.9805 Q63.8226,1002.9023 64.0257,1002.9023 Q64.3539,1002.9023 64.6039,1003.168 Q64.8695,1003.418 64.8695,1003.7617 Q64.8695,1004.1055 64.5257,1004.5117 Q64.0257,1005.0898 63.2289,1005.418 Q62.1507,1005.8711 60.8539,1005.8711 Q59.3382,1005.8711 58.1351,1005.2461 Q57.1507,1004.7461 56.4632,1003.6836 Q55.7757,1002.6055 55.7757,1001.3242 L55.7757,1000.168 Q55.7757,998.8398 56.3851,997.6992 Q57.0101,996.543 58.1039,995.9336 Q59.1976,995.3086 60.432,995.3086 Q61.1664,995.3086 61.807,995.4805 Q62.4632,995.6367 63.0101,995.9961 Z " fill="#000000"/><text fill="#000000" font-family="sans-serif" font-size="14" lengthAdjust="spacing" textLength="57.5859" x="77.9655" y="1005.918">Outbreak</text><line style="stroke:#181818;stroke-width:0.5;" x1="29.5" x2="154.2959" y1="1016.1211" y2="1016.1211"/><text fill="#000000" font-family="sans-serif" font-size="14" lengthAdjust="spacing" textLength="91.4375" x="34.5" y="1035.2285">+name : String</text><text fill="#000000" font-family="sans-serif" font-size="14" lengthAdjust="spacing" textLength="106.2168" x="34.5" y="1053.8496">+startDate : Date</text><text fill="#000000" font-family="sans-serif" font-size="14" lengthAdjust="spacing" textLength="114.7959" x="34.5" y="1072.4707">+current : Boolean</text></g><!--class WaitingRoom--><g class="entity" data-entity="WaitingRoom" data-source-line="113" data-uid="ent0028" id="entity_WaitingRoom"><rect fill="#F1F1F1" height="58.6211" rx="2.5" ry="2.5" style="stroke:#181818;stroke-width:0.5;" width="116.0273" x="676" y="1233.1211"/><ellipse cx="691" cy="1249.1211" fill="#ADD1B2" rx="11" ry="11" style="stroke:#181818;stroke-width:1;"/><path d="M693.7656,1244.9961 Q693.9219,1244.7773 694.1094,1244.668 Q694.2969,1244.5586 694.5156,1244.5586 Q694.8906,1244.5586 695.125,1244.8242 Q695.3594,1245.0742 695.3594,1245.6836 L695.3594,1247.1367 Q695.3594,1247.7461 695.125,1248.0117 Q694.8906,1248.2773 694.5156,1248.2773 Q694.1719,1248.2773 693.9688,1248.0742 Q693.7656,1247.8867 693.6563,1247.3711 Q693.6094,1247.0117 693.4219,1246.8242 Q693.0938,1246.4492 692.4844,1246.2305 Q691.875,1246.0117 691.25,1246.0117 Q690.4844,1246.0117 689.8438,1246.3398 Q689.2188,1246.668 688.7188,1247.418 Q688.2344,1248.168 688.2344,1249.1992 L688.2344,1250.293 Q688.2344,1251.5273 689.125,1252.3555 Q690.0156,1253.168 691.6094,1253.168 Q692.5469,1253.168 693.2031,1252.918 Q693.5938,1252.7617 694.0156,1252.3242 Q694.2813,1252.0586 694.4219,1251.9805 Q694.5781,1251.9023 694.7813,1251.9023 Q695.1094,1251.9023 695.3594,1252.168 Q695.625,1252.418 695.625,1252.7617 Q695.625,1253.1055 695.2813,1253.5117 Q694.7813,1254.0898 693.9844,1254.418 Q692.9063,1254.8711 691.6094,1254.8711 Q690.0938,1254.8711 688.8906,1254.2461 Q687.9063,1253.7461 687.2188,1252.6836 Q686.5313,1251.6055 686.5313,1250.3242 L686.5313,1249.168 Q686.5313,1247.8398 687.1406,1246.6992 Q687.7656,1245.543 688.8594,1244.9336 Q689.9531,1244.3086 691.1875,1244.3086 Q691.9219,1244.3086 692.5625,1244.4805 Q693.2188,1244.6367 693.7656,1244.9961 Z " fill="#000000"/><text fill="#000000" font-family="sans-serif" font-size="14" lengthAdjust="spacing" textLength="84.0273" x="705" y="1254.918">WaitingRoom</text><line style="stroke:#181818;stroke-width:0.5;" x1="677" x2="791.0273" y1="1265.1211" y2="1265.1211"/><text fill="#000000" font-family="sans-serif" font-size="14" lengthAdjust="spacing" textLength="91.4375" x="682" y="1284.2285">+name : String</text></g><!--class CheckIn--><g class="entity" data-entity="CheckIn" data-source-line="117" data-uid="ent0029" id="entity_CheckIn"><rect fill="#F1F1F1" height="58.6211" rx="2.5" ry="2.5" style="stroke:#181818;stroke-width:0.5;" width="150.8857" x="658.5" y="1002.6211"/><ellipse cx="704.0137" cy="1018.6211" fill="#ADD1B2" rx="11" ry="11" style="stroke:#181818;stroke-width:1;"/><path d="M706.7793,1014.4961 Q706.9355,1014.2773 707.123,1014.168 Q707.3105,1014.0586 707.5293,1014.0586 Q707.9043,1014.0586 708.1387,1014.3242 Q708.373,1014.5742 708.373,1015.1836 L708.373,1016.6367 Q708.373,1017.2461 708.1387,1017.5117 Q707.9043,1017.7773 707.5293,1017.7773 Q707.1855,1017.7773 706.9824,1017.5742 Q706.7793,1017.3867 706.6699,1016.8711 Q706.623,1016.5117 706.4355,1016.3242 Q706.1074,1015.9492 705.498,1015.7305 Q704.8887,1015.5117 704.2637,1015.5117 Q703.498,1015.5117 702.8574,1015.8398 Q702.2324,1016.168 701.7324,1016.918 Q701.248,1017.668 701.248,1018.6992 L701.248,1019.793 Q701.248,1021.0273 702.1387,1021.8555 Q703.0293,1022.668 704.623,1022.668 Q705.5605,1022.668 706.2168,1022.418 Q706.6074,1022.2617 707.0293,1021.8242 Q707.2949,1021.5586 707.4355,1021.4805 Q707.5918,1021.4023 707.7949,1021.4023 Q708.123,1021.4023 708.373,1021.668 Q708.6387,1021.918 708.6387,1022.2617 Q708.6387,1022.6055 708.2949,1023.0117 Q707.7949,1023.5898 706.998,1023.918 Q705.9199,1024.3711 704.623,1024.3711 Q703.1074,1024.3711 701.9043,1023.7461 Q700.9199,1023.2461 700.2324,1022.1836 Q699.5449,1021.1055 699.5449,1019.8242 L699.5449,1018.668 Q699.5449,1017.3398 700.1543,1016.1992 Q700.7793,1015.043 701.873,1014.4336 Q702.9668,1013.8086 704.2012,1013.8086 Q704.9355,1013.8086 705.5762,1013.9805 Q706.2324,1014.1367 706.7793,1014.4961 Z " fill="#000000"/><text fill="#000000" font-family="sans-serif" font-size="14" lengthAdjust="spacing" textLength="51.3584" x="724.5137" y="1024.418">CheckIn</text><line style="stroke:#181818;stroke-width:0.5;" x1="659.5" x2="808.3857" y1="1034.6211" y2="1034.6211"/><text fill="#000000" font-family="sans-serif" font-size="14" lengthAdjust="spacing" textLength="138.8857" x="664.5" y="1053.7285">+dateTime : DateTime</text></g><!--class VaccineSchedule--><g class="entity" data-entity="VaccineSchedule" data-source-line="122" data-uid="ent0030" id="entity_VaccineSchedule"><rect fill="#F1F1F1" height="95.8633" rx="2.5" ry="2.5" style="stroke:#181818;stroke-width:0.5;" width="140.1855" x="444" y="523.1211"/><ellipse cx="459" cy="539.1211" fill="#ADD1B2" rx="11" ry="11" style="stroke:#181818;stroke-width:1;"/><path d="M461.7656,534.9961 Q461.9219,534.7773 462.1094,534.668 Q462.2969,534.5586 462.5156,534.5586 Q462.8906,534.5586 463.125,534.8242 Q463.3594,535.0742 463.3594,535.6836 L463.3594,537.1367 Q463.3594,537.7461 463.125,538.0117 Q462.8906,538.2773 462.5156,538.2773 Q462.1719,538.2773 461.9688,538.0742 Q461.7656,537.8867 461.6563,537.3711 Q461.6094,537.0117 461.4219,536.8242 Q461.0938,536.4492 460.4844,536.2305 Q459.875,536.0117 459.25,536.0117 Q458.4844,536.0117 457.8438,536.3398 Q457.2188,536.668 456.7188,537.418 Q456.2344,538.168 456.2344,539.1992 L456.2344,540.293 Q456.2344,541.5273 457.125,542.3555 Q458.0156,543.168 459.6094,543.168 Q460.5469,543.168 461.2031,542.918 Q461.5938,542.7617 462.0156,542.3242 Q462.2813,542.0586 462.4219,541.9805 Q462.5781,541.9023 462.7813,541.9023 Q463.1094,541.9023 463.3594,542.168 Q463.625,542.418 463.625,542.7617 Q463.625,543.1055 463.2813,543.5117 Q462.7813,544.0898 461.9844,544.418 Q460.9063,544.8711 459.6094,544.8711 Q458.0938,544.8711 456.8906,544.2461 Q455.9063,543.7461 455.2188,542.6836 Q454.5313,541.6055 454.5313,540.3242 L454.5313,539.168 Q454.5313,537.8398 455.1406,536.6992 Q455.7656,535.543 456.8594,534.9336 Q457.9531,534.3086 459.1875,534.3086 Q459.9219,534.3086 460.5625,534.4805 Q461.2188,534.6367 461.7656,534.9961 Z " fill="#000000"/><text fill="#000000" font-family="sans-serif" font-size="14" lengthAdjust="spacing" textLength="108.1855" x="473" y="544.918">VaccineSchedule</text><line style="stroke:#181818;stroke-width:0.5;" x1="445" x2="583.1855" y1="555.1211" y2="555.1211"/><text fill="#000000" font-family="sans-serif" font-size="14" lengthAdjust="spacing" textLength="76.2412" x="450" y="574.2285">-snsNumber</text><text fill="#000000" font-family="sans-serif" font-size="14" lengthAdjust="spacing" textLength="31.9102" x="450" y="592.8496">-date</text><text fill="#000000" font-family="sans-serif" font-size="14" lengthAdjust="spacing" textLength="31.1104" x="450" y="611.4707">-time</text></g><!--reverse link StaffMember to Receptionist--><g class="link" data-entity-1="StaffMember" data-entity-2="Receptionist" data-source-line="27" data-uid="lnk5" id="link_StaffMember_Receptionist"><path d="M1042.0539,175.162 C967.0739,208.762 873.31,250.7711 813.47,277.5911" fill="none" id="StaffMember-backto-Receptionist" style="stroke:#181818;stroke-width:1;"/><polygon fill="none" points="1058.48,167.8011,1039.6003,169.6866,1044.5075,180.6373,1058.48,167.8011" style="stroke:#181818;stroke-width:1;"/></g><!--reverse link StaffMember to Nurse--><g class="link" data-entity-1="StaffMember" data-entity-2="Nurse" data-source-line="28" data-uid="lnk7" id="link_StaffMember_Nurse"><path d="M1219.2708,201.6622 C1247.0308,230.4222 1260,255.1611 1260,296.6211 C1260,296.6211 1260,296.6211 1260,572.1211 C1260,651.1011 1287.27,742.3411 1300.27,781.3311" fill="none" id="StaffMember-backto-Nurse" style="stroke:#181818;stroke-width:1;"/><polygon fill="none" points="1206.77,188.7111,1214.9537,205.8291,1223.5878,197.4953,1206.77,188.7111" style="stroke:#181818;stroke-width:1;"/></g><!--reverse link StaffMember to DGSAdministrator--><g class="link" data-entity-1="StaffMember" data-entity-2="DGSAdministrator" data-source-line="30" data-uid="lnk12" id="link_StaffMember_DGSAdministrator"><path d="M1211.4731,200.3602 C1223.1631,210.1102 1221.77,208.2711 1234,216.6211 C1253.89,230.2011 1309.18,258.4811 1347.28,277.5211" fill="none" id="StaffMember-backto-DGSAdministrator" style="stroke:#181818;stroke-width:1;"/><polygon fill="none" points="1197.65,188.8311,1207.6301,204.9679,1215.3162,195.7525,1197.65,188.8311" style="stroke:#181818;stroke-width:1;"/></g><!--reverse link VaccinationCenter to HealthcareCenter--><g class="link" data-entity-1="VaccinationCenter" data-entity-2="HealthcareCenter" data-source-line="45" data-uid="lnk15" id="link_VaccinationCenter_HealthcareCenter"><path d="M478.311,1142.8793 C469.631,1160.8493 466.28,1162.0611 452,1175.6211 C424.46,1201.7711 406.02,1188.7611 372,1205.6211 C350.41,1216.3211 327.42,1230.8811 310.22,1242.4611" fill="none" id="VaccinationCenter-backto-HealthcareCenter" style="stroke:#181818;stroke-width:1;"/><polygon fill="none" points="486.14,1126.6711,472.9082,1140.2696,483.7137,1145.489,486.14,1126.6711" style="stroke:#181818;stroke-width:1;"/></g><!--reverse link VaccinationCenter to CommunityMassVaccinationCenter--><g class="link" data-entity-1="VaccinationCenter" data-entity-2="CommunityMassVaccinationCenter" data-source-line="46" data-uid="lnk17" id="link_VaccinationCenter_CommunityMassVaccinationCenter"><path d="M514.4893,1144.7209 C514.6793,1187.8609 514.8,1217.0611 514.92,1242.6111" fill="none" id="VaccinationCenter-backto-CommunityMassVaccinationCenter" style="stroke:#181818;stroke-width:1;"/><polygon fill="none" points="514.41,1126.7211,508.4893,1144.7473,520.4892,1144.6945,514.41,1126.7211" style="stroke:#181818;stroke-width:1;"/></g><!--link VaccinationCenter to VaccineType--><g class="link" data-entity-1="VaccinationCenter" data-entity-2="VaccineType" data-source-line="49" data-uid="lnk19" id="link_VaccinationCenter_VaccineType"><path codeLine="49" d="M413.23,1126.9011 C387.63,1149.0111 363.13,1168.3011 348,1175.6211 C285.24,1206.0111 259.57,1181.8911 194,1205.6211 C180.32,1210.5711 166.27,1217.1711 153.14,1224.0911" fill="none" id="VaccinationCenter-VaccineType" style="stroke:#181818;stroke-width:1;"/><polygon fill="#000000" points="374.3163,1168.0168,383.8179,1167.6037,381.7604,1162.0977,374.3163,1168.0168" style="stroke:#000000;stroke-width:1;"/><text fill="#000000" font-family="sans-serif" font-size="13" lengthAdjust="spacing" textLength="49.8608" x="388" y="1171.6494">supports</text><text fill="#000000" font-family="sans-serif" font-size="13" lengthAdjust="spacing" textLength="7.23" x="398.5879" y="1148.5259">1</text><text fill="#000000" font-family="sans-serif" font-size="13" lengthAdjust="spacing" textLength="19.5127" x="143.4225" y="1212.7465">0..*</text></g><!--link VaccineType to Vaccine--><g class="link" data-entity-1="VaccineType" data-entity-2="Vaccine" data-source-line="65" data-uid="lnk21" id="link_VaccineType_Vaccine"><path codeLine="65" d="M156.12,1301.1511 C168.49,1307.7211 181.49,1314.1911 194,1319.6211 C292.06,1362.2411 409.46,1398.8611 488.21,1421.4611" fill="none" id="VaccineType-Vaccine" style="stroke:#181818;stroke-width:1;"/><polygon fill="#000000" points="327.701,1360.9697,320.1979,1355.1256,318.1958,1360.652,327.701,1360.9697" style="stroke:#000000;stroke-width:1;"/><text fill="#000000" font-family="sans-serif" font-size="13" lengthAdjust="spacing" textLength="78.7744" x="332" y="1364.6494">has brands of</text><text fill="#000000" font-family="sans-serif" font-size="13" lengthAdjust="spacing" textLength="7.23" x="159.5959" y="1323.2669">1</text><text fill="#000000" font-family="sans-serif" font-size="13" lengthAdjust="spacing" textLength="19.5127" x="461.078" y="1415.7197">1..*</text></g><!--link SNSUser to Appointment--><g class="link" data-entity-1="SNSUser" data-entity-2="Appointment" data-source-line="129" data-uid="lnk31" id="link_SNSUser_Appointment"><path codeLine="129" d="M755.84,665.7211 C751.51,692.4611 746.93,720.7711 743.09,744.5111" fill="none" id="SNSUser-Appointment" style="stroke:#181818;stroke-width:1;"/><polygon fill="#000000" points="754.2013,710.2024,758.5474,701.7429,752.745,700.804,754.2013,710.2024" style="stroke:#000000;stroke-width:1;"/><text fill="#000000" font-family="sans-serif" font-size="13" lengthAdjust="spacing" textLength="58.5381" x="764" y="710.6494">schedules</text><text fill="#000000" font-family="sans-serif" font-size="13" lengthAdjust="spacing" textLength="7.23" x="747.4385" y="687.6553">1</text><text fill="#000000" font-family="sans-serif" font-size="13" lengthAdjust="spacing" textLength="19.5127" x="724.0513" y="733.5314">0..*</text></g><!--link Appointment to VaccinationCenter--><g class="link" data-entity-1="Appointment" data-entity-2="VaccinationCenter" data-source-line="130" data-uid="lnk32" id="link_Appointment_VaccinationCenter"><path codeLine="130" d="M679.9,858.8111 C657.13,882.4611 630,910.6411 604.35,937.2811" fill="none" id="Appointment-VaccinationCenter" style="stroke:#181818;stroke-width:1;"/><polygon fill="#000000" points="651.5321,901.8685,659.9227,897.391,655.6884,893.3142,651.5321,901.8685" style="stroke:#000000;stroke-width:1;"/><text fill="#000000" font-family="sans-serif" font-size="13" lengthAdjust="spacing" textLength="10.8418" x="664" y="903.6494">at</text><text fill="#000000" font-family="sans-serif" font-size="13" lengthAdjust="spacing" textLength="19.5127" x="652.7631" y="881.2436">0..*</text><text fill="#000000" font-family="sans-serif" font-size="13" lengthAdjust="spacing" textLength="7.23" x="604.0153" y="926.4098">1</text></g><!--link Appointment to VaccineType--><g class="link" data-entity-1="Appointment" data-entity-2="VaccineType" data-source-line="131" data-uid="lnk33" id="link_Appointment_VaccineType"><path codeLine="131" d="M638.19,831.7411 C531.2,864.9511 370.03,917.2611 348,937.6211 C263.08,1016.0811 320.47,1089.8011 243,1175.6211 C239.63,1179.3611 198.71,1202.5811 160.32,1223.9611" fill="none" id="Appointment-VaccineType" style="stroke:#181818;stroke-width:1;"/><polygon fill="#000000" points="349.1351,1035.4388,357.9913,1031.972,354.2622,1027.4285,349.1351,1035.4388" style="stroke:#000000;stroke-width:1;"/><text fill="#000000" font-family="sans-serif" font-size="13" lengthAdjust="spacing" textLength="28.1709" x="362" y="1037.6494">is for</text><text fill="#000000" font-family="sans-serif" font-size="13" lengthAdjust="spacing" textLength="19.5127" x="611.1343" y="830.4173">0..*</text><text fill="#000000" font-family="sans-serif" font-size="13" lengthAdjust="spacing" textLength="7.23" x="164.5178" y="1212.888">1</text></g><!--link Appointment to VaccinationEvent--><g class="link" data-entity-1="Appointment" data-entity-2="VaccinationEvent" data-source-line="133" data-uid="lnk34" id="link_Appointment_VaccinationEvent"><path codeLine="133" d="M810.72,858.8111 C867.92,900.7011 944.48,956.7711 994.5,993.4011" fill="none" id="Appointment-VaccinationEvent" style="stroke:#181818;stroke-width:1;"/><polygon fill="#000000" points="880.0339,901.2208,874.4729,893.5055,871,898.2477,880.0339,901.2208" style="stroke:#000000;stroke-width:1;"/><text fill="#000000" font-family="sans-serif" font-size="13" lengthAdjust="spacing" textLength="52.019" x="885" y="903.6494">results in</text><text fill="#000000" font-family="sans-serif" font-size="13" lengthAdjust="spacing" textLength="7.23" x="813.0951" y="881.2436">1</text><text fill="#000000" font-family="sans-serif" font-size="13" lengthAdjust="spacing" textLength="21.6836" x="962.8714" y="982.3177">0..1</text></g><!--link VaccinationEvent to Vaccine--><g class="link" data-entity-1="VaccinationEvent" data-entity-2="Vaccine" data-source-line="134" data-uid="lnk35" id="link_VaccinationEvent_Vaccine"><path codeLine="134" d="M1053.36,1070.8311 C1062.87,1131.6511 1071.39,1251.4711 1008,1319.6211 C919.6,1414.6611 763.87,1439.3811 665.79,1445.0411" fill="none" id="VaccinationEvent-Vaccine" style="stroke:#181818;stroke-width:1;"/><polygon fill="#000000" points="1057.403,1266.2396,1065.9514,1262.0711,1061.8686,1257.8426,1057.403,1266.2396" style="stroke:#000000;stroke-width:1;"/><text fill="#000000" font-family="sans-serif" font-size="13" lengthAdjust="spacing" textLength="112.0044" x="1070" y="1268.1494">records brand/lot of</text><text fill="#000000" font-family="sans-serif" font-size="13" lengthAdjust="spacing" textLength="19.5127" x="1034.0052" y="1092.9778">0..*</text><text fill="#000000" font-family="sans-serif" font-size="13" lengthAdjust="spacing" textLength="7.23" x="673.717" y="1441.2215">1</text></g><!--link VaccinationEvent to AdverseReaction--><g class="link" data-entity-1="VaccinationEvent" data-entity-2="AdverseReaction" data-source-line="135" data-uid="lnk36" id="link_VaccinationEvent_AdverseReaction"><path codeLine="135" d="M1022.9,1070.8811 C1008.01,1095.3011 988.27,1127.7811 971,1156.6211 C961.54,1172.4211 951.35,1189.6111 942.01,1205.4211" fill="none" id="VaccinationEvent-AdverseReaction" style="stroke:#181818;stroke-width:1;"/><polygon fill="#000000" points="973.4236,1170.5517,980.6031,1164.3142,975.5656,1161.2855,973.4236,1170.5517" style="stroke:#000000;stroke-width:1;"/><text fill="#000000" font-family="sans-serif" font-size="13" lengthAdjust="spacing" textLength="49.8608" x="985" y="1171.6494">captures</text><text fill="#000000" font-family="sans-serif" font-size="13" lengthAdjust="spacing" textLength="7.23" x="1011.3168" y="1093.0364">1</text><text fill="#000000" font-family="sans-serif" font-size="13" lengthAdjust="spacing" textLength="19.5127" x="925.8853" y="1194.4304">0..*</text></g><!--link SNSUser to VaccinationCertificate--><g class="link" data-entity-1="SNSUser" data-entity-2="VaccinationCertificate" data-source-line="137" data-uid="lnk37" id="link_SNSUser_VaccinationCertificate"><path codeLine="137" d="M893.26,639.8611 C984.01,695.8111 1104.6,783.0411 1180,888.6211 C1259.91,1000.5111 1292.63,1166.6411 1303,1232.8611" fill="none" id="SNSUser-VaccinationCertificate" style="stroke:#181818;stroke-width:1;"/><polygon fill="#000000" points="1198.8423,902.3802,1196.1184,893.268,1191.2826,896.6093,1198.8423,902.3802" style="stroke:#000000;stroke-width:1;"/><text fill="#000000" font-family="sans-serif" font-size="13" lengthAdjust="spacing" textLength="41.9199" x="1205" y="903.6494">obtains</text><text fill="#000000" font-family="sans-serif" font-size="13" lengthAdjust="spacing" textLength="7.23" x="900.551" y="640.3814">1</text><text fill="#000000" font-family="sans-serif" font-size="13" lengthAdjust="spacing" textLength="19.5127" x="1281.2273" y="1222.0674">0..*</text></g><!--link VaccinationEvent to VaccinationCertificate--><g class="link" data-entity-1="VaccinationEvent" data-entity-2="VaccinationCertificate" data-source-line="138" data-uid="lnk38" id="link_VaccinationEvent_VaccinationCertificate"><path codeLine="138" d="M1055.9,1070.6311 C1066.1,1102.5211 1084.96,1147.4811 1116,1175.6211 C1144.13,1201.1311 1161.22,1190.3811 1196,1205.6211 C1214.98,1213.9411 1235.33,1223.8911 1253.36,1233.0811" fill="none" id="VaccinationEvent-VaccinationCertificate" style="stroke:#181818;stroke-width:1;"/><polygon fill="#000000" points="1124.8612,1169.4432,1119.7434,1161.4271,1116.009,1165.9662,1124.8612,1169.4432" style="stroke:#000000;stroke-width:1;"/><text fill="#000000" font-family="sans-serif" font-size="13" lengthAdjust="spacing" textLength="63.5908" x="1130" y="1171.6494">documents</text><text fill="#000000" font-family="sans-serif" font-size="13" lengthAdjust="spacing" textLength="7.23" x="1058.2752" y="1093.0374">1</text><text fill="#000000" font-family="sans-serif" font-size="13" lengthAdjust="spacing" textLength="7.23" x="1233.8421" y="1221.8614">1</text></g><!--link Nurse to VaccinationEvent--><g class="link" data-entity-1="Nurse" data-entity-2="VaccinationEvent" data-source-line="139" data-uid="lnk39" id="link_Nurse_VaccinationEvent"><path codeLine="139" d="M1272.31,807.6311 C1225.72,816.1311 1143.21,837.7211 1095,888.6211 C1067.83,917.3011 1055.67,961.7211 1050.26,993.3411" fill="none" id="Nurse-VaccinationEvent" style="stroke:#181818;stroke-width:1;"/><polygon fill="#000000" points="1096.1646,901.4743,1104.9884,897.9259,1101.2175,893.4171,1096.1646,901.4743" style="stroke:#000000;stroke-width:1;"/><text fill="#000000" font-family="sans-serif" font-size="13" lengthAdjust="spacing" textLength="66.4663" x="1109" y="903.6494">administers</text><text fill="#000000" font-family="sans-serif" font-size="13" lengthAdjust="spacing" textLength="7.23" x="1257.4215" y="804.1759">1</text><text fill="#000000" font-family="sans-serif" font-size="13" lengthAdjust="spacing" textLength="19.5127" x="1030.3724" y="982.2474">0..*</text></g><!--link Nurse to VaccinationCertificate--><g class="link" data-entity-1="Nurse" data-entity-2="VaccinationCertificate" data-source-line="140" data-uid="lnk40" id="link_Nurse_VaccinationCertificate"><path codeLine="140" d="M1307,821.7611 C1307,893.5311 1307,1146.9411 1307,1232.8711" fill="none" id="Nurse-VaccinationCertificate" style="stroke:#181818;stroke-width:1;"/><polygon fill="#000000" points="1312,1037.2666,1314.9389,1028.2215,1309.0611,1028.2215,1312,1037.2666" style="stroke:#000000;stroke-width:1;"/><text fill="#000000" font-family="sans-serif" font-size="13" lengthAdjust="spacing" textLength="79.479" x="1321" y="1037.6494">issues on-site</text><text fill="#000000" font-family="sans-serif" font-size="13" lengthAdjust="spacing" textLength="7.23" x="1299.044" y="843.5255">1</text><text fill="#000000" font-family="sans-serif" font-size="13" lengthAdjust="spacing" textLength="19.5127" x="1308.9711" y="1222.0794">0..*</text></g><!--link StaffMember to VaccinationCenter--><g class="link" data-entity-1="StaffMember" data-entity-2="VaccinationCenter" data-source-line="142" data-uid="lnk41" id="link_StaffMember_VaccinationCenter"><path codeLine="142" d="M1058.27,139.5611 C847.8,159.1511 288,218.6011 288,296.6211 C288,296.6211 288,296.6211 288,802.6211 C288,821.2811 349.69,882.8111 408.61,937.3311" fill="none" id="StaffMember-VaccinationCenter" style="stroke:#181818;stroke-width:1;"/><polygon fill="#000000" points="289.8427,441.1437,297.8332,435.9858,293.2754,432.2742,289.8427,441.1437" style="stroke:#000000;stroke-width:1;"/><text fill="#000000" font-family="sans-serif" font-size="13" lengthAdjust="spacing" textLength="48.4009" x="302" y="442.6494">works at</text><text fill="#000000" font-family="sans-serif" font-size="13" lengthAdjust="spacing" textLength="19.5127" x="1030.8786" y="136.5268">0..*</text><text fill="#000000" font-family="sans-serif" font-size="13" lengthAdjust="spacing" textLength="19.5127" x="380.8404" y="926.4636">0..*</text></g><!--link Outbreak to VaccineType--><g class="link" data-entity-1="Outbreak" data-entity-2="VaccineType" data-source-line="144" data-uid="lnk42" id="link_Outbreak_VaccineType"><path codeLine="144" d="M92,1080.1911 C92,1122.7811 92,1184.6911 92,1224.0511" fill="none" id="Outbreak-VaccineType" style="stroke:#181818;stroke-width:1;"/><polygon fill="#000000" points="97,1171.2666,99.9389,1162.2215,94.0611,1162.2215,97,1171.2666" style="stroke:#000000;stroke-width:1;"/><text fill="#000000" font-family="sans-serif" font-size="13" lengthAdjust="spacing" textLength="58.5317" x="106" y="1171.6494">defaultFor</text><text fill="#000000" font-family="sans-serif" font-size="13" lengthAdjust="spacing" textLength="21.6836" x="69.6487" y="1101.8497">0..1</text><text fill="#000000" font-family="sans-serif" font-size="13" lengthAdjust="spacing" textLength="7.23" x="84.4553" y="1212.9935">1</text></g><!--link VaccinationCenter to WaitingRoom--><g class="link" data-entity-1="VaccinationCenter" data-entity-2="WaitingRoom" data-source-line="146" data-uid="lnk43" id="link_VaccinationCenter_WaitingRoom"><path codeLine="146" d="M604.12,1126.7211 C640.9,1164.9311 680.76,1206.3211 706.48,1233.0411" fill="none" id="VaccinationCenter-WaitingRoom" style="stroke:#181818;stroke-width:1;"/><polygon fill="#000000" points="658.4678,1169.8686,654.3117,1161.3142,650.0773,1165.3909,658.4678,1169.8686" style="stroke:#000000;stroke-width:1;"/><text fill="#000000" font-family="sans-serif" font-size="13" lengthAdjust="spacing" textLength="20.96" x="664" y="1171.6494">has</text><text fill="#000000" font-family="sans-serif" font-size="13" lengthAdjust="spacing" textLength="7.23" x="603.7677" y="1148.6553">1</text><text fill="#000000" font-family="sans-serif" font-size="13" lengthAdjust="spacing" textLength="19.5127" x="679.435" y="1221.8127">1..*</text></g><!--link Appointment to CheckIn--><g class="link" data-entity-1="Appointment" data-entity-2="CheckIn" data-source-line="147" data-uid="lnk44" id="link_Appointment_CheckIn"><path codeLine="147" d="M734,858.8111 C734,904.2711 734,966.4211 734,1002.3211" fill="none" id="Appointment-CheckIn" style="stroke:#181818;stroke-width:1;"/><polygon fill="#000000" points="739,903.2666,741.9389,894.2215,736.0611,894.2215,739,903.2666" style="stroke:#000000;stroke-width:1;"/><text fill="#000000" font-family="sans-serif" font-size="13" lengthAdjust="spacing" textLength="57.8208" x="748" y="903.6494">generates</text><text fill="#000000" font-family="sans-serif" font-size="13" lengthAdjust="spacing" textLength="7.23" x="726.5453" y="881.2436">1</text><text fill="#000000" font-family="sans-serif" font-size="13" lengthAdjust="spacing" textLength="21.6836" x="710.9167" y="991.5191">0..1</text></g><!--link CheckIn to WaitingRoom--><g class="link" data-entity-1="CheckIn" data-entity-2="WaitingRoom" data-source-line="148" data-uid="lnk45" id="link_CheckIn_WaitingRoom"><path codeLine="148" d="M734,1062.0611 C734,1106.0111 734,1189.1011 734,1232.9211" fill="none" id="CheckIn-WaitingRoom" style="stroke:#181818;stroke-width:1;"/><polygon fill="#000000" points="739,1171.2666,741.9389,1162.2215,736.0611,1162.2215,739,1171.2666" style="stroke:#000000;stroke-width:1;"/><text fill="#000000" font-family="sans-serif" font-size="13" lengthAdjust="spacing" textLength="58.5317" x="748" y="1171.6494">assigns to</text><text fill="#000000" font-family="sans-serif" font-size="13" lengthAdjust="spacing" textLength="7.23" x="726.3864" y="1083.2385">1</text><text fill="#000000" font-family="sans-serif" font-size="13" lengthAdjust="spacing" textLength="7.23" x="726.2565" y="1221.6664">1</text></g><!--link Receptionist to VaccineSchedule--><g class="link" data-entity-1="Receptionist" data-entity-2="VaccineSchedule" data-source-line="149" data-uid="lnk46" id="link_Receptionist_VaccineSchedule"><path codeLine="149" d="M751.09,317.7611 C734.53,333.8011 710.45,357.4211 690,378.6211 C643.29,427.0411 591.33,483.9711 556.06,523.1011" fill="none" id="Receptionist-VaccineSchedule" style="stroke:#181818;stroke-width:1;"/><polygon fill="#000000" points="691.5567,391.892,699.9167,387.3576,695.6548,383.3097,691.5567,391.892" style="stroke:#000000;stroke-width:1;"/><text fill="#000000" font-family="sans-serif" font-size="13" lengthAdjust="spacing" textLength="58.5381" x="704" y="393.6494">schedules</text><text fill="#000000" font-family="sans-serif" font-size="13" lengthAdjust="spacing" textLength="7.23" x="737.824" y="339.5255">1</text><text fill="#000000" font-family="sans-serif" font-size="13" lengthAdjust="spacing" textLength="19.5127" x="541.8663" y="511.8595">0..*</text></g><!--link Receptionist to SNSUser--><g class="link" data-entity-1="Receptionist" data-entity-2="SNSUser" data-source-line="150" data-uid="lnk47" id="link_Receptionist_SNSUser"><path codeLine="150" d="M771,317.7111 C771,350.3611 771,418.9611 771,476.4211" fill="none" id="Receptionist-SNSUser" style="stroke:#181818;stroke-width:1;"/><polygon fill="#000000" points="776,393.2666,778.9389,384.2215,773.0611,384.2215,776,393.2666" style="stroke:#000000;stroke-width:1;"/><text fill="#000000" font-family="sans-serif" font-size="13" lengthAdjust="spacing" textLength="53.479" x="785" y="393.6494">manages</text><text fill="#000000" font-family="sans-serif" font-size="13" lengthAdjust="spacing" textLength="7.23" x="763.0422" y="339.8213">1</text><text fill="#000000" font-family="sans-serif" font-size="13" lengthAdjust="spacing" textLength="19.5127" x="751.2825" y="465.2385">0..*</text></g><!--link VaccineSchedule to SNSUser--><g class="link" data-entity-1="VaccineSchedule" data-entity-2="SNSUser" data-source-line="152" data-uid="lnk48" id="link_VaccineSchedule_SNSUser"><path codeLine="152" d="M584.23,571.1211 C604.29,571.1211 626.76,571.1211 648.97,571.1211" fill="none" id="VaccineSchedule-SNSUser" style="stroke:#181818;stroke-width:1;"/><polygon fill="#000000" points="611.5,558.7666,602.4549,555.8277,602.4549,561.7055,611.5,558.7666" style="stroke:#000000;stroke-width:1;"/><text fill="#000000" font-family="sans-serif" font-size="13" lengthAdjust="spacing" textLength="15.1709" x="615.5" y="564.1494">for</text><text fill="#000000" font-family="sans-serif" font-size="13" lengthAdjust="spacing" textLength="5.0591" x="592.1779" y="567.2431">*</text><text fill="#000000" font-family="sans-serif" font-size="13" lengthAdjust="spacing" textLength="7.23" x="633.951" y="567.6152">1</text></g><!--link VaccineSchedule to VaccineType--><g class="link" data-entity-1="VaccineSchedule" data-entity-2="VaccineType" data-source-line="153" data-uid="lnk49" id="link_VaccineSchedule_VaccineType"><path codeLine="153" d="M477.55,619.1411 C426.22,686.8311 331.78,816.9011 268,937.6211 C214.79,1038.3211 234.23,1079.5911 173,1175.6211 C161.97,1192.9111 147.2,1209.8211 133.29,1224.0011" fill="none" id="VaccineSchedule-VaccineType" style="stroke:#181818;stroke-width:1;"/><polygon fill="#000000" points="297.5268,902.6121,304.5551,896.2048,299.4467,893.2973,297.5268,902.6121" style="stroke:#000000;stroke-width:1;"/><text fill="#000000" font-family="sans-serif" font-size="13" lengthAdjust="spacing" textLength="10.8418" x="309" y="903.6494">of</text><text fill="#000000" font-family="sans-serif" font-size="13" lengthAdjust="spacing" textLength="5.0591" x="467.0638" y="641.1476">*</text><text fill="#000000" font-family="sans-serif" font-size="13" lengthAdjust="spacing" textLength="7.23" x="132.842" y="1212.9349">1</text></g><!--link VaccineSchedule to VaccinationCenter--><g class="link" data-entity-1="VaccineSchedule" data-entity-2="VaccinationCenter" data-source-line="154" data-uid="lnk50" id="link_VaccineSchedule_VaccinationCenter"><path codeLine="154" d="M514,619.5111 C514,694.1811 514,840.6411 514,937.1911" fill="none" id="VaccineSchedule-VaccinationCenter" style="stroke:#181818;stroke-width:1;"/><polygon fill="#000000" points="519,806.7666,521.9389,797.7215,516.0611,797.7215,519,806.7666" style="stroke:#000000;stroke-width:1;"/><text fill="#000000" font-family="sans-serif" font-size="13" lengthAdjust="spacing" textLength="10.8418" x="528" y="807.1494">at</text><text fill="#000000" font-family="sans-serif" font-size="13" lengthAdjust="spacing" textLength="5.0591" x="508.6716" y="640.8558">*</text><text fill="#000000" font-family="sans-serif" font-size="13" lengthAdjust="spacing" textLength="7.23" x="506.7479" y="926.3129">1</text></g><!--SRC=[jLPBR-Cs4BxhLmnys0AxoExcAg01NAVjvf0qYDFTGx47cXnRH2JI9KTvDDZ_tk53jcHBRYxD9J8vBtuptyoGfXhXzklr4ixWqZP26xYs2kkYgBH2Q90ggtpX7xJP2YSQaBNmVaxazAebl9BMBFK_29-BuYVuUUmFbZTB-DEZy-FtHRGOf88Gl1OVm1iVlc_QPiKd9IpPczd0Qslqtot-A00-W14DxgxYoKexgYu5XUFmBnvwVDuR-Elpnu_dt-FvrdeIzLmfX-nyO6TRMOCJNf4HgYVkf2P6mYo4KvEH_pW14udrUW8YiVBaXAGaT8tH-cin0SIRtpRof11XIiWTIjoIjaPx0dmcDCht_MUnczPv7BqtbbFXzAOYiEiiLyAyvOfo39G2iY2a336ksxg62aLD5IX18jk-_7qvLuqE4JX1reswcGHqWOQcgsu7wLUEGHiHNfeq_YTWmz4Jhhoc0xb6FASOqD-Y-sBRK3XN7Cc6NnS4x1OD2uURuFLUDwcsPMtzuVakVLyYcb8upA_gi3jwRrPOsARXCgMNQ_vr3CgqEYVWMwLb1O_f5K0lM_GWG2PDAGo8d4OMFpOzEv_1sHdCc9tlPza1thCHVfHljrlhoCF5TA8xz4xsbxxPd62bFGf_a0tFrKcNwANJiVf7c95DTMOa0uTEQb7V7FSa9umQ7X7AojZQRbwunwc1-NwC7IZdVL1OkX8-MVM1LITGcJDmsb3367ju1xy-neznYD2qJL-1-KMjvmS2B6M5ggrHyVVSEVqOl-vGg1V-VsLkdTq4El2FBhDHOY6Cn3hftTXbPP_s0FOyxN9nqBT9HoXtjUvJHELnbF5QXCX47TJlasRtUPYsM7WHZCvrRUcWNoUJ-yx36YSjpzKZDnfaK6GicUvDOrMKXXBBCzE6ftR5Cu_XdLFVIUn4t4dzP25cAZdIQoq3ZDczzhx5_ZmyCNp-Q6dbK3p09xZ4jMXhEiscdVnah-I4COyEiYfRvmBo9VnYROt2xD_oJV3uD9ixQvjOTuSsTuAB2kN3bSb2QZmlGwPsDHnrW3STNZ1IolDlbG8CdvGjJDBAUyjS3vXFGTIjCiE-rYzwxcivfD3O-ZTPE39_DZARIX3q1fMkVMgUhJmtkKqCDFQ13PqaNfJ0X8ubmDlWHN5qF-emQadhL6vFdvXMgKCTwmznEI1FoGDZIwsBq4nWEL7u9NE8U8NrfxoUdr1NLhQfOLuKQM6PzDj1jPziRr0QUei4vJPkpk9I45xRM-zwA8_OoSNmPDs3JoLHx3YPypfQ42gn-xTK5DEpE8sTFYdJwBauKKWTCqlOe47kcp65tMaF_w5P9ghUSCvu7Rme1bjdL8aRvD5wq55woAHZRMMVp5uvLrF9EvSHcrHXXprYzhxlzBodb9WqAj-v6U9TzWdmNngzB6II_mi0]--></g></svg>