<svg xmlns="http://www.w3.org/2000/svg" xmlns:xlink="http://www.w3.org/1999/xlink" contentStyleType="text/css" data-diagram-type="DESCRIPTION" height="1414px" preserveAspectRatio="none" style="width:1139px;height:1414px;background:#FFFFFF;" version="1.1" viewBox="0 0 1139 1414" width="1139px" zoomAndPan="magnify"><title>PVMS - Pandemic Vaccination Management System (Complete UCD)</title><defs/><g><g class="title" data-source-line="4"><text fill="#000000" font-family="sans-serif" font-size="14" font-weight="bold" lengthAdjust="spacing" textLength="455.1025" x="335.2816" y="25.1074">PVMS - Pandemic Vaccination Management System (Complete UCD)</text></g><!--entity SNS--><g class="entity" data-entity="SNS" data-source-line="7" data-uid="ent0002" id="entity_SNS"><ellipse cx="64.6172" cy="1303.1211" fill="#F1F1F1" rx="8" ry="8" style="stroke:#181818;stroke-width:0.5;"/><path d="M64.6172,1311.1211 L64.6172,1338.1211 M51.6172,1319.1211 L77.6172,1319.1211 M64.6172,1338.1211 L51.6172,1353.1211 M64.6172,1338.1211 L77.6172,1353.1211" fill="none" style="stroke:#181818;stroke-width:0.5;"/><text fill="#000000" font-family="sans-serif" font-size="14" lengthAdjust="spacing" textLength="62.2344" x="33.5" y="1369.7285">SNS User</text></g><!--entity REC--><g class="entity" data-entity="REC" data-source-line="8" data-uid="ent0003" id="entity_REC"><ellipse cx="64.5205" cy="956.1211" fill="#F1F1F1" rx="8" ry="8" style="stroke:#181818;stroke-width:0.5;"/><path d="M64.5205,964.1211 L64.5205,991.1211 M51.5205,972.1211 L77.5205,972.1211 M64.5205,991.1211 L51.5205,1006.1211 M64.5205,991.1211 L77.5205,1006.1211" fill="none" style="stroke:#181818;stroke-width:0.5;"/><text fill="#000000" font-family="sans-serif" font-size="14" lengthAdjust="spacing" textLength="77.041" x="26" y="1022.7285">Receptionist</text></g><!--entity NUR--><g class="entity" data-entity="NUR" data-source-line="9" data-uid="ent0004" id="entity_NUR"><ellipse cx="64.6724" cy="502.1211" fill="#F1F1F1" rx="8" ry="8" style="stroke:#181818;stroke-width:0.5;"/><path d="M64.6724,510.1211 L64.6724,537.1211 M51.6724,518.1211 L77.6724,518.1211 M64.6724,537.1211 L51.6724,552.1211 M64.6724,537.1211 L77.6724,552.1211" fill="none" style="stroke:#181818;stroke-width:0.5;"/><text fill="#000000" font-family="sans-serif" font-size="14" lengthAdjust="spacing" textLength="37.3447" x="46" y="568.7285">Nurse</text></g><!--entity ADM--><g class="entity" data-entity="ADM" data-source-line="10" data-uid="ent0005" id="entity_ADM"><ellipse cx="64.3481" cy="135.1211" fill="#F1F1F1" rx="8" ry="8" style="stroke:#181818;stroke-width:0.5;"/><path d="M64.3481,143.1211 L64.3481,170.1211 M51.3481,151.1211 L77.3481,151.1211 M64.3481,170.1211 L51.3481,185.1211 M64.3481,170.1211 L77.3481,185.1211" fill="none" style="stroke:#181818;stroke-width:0.5;"/><text fill="#000000" font-family="sans-serif" font-size="14" lengthAdjust="spacing" textLength="116.6963" x="6" y="201.7285">DGS Administrator</text></g><!--entity NOTIF--><g class="entity" data-entity="NOTIF" data-source-line="11" data-uid="ent0006" id="entity_NOTIF"><ellipse cx="1040.3328" cy="1235.1877" fill="#F1F1F1" rx="93.3328" ry="21.0666" style="stroke:#181818;stroke-width:0.5;"/><text fill="#000000" font-family="sans-serif" font-size="14" lengthAdjust="spacing" textLength="154.8271" x="962.9192" y="1240.9982">Time/Notification Service</text></g><!--entity UC20--><g class="entity" data-entity="UC20" data-source-line="16" data-uid="ent0007" id="entity_UC20"><ellipse cx="363.8773" cy="987.1965" fill="#F1F1F1" rx="98.3773" ry="22.0755" style="stroke:#181818;stroke-width:0.5;"/><text fill="#000000" font-family="sans-serif" font-size="14" lengthAdjust="spacing" textLength="166.4893" x="280.6326" y="993.0071">UC20 - Register SNS User</text></g><!--entity UC21_30--><g class="entity" data-entity="UC21_30" data-source-line="19" data-uid="ent0008" id="entity_UC21_30"><ellipse cx="363.9192" cy="1190.9049" fill="#F1F1F1" rx="146.9192" ry="31.7838" style="stroke:#181818;stroke-width:0.5;"/><text fill="#000000" font-family="sans-serif" font-size="14" lengthAdjust="spacing" textLength="272.3643" x="227.737" y="1196.7155">UC21/30 - Schedule Vaccine Administration</text></g><!--entity UC22--><g class="entity" data-entity="UC22" data-source-line="22" data-uid="ent0009" id="entity_UC22"><ellipse cx="364.2384" cy="807.1688" fill="#F1F1F1" rx="118.2384" ry="26.0477" style="stroke:#181818;stroke-width:0.5;"/><text fill="#000000" font-family="sans-serif" font-size="14" lengthAdjust="spacing" textLength="210.834" x="258.8215" y="812.9793">UC22 - Register Arrival / Check-in</text></g><!--entity UC40--><g class="entity" data-entity="UC40" data-source-line="25" data-uid="ent0010" id="entity_UC40"><ellipse cx="363.9936" cy="343.1198" fill="#F1F1F1" rx="132.9936" ry="28.9987" style="stroke:#181818;stroke-width:0.5;"/><text fill="#000000" font-family="sans-serif" font-size="14" lengthAdjust="spacing" textLength="242.7441" x="242.6215" y="348.9304">UC40 - Consult Users in Waiting Room</text></g><!--entity UC41--><g class="entity" data-entity="UC41" data-source-line="28" data-uid="ent0011" id="entity_UC41"><ellipse cx="364.0523" cy="533.3316" fill="#F1F1F1" rx="131.5523" ry="28.7105" style="stroke:#181818;stroke-width:0.5;"/><text fill="#000000" font-family="sans-serif" font-size="14" lengthAdjust="spacing" textLength="239.6543" x="244.2252" y="539.1421">UC41 - Record Vaccine Administration</text></g><!--entity UC10--><g class="entity" data-entity="UC10" data-source-line="31" data-uid="ent0012" id="entity_UC10"><ellipse cx="364.1415" cy="73.2494" fill="#F1F1F1" rx="126.1415" ry="27.6283" style="stroke:#181818;stroke-width:0.5;"/><text fill="#000000" font-family="sans-serif" font-size="14" lengthAdjust="spacing" textLength="228.0059" x="250.1386" y="79.0599">UC10 - Manage Vaccination Centers</text></g><!--entity UC12--><g class="entity" data-entity="UC12" data-source-line="32" data-uid="ent0013" id="entity_UC12"><ellipse cx="364.2086" cy="166.3628" fill="#F1F1F1" rx="139.2086" ry="30.2417" style="stroke:#181818;stroke-width:0.5;"/><text fill="#000000" font-family="sans-serif" font-size="14" lengthAdjust="spacing" textLength="256.0127" x="236.2023" y="172.1734">UC12 - Manage Vaccine Types &amp; Brands</text></g><!--entity UC13--><g class="entity" data-entity="UC13" data-source-line="33" data-uid="ent0014" id="entity_UC13"><ellipse cx="363.9029" cy="255.0017" fill="#F1F1F1" rx="104.9029" ry="23.3806" style="stroke:#181818;stroke-width:0.5;"/><text fill="#000000" font-family="sans-serif" font-size="14" lengthAdjust="spacing" textLength="181.2959" x="273.255" y="260.8122">UC13 - Set Current Outbreak</text></g><!--entity UC03--><g class="entity" data-entity="UC03" data-source-line="34" data-uid="ent0015" id="entity_UC03"><ellipse cx="364.1784" cy="1381.9568" fill="#F1F1F1" rx="119.6784" ry="26.3357" style="stroke:#181818;stroke-width:0.5;"/><text fill="#000000" font-family="sans-serif" font-size="14" lengthAdjust="spacing" textLength="213.9785" x="257.1892" y="1387.7673">UC03 - Get Vaccination Certificate</text></g><!--entity UC08--><g class="entity" data-entity="UC08" data-source-line="35" data-uid="ent0016" id="entity_UC08"><ellipse cx="363.8331" cy="719.8877" fill="#F1F1F1" rx="116.8331" ry="25.7666" style="stroke:#181818;stroke-width:0.5;"/><text fill="#000000" font-family="sans-serif" font-size="14" lengthAdjust="spacing" textLength="207.7578" x="259.9542" y="725.6983">UC08 - Record Adverse Reaction</text></g><!--entity UC15--><g class="entity" data-entity="UC15" data-source-line="38" data-uid="ent0017" id="entity_UC15"><ellipse cx="726.6965" cy="1156.9604" fill="#F1F1F1" rx="89.6965" ry="20.3393" style="stroke:#181818;stroke-width:0.5;"/><text fill="#000000" font-family="sans-serif" font-size="14" lengthAdjust="spacing" textLength="146.2754" x="653.5588" y="1162.7709">UC15 - Capacity Check</text></g><!--entity UC14--><g class="entity" data-entity="UC14" data-source-line="39" data-uid="ent0018" id="entity_UC14"><ellipse cx="726.7205" cy="1235.2652" fill="#F1F1F1" rx="98.7205" ry="22.1441" style="stroke:#181818;stroke-width:0.5;"/><text fill="#000000" font-family="sans-serif" font-size="14" lengthAdjust="spacing" textLength="167.2754" x="643.0828" y="1241.0757">UC14 - Notify Confirmation</text></g><g class="entity" data-entity="GMN33" data-source-line="71" data-uid="ent0034" id="entity_GMN33"><path d="M251,1044.6211 L251,1123.7852 A0,0 0 0 0 251,1123.7852 L477.2007,1123.7852 A0,0 0 0 0 477.2007,1123.7852 L477.2007,1054.6211 L467.2007,1044.6211 L368,1044.6211 L364,1009.4711 L360,1044.6211 L251,1044.6211 A0,0 0 0 0 251,1044.6211" fill="#FEFFDD" style="stroke:#181818;stroke-width:0.5;"/><path d="M467.2007,1044.6211 L467.2007,1054.6211 L477.2007,1054.6211 L467.2007,1044.6211" fill="#FEFFDD" style="stroke:#181818;stroke-width:0.5;"/><text fill="#000000" font-family="sans-serif" font-size="13" font-weight="bold" lengthAdjust="spacing" textLength="75.1245" x="257" y="1063.6494">US20 (ACs):</text><text fill="#000000" font-family="sans-serif" font-size="13" lengthAdjust="spacing" textLength="204.458" x="257" y="1080.9404">- Validates PT formats (Phone, CC)</text><text fill="#000000" font-family="sans-serif" font-size="13" lengthAdjust="spacing" textLength="205.2007" x="257" y="1098.2314">- Uniqueness of SNS number/Email</text><text fill="#000000" font-family="sans-serif" font-size="13" lengthAdjust="spacing" textLength="92.4917" x="257" y="1115.5225">- Sex is optional</text></g><g class="entity" data-entity="GMN36" data-source-line="78" data-uid="ent0037" id="entity_GMN36"><path d="M277.5,1258.1211 L277.5,1319.9941 A0,0 0 0 0 277.5,1319.9941 L450.9644,1319.9941 A0,0 0 0 0 450.9644,1319.9941 L450.9644,1268.1211 L440.9644,1258.1211 L368,1258.1211 L364,1223.3111 L360,1258.1211 L277.5,1258.1211 A0,0 0 0 0 277.5,1258.1211" fill="#FEFFDD" style="stroke:#181818;stroke-width:0.5;"/><path d="M440.9644,1258.1211 L440.9644,1268.1211 L450.9644,1268.1211 L440.9644,1258.1211" fill="#FEFFDD" style="stroke:#181818;stroke-width:0.5;"/><text fill="#000000" font-family="sans-serif" font-size="13" font-weight="bold" lengthAdjust="spacing" textLength="93.1963" x="283.5" y="1277.1494">US21/30 (ACs):</text><text fill="#000000" font-family="sans-serif" font-size="13" lengthAdjust="spacing" textLength="152.4644" x="283.5" y="1294.4404">- Validates center capacity</text><text fill="#000000" font-family="sans-serif" font-size="13" lengthAdjust="spacing" textLength="117.0381" x="283.5" y="1311.7314">(max vaccines/hour)</text></g><g class="entity" data-entity="GMN39" data-source-line="84" data-uid="ent0040" id="entity_GMN39"><path d="M262.5,868.1211 L262.5,929.9941 A0,0 0 0 0 262.5,929.9941 L465.5635,929.9941 A0,0 0 0 0 465.5635,929.9941 L465.5635,878.1211 L455.5635,868.1211 L368,868.1211 L364,833.2211 L360,868.1211 L262.5,868.1211 A0,0 0 0 0 262.5,868.1211" fill="#FEFFDD" style="stroke:#181818;stroke-width:0.5;"/><path d="M455.5635,868.1211 L455.5635,878.1211 L465.5635,878.1211 L455.5635,868.1211" fill="#FEFFDD" style="stroke:#181818;stroke-width:0.5;"/><text fill="#000000" font-family="sans-serif" font-size="13" font-weight="bold" lengthAdjust="spacing" textLength="75.1245" x="268.5" y="887.1494">US22 (ACs):</text><text fill="#000000" font-family="sans-serif" font-size="13" lengthAdjust="spacing" textLength="147.4116" x="268.5" y="904.4404">- No duplicate entries/day</text><text fill="#000000" font-family="sans-serif" font-size="13" lengthAdjust="spacing" textLength="182.0635" x="268.5" y="921.7314">- Assigns user to Waiting Room</text></g><g class="entity" data-entity="GMN42" data-source-line="90" data-uid="ent0043" id="entity_GMN42"><path d="M281.5,407.1211 L281.5,468.9941 A0,0 0 0 0 281.5,468.9941 L446.9473,468.9941 A0,0 0 0 0 446.9473,468.9941 L446.9473,417.1211 L436.9473,407.1211 L368,407.1211 L364,372.5411 L360,407.1211 L281.5,407.1211 A0,0 0 0 0 281.5,407.1211" fill="#FEFFDD" style="stroke:#181818;stroke-width:0.5;"/><path d="M436.9473,407.1211 L436.9473,417.1211 L446.9473,417.1211 L436.9473,407.1211" fill="#FEFFDD" style="stroke:#181818;stroke-width:0.5;"/><text fill="#000000" font-family="sans-serif" font-size="13" font-weight="bold" lengthAdjust="spacing" textLength="75.1245" x="287.5" y="426.1494">US40 (ACs):</text><text fill="#000000" font-family="sans-serif" font-size="13" lengthAdjust="spacing" textLength="144.4473" x="287.5" y="443.4404">- FIFO basis (First-come,</text><text fill="#000000" font-family="sans-serif" font-size="13" lengthAdjust="spacing" textLength="68.6182" x="287.5" y="460.7314">first-served)</text></g><g class="entity" data-entity="GMN45" data-source-line="96" data-uid="ent0046" id="entity_GMN45"><path d="M262.5,597.1211 L262.5,658.9941 A0,0 0 0 0 262.5,658.9941 L465.5952,658.9941 A0,0 0 0 0 465.5952,658.9941 L465.5952,607.1211 L455.5952,597.1211 L368,597.1211 L364,562.0411 L360,597.1211 L262.5,597.1211 A0,0 0 0 0 262.5,597.1211" fill="#FEFFDD" style="stroke:#181818;stroke-width:0.5;"/><path d="M455.5952,597.1211 L455.5952,607.1211 L465.5952,607.1211 L455.5952,597.1211" fill="#FEFFDD" style="stroke:#181818;stroke-width:0.5;"/><text fill="#000000" font-family="sans-serif" font-size="13" font-weight="bold" lengthAdjust="spacing" textLength="75.1245" x="268.5" y="616.1494">US41 (ACs):</text><text fill="#000000" font-family="sans-serif" font-size="13" lengthAdjust="spacing" textLength="182.0952" x="268.5" y="633.4404">- Select vaccine and lot number</text><text fill="#000000" font-family="sans-serif" font-size="13" lengthAdjust="spacing" textLength="164.7217" x="268.5" y="650.7314">- Assigns to Recovery Room</text></g><!--link SNS to UC21_30--><g class="link" data-entity-1="SNS" data-entity-2="UC21_30" data-source-line="44" data-uid="lnk19" id="link_SNS_UC21_30"><path d="M95.71,1312.8011 C125.52,1292.4611 172.89,1261.9011 217,1241.1211 C236.03,1232.1611 251.4455,1225.9694 271.5455,1218.9494" fill="none" id="SNS-to-UC21_30" style="stroke:#181818;stroke-width:1;"/><polygon fill="#181818" points="277.21,1216.9711,267.3944,1216.1623,272.4896,1218.6197,270.0322,1223.7149,277.21,1216.9711" style="stroke:#181818;stroke-width:1;"/><text fill="#000000" font-family="sans-serif" font-size="13" lengthAdjust="spacing" textLength="32.519" x="154" y="1252.1494">US30</text></g><!--link SNS to UC03--><g class="link" data-entity-1="SNS" data-entity-2="UC03" data-source-line="45" data-uid="lnk20" id="link_SNS_UC03"><path d="M95.66,1338.9911 C135.55,1345.4211 201.7866,1356.1053 261.0966,1365.6753" fill="none" id="SNS-to-UC03" style="stroke:#181818;stroke-width:1;"/><polygon fill="#181818" points="267.02,1366.6311,258.7721,1361.2485,262.0838,1365.8346,257.4977,1369.1464,267.02,1366.6311" style="stroke:#181818;stroke-width:1;"/></g><!--link REC to UC20--><g class="link" data-entity-1="REC" data-entity-2="UC20" data-source-line="48" data-uid="lnk21" id="link_REC_UC20"><path d="M103.18,987.1211 C143.75,987.1211 203.94,987.1211 259.36,987.1211" fill="none" id="REC-to-UC20" style="stroke:#181818;stroke-width:1;"/><polygon fill="#181818" points="265.36,987.1211,256.36,983.1211,260.36,987.1211,256.36,991.1211,265.36,987.1211" style="stroke:#181818;stroke-width:1;"/><text fill="#000000" font-family="sans-serif" font-size="13" lengthAdjust="spacing" textLength="32.519" x="154" y="983.1494">US20</text></g><!--link REC to UC21_30--><g class="link" data-entity-1="REC" data-entity-2="UC21_30" data-source-line="49" data-uid="lnk22" id="link_REC_UC21_30"><path d="M95.48,1026.6711 C123.51,1061.2011 168.28,1110.4511 217,1141.1211 C233.1,1151.2511 245.8792,1157.5118 264.0592,1164.3018" fill="none" id="REC-to-UC21_30" style="stroke:#181818;stroke-width:1;"/><polygon fill="#181818" points="269.68,1166.4011,262.6484,1159.505,264.996,1164.6517,259.8493,1166.9993,269.68,1166.4011" style="stroke:#181818;stroke-width:1;"/><text fill="#000000" font-family="sans-serif" font-size="13" lengthAdjust="spacing" textLength="32.519" x="154" y="1089.1494">US21</text></g><!--link REC to UC22--><g class="link" data-entity-1="REC" data-entity-2="UC22" data-source-line="50" data-uid="lnk23" id="link_REC_UC22"><path d="M100.46,947.3811 C129.07,917.0911 172.02,876.4111 217,851.1211 C236.27,840.2911 252.7603,833.5892 273.9703,827.1292" fill="none" id="REC-to-UC22" style="stroke:#181818;stroke-width:1;"/><polygon fill="#181818" points="279.71,825.3811,269.935,824.1769,274.9269,826.8379,272.2659,831.8298,279.71,825.3811" style="stroke:#181818;stroke-width:1;"/><text fill="#000000" font-family="sans-serif" font-size="13" lengthAdjust="spacing" textLength="32.519" x="154" y="868.1494">US22</text></g><!--link NUR to UC40--><g class="link" data-entity-1="NUR" data-entity-2="UC40" data-source-line="53" data-uid="lnk24" id="link_NUR_UC40"><path d="M83.03,511.3011 C109.12,480.1711 161.12,423.1611 217,390.1211 C234.65,379.6811 249.2057,373.1918 268.8857,366.5418" fill="none" id="NUR-to-UC40" style="stroke:#181818;stroke-width:1;"/><polygon fill="#181818" points="274.57,364.6211,264.7631,363.7127,269.8331,366.2217,267.3241,371.2917,274.57,364.6211" style="stroke:#181818;stroke-width:1;"/><text fill="#000000" font-family="sans-serif" font-size="13" lengthAdjust="spacing" textLength="32.519" x="154" y="408.1494">US40</text></g><!--link NUR to UC41--><g class="link" data-entity-1="NUR" data-entity-2="UC41" data-source-line="54" data-uid="lnk25" id="link_NUR_UC41"><path d="M83.22,533.1211 C112.74,533.1211 168.49,533.1211 226.49,533.1211" fill="none" id="NUR-to-UC41" style="stroke:#181818;stroke-width:1;"/><polygon fill="#181818" points="232.49,533.1211,223.49,529.1211,227.49,533.1211,223.49,537.1211,232.49,533.1211" style="stroke:#181818;stroke-width:1;"/><text fill="#000000" font-family="sans-serif" font-size="13" lengthAdjust="spacing" textLength="32.519" x="154" y="529.1494">US41</text></g><!--link NUR to UC08--><g class="link" data-entity-1="NUR" data-entity-2="UC08" data-source-line="55" data-uid="lnk26" id="link_NUR_UC08"><path d="M83.1,555.5611 C109.08,587.1911 160.74,644.6611 217,677.1211 C235.65,687.8811 251.4867,694.4148 272.2267,700.6848" fill="none" id="NUR-to-UC08" style="stroke:#181818;stroke-width:1;"/><polygon fill="#181818" points="277.97,702.4211,270.5126,695.9878,273.1839,700.9742,268.1976,703.6455,277.97,702.4211" style="stroke:#181818;stroke-width:1;"/></g><!--link ADM to UC10--><g class="link" data-entity-1="ADM" data-entity-2="UC10" data-source-line="58" data-uid="lnk27" id="link_ADM_UC10"><path d="M123.02,147.7811 C151.31,138.7911 185.93,127.8311 217,118.1211 C240.8,110.6811 261.0655,104.4063 284.4555,97.2063" fill="none" id="ADM-to-UC10" style="stroke:#181818;stroke-width:1;"/><polygon fill="#181818" points="290.19,95.4411,280.4115,94.2659,285.4113,96.9121,282.7651,101.9119,290.19,95.4411" style="stroke:#181818;stroke-width:1;"/></g><!--link ADM to UC12--><g class="link" data-entity-1="ADM" data-entity-2="UC12" data-source-line="59" data-uid="lnk28" id="link_ADM_UC12"><path d="M123.21,166.1211 C152.36,166.1211 183.09,166.1211 218.98,166.1211" fill="none" id="ADM-to-UC12" style="stroke:#181818;stroke-width:1;"/><polygon fill="#181818" points="224.98,166.1211,215.98,162.1211,219.98,166.1211,215.98,170.1211,224.98,166.1211" style="stroke:#181818;stroke-width:1;"/></g><!--link ADM to UC13--><g class="link" data-entity-1="ADM" data-entity-2="UC13" data-source-line="60" data-uid="lnk29" id="link_ADM_UC13"><path d="M123.33,184.3711 C151.54,193.1911 186,203.8511 217,213.1211 C243.53,221.0511 267.0915,227.8904 292.4615,235.1504" fill="none" id="ADM-to-UC13" style="stroke:#181818;stroke-width:1;"/><polygon fill="#181818" points="298.23,236.8011,290.6778,230.4794,293.423,235.4255,288.4768,238.1706,298.23,236.8011" style="stroke:#181818;stroke-width:1;"/></g><!--link UC21_30 to UC15--><g class="link" data-entity-1="UC21_30" data-entity-2="UC15" data-source-line="65" data-uid="lnk30" id="link_UC21_30_UC15"><path d="M499.24,1178.4611 C547.68,1173.8911 594.9065,1169.4344 637.5365,1165.4144" fill="none" id="UC21_30-to-UC15" style="stroke:#181818;stroke-width:1;stroke-dasharray:7,7;"/><polygon fill="#181818" points="643.51,1164.8511,634.1742,1161.7137,638.5321,1165.3205,634.9253,1169.6784,643.51,1164.8511" style="stroke:#181818;stroke-width:1;"/><text fill="#000000" font-family="sans-serif" font-size="13" lengthAdjust="spacing" textLength="55.6563" x="542" y="1165.1494">&#171;include&#187;</text></g><!--link UC21_30 to UC14--><g class="link" data-entity-1="UC21_30" data-entity-2="UC14" data-source-line="66" data-uid="lnk31" id="link_UC21_30_UC14"><path d="M492.61,1206.6911 C541.32,1212.6411 589.6942,1218.5444 633.6242,1223.9044" fill="none" id="UC21_30-to-UC14" style="stroke:#181818;stroke-width:1;stroke-dasharray:7,7;"/><polygon fill="#181818" points="639.58,1224.6311,631.1307,1219.5705,634.6168,1224.0255,630.1618,1227.5116,639.58,1224.6311" style="stroke:#181818;stroke-width:1;"/><text fill="#000000" font-family="sans-serif" font-size="13" lengthAdjust="spacing" textLength="55.6563" x="542" y="1209.1494">&#171;include&#187;</text></g><!--link UC14 to NOTIF--><g class="link" data-entity-1="UC14" data-entity-2="NOTIF" data-source-line="67" data-uid="lnk32" id="link_UC14_NOTIF"><path d="M825.36,1235.1211 C864.14,1235.1211 902.52,1235.1211 940.78,1235.1211" fill="none" id="UC14-to-NOTIF" style="stroke:#181818;stroke-width:1;stroke-dasharray:7,7;"/><polygon fill="#181818" points="946.78,1235.1211,937.78,1231.1211,941.78,1235.1211,937.78,1239.1211,946.78,1235.1211" style="stroke:#181818;stroke-width:1;"/><text fill="#000000" font-family="sans-serif" font-size="13" lengthAdjust="spacing" textLength="60.709" x="856" y="1231.1494">&#171;external&#187;</text></g><!--SRC=[VLLHRjj64FtdAUOhaOpG52aQ28J0W4h7WO5QDaGh_GnMv8ZQXkIgkql1ka0Fq2la8yXtq1Fe9Zr9PuUaGpcjVspkpEpCcxTlHg-trkxCB0XsfQXjKvNdcQg2ng2V2VgJIr5eKNabRYnO1LeMMmkvr9XPgMhFizAM2FSVRrFmuLxKELOoWuyYosGjN0ZSYbeKM65j8JqOYnMC4bNjIhG8g-Hgx7clmVTzc5kbqRXFRvOkKbWPr3CG1kZWpPQOuSxbayQoTVa-yMQBHXlausArz6PN7rAOvvLqGLfGFdRDhswzqOEiC5WeApSoQt6bgFSomp7VldkukUw1K658gFaM2nbNQJIXxfPOj7bTuwDLCZ2YXXuovtFExcO8h-ZVrCMcsHRpffHr0QDLpKXoPM2df045QlqxMhbNSFn6fmfDfSPS9Wo6jx4Z5uUT4gA-RlXfsfUEwDPSQxaN9IUAXdWx1mIGR37xxCkd355xFNP5VnFIEhnBfIgNWus9garJMcxNWAnFeheiSGSY3Xs84wIS9sGicTBvo_t4eSjprrXDJFrucHoThXgBzV7hyOiA2D965eqMV7GLGeUqrTw971CI8i7kqeSJZesUno8y77PKvnNyeadKJ-4HXq_TSw25fD7QwPhWhJMApttKr4LDNDG7YZgjhZi9OXSyQOFV_k1Zdky98D9HP0Cc9cyT4wpQurSYGpIFifJ2pKm0DtLMDkRuDne6UE5UIUn49ksXVTyUsWNxO_BpC1o0cTFLaFCmxaVXLrauHYajZoVyy-TVvE_defUyvpvy_xAN7ynOyGCpDKdnmndsQ7xxE-q5cfY1xIbF50xDKMjZYVBmUpJudJDkBv3o1hQmjOK3MqiagysZtT1PIGc3GpGyJ7iwbbZsTD2pQxU_wClDb1QioGKMn- -PL3r3ymBhNBZTfsXEw8aaqDko05Yexax6xvGB-aIekmtLohZduVoSSLnGB-_USPuSBo-Vk-EVt6HoFjvkxCH7qdujIl8w0fKbsBJl8T7I7hzfgRYBUORITW17yyICFOA5i5RMKgpQjEiDuEoCDoE7pCxEoEAJs4lgnH93zm-mKKvO1aRtMrNZ6qYICGVHylkZmHgDSTcSJEgcMgCEtbT2bXoIuYEujSXweVr5F3foqFiFBBpoEZYyBFy7KSQZtn5k3-GTLU8Hzkt4cs2h6Zr-iLBKbubEQope9PjToNFDqf2KBXS7TiwDaKLjW7vKjViDFTcfBrIB-wRYPnrTtrpVmLeOucTqBRMnFhqXlY7VXazKPu_vYvtGG7IvmzFSAPRqqzvp0hJxe5IsUv-JTgWJjx18puTdhVmB]--></g></svg>