<svg xmlns="http://www.w3.org/2000/svg" xmlns:xlink="http://www.w3.org/1999/xlink" contentStyleType="text/css" data-diagram-type="SEQUENCE" height="476px" preserveAspectRatio="none" style="width:473px;height:476px;background:#FFFFFF;" version="1.1" viewBox="0 0 473 476" width="473px" zoomAndPan="magnify"><title>US14 - System Sequence Diagram</title><defs/><g><text fill="#000000" font-family="sans-serif" font-size="14" font-weight="bold" lengthAdjust="spacing" textLength="227.2061" x="122.2844" y="30.1074">US14 - System Sequence Diagram</text><g><title>Administrator</title><rect fill="#FFFFFF" height="242.3281" style="stroke:#181818;stroke-width:1;" width="10" x="44.2344" y="133.2422"/></g><g><title>.System</title><rect fill="#FFFFFF" height="31.291" style="stroke:#181818;stroke-width:1;" width="10" x="430.4922" y="156.5332"/></g><g><title>.System</title><rect fill="#FFFFFF" height="31.291" style="stroke:#181818;stroke-width:1;" width="10" x="430.4922" y="219.1152"/></g><g><title>.System</title><rect fill="#FFFFFF" height="31.291" style="stroke:#181818;stroke-width:1;" width="10" x="430.4922" y="281.6973"/></g><g><title>.System</title><rect fill="#FFFFFF" height="31.291" style="stroke:#181818;stroke-width:1;" width="10" x="430.4922" y="344.2793"/></g><g><title>Administrator</title><rect fill="#000000" fill-opacity="0.00000" height="270.3281" width="8" x="45.2344" y="123.2422"/><line style="stroke:#181818;stroke-width:0.5;stroke-dasharray:5,5;" x1="49" x2="49" y1="123.2422" y2="393.5703"/></g><g><title>.System</title><rect fill="#000000" fill-opacity="0.00000" height="270.3281" width="8" x="431.4922" y="123.2422"/><line style="stroke:#181818;stroke-width:0.5;stroke-dasharray:5,5;" x1="435.2095" x2="435.2095" y1="123.2422" y2="393.5703"/></g><g class="participant participant-head" data-participant="Admin"><text fill="#000000" font-family="sans-serif" font-size="14" lengthAdjust="spacing" textLength="82.4688" x="5" y="119.7285">Administrator</text><ellipse cx="49.2344" cy="53.1211" fill="#E2E2F0" rx="8" ry="8" style="stroke:#181818;stroke-width:0.5;"/><path d="M49.2344,61.1211 L49.2344,88.1211 M36.2344,69.1211 L62.2344,69.1211 M49.2344,88.1211 L36.2344,103.1211 M49.2344,88.1211 L62.2344,103.1211" fill="none" style="stroke:#181818;stroke-width:0.5;"/></g><g class="participant participant-tail" data-participant="Admin"><text fill="#000000" font-family="sans-serif" font-size="14" lengthAdjust="spacing" textLength="82.4688" x="5" y="407.6777">Administrator</text><ellipse cx="49.2344" cy="419.6914" fill="#E2E2F0" rx="8" ry="8" style="stroke:#181818;stroke-width:0.5;"/><path d="M49.2344,427.6914 L49.2344,454.6914 M36.2344,435.6914 L62.2344,435.6914 M49.2344,454.6914 L36.2344,469.6914 M49.2344,454.6914 L62.2344,469.6914" fill="none" style="stroke:#181818;stroke-width:0.5;"/></g><g class="participant participant-head" data-participant="System"><rect fill="#E2E2F0" height="32.6211" rx="2.5" ry="2.5" style="stroke:#181818;stroke-width:0.5;" width="64.5654" x="403.2095" y="89.6211"/><text fill="#000000" font-family="sans-serif" font-size="14" lengthAdjust="spacing" textLength="50.5654" x="410.2095" y="111.7285">:System</text></g><g class="participant participant-tail" data-participant="System"><rect fill="#E2E2F0" height="32.6211" rx="2.5" ry="2.5" style="stroke:#181818;stroke-width:0.5;" width="64.5654" x="403.2095" y="392.5703"/><text fill="#000000" font-family="sans-serif" font-size="14" lengthAdjust="spacing" textLength="50.5654" x="410.2095" y="414.6777">:System</text></g><g><title>Administrator</title><rect fill="#FFFFFF" height="242.3281" style="stroke:#181818;stroke-width:1;" width="10" x="44.2344" y="133.2422"/></g><g><title>.System</title><rect fill="#FFFFFF" height="31.291" style="stroke:#181818;stroke-width:1;" width="10" x="430.4922" y="156.5332"/></g><g><title>.System</title><rect fill="#FFFFFF" height="31.291" style="stroke:#181818;stroke-width:1;" width="10" x="430.4922" y="219.1152"/></g><g><title>.System</title><rect fill="#FFFFFF" height="31.291" style="stroke:#181818;stroke-width:1;" width="10" x="430.4922" y="281.6973"/></g><g><title>.System</title><rect fill="#FFFFFF" height="31.291" style="stroke:#181818;stroke-width:1;" width="10" x="430.4922" y="344.2793"/></g><g class="message" data-participant-1="Admin" data-participant-2="System"><polygon fill="#181818" points="418.4922,152.5332,428.4922,156.5332,418.4922,160.5332,422.4922,156.5332" style="stroke:#181818;stroke-width:1;"/><line style="stroke:#181818;stroke-width:1;" x1="54.2344" x2="424.4922" y1="156.5332" y2="156.5332"/><text fill="#000000" font-family="sans-serif" font-size="13" font-weight="bold" lengthAdjust="spacing" textLength="7.23" x="61.2344" y="151.2705">1</text><text fill="#000000" font-family="sans-serif" font-size="13" lengthAdjust="spacing" textLength="186.4243" x="72.4644" y="151.2705">asks to register a new employee</text></g><g class="message" data-participant-1="System" data-participant-2="Admin"><polygon fill="#181818" points="65.2344,183.8242,55.2344,187.8242,65.2344,191.8242,61.2344,187.8242" style="stroke:#181818;stroke-width:1;"/><line style="stroke:#181818;stroke-width:1;stroke-dasharray:2,2;" x1="59.2344" x2="434.4922" y1="187.8242" y2="187.8242"/><text fill="#000000" font-family="sans-serif" font-size="13" font-weight="bold" lengthAdjust="spacing" textLength="7.23" x="71.2344" y="182.5615">2</text><text fill="#000000" font-family="sans-serif" font-size="13" lengthAdjust="spacing" textLength="341.0278" x="82.4644" y="182.5615">requests data (Name, Address, Phone, Email, CC Number)</text></g><g class="message" data-participant-1="Admin" data-participant-2="System"><polygon fill="#181818" points="418.4922,215.1152,428.4922,219.1152,418.4922,223.1152,422.4922,219.1152" style="stroke:#181818;stroke-width:1;"/><line style="stroke:#181818;stroke-width:1;" x1="54.2344" x2="424.4922" y1="219.1152" y2="219.1152"/><text fill="#000000" font-family="sans-serif" font-size="13" font-weight="bold" lengthAdjust="spacing" textLength="7.23" x="61.2344" y="213.8525">3</text><text fill="#000000" font-family="sans-serif" font-size="13" lengthAdjust="spacing" textLength="121.418" x="72.4644" y="213.8525">types requested data</text></g><g class="message" data-participant-1="System" data-participant-2="Admin"><polygon fill="#181818" points="65.2344,246.4063,55.2344,250.4063,65.2344,254.4063,61.2344,250.4063" style="stroke:#181818;stroke-width:1;"/><line style="stroke:#181818;stroke-width:1;stroke-dasharray:2,2;" x1="59.2344" x2="434.4922" y1="250.4063" y2="250.4063"/><text fill="#000000" font-family="sans-serif" font-size="13" font-weight="bold" lengthAdjust="spacing" textLength="7.23" x="71.2344" y="245.1436">4</text><text fill="#000000" font-family="sans-serif" font-size="13" lengthAdjust="spacing" textLength="158.9644" x="82.4644" y="245.1436">requests the role (Function)</text></g><g class="message" data-participant-1="Admin" data-participant-2="System"><polygon fill="#181818" points="418.4922,277.6973,428.4922,281.6973,418.4922,285.6973,422.4922,281.6973" style="stroke:#181818;stroke-width:1;"/><line style="stroke:#181818;stroke-width:1;" x1="54.2344" x2="424.4922" y1="281.6973" y2="281.6973"/><text fill="#000000" font-family="sans-serif" font-size="13" font-weight="bold" lengthAdjust="spacing" textLength="7.23" x="61.2344" y="276.4346">5</text><text fill="#000000" font-family="sans-serif" font-size="13" lengthAdjust="spacing" textLength="238.437" x="72.4644" y="276.4346">selects the role (e.g. Nurse, Receptionist)</text></g><g class="message" data-participant-1="System" data-participant-2="Admin"><polygon fill="#181818" points="65.2344,308.9883,55.2344,312.9883,65.2344,316.9883,61.2344,312.9883" style="stroke:#181818;stroke-width:1;"/><line style="stroke:#181818;stroke-width:1;stroke-dasharray:2,2;" x1="59.2344" x2="434.4922" y1="312.9883" y2="312.9883"/><text fill="#000000" font-family="sans-serif" font-size="13" font-weight="bold" lengthAdjust="spacing" textLength="7.23" x="71.2344" y="307.7256">6</text><text fill="#000000" font-family="sans-serif" font-size="13" lengthAdjust="spacing" textLength="240.6396" x="82.4644" y="307.7256">shows the data and requests confirmation</text></g><g class="message" data-participant-1="Admin" data-participant-2="System"><polygon fill="#181818" points="418.4922,340.2793,428.4922,344.2793,418.4922,348.2793,422.4922,344.2793" style="stroke:#181818;stroke-width:1;"/><line style="stroke:#181818;stroke-width:1;" x1="54.2344" x2="424.4922" y1="344.2793" y2="344.2793"/><text fill="#000000" font-family="sans-serif" font-size="13" font-weight="bold" lengthAdjust="spacing" textLength="7.23" x="61.2344" y="339.0166">7</text><text fill="#000000" font-family="sans-serif" font-size="13" lengthAdjust="spacing" textLength="78.0317" x="72.4644" y="339.0166">confirms data</text></g><g class="message" data-participant-1="System" data-participant-2="Admin"><polygon fill="#181818" points="60.2344,371.5703,50.2344,375.5703,60.2344,379.5703,56.2344,375.5703" style="stroke:#181818;stroke-width:1;"/><line style="stroke:#181818;stroke-width:1;stroke-dasharray:2,2;" x1="54.2344" x2="434.4922" y1="375.5703" y2="375.5703"/><text fill="#000000" font-family="sans-serif" font-size="13" font-weight="bold" lengthAdjust="spacing" textLength="7.23" x="66.2344" y="370.3076">8</text><text fill="#000000" font-family="sans-serif" font-size="13" lengthAdjust="spacing" textLength="151.0107" x="77.4644" y="370.3076">informs operation success</text></g><!--SRC=[VL5DQm8n4BtdLmoU55GezEIXK6nxb5Bf3vXcdnhS9DlCRCL_tp5hASAsf-pi-vgNQD0MzBwzkwS5RS-YYBJ5Pu_aGK-1zuMZSznhPg_XYnMKKvrJ7pzG3FEQ2qqUcnXI42riuuHOgFvn7HSDFdISb2Qh8Q72msVL3xu3tzM35WzNmiguHo7DLB0tVnHYIZWHOjVcC-2kMozCKhKhOre1KQ66bMcwuOYvOKs1o9nU3pdP_1mvj7DQhsbJcyn6elNSGNxiq5I___Bq02hPBdJwqYVhbTEOgw25ls5ZkL_Q6aLihpTuT1UfbPsDXCaXdmPjRSUf-SttEUr2YNoHZmHVOVchHqYxV85pXr8zI7hlxTASQt3xJjy0]--></g></svg>