<svg xmlns="http://www.w3.org/2000/svg" xmlns:xlink="http://www.w3.org/1999/xlink" contentStyleType="text/css" data-diagram-type="SEQUENCE" height="1005px" preserveAspectRatio="none" style="width:1429px;height:1005px;background:#FFFFFF;" version="1.1" viewBox="0 0 1429 1005" width="1429px" zoomAndPan="magnify"><title>US14 - Sequence Diagram</title><defs/><g><text fill="#000000" font-family="sans-serif" font-size="14" font-weight="bold" lengthAdjust="spacing" textLength="173.5098" x="631.9961" y="30.1074">US14 - Sequence Diagram</text><g><title>Administrator</title><rect fill="#FFFFFF" height="780.2754" style="stroke:#181818;stroke-width:1;" width="10" x="44.2344" y="133.2422"/></g><g><title>.RegisterEmployeeUI</title><rect fill="#FFFFFF" height="31.291" style="stroke:#181818;stroke-width:1;" width="10" x="372.0449" y="156.5332"/></g><g><title>.RegisterEmployeeUI</title><rect fill="#FFFFFF" height="31.291" style="stroke:#181818;stroke-width:1;" width="10" x="372.0449" y="219.1152"/></g><g><title>.RegisterEmployeeUI</title><rect fill="#FFFFFF" height="390.7832" style="stroke:#181818;stroke-width:1;" width="10" x="372.0449" y="281.6973"/></g><g><title>.RegisterEmployeeUI</title><rect fill="#FFFFFF" height="200.7461" style="stroke:#181818;stroke-width:1;" width="10" x="372.0449" y="703.7715"/></g><g><title>.RegisterEmployeeController</title><rect fill="#FFFFFF" height="328.2012" style="stroke:#181818;stroke-width:1;" width="10" x="551.665" y="312.9883"/></g><g><title>.RegisterEmployeeController</title><rect fill="#FFFFFF" height="138.1641" style="stroke:#181818;stroke-width:1;" width="10" x="551.665" y="735.0625"/></g><g><title>.Company</title><rect fill="#FFFFFF" height="31.291" style="stroke:#181818;stroke-width:1;" width="10" x="707.5049" y="344.2793"/></g><g><title>store.EmployeeStore</title><rect fill="#FFFFFF" height="506.6563" style="stroke:#181818;stroke-width:1;" width="10" x="828.7734" y="406.8613"/></g><g><title>store.EmployeeStore</title><rect fill="#FFFFFF" height="158.6006" style="stroke:#181818;stroke-width:1;" width="10" x="833.7734" y="451.2979"/></g><g><title>store.EmployeeStore</title><rect fill="#FFFFFF" height="147.1641" style="stroke:#181818;stroke-width:1;" width="10" x="833.7734" y="766.3535"/></g><g><title>store.EmployeeStore</title><rect fill="#FFFFFF" height="36.291" style="stroke:#181818;stroke-width:1;" width="10" x="838.7734" y="805.6445"/></g><g><title>emp.StaffMember</title><rect fill="#FFFFFF" height="420.7832" style="stroke:#181818;stroke-width:1;" width="10" x="1141.3477" y="492.7344"/></g><g><title>emp.StaffMember</title><rect fill="#FFFFFF" height="41.4365" style="stroke:#181818;stroke-width:1;" width="10" x="1146.3477" y="537.1709"/></g><g><title>Administrator</title><rect fill="#000000" fill-opacity="0.00000" height="799.2754" width="8" x="45.2344" y="123.2422"/><line style="stroke:#181818;stroke-width:0.5;stroke-dasharray:5,5;" x1="49" x2="49" y1="123.2422" y2="922.5176"/></g><g><title>.RegisterEmployeeUI</title><rect fill="#000000" fill-opacity="0.00000" height="799.2754" width="8" x="373.0449" y="123.2422"/><line style="stroke:#181818;stroke-width:0.5;stroke-dasharray:5,5;" x1="376.9072" x2="376.9072" y1="123.2422" y2="922.5176"/></g><g><title>.RegisterEmployeeController</title><rect fill="#000000" fill-opacity="0.00000" height="799.2754" width="8" x="552.665" y="123.2422"/><line style="stroke:#181818;stroke-width:0.5;stroke-dasharray:5,5;" x1="556.1826" x2="556.1826" y1="123.2422" y2="922.5176"/></g><g><title>.Company</title><rect fill="#000000" fill-opacity="0.00000" height="799.2754" width="8" x="708.5049" y="123.2422"/><line style="stroke:#181818;stroke-width:0.5;stroke-dasharray:5,5;" x1="711.6016" x2="711.6016" y1="123.2422" y2="922.5176"/></g><g><title>store.EmployeeStore</title><rect fill="#000000" fill-opacity="0.00000" height="799.2754" width="8" x="829.7734" y="123.2422"/><line style="stroke:#181818;stroke-width:0.5;stroke-dasharray:5,5;" x1="833.4082" x2="833.4082" y1="123.2422" y2="922.5176"/></g><g><title>emp.StaffMember</title><rect fill="#000000" fill-opacity="0.00000" height="799.2754" width="8" x="1142.3477" y="123.2422"/><line style="stroke:#181818;stroke-width:0.5;stroke-dasharray:5,5;" x1="1145.7168" x2="1145.7168" y1="123.2422" y2="922.5176"/></g><g class="participant participant-head" data-participant="Admin"><text fill="#000000" font-family="sans-serif" font-size="14" lengthAdjust="spacing" textLength="82.4688" x="5" y="119.7285">Administrator</text><ellipse cx="49.2344" cy="53.1211" fill="#E2E2F0" rx="8" ry="8" style="stroke:#181818;stroke-width:0.5;"/><path d="M49.2344,61.1211 L49.2344,88.1211 M36.2344,69.1211 L62.2344,69.1211 M49.2344,88.1211 L36.2344,103.1211 M49.2344,88.1211 L62.2344,103.1211" fill="none" style="stroke:#181818;stroke-width:0.5;"/></g><g class="participant participant-tail" data-participant="Admin"><text fill="#000000" font-family="sans-serif" font-size="14" lengthAdjust="spacing" textLength="82.4688" x="5" y="936.625">Administrator</text><ellipse cx="49.2344" cy="948.6387" fill="#E2E2F0" rx="8" ry="8" style="stroke:#181818;stroke-width:0.5;"/><path d="M49.2344,956.6387 L49.2344,983.6387 M36.2344,964.6387 L62.2344,964.6387 M49.2344,983.6387 L36.2344,998.6387 M49.2344,983.6387 L62.2344,998.6387" fill="none" style="stroke:#181818;stroke-width:0.5;"/></g><g class="participant participant-head" data-participant="UI"><rect fill="#E2E2F0" height="32.6211" rx="2.5" ry="2.5" style="stroke:#181818;stroke-width:0.5;" width="146.2754" x="303.9072" y="89.6211"/><text fill="#000000" font-family="sans-serif" font-size="14" lengthAdjust="spacing" textLength="132.2754" x="310.9072" y="111.7285">:RegisterEmployeeUI</text></g><g class="participant participant-tail" data-participant="UI"><rect fill="#E2E2F0" height="32.6211" rx="2.5" ry="2.5" style="stroke:#181818;stroke-width:0.5;" width="146.2754" x="303.9072" y="921.5176"/><text fill="#000000" font-family="sans-serif" font-size="14" lengthAdjust="spacing" textLength="132.2754" x="310.9072" y="943.625">:RegisterEmployeeUI</text></g><g class="participant participant-head" data-participant="Ctrl"><rect fill="#E2E2F0" height="32.6211" rx="2.5" ry="2.5" style="stroke:#181818;stroke-width:0.5;" width="192.9648" x="460.1826" y="89.6211"/><text fill="#000000" font-family="sans-serif" font-size="14" lengthAdjust="spacing" textLength="178.9648" x="467.1826" y="111.7285">:RegisterEmployeeController</text></g><g class="participant participant-tail" data-participant="Ctrl"><rect fill="#E2E2F0" height="32.6211" rx="2.5" ry="2.5" style="stroke:#181818;stroke-width:0.5;" width="192.9648" x="460.1826" y="921.5176"/><text fill="#000000" font-family="sans-serif" font-size="14" lengthAdjust="spacing" textLength="178.9648" x="467.1826" y="943.625">:RegisterEmployeeController</text></g><g class="participant participant-head" data-participant="Comp"><rect fill="#E2E2F0" height="32.6211" rx="2.5" ry="2.5" style="stroke:#181818;stroke-width:0.5;" width="77.8066" x="673.6016" y="89.6211"/><text fill="#000000" font-family="sans-serif" font-size="14" lengthAdjust="spacing" textLength="63.8066" x="680.6016" y="111.7285">:Company</text></g><g class="participant participant-tail" data-participant="Comp"><rect fill="#E2E2F0" height="32.6211" rx="2.5" ry="2.5" style="stroke:#181818;stroke-width:0.5;" width="77.8066" x="673.6016" y="921.5176"/><text fill="#000000" font-family="sans-serif" font-size="14" lengthAdjust="spacing" textLength="63.8066" x="680.6016" y="943.625">:Company</text></g><g class="participant participant-head" data-participant="Store"><rect fill="#E2E2F0" height="32.6211" rx="2.5" ry="2.5" style="stroke:#181818;stroke-width:0.5;" width="144.7305" x="761.4082" y="89.6211"/><text fill="#000000" font-family="sans-serif" font-size="14" lengthAdjust="spacing" textLength="130.7305" x="768.4082" y="111.7285">store:EmployeeStore</text></g><g class="participant participant-tail" data-participant="Store"><rect fill="#E2E2F0" height="32.6211" rx="2.5" ry="2.5" style="stroke:#181818;stroke-width:0.5;" width="144.7305" x="761.4082" y="921.5176"/><text fill="#000000" font-family="sans-serif" font-size="14" lengthAdjust="spacing" textLength="130.7305" x="768.4082" y="943.625">store:EmployeeStore</text></g><g class="participant participant-head" data-participant="Emp"><rect fill="#E2E2F0" height="32.6211" rx="2.5" ry="2.5" style="stroke:#181818;stroke-width:0.5;" width="125.2617" x="1083.7168" y="89.6211"/><text fill="#000000" font-family="sans-serif" font-size="14" lengthAdjust="spacing" textLength="111.2617" x="1090.7168" y="111.7285">emp:StaffMember</text></g><g class="participant participant-tail" data-participant="Emp"><rect fill="#E2E2F0" height="32.6211" rx="2.5" ry="2.5" style="stroke:#181818;stroke-width:0.5;" width="125.2617" x="1083.7168" y="921.5176"/><text fill="#000000" font-family="sans-serif" font-size="14" lengthAdjust="spacing" textLength="111.2617" x="1090.7168" y="943.625">emp:StaffMember</text></g><g><title>Administrator</title><rect fill="#FFFFFF" height="780.2754" style="stroke:#181818;stroke-width:1;" width="10" x="44.2344" y="133.2422"/></g><g><title>.RegisterEmployeeUI</title><rect fill="#FFFFFF" height="31.291" style="stroke:#181818;stroke-width:1;" width="10" x="372.0449" y="156.5332"/></g><g><title>.RegisterEmployeeUI</title><rect fill="#FFFFFF" height="31.291" style="stroke:#181818;stroke-width:1;" width="10" x="372.0449" y="219.1152"/></g><g><title>.RegisterEmployeeUI</title><rect fill="#FFFFFF" height="390.7832" style="stroke:#181818;stroke-width:1;" width="10" x="372.0449" y="281.6973"/></g><g><title>.RegisterEmployeeUI</title><rect fill="#FFFFFF" height="200.7461" style="stroke:#181818;stroke-width:1;" width="10" x="372.0449" y="703.7715"/></g><g><title>.RegisterEmployeeController</title><rect fill="#FFFFFF" height="328.2012" style="stroke:#181818;stroke-width:1;" width="10" x="551.665" y="312.9883"/></g><g><title>.RegisterEmployeeController</title><rect fill="#FFFFFF" height="138.1641" style="stroke:#181818;stroke-width:1;" width="10" x="551.665" y="735.0625"/></g><g><title>.Company</title><rect fill="#FFFFFF" height="31.291" style="stroke:#181818;stroke-width:1;" width="10" x="707.5049" y="344.2793"/></g><g><title>store.EmployeeStore</title><rect fill="#FFFFFF" height="506.6563" style="stroke:#181818;stroke-width:1;" width="10" x="828.7734" y="406.8613"/></g><g><title>store.EmployeeStore</title><rect fill="#FFFFFF" height="158.6006" style="stroke:#181818;stroke-width:1;" width="10" x="833.7734" y="451.2979"/></g><g><title>store.EmployeeStore</title><rect fill="#FFFFFF" height="147.1641" style="stroke:#181818;stroke-width:1;" width="10" x="833.7734" y="766.3535"/></g><g><title>store.EmployeeStore</title><rect fill="#FFFFFF" height="36.291" style="stroke:#181818;stroke-width:1;" width="10" x="838.7734" y="805.6445"/></g><g><title>emp.StaffMember</title><rect fill="#FFFFFF" height="420.7832" style="stroke:#181818;stroke-width:1;" width="10" x="1141.3477" y="492.7344"/></g><g><title>emp.StaffMember</title><rect fill="#FFFFFF" height="41.4365" style="stroke:#181818;stroke-width:1;" width="10" x="1146.3477" y="537.1709"/></g><g class="message" data-participant-1="Admin" data-participant-2="UI"><polygon fill="#181818" points="360.0449,152.5332,370.0449,156.5332,360.0449,160.5332,364.0449,156.5332" style="stroke:#181818;stroke-width:1;"/><line style="stroke:#181818;stroke-width:1;" x1="54.2344" x2="366.0449" y1="156.5332" y2="156.5332"/><text fill="#000000" font-family="sans-serif" font-size="13" font-weight="bold" lengthAdjust="spacing" textLength="7.23" x="61.2344" y="151.2705">1</text><text fill="#000000" font-family="sans-serif" font-size="13" lengthAdjust="spacing" textLength="186.4243" x="72.4644" y="151.2705">asks to register a new employee</text></g><g class="message" data-participant-1="UI" data-participant-2="Admin"><polygon fill="#181818" points="65.2344,183.8242,55.2344,187.8242,65.2344,191.8242,61.2344,187.8242" style="stroke:#181818;stroke-width:1;"/><line style="stroke:#181818;stroke-width:1;stroke-dasharray:2,2;" x1="59.2344" x2="376.0449" y1="187.8242" y2="187.8242"/><text fill="#000000" font-family="sans-serif" font-size="13" font-weight="bold" lengthAdjust="spacing" textLength="7.23" x="71.2344" y="182.5615">2</text><text fill="#000000" font-family="sans-serif" font-size="13" lengthAdjust="spacing" textLength="78.7744" x="82.4644" y="182.5615">requests data</text></g><g class="message" data-participant-1="Admin" data-participant-2="UI"><polygon fill="#181818" points="360.0449,215.1152,370.0449,219.1152,360.0449,223.1152,364.0449,219.1152" style="stroke:#181818;stroke-width:1;"/><line style="stroke:#181818;stroke-width:1;" x1="54.2344" x2="366.0449" y1="219.1152" y2="219.1152"/><text fill="#000000" font-family="sans-serif" font-size="13" font-weight="bold" lengthAdjust="spacing" textLength="7.23" x="61.2344" y="213.8525">3</text><text fill="#000000" font-family="sans-serif" font-size="13" lengthAdjust="spacing" textLength="287.5806" x="72.4644" y="213.8525">types data (name, address, phone, email, ccNum)</text></g><g class="message" data-participant-1="UI" data-participant-2="Admin"><polygon fill="#181818" points="65.2344,246.4063,55.2344,250.4063,65.2344,254.4063,61.2344,250.4063" style="stroke:#181818;stroke-width:1;"/><line style="stroke:#181818;stroke-width:1;stroke-dasharray:2,2;" x1="59.2344" x2="376.0449" y1="250.4063" y2="250.4063"/><text fill="#000000" font-family="sans-serif" font-size="13" font-weight="bold" lengthAdjust="spacing" textLength="7.23" x="71.2344" y="245.1436">4</text><text fill="#000000" font-family="sans-serif" font-size="13" lengthAdjust="spacing" textLength="75.1499" x="82.4644" y="245.1436">requests role</text></g><g class="message" data-participant-1="Admin" data-participant-2="UI"><polygon fill="#181818" points="360.0449,277.6973,370.0449,281.6973,360.0449,285.6973,364.0449,281.6973" style="stroke:#181818;stroke-width:1;"/><line style="stroke:#181818;stroke-width:1;" x1="54.2344" x2="366.0449" y1="281.6973" y2="281.6973"/><text fill="#000000" font-family="sans-serif" font-size="13" font-weight="bold" lengthAdjust="spacing" textLength="7.23" x="61.2344" y="276.4346">5</text><text fill="#000000" font-family="sans-serif" font-size="13" lengthAdjust="spacing" textLength="110.5381" x="72.4644" y="276.4346">selects role (roleId)</text></g><g class="message" data-participant-1="UI" data-participant-2="Ctrl"><polygon fill="#181818" points="539.665,308.9883,549.665,312.9883,539.665,316.9883,543.665,312.9883" style="stroke:#181818;stroke-width:1;"/><line style="stroke:#181818;stroke-width:1;" x1="382.0449" x2="545.665" y1="312.9883" y2="312.9883"/><text fill="#000000" font-family="sans-serif" font-size="13" font-weight="bold" lengthAdjust="spacing" textLength="7.23" x="389.0449" y="307.7256">6</text><text fill="#000000" font-family="sans-serif" font-size="13" lengthAdjust="spacing" textLength="120.6689" x="400.2749" y="307.7256">createEmployee(dto)</text></g><g class="message" data-participant-1="Ctrl" data-participant-2="Comp"><polygon fill="#181818" points="695.5049,340.2793,705.5049,344.2793,695.5049,348.2793,699.5049,344.2793" style="stroke:#181818;stroke-width:1;"/><line style="stroke:#181818;stroke-width:1;" x1="561.665" x2="701.5049" y1="344.2793" y2="344.2793"/><text fill="#000000" font-family="sans-serif" font-size="13" font-weight="bold" lengthAdjust="spacing" textLength="7.23" x="568.665" y="339.0166">7</text><text fill="#000000" font-family="sans-serif" font-size="13" lengthAdjust="spacing" textLength="115.6099" x="579.895" y="339.0166">getEmployeeStore()</text></g><g class="message" data-participant-1="Comp" data-participant-2="Ctrl"><polygon fill="#181818" points="572.665,371.5703,562.665,375.5703,572.665,379.5703,568.665,375.5703" style="stroke:#181818;stroke-width:1;"/><line style="stroke:#181818;stroke-width:1;stroke-dasharray:2,2;" x1="566.665" x2="711.5049" y1="375.5703" y2="375.5703"/><text fill="#000000" font-family="sans-serif" font-size="13" font-weight="bold" lengthAdjust="spacing" textLength="7.23" x="578.665" y="370.3076">8</text><text fill="#000000" font-family="sans-serif" font-size="13" lengthAdjust="spacing" textLength="28.9009" x="589.895" y="370.3076">store</text></g><g class="message" data-participant-1="Ctrl" data-participant-2="Store"><polygon fill="#181818" points="816.7734,402.8613,826.7734,406.8613,816.7734,410.8613,820.7734,406.8613" style="stroke:#181818;stroke-width:1;"/><line style="stroke:#181818;stroke-width:1;" x1="561.665" x2="822.7734" y1="406.8613" y2="406.8613"/><text fill="#000000" font-family="sans-serif" font-size="13" font-weight="bold" lengthAdjust="spacing" textLength="7.23" x="568.665" y="401.5986">9</text><text fill="#000000" font-family="sans-serif" font-size="13" lengthAdjust="spacing" textLength="120.6689" x="579.895" y="401.5986">createEmployee(dto)</text></g><g class="message" data-participant-1="Store" data-participant-2="Store"><line style="stroke:#181818;stroke-width:1;" x1="838.7734" x2="885.7734" y1="438.2979" y2="438.2979"/><line style="stroke:#181818;stroke-width:1;" x1="885.7734" x2="885.7734" y1="438.2979" y2="451.2979"/><line style="stroke:#181818;stroke-width:1;" x1="844.7734" x2="885.7734" y1="451.2979" y2="451.2979"/><polygon fill="#181818" points="854.7734,447.2979,844.7734,451.2979,854.7734,455.2979,850.7734,451.2979" style="stroke:#181818;stroke-width:1;"/><text fill="#000000" font-family="sans-serif" font-size="13" font-weight="bold" lengthAdjust="spacing" textLength="14.46" x="850.7734" y="433.0352">10</text><text fill="#000000" font-family="sans-serif" font-size="13" lengthAdjust="spacing" textLength="196.5615" x="869.2334" y="433.0352">validateUniqueness(email, phone)</text></g><path d="M1087.0215,419.8613 L1087.0215,463.8613 L1235.0215,463.8613 L1235.0215,429.8613 L1225.0215,419.8613 L1087.0215,419.8613" fill="#FEFFDD" style="stroke:#181818;stroke-width:0.5;"/><path d="M1225.0215,419.8613 L1225.0215,429.8613 L1235.0215,429.8613 L1225.0215,419.8613" fill="#FEFFDD" style="stroke:#181818;stroke-width:0.5;"/><text fill="#000000" font-family="sans-serif" font-size="13" lengthAdjust="spacing" textLength="127.8989" x="1093.0215" y="438.8896">Checks if email/phone</text><text fill="#000000" font-family="sans-serif" font-size="13" lengthAdjust="spacing" textLength="127.8926" x="1093.0215" y="456.1807">already exist in the list</text><g class="message" data-participant-1="Store" data-participant-2="Emp"><polygon fill="#181818" points="1129.3477,488.7344,1139.3477,492.7344,1129.3477,496.7344,1133.3477,492.7344" style="stroke:#181818;stroke-width:1;"/><line style="stroke:#181818;stroke-width:1;" x1="843.7734" x2="1135.3477" y1="492.7344" y2="492.7344"/><text fill="#000000" font-family="sans-serif" font-size="13" font-weight="bold" lengthAdjust="spacing" textLength="14.46" x="850.7734" y="487.4717">11</text><text fill="#000000" font-family="sans-serif" font-size="13" lengthAdjust="spacing" textLength="260.1143" x="869.2334" y="487.4717">create(name, address, phone, email, ccNum)</text></g><g class="message" data-participant-1="Emp" data-participant-2="Emp"><line style="stroke:#181818;stroke-width:1;" x1="1151.3477" x2="1198.3477" y1="524.1709" y2="524.1709"/><line style="stroke:#181818;stroke-width:1;" x1="1198.3477" x2="1198.3477" y1="524.1709" y2="537.1709"/><line style="stroke:#181818;stroke-width:1;" x1="1157.3477" x2="1198.3477" y1="537.1709" y2="537.1709"/><polygon fill="#181818" points="1167.3477,533.1709,1157.3477,537.1709,1167.3477,541.1709,1163.3477,537.1709" style="stroke:#181818;stroke-width:1;"/><text fill="#000000" font-family="sans-serif" font-size="13" font-weight="bold" lengthAdjust="spacing" textLength="14.46" x="1163.3477" y="518.9082">12</text><text fill="#000000" font-family="sans-serif" font-size="13" lengthAdjust="spacing" textLength="80.9263" x="1181.8076" y="518.9082">validateData()</text></g><path d="M1284.3862,505.7344 L1284.3862,549.7344 L1422.3862,549.7344 L1422.3862,515.7344 L1412.3862,505.7344 L1284.3862,505.7344" fill="#FEFFDD" style="stroke:#181818;stroke-width:0.5;"/><path d="M1412.3862,505.7344 L1412.3862,515.7344 L1422.3862,515.7344 L1412.3862,505.7344" fill="#FEFFDD" style="stroke:#181818;stroke-width:0.5;"/><text fill="#000000" font-family="sans-serif" font-size="13" lengthAdjust="spacing" textLength="117.7681" x="1290.3862" y="524.7627">AC14-2 (Mandatory)</text><text fill="#000000" font-family="sans-serif" font-size="13" lengthAdjust="spacing" textLength="117.7427" x="1290.3862" y="542.0537">AC14-3 (PT Format)</text><g class="message" data-participant-1="Emp" data-participant-2="Store"><polygon fill="#181818" points="854.7734,574.6074,844.7734,578.6074,854.7734,582.6074,850.7734,578.6074" style="stroke:#181818;stroke-width:1;"/><line style="stroke:#181818;stroke-width:1;stroke-dasharray:2,2;" x1="848.7734" x2="1140.3477" y1="578.6074" y2="578.6074"/><text fill="#000000" font-family="sans-serif" font-size="13" font-weight="bold" lengthAdjust="spacing" textLength="14.46" x="860.7734" y="573.3447">13</text><text fill="#000000" font-family="sans-serif" font-size="13" lengthAdjust="spacing" textLength="25.2891" x="879.2334" y="573.3447">emp</text></g><g class="message" data-participant-1="Store" data-participant-2="Ctrl"><polygon fill="#181818" points="572.665,605.8984,562.665,609.8984,572.665,613.8984,568.665,609.8984" style="stroke:#181818;stroke-width:1;"/><line style="stroke:#181818;stroke-width:1;stroke-dasharray:2,2;" x1="566.665" x2="827.7734" y1="609.8984" y2="609.8984"/><text fill="#000000" font-family="sans-serif" font-size="13" font-weight="bold" lengthAdjust="spacing" textLength="14.46" x="578.665" y="604.6357">14</text><text fill="#000000" font-family="sans-serif" font-size="13" lengthAdjust="spacing" textLength="25.2891" x="597.125" y="604.6357">emp</text></g><g class="message" data-participant-1="Ctrl" data-participant-2="UI"><polygon fill="#181818" points="393.0449,637.1895,383.0449,641.1895,393.0449,645.1895,389.0449,641.1895" style="stroke:#181818;stroke-width:1;"/><line style="stroke:#181818;stroke-width:1;stroke-dasharray:2,2;" x1="387.0449" x2="555.665" y1="641.1895" y2="641.1895"/><text fill="#000000" font-family="sans-serif" font-size="13" font-weight="bold" lengthAdjust="spacing" textLength="14.46" x="399.0449" y="635.9268">15</text><text fill="#000000" font-family="sans-serif" font-size="13" lengthAdjust="spacing" textLength="25.2891" x="417.5049" y="635.9268">emp</text></g><g class="message" data-participant-1="UI" data-participant-2="Admin"><polygon fill="#181818" points="65.2344,668.4805,55.2344,672.4805,65.2344,676.4805,61.2344,672.4805" style="stroke:#181818;stroke-width:1;"/><line style="stroke:#181818;stroke-width:1;stroke-dasharray:2,2;" x1="59.2344" x2="376.0449" y1="672.4805" y2="672.4805"/><text fill="#000000" font-family="sans-serif" font-size="13" font-weight="bold" lengthAdjust="spacing" textLength="14.46" x="71.2344" y="667.2178">16</text><text fill="#000000" font-family="sans-serif" font-size="13" lengthAdjust="spacing" textLength="218.9561" x="89.6943" y="667.2178">shows data and requests confirmation</text></g><g class="message" data-participant-1="Admin" data-participant-2="UI"><polygon fill="#181818" points="360.0449,699.7715,370.0449,703.7715,360.0449,707.7715,364.0449,703.7715" style="stroke:#181818;stroke-width:1;"/><line style="stroke:#181818;stroke-width:1;" x1="54.2344" x2="366.0449" y1="703.7715" y2="703.7715"/><text fill="#000000" font-family="sans-serif" font-size="13" font-weight="bold" lengthAdjust="spacing" textLength="14.46" x="61.2344" y="698.5088">17</text><text fill="#000000" font-family="sans-serif" font-size="13" lengthAdjust="spacing" textLength="49.1182" x="79.6943" y="698.5088">confirms</text></g><g class="message" data-participant-1="UI" data-participant-2="Ctrl"><polygon fill="#181818" points="539.665,731.0625,549.665,735.0625,539.665,739.0625,543.665,735.0625" style="stroke:#181818;stroke-width:1;"/><line style="stroke:#181818;stroke-width:1;" x1="382.0449" x2="545.665" y1="735.0625" y2="735.0625"/><text fill="#000000" font-family="sans-serif" font-size="13" font-weight="bold" lengthAdjust="spacing" textLength="14.46" x="389.0449" y="729.7998">18</text><text fill="#000000" font-family="sans-serif" font-size="13" lengthAdjust="spacing" textLength="93.9263" x="407.5049" y="729.7998">saveEmployee()</text></g><g class="message" data-participant-1="Ctrl" data-participant-2="Store"><polygon fill="#181818" points="821.7734,762.3535,831.7734,766.3535,821.7734,770.3535,825.7734,766.3535" style="stroke:#181818;stroke-width:1;"/><line style="stroke:#181818;stroke-width:1;" x1="561.665" x2="827.7734" y1="766.3535" y2="766.3535"/><text fill="#000000" font-family="sans-serif" font-size="13" font-weight="bold" lengthAdjust="spacing" textLength="14.46" x="568.665" y="761.0908">19</text><text fill="#000000" font-family="sans-serif" font-size="13" lengthAdjust="spacing" textLength="119.2153" x="587.125" y="761.0908">saveEmployee(emp)</text></g><g class="message" data-participant-1="Store" data-participant-2="Store"><line style="stroke:#181818;stroke-width:1;" x1="843.7734" x2="890.7734" y1="792.6445" y2="792.6445"/><line style="stroke:#181818;stroke-width:1;" x1="890.7734" x2="890.7734" y1="792.6445" y2="805.6445"/><line style="stroke:#181818;stroke-width:1;" x1="849.7734" x2="890.7734" y1="805.6445" y2="805.6445"/><polygon fill="#181818" points="859.7734,801.6445,849.7734,805.6445,859.7734,809.6445,855.7734,805.6445" style="stroke:#181818;stroke-width:1;"/><text fill="#000000" font-family="sans-serif" font-size="13" font-weight="bold" lengthAdjust="spacing" textLength="14.46" x="855.7734" y="787.3818">20</text><text fill="#000000" font-family="sans-serif" font-size="13" lengthAdjust="spacing" textLength="55.6372" x="874.2334" y="787.3818">add(emp)</text></g><g class="message" data-participant-1="Store" data-participant-2="Ctrl"><polygon fill="#181818" points="572.665,837.9355,562.665,841.9355,572.665,845.9355,568.665,841.9355" style="stroke:#181818;stroke-width:1;"/><line style="stroke:#181818;stroke-width:1;stroke-dasharray:2,2;" x1="566.665" x2="832.7734" y1="841.9355" y2="841.9355"/><text fill="#000000" font-family="sans-serif" font-size="13" font-weight="bold" lengthAdjust="spacing" textLength="14.46" x="578.665" y="836.6729">21</text><text fill="#000000" font-family="sans-serif" font-size="13" lengthAdjust="spacing" textLength="13.73" x="597.125" y="836.6729">ok</text></g><g class="message" data-participant-1="Ctrl" data-participant-2="UI"><polygon fill="#181818" points="393.0449,869.2266,383.0449,873.2266,393.0449,877.2266,389.0449,873.2266" style="stroke:#181818;stroke-width:1;"/><line style="stroke:#181818;stroke-width:1;stroke-dasharray:2,2;" x1="387.0449" x2="555.665" y1="873.2266" y2="873.2266"/><text fill="#000000" font-family="sans-serif" font-size="13" font-weight="bold" lengthAdjust="spacing" textLength="14.46" x="399.0449" y="867.9639">22</text><text fill="#000000" font-family="sans-serif" font-size="13" lengthAdjust="spacing" textLength="13.73" x="417.5049" y="867.9639">ok</text></g><g class="message" data-participant-1="UI" data-participant-2="Admin"><polygon fill="#181818" points="65.2344,900.5176,55.2344,904.5176,65.2344,908.5176,61.2344,904.5176" style="stroke:#181818;stroke-width:1;"/><line style="stroke:#181818;stroke-width:1;stroke-dasharray:2,2;" x1="59.2344" x2="376.0449" y1="904.5176" y2="904.5176"/><text fill="#000000" font-family="sans-serif" font-size="13" font-weight="bold" lengthAdjust="spacing" textLength="14.46" x="71.2344" y="899.2549">23</text><text fill="#000000" font-family="sans-serif" font-size="13" lengthAdjust="spacing" textLength="46.96" x="89.6943" y="899.2549">success</text></g><!--SRC=[ZLF1Rjim3BtxAuXUwW0DYcuz-L2WS3CWXsv3i-pEI4mYr9OyIMcRxzbX7z8V6qMhCPoqs7n8H3_oYU-HZYOs1Cl5rJLCOK6_TcGLmPt1ZSUsA70N7QfedZ0IE2kntRKhyeofw3oStUhMM1EYHmxF00F8cw937uqo7Te8PzK3RJY7_Apj6hSdMiubTJd_HrxjRFIkQQYdhgDlZYfgr_9ftyDy7iE1cwBgZMsH8icKqpYLsgvQH5olxoa9b3Gk5A6z0RsmGlvWUiFTLvpq620wyBbnGB3q39HlB9Ppc7Agr5ISnGw7641Zn2EckE-e1w2qsD85eDQUGhY0RkiinzIYQIv0gQ-xTl8HCxj5Hyo16b8PWZBzpdLVVoEELg0yiS0tcqeTtQGepk7RgbSaRa7v7RL__UrWzjAHZvTrAd9-KYGEuMBxAzXG7FbTSW83qcn_cmmbyV_4ncXy_PD8DQ-XvM5ev5DvMrzTJwy7Qc5wlq_Wfszmo7iIuaZCc5QQJIopUM9bNsGTpzIRpJPA251lIV4qpRft-b9oCuODNwttG2yyPc1luvQWuRFWPBNG5HATG-rDbgLS2oiCn30yYFyYxUgexrbohbVtNyE7_CoIiRdyJVGThr0vf9p8b4Uw-0JbFLgTfhYVdA2VUU8_u8lpBSO1FKWzN3_OpbjVP4c7OQTtUOnv7TERyVA6hNlEgy_j3Bkid5sRTBrnnzzTXi9eZGC-3SjniZmZb9juVtNOznFmS85x74lX-4Z9JYcUMl4N]--></g></svg>