<svg xmlns="http://www.w3.org/2000/svg" xmlns:xlink="http://www.w3.org/1999/xlink" contentStyleType="text/css" data-diagram-type="SEQUENCE" height="414px" preserveAspectRatio="none" style="width:471px;height:414px;background:#FFFFFF;" version="1.1" viewBox="0 0 471 414" width="471px" zoomAndPan="magnify"><title>SSD - US41 Record Vaccine Administration</title><defs/><g><text fill="#000000" font-family="sans-serif" font-size="14" font-weight="bold" lengthAdjust="spacing" textLength="287.8545" x="90.8069" y="30.1074">SSD - US41 Record Vaccine Administration</text><g><title>Nurse</title><rect fill="#FFFFFF" height="188.7461" style="stroke:#181818;stroke-width:1;" width="10" x="21.6724" y="133.2422"/></g><g><title>.System</title><rect fill="#FFFFFF" height="31.291" style="stroke:#181818;stroke-width:1;" width="10" x="428.1855" y="156.5332"/></g><g><title>.System</title><rect fill="#FFFFFF" height="31.291" style="stroke:#181818;stroke-width:1;" width="10" x="428.1855" y="219.1152"/></g><g><title>.System</title><rect fill="#FFFFFF" height="31.291" style="stroke:#181818;stroke-width:1;" width="10" x="428.1855" y="281.6973"/></g><g><title>Nurse</title><rect fill="#000000" fill-opacity="0.00000" height="207.7461" width="8" x="22.6724" y="123.2422"/><line style="stroke:#181818;stroke-width:0.5;stroke-dasharray:5,5;" x1="26" x2="26" y1="123.2422" y2="330.9883"/></g><g><title>.System</title><rect fill="#000000" fill-opacity="0.00000" height="207.7461" width="8" x="429.1855" y="123.2422"/><line style="stroke:#181818;stroke-width:0.5;stroke-dasharray:5,5;" x1="432.9028" x2="432.9028" y1="123.2422" y2="330.9883"/></g><g class="participant participant-head" data-participant="Nurse"><text fill="#000000" font-family="sans-serif" font-size="14" lengthAdjust="spacing" textLength="37.3447" x="5" y="119.7285">Nurse</text><ellipse cx="26.6724" cy="53.1211" fill="#E2E2F0" rx="8" ry="8" style="stroke:#181818;stroke-width:0.5;"/><path d="M26.6724,61.1211 L26.6724,88.1211 M13.6724,69.1211 L39.6724,69.1211 M26.6724,88.1211 L13.6724,103.1211 M26.6724,88.1211 L39.6724,103.1211" fill="none" style="stroke:#181818;stroke-width:0.5;"/></g><g class="participant participant-tail" data-participant="Nurse"><text fill="#000000" font-family="sans-serif" font-size="14" lengthAdjust="spacing" textLength="37.3447" x="5" y="345.0957">Nurse</text><ellipse cx="26.6724" cy="357.1094" fill="#E2E2F0" rx="8" ry="8" style="stroke:#181818;stroke-width:0.5;"/><path d="M26.6724,365.1094 L26.6724,392.1094 M13.6724,373.1094 L39.6724,373.1094 M26.6724,392.1094 L13.6724,407.1094 M26.6724,392.1094 L39.6724,407.1094" fill="none" style="stroke:#181818;stroke-width:0.5;"/></g><g class="participant participant-head" data-participant="System"><rect fill="#E2E2F0" height="32.6211" rx="2.5" ry="2.5" style="stroke:#181818;stroke-width:0.5;" width="64.5654" x="400.9028" y="89.6211"/><text fill="#000000" font-family="sans-serif" font-size="14" lengthAdjust="spacing" textLength="50.5654" x="407.9028" y="111.7285">:System</text></g><g class="participant participant-tail" data-participant="System"><rect fill="#E2E2F0" height="32.6211" rx="2.5" ry="2.5" style="stroke:#181818;stroke-width:0.5;" width="64.5654" x="400.9028" y="329.9883"/><text fill="#000000" font-family="sans-serif" font-size="14" lengthAdjust="spacing" textLength="50.5654" x="407.9028" y="352.0957">:System</text></g><g><title>Nurse</title><rect fill="#FFFFFF" height="188.7461" style="stroke:#181818;stroke-width:1;" width="10" x="21.6724" y="133.2422"/></g><g><title>.System</title><rect fill="#FFFFFF" height="31.291" style="stroke:#181818;stroke-width:1;" width="10" x="428.1855" y="156.5332"/></g><g><title>.System</title><rect fill="#FFFFFF" height="31.291" style="stroke:#181818;stroke-width:1;" width="10" x="428.1855" y="219.1152"/></g><g><title>.System</title><rect fill="#FFFFFF" height="31.291" style="stroke:#181818;stroke-width:1;" width="10" x="428.1855" y="281.6973"/></g><g class="message" data-participant-1="Nurse" data-participant-2="System"><polygon fill="#181818" points="416.1855,152.5332,426.1855,156.5332,416.1855,160.5332,420.1855,156.5332" style="stroke:#181818;stroke-width:1;"/><line style="stroke:#181818;stroke-width:1;" x1="31.6724" x2="422.1855" y1="156.5332" y2="156.5332"/><text fill="#000000" font-family="sans-serif" font-size="13" font-weight="bold" lengthAdjust="spacing" textLength="7.23" x="38.6724" y="151.2705">1</text><text fill="#000000" font-family="sans-serif" font-size="13" lengthAdjust="spacing" textLength="224.7134" x="49.9023" y="151.2705">asks to record a vaccine administration</text></g><g class="message" data-participant-1="System" data-participant-2="Nurse"><polygon fill="#181818" points="42.6724,183.8242,32.6724,187.8242,42.6724,191.8242,38.6724,187.8242" style="stroke:#181818;stroke-width:1;"/><line style="stroke:#181818;stroke-width:1;stroke-dasharray:2,2;" x1="36.6724" x2="432.1855" y1="187.8242" y2="187.8242"/><text fill="#000000" font-family="sans-serif" font-size="13" font-weight="bold" lengthAdjust="spacing" textLength="7.23" x="48.6724" y="182.5615">2</text><text fill="#000000" font-family="sans-serif" font-size="13" lengthAdjust="spacing" textLength="218.2261" x="59.9023" y="182.5615">shows vaccines list and requests data</text></g><g class="message" data-participant-1="Nurse" data-participant-2="System"><polygon fill="#181818" points="416.1855,215.1152,426.1855,219.1152,416.1855,223.1152,420.1855,219.1152" style="stroke:#181818;stroke-width:1;"/><line style="stroke:#181818;stroke-width:1;" x1="31.6724" x2="422.1855" y1="219.1152" y2="219.1152"/><text fill="#000000" font-family="sans-serif" font-size="13" font-weight="bold" lengthAdjust="spacing" textLength="7.23" x="38.6724" y="213.8525">3</text><text fill="#000000" font-family="sans-serif" font-size="13" lengthAdjust="spacing" textLength="139.4834" x="49.9023" y="213.8525">provides requested data</text></g><g class="message" data-participant-1="System" data-participant-2="Nurse"><polygon fill="#181818" points="42.6724,246.4063,32.6724,250.4063,42.6724,254.4063,38.6724,250.4063" style="stroke:#181818;stroke-width:1;"/><line style="stroke:#181818;stroke-width:1;stroke-dasharray:2,2;" x1="36.6724" x2="432.1855" y1="250.4063" y2="250.4063"/><text fill="#000000" font-family="sans-serif" font-size="13" font-weight="bold" lengthAdjust="spacing" textLength="7.23" x="48.6724" y="245.1436">4</text><text fill="#000000" font-family="sans-serif" font-size="13" lengthAdjust="spacing" textLength="235.5742" x="59.9023" y="245.1436">shows all data and requests confirmation</text></g><g class="message" data-participant-1="Nurse" data-participant-2="System"><polygon fill="#181818" points="416.1855,277.6973,426.1855,281.6973,416.1855,285.6973,420.1855,281.6973" style="stroke:#181818;stroke-width:1;"/><line style="stroke:#181818;stroke-width:1;" x1="31.6724" x2="422.1855" y1="281.6973" y2="281.6973"/><text fill="#000000" font-family="sans-serif" font-size="13" font-weight="bold" lengthAdjust="spacing" textLength="7.23" x="38.6724" y="276.4346">5</text><text fill="#000000" font-family="sans-serif" font-size="13" lengthAdjust="spacing" textLength="99.7153" x="49.9023" y="276.4346">confirms the data</text></g><g class="message" data-participant-1="System" data-participant-2="Nurse"><polygon fill="#181818" points="42.6724,308.9883,32.6724,312.9883,42.6724,316.9883,38.6724,312.9883" style="stroke:#181818;stroke-width:1;"/><line style="stroke:#181818;stroke-width:1;stroke-dasharray:2,2;" x1="36.6724" x2="432.1855" y1="312.9883" y2="312.9883"/><text fill="#000000" font-family="sans-serif" font-size="13" font-weight="bold" lengthAdjust="spacing" textLength="7.23" x="48.6724" y="307.7256">6</text><text fill="#000000" font-family="sans-serif" font-size="13" lengthAdjust="spacing" textLength="361.2832" x="59.9023" y="307.7256">informs operation success and user transition to recovery state</text></g><!--SRC=[TP2zRiCm38HtFyKXkuS2dJmKAD2vGursPoG68MfBhaYvoDjNaTGXQ3FfvpxUaJInXJ7FBnZnFZy-u8rTJ1uVv9m4nhDV9OXQ8fCOXe6oHN8cEncZV5pV8Qz7JaLp5XCEhpaf7q2AUXisIYPEDWg6mpHVr7YjShlMkkRN-A4U69ywC1NsKs4HgVL6s7jtTDjTup6MqkenGS_nMtznnL9OKF35wIkpciAJqJ-9Mugx-5BHGVQDl9T0orA1MtCNmqdIsbVt9wJBPRGptxENS8fN96xSXeHcvrYr9cNbX39zKAbQtz7EwGArijBX1m00]--></g></svg>