<svg xmlns="http://www.w3.org/2000/svg" xmlns:xlink="http://www.w3.org/1999/xlink" contentStyleType="text/css" height="1205px" preserveAspectRatio="none" style="width:1545px;height:1205px;background:#FFFFFF;" version="1.1" viewBox="0 0 1545 1205" width="1545px" zoomAndPan="magnify"><title>PVMS - Domain Model (Aligned and Corrected)</title><defs/><g><text fill="#000000" font-family="sans-serif" font-size="14" font-weight="bold" lengthAdjust="spacing" textLength="311.1309" x="609.9425" y="25.1074">PVMS - Domain Model (Aligned and Corrected)</text><!--class SNSUser--><g id="elem_SNSUser"><rect codeLine="7" fill="#F1F1F1" height="196.9688" id="SNSUser" rx="2.5" ry="2.5" style="stroke:#181818;stroke-width:0.5;" width="188.2373" x="469.72" y="46.6211"/><ellipse cx="530.4163" cy="62.6211" fill="#ADD1B2" rx="11" ry="11" style="stroke:#181818;stroke-width:1.0;"/><path d="M533.1819,58.4961 Q533.3382,58.2773 533.5257,58.168 Q533.7132,58.0586 533.9319,58.0586 Q534.3069,58.0586 534.5413,58.3242 Q534.7757,58.5742 534.7757,59.1836 L534.7757,60.6367 Q534.7757,61.2461 534.5413,61.5117 Q534.3069,61.7773 533.9319,61.7773 Q533.5882,61.7773 533.385,61.5742 Q533.1819,61.3867 533.0725,60.8711 Q533.0257,60.5117 532.8382,60.3242 Q532.51,59.9492 531.9007,59.7305 Q531.2913,59.5117 530.6663,59.5117 Q529.9007,59.5117 529.26,59.8398 Q528.635,60.168 528.135,60.918 Q527.6507,61.668 527.6507,62.6992 L527.6507,63.793 Q527.6507,65.0273 528.5413,65.8555 Q529.4319,66.668 531.0257,66.668 Q531.9632,66.668 532.6194,66.418 Q533.01,66.2617 533.4319,65.8242 Q533.6975,65.5586 533.8382,65.4805 Q533.9944,65.4023 534.1975,65.4023 Q534.5257,65.4023 534.7757,65.668 Q535.0413,65.918 535.0413,66.2617 Q535.0413,66.6055 534.6975,67.0117 Q534.1975,67.5898 533.4007,67.918 Q532.3225,68.3711 531.0257,68.3711 Q529.51,68.3711 528.3069,67.7461 Q527.3225,67.2461 526.635,66.1836 Q525.9475,65.1055 525.9475,63.8242 L525.9475,62.668 Q525.9475,61.3398 526.5569,60.1992 Q527.1819,59.043 528.2757,58.4336 Q529.3694,57.8086 530.6038,57.8086 Q531.3382,57.8086 531.9788,57.9805 Q532.635,58.1367 533.1819,58.4961 Z " fill="#000000"/><text fill="#000000" font-family="sans-serif" font-size="14" lengthAdjust="spacing" textLength="58.3447" x="550.9163" y="68.418">SNSUser</text><line style="stroke:#181818;stroke-width:0.5;" x1="470.72" x2="656.9573" y1="78.6211" y2="78.6211"/><text fill="#000000" font-family="sans-serif" font-size="14" lengthAdjust="spacing" textLength="166.1338" x="475.72" y="97.7285">+snsNumber : String &#171;PK&#187;</text><line style="stroke:#181818;stroke-width:1.0;" x1="470.72" x2="656.9573" y1="105.2422" y2="105.2422"/><text fill="#000000" font-family="sans-serif" font-size="14" lengthAdjust="spacing" textLength="91.4375" x="475.72" y="124.3496">+name : String</text><text fill="#000000" font-family="sans-serif" font-size="14" lengthAdjust="spacing" textLength="120.2305" x="475.72" y="142.9707">+dateOfBirth : Date</text><text fill="#000000" font-family="sans-serif" font-size="14" lengthAdjust="spacing" textLength="78.2031" x="475.72" y="161.5918">+sex : String</text><text fill="#000000" font-family="sans-serif" font-size="14" lengthAdjust="spacing" textLength="145.1338" x="475.72" y="180.2129">+postalAddress : String</text><text fill="#000000" font-family="sans-serif" font-size="14" lengthAdjust="spacing" textLength="95.3477" x="475.72" y="198.834">+phone : String</text><text fill="#000000" font-family="sans-serif" font-size="14" lengthAdjust="spacing" textLength="89.8721" x="475.72" y="217.4551">+email : String</text><text fill="#000000" font-family="sans-serif" font-size="14" lengthAdjust="spacing" textLength="176.2373" x="475.72" y="236.0762">+citizenCardNumber : String</text></g><!--class StaffMember--><g id="elem_StaffMember"><rect codeLine="20" fill="#F1F1F1" height="141.1055" id="StaffMember" rx="2.5" ry="2.5" style="stroke:#181818;stroke-width:0.5;" width="157.1338" x="1038.22" y="74.6211"/><ellipse cx="1073.4682" cy="90.6211" fill="#A9DCDF" rx="11" ry="11" style="stroke:#181818;stroke-width:1.0;"/><path d="M1075.6557,92.3867 L1071.5151,92.3867 L1071.0932,93.418 L1071.5151,93.418 Q1072.1245,93.418 1072.3901,93.6523 Q1072.6557,93.8867 1072.6557,94.2773 Q1072.6557,94.6523 1072.3901,94.8867 Q1072.1245,95.1211 1071.5151,95.1211 L1069.2182,95.1211 Q1068.6089,95.1211 1068.3589,94.8867 Q1068.0932,94.6523 1068.0932,94.2617 Q1068.0932,93.8867 1068.3745,93.6523 Q1068.6401,93.4023 1069.2651,93.418 L1071.937,86.7617 L1070.8276,86.7617 Q1070.2182,86.7617 1069.9526,86.5273 Q1069.687,86.293 1069.687,85.9023 Q1069.687,85.5273 1069.9526,85.293 Q1070.2182,85.0586 1070.8276,85.0586 L1074.4995,85.0586 L1077.8901,93.418 Q1078.4839,93.418 1078.6714,93.5586 Q1079.062,93.8242 1079.062,94.2773 Q1079.062,94.6523 1078.7964,94.8867 Q1078.5464,95.1211 1077.937,95.1211 L1075.6401,95.1211 Q1075.0307,95.1211 1074.7651,94.8867 Q1074.4995,94.6523 1074.4995,94.2617 Q1074.4995,93.8867 1074.7651,93.6523 Q1075.0307,93.418 1075.6401,93.418 L1076.062,93.418 L1075.6557,92.3867 Z M1074.937,90.6836 L1073.5776,87.3086 L1072.2026,90.6836 L1074.937,90.6836 Z " fill="#000000"/><text fill="#000000" font-family="sans-serif" font-size="14" font-style="italic" lengthAdjust="spacing" textLength="80.1377" x="1091.9679" y="96.418">StaffMember</text><line style="stroke:#181818;stroke-width:0.5;" x1="1039.22" x2="1194.3538" y1="106.6211" y2="106.6211"/><text fill="#000000" font-family="sans-serif" font-size="14" lengthAdjust="spacing" textLength="112.4648" x="1044.22" y="125.7285">+id : Integer &#171;PK&#187;</text><line style="stroke:#181818;stroke-width:1.0;" x1="1039.22" x2="1194.3538" y1="133.2422" y2="133.2422"/><text fill="#000000" font-family="sans-serif" font-size="14" lengthAdjust="spacing" textLength="91.4375" x="1044.22" y="152.3496">+name : String</text><text fill="#000000" font-family="sans-serif" font-size="14" lengthAdjust="spacing" textLength="145.1338" x="1044.22" y="170.9707">+postalAddress : String</text><text fill="#000000" font-family="sans-serif" font-size="14" lengthAdjust="spacing" textLength="95.3477" x="1044.22" y="189.5918">+phone : String</text><text fill="#000000" font-family="sans-serif" font-size="14" lengthAdjust="spacing" textLength="89.8721" x="1044.22" y="208.2129">+email : String</text></g><!--class Receptionist--><g id="elem_Receptionist"><rect codeLine="29" fill="#F1F1F1" height="40" id="Receptionist" rx="2.5" ry="2.5" style="stroke:#181818;stroke-width:0.5;" width="109.041" x="1132.22" y="373.1211"/><ellipse cx="1147.22" cy="389.1211" fill="#ADD1B2" rx="11" ry="11" style="stroke:#181818;stroke-width:1.0;"/><path d="M1149.9856,384.9961 Q1150.1419,384.7773 1150.3294,384.668 Q1150.5169,384.5586 1150.7356,384.5586 Q1151.1106,384.5586 1151.345,384.8242 Q1151.5794,385.0742 1151.5794,385.6836 L1151.5794,387.1367 Q1151.5794,387.7461 1151.345,388.0117 Q1151.1106,388.2773 1150.7356,388.2773 Q1150.3919,388.2773 1150.1888,388.0742 Q1149.9856,387.8867 1149.8763,387.3711 Q1149.8294,387.0117 1149.6419,386.8242 Q1149.3138,386.4492 1148.7044,386.2305 Q1148.095,386.0117 1147.47,386.0117 Q1146.7044,386.0117 1146.0638,386.3398 Q1145.4388,386.668 1144.9388,387.418 Q1144.4544,388.168 1144.4544,389.1992 L1144.4544,390.293 Q1144.4544,391.5273 1145.345,392.3555 Q1146.2356,393.168 1147.8294,393.168 Q1148.7669,393.168 1149.4231,392.918 Q1149.8138,392.7617 1150.2356,392.3242 Q1150.5013,392.0586 1150.6419,391.9805 Q1150.7981,391.9023 1151.0013,391.9023 Q1151.3294,391.9023 1151.5794,392.168 Q1151.845,392.418 1151.845,392.7617 Q1151.845,393.1055 1151.5013,393.5117 Q1151.0013,394.0898 1150.2044,394.418 Q1149.1263,394.8711 1147.8294,394.8711 Q1146.3138,394.8711 1145.1106,394.2461 Q1144.1263,393.7461 1143.4388,392.6836 Q1142.7513,391.6055 1142.7513,390.3242 L1142.7513,389.168 Q1142.7513,387.8398 1143.3606,386.6992 Q1143.9856,385.543 1145.0794,384.9336 Q1146.1731,384.3086 1147.4075,384.3086 Q1148.1419,384.3086 1148.7825,384.4805 Q1149.4388,384.6367 1149.9856,384.9961 Z " fill="#000000"/><text fill="#000000" font-family="sans-serif" font-size="14" lengthAdjust="spacing" textLength="77.041" x="1161.22" y="394.918">Receptionist</text><line style="stroke:#181818;stroke-width:0.5;" x1="1133.22" x2="1240.261" y1="405.1211" y2="405.1211"/></g><!--class Nurse--><g id="elem_Nurse"><rect codeLine="30" fill="#F1F1F1" height="58.6211" id="Nurse" rx="2.5" ry="2.5" style="stroke:#181818;stroke-width:0.5;" width="301.9053" x="794.72" y="363.6211"/><ellipse cx="922.7503" cy="379.6211" fill="#ADD1B2" rx="11" ry="11" style="stroke:#181818;stroke-width:1.0;"/><path d="M925.5159,375.4961 Q925.6721,375.2773 925.8596,375.168 Q926.0471,375.0586 926.2659,375.0586 Q926.6409,375.0586 926.8753,375.3242 Q927.1096,375.5742 927.1096,376.1836 L927.1096,377.6367 Q927.1096,378.2461 926.8753,378.5117 Q926.6409,378.7773 926.2659,378.7773 Q925.9221,378.7773 925.719,378.5742 Q925.5159,378.3867 925.4065,377.8711 Q925.3596,377.5117 925.1721,377.3242 Q924.844,376.9492 924.2346,376.7305 Q923.6253,376.5117 923.0003,376.5117 Q922.2346,376.5117 921.594,376.8398 Q920.969,377.168 920.469,377.918 Q919.9846,378.668 919.9846,379.6992 L919.9846,380.793 Q919.9846,382.0273 920.8753,382.8555 Q921.7659,383.668 923.3596,383.668 Q924.2971,383.668 924.9534,383.418 Q925.344,383.2617 925.7659,382.8242 Q926.0315,382.5586 926.1721,382.4805 Q926.3284,382.4023 926.5315,382.4023 Q926.8596,382.4023 927.1096,382.668 Q927.3753,382.918 927.3753,383.2617 Q927.3753,383.6055 927.0315,384.0117 Q926.5315,384.5898 925.7346,384.918 Q924.6565,385.3711 923.3596,385.3711 Q921.844,385.3711 920.6409,384.7461 Q919.6565,384.2461 918.969,383.1836 Q918.2815,382.1055 918.2815,380.8242 L918.2815,379.668 Q918.2815,378.3398 918.8909,377.1992 Q919.5159,376.043 920.6096,375.4336 Q921.7034,374.8086 922.9378,374.8086 Q923.6721,374.8086 924.3128,374.9805 Q924.969,375.1367 925.5159,375.4961 Z " fill="#000000"/><text fill="#000000" font-family="sans-serif" font-size="14" lengthAdjust="spacing" textLength="37.3447" x="943.2503" y="385.418">Nurse</text><line style="stroke:#181818;stroke-width:0.5;" x1="795.72" x2="1095.6253" y1="395.6211" y2="395.6211"/><text fill="#000000" font-family="sans-serif" font-size="14" lengthAdjust="spacing" textLength="289.9053" x="800.72" y="414.7285">+&#171;Note&#187; : Authorized to access full health data</text></g><!--class DGSAdministrator--><g id="elem_DGSAdministrator"><rect codeLine="33" fill="#F1F1F1" height="40" id="DGSAdministrator" rx="2.5" ry="2.5" style="stroke:#181818;stroke-width:0.5;" width="144.8066" x="1276.22" y="373.1211"/><ellipse cx="1291.22" cy="389.1211" fill="#ADD1B2" rx="11" ry="11" style="stroke:#181818;stroke-width:1.0;"/><path d="M1293.9856,384.9961 Q1294.1419,384.7773 1294.3294,384.668 Q1294.5169,384.5586 1294.7356,384.5586 Q1295.1106,384.5586 1295.345,384.8242 Q1295.5794,385.0742 1295.5794,385.6836 L1295.5794,387.1367 Q1295.5794,387.7461 1295.345,388.0117 Q1295.1106,388.2773 1294.7356,388.2773 Q1294.3919,388.2773 1294.1888,388.0742 Q1293.9856,387.8867 1293.8763,387.3711 Q1293.8294,387.0117 1293.6419,386.8242 Q1293.3138,386.4492 1292.7044,386.2305 Q1292.095,386.0117 1291.47,386.0117 Q1290.7044,386.0117 1290.0638,386.3398 Q1289.4388,386.668 1288.9388,387.418 Q1288.4544,388.168 1288.4544,389.1992 L1288.4544,390.293 Q1288.4544,391.5273 1289.345,392.3555 Q1290.2356,393.168 1291.8294,393.168 Q1292.7669,393.168 1293.4231,392.918 Q1293.8138,392.7617 1294.2356,392.3242 Q1294.5013,392.0586 1294.6419,391.9805 Q1294.7981,391.9023 1295.0013,391.9023 Q1295.3294,391.9023 1295.5794,392.168 Q1295.845,392.418 1295.845,392.7617 Q1295.845,393.1055 1295.5013,393.5117 Q1295.0013,394.0898 1294.2044,394.418 Q1293.1263,394.8711 1291.8294,394.8711 Q1290.3138,394.8711 1289.1106,394.2461 Q1288.1263,393.7461 1287.4388,392.6836 Q1286.7513,391.6055 1286.7513,390.3242 L1286.7513,389.168 Q1286.7513,387.8398 1287.3606,386.6992 Q1287.9856,385.543 1289.0794,384.9336 Q1290.1731,384.3086 1291.4075,384.3086 Q1292.1419,384.3086 1292.7825,384.4805 Q1293.4388,384.6367 1293.9856,384.9961 Z " fill="#000000"/><text fill="#000000" font-family="sans-serif" font-size="14" lengthAdjust="spacing" textLength="112.8066" x="1305.22" y="394.918">DGSAdministrator</text><line style="stroke:#181818;stroke-width:0.5;" x1="1277.22" x2="1420.0266" y1="405.1211" y2="405.1211"/></g><!--class CenterType--><g id="elem_CenterType"><rect codeLine="36" fill="#F1F1F1" height="77.2422" id="CenterType" rx="2.5" ry="2.5" style="stroke:#181818;stroke-width:0.5;" width="121.7236" x="1230.72" y="106.6211"/><ellipse cx="1253.1806" cy="122.6211" fill="#EB937F" rx="11" ry="11" style="stroke:#181818;stroke-width:1.0;"/><path d="M1252.04,123.418 L1252.04,125.918 L1256.3681,125.918 L1256.3681,124.9961 Q1256.3681,124.3867 1256.6025,124.1211 Q1256.8525,123.8555 1257.2275,123.8555 Q1257.6025,123.8555 1257.8368,124.1211 Q1258.0712,124.3867 1258.0712,124.9961 L1258.0712,127.6211 L1250.0712,127.6211 Q1249.4462,127.6211 1249.1806,127.3867 Q1248.9306,127.1523 1248.9306,126.7617 Q1248.9306,126.3867 1249.1962,126.1523 Q1249.4618,125.918 1250.0712,125.918 L1250.3368,125.918 L1250.3368,119.2617 L1250.0712,119.2617 Q1249.4462,119.2617 1249.1806,119.0273 Q1248.9306,118.793 1248.9306,118.4023 Q1248.9306,118.0273 1249.1806,117.793 Q1249.4462,117.5586 1250.0712,117.5586 L1257.6962,117.5586 L1257.6962,120.1523 Q1257.6962,120.7617 1257.4618,121.0273 Q1257.2431,121.2773 1256.8525,121.2773 Q1256.4775,121.2773 1256.2431,121.0273 Q1256.0087,120.7617 1256.0087,120.1523 L1256.0087,119.2617 L1252.04,119.2617 L1252.04,121.7148 L1253.5243,121.7148 Q1253.5243,121.0586 1253.6493,120.8711 Q1253.915,120.4648 1254.3837,120.4648 Q1254.7587,120.4648 1254.9931,120.7305 Q1255.2275,120.9805 1255.2275,121.5898 L1255.2275,123.5586 Q1255.2275,124.1055 1255.1025,124.293 Q1254.8368,124.6836 1254.3837,124.6836 Q1253.915,124.6836 1253.6493,124.2773 Q1253.5243,124.0898 1253.5243,123.418 L1252.04,123.418 Z " fill="#000000"/><text fill="#000000" font-family="sans-serif" font-size="14" lengthAdjust="spacing" textLength="73.1445" x="1268.8385" y="128.418">CenterType</text><line style="stroke:#181818;stroke-width:0.5;" x1="1231.72" x2="1351.4436" y1="138.6211" y2="138.6211"/><text fill="#000000" font-family="sans-serif" font-size="14" lengthAdjust="spacing" textLength="109.7236" x="1236.72" y="157.7285">HealthcareCenter</text><text fill="#000000" font-family="sans-serif" font-size="14" lengthAdjust="spacing" textLength="104.2412" x="1236.72" y="176.3496">CommunityMass</text></g><!--class VaccinationCenter--><g id="elem_VaccinationCenter"><rect codeLine="41" fill="#F1F1F1" height="234.2109" id="VaccinationCenter" rx="2.5" ry="2.5" style="stroke:#181818;stroke-width:0.5;" width="210.8164" x="274.22" y="542.6211"/><ellipse cx="318.2076" cy="558.6211" fill="#ADD1B2" rx="11" ry="11" style="stroke:#181818;stroke-width:1.0;"/><path d="M320.9733,554.4961 Q321.1295,554.2773 321.317,554.168 Q321.5045,554.0586 321.7233,554.0586 Q322.0983,554.0586 322.3326,554.3242 Q322.567,554.5742 322.567,555.1836 L322.567,556.6367 Q322.567,557.2461 322.3326,557.5117 Q322.0983,557.7773 321.7233,557.7773 Q321.3795,557.7773 321.1764,557.5742 Q320.9733,557.3867 320.8639,556.8711 Q320.817,556.5117 320.6295,556.3242 Q320.3014,555.9492 319.692,555.7305 Q319.0826,555.5117 318.4576,555.5117 Q317.692,555.5117 317.0514,555.8398 Q316.4264,556.168 315.9264,556.918 Q315.442,557.668 315.442,558.6992 L315.442,559.793 Q315.442,561.0273 316.3326,561.8555 Q317.2233,562.668 318.817,562.668 Q319.7545,562.668 320.4108,562.418 Q320.8014,562.2617 321.2233,561.8242 Q321.4889,561.5586 321.6295,561.4805 Q321.7858,561.4023 321.9889,561.4023 Q322.317,561.4023 322.567,561.668 Q322.8326,561.918 322.8326,562.2617 Q322.8326,562.6055 322.4889,563.0117 Q321.9889,563.5898 321.192,563.918 Q320.1139,564.3711 318.817,564.3711 Q317.3014,564.3711 316.0983,563.7461 Q315.1139,563.2461 314.4264,562.1836 Q313.7389,561.1055 313.7389,559.8242 L313.7389,558.668 Q313.7389,557.3398 314.3483,556.1992 Q314.9733,555.043 316.067,554.4336 Q317.1608,553.8086 318.3951,553.8086 Q319.1295,553.8086 319.7701,553.9805 Q320.4264,554.1367 320.9733,554.4961 Z " fill="#000000"/><text fill="#000000" font-family="sans-serif" font-size="14" lengthAdjust="spacing" textLength="114.3994" x="338.6493" y="564.418">VaccinationCenter</text><line style="stroke:#181818;stroke-width:0.5;" x1="275.22" x2="484.0364" y1="574.6211" y2="574.6211"/><text fill="#000000" font-family="sans-serif" font-size="14" lengthAdjust="spacing" textLength="112.4648" x="280.22" y="593.7285">+id : Integer &#171;PK&#187;</text><line style="stroke:#181818;stroke-width:1.0;" x1="275.22" x2="484.0364" y1="601.2422" y2="601.2422"/><text fill="#000000" font-family="sans-serif" font-size="14" lengthAdjust="spacing" textLength="91.4375" x="280.22" y="620.3496">+name : String</text><text fill="#000000" font-family="sans-serif" font-size="14" lengthAdjust="spacing" textLength="145.1338" x="280.22" y="638.9707">+postalAddress : String</text><text fill="#000000" font-family="sans-serif" font-size="14" lengthAdjust="spacing" textLength="95.3477" x="280.22" y="657.5918">+phone : String</text><text fill="#000000" font-family="sans-serif" font-size="14" lengthAdjust="spacing" textLength="89.8721" x="280.22" y="676.2129">+email : String</text><text fill="#000000" font-family="sans-serif" font-size="14" lengthAdjust="spacing" textLength="103.8857" x="280.22" y="694.834">+website : String</text><text fill="#000000" font-family="sans-serif" font-size="14" lengthAdjust="spacing" textLength="198.8164" x="280.22" y="713.4551">+maxVaccinesPerHour : Integer</text><text fill="#000000" font-family="sans-serif" font-size="14" lengthAdjust="spacing" textLength="138.127" x="280.22" y="732.0762">+openingHours : Time</text><text fill="#000000" font-family="sans-serif" font-size="14" lengthAdjust="spacing" textLength="131.8789" x="280.22" y="750.6973">+closingHours : Time</text><text fill="#000000" font-family="sans-serif" font-size="14" lengthAdjust="spacing" textLength="119.4512" x="280.22" y="769.3184">+type : CenterType</text></g><!--class VaccineType--><g id="elem_VaccineType"><rect codeLine="59" fill="#F1F1F1" height="103.8633" id="VaccineType" rx="2.5" ry="2.5" style="stroke:#181818;stroke-width:0.5;" width="169.5684" x="141.72" y="874.1211"/><ellipse cx="182.207" cy="890.1211" fill="#ADD1B2" rx="11" ry="11" style="stroke:#181818;stroke-width:1.0;"/><path d="M184.9726,885.9961 Q185.1288,885.7773 185.3163,885.668 Q185.5038,885.5586 185.7226,885.5586 Q186.0976,885.5586 186.332,885.8242 Q186.5663,886.0742 186.5663,886.6836 L186.5663,888.1367 Q186.5663,888.7461 186.332,889.0117 Q186.0976,889.2773 185.7226,889.2773 Q185.3788,889.2773 185.1757,889.0742 Q184.9726,888.8867 184.8632,888.3711 Q184.8163,888.0117 184.6288,887.8242 Q184.3007,887.4492 183.6913,887.2305 Q183.082,887.0117 182.457,887.0117 Q181.6913,887.0117 181.0507,887.3398 Q180.4257,887.668 179.9257,888.418 Q179.4413,889.168 179.4413,890.1992 L179.4413,891.293 Q179.4413,892.5273 180.332,893.3555 Q181.2226,894.168 182.8163,894.168 Q183.7538,894.168 184.4101,893.918 Q184.8007,893.7617 185.2226,893.3242 Q185.4882,893.0586 185.6288,892.9805 Q185.7851,892.9023 185.9882,892.9023 Q186.3163,892.9023 186.5663,893.168 Q186.832,893.418 186.832,893.7617 Q186.832,894.1055 186.4882,894.5117 Q185.9882,895.0898 185.1913,895.418 Q184.1132,895.8711 182.8163,895.8711 Q181.3007,895.8711 180.0976,895.2461 Q179.1132,894.7461 178.4257,893.6836 Q177.7382,892.6055 177.7382,891.3242 L177.7382,890.168 Q177.7382,888.8398 178.3476,887.6992 Q178.9726,886.543 180.0663,885.9336 Q181.1601,885.3086 182.3945,885.3086 Q183.1288,885.3086 183.7695,885.4805 Q184.4257,885.6367 184.9726,885.9961 Z " fill="#000000"/><text fill="#000000" font-family="sans-serif" font-size="14" lengthAdjust="spacing" textLength="80.9307" x="201.8707" y="895.918">VaccineType</text><line style="stroke:#181818;stroke-width:0.5;" x1="142.72" x2="310.2884" y1="906.1211" y2="906.1211"/><text fill="#000000" font-family="sans-serif" font-size="14" lengthAdjust="spacing" textLength="124.9131" x="147.72" y="925.2285">+code : String &#171;PK&#187;</text><line style="stroke:#181818;stroke-width:1.0;" x1="142.72" x2="310.2884" y1="932.7422" y2="932.7422"/><text fill="#000000" font-family="sans-serif" font-size="14" lengthAdjust="spacing" textLength="104.6719" x="147.72" y="951.8496">+disease : String</text><text fill="#000000" font-family="sans-serif" font-size="14" lengthAdjust="spacing" textLength="157.5684" x="147.72" y="970.4707">+shortDescription : String</text></g><!--class Vaccine--><g id="elem_Vaccine"><rect codeLine="66" fill="#F1F1F1" height="122.4844" id="Vaccine" rx="2.5" ry="2.5" style="stroke:#181818;stroke-width:0.5;" width="177.3271" x="366.22" y="1075.6211"/><ellipse cx="425.7303" cy="1091.6211" fill="#ADD1B2" rx="11" ry="11" style="stroke:#181818;stroke-width:1.0;"/><path d="M428.4959,1087.4961 Q428.6521,1087.2773 428.8396,1087.168 Q429.0271,1087.0586 429.2459,1087.0586 Q429.6209,1087.0586 429.8553,1087.3242 Q430.0896,1087.5742 430.0896,1088.1836 L430.0896,1089.6367 Q430.0896,1090.2461 429.8553,1090.5117 Q429.6209,1090.7773 429.2459,1090.7773 Q428.9021,1090.7773 428.699,1090.5742 Q428.4959,1090.3867 428.3865,1089.8711 Q428.3396,1089.5117 428.1521,1089.3242 Q427.824,1088.9492 427.2146,1088.7305 Q426.6053,1088.5117 425.9803,1088.5117 Q425.2146,1088.5117 424.574,1088.8398 Q423.949,1089.168 423.449,1089.918 Q422.9646,1090.668 422.9646,1091.6992 L422.9646,1092.793 Q422.9646,1094.0273 423.8553,1094.8555 Q424.7459,1095.668 426.3396,1095.668 Q427.2771,1095.668 427.9334,1095.418 Q428.324,1095.2617 428.7459,1094.8242 Q429.0115,1094.5586 429.1521,1094.4805 Q429.3084,1094.4023 429.5115,1094.4023 Q429.8396,1094.4023 430.0896,1094.668 Q430.3553,1094.918 430.3553,1095.2617 Q430.3553,1095.6055 430.0115,1096.0117 Q429.5115,1096.5898 428.7146,1096.918 Q427.6365,1097.3711 426.3396,1097.3711 Q424.824,1097.3711 423.6209,1096.7461 Q422.6365,1096.2461 421.949,1095.1836 Q421.2615,1094.1055 421.2615,1092.8242 L421.2615,1091.668 Q421.2615,1090.3398 421.8709,1089.1992 Q422.4959,1088.043 423.5896,1087.4336 Q424.6834,1086.8086 425.9178,1086.8086 Q426.6521,1086.8086 427.2928,1086.9805 Q427.949,1087.1367 428.4959,1087.4961 Z " fill="#000000"/><text fill="#000000" font-family="sans-serif" font-size="14" lengthAdjust="spacing" textLength="49.8066" x="446.2303" y="1097.418">Vaccine</text><line style="stroke:#181818;stroke-width:0.5;" x1="367.22" x2="542.5471" y1="1107.6211" y2="1107.6211"/><text fill="#000000" font-family="sans-serif" font-size="14" lengthAdjust="spacing" textLength="112.4648" x="372.22" y="1126.7285">+id : Integer &#171;PK&#187;</text><line style="stroke:#181818;stroke-width:1.0;" x1="367.22" x2="542.5471" y1="1134.2422" y2="1134.2422"/><text fill="#000000" font-family="sans-serif" font-size="14" lengthAdjust="spacing" textLength="165.3271" x="372.22" y="1153.3496">+commercialName : String</text><text fill="#000000" font-family="sans-serif" font-size="14" lengthAdjust="spacing" textLength="92.2236" x="372.22" y="1171.9707">+brand : String</text><text fill="#000000" font-family="sans-serif" font-size="14" lengthAdjust="spacing" textLength="156.8164" x="372.22" y="1190.5918">+technologyUsed : String</text></g><!--class AppointmentStatus--><g id="elem_AppointmentStatus"><rect codeLine="77" fill="#F1F1F1" height="170.3477" id="AppointmentStatus" rx="2.5" ry="2.5" style="stroke:#181818;stroke-width:0.5;" width="150.2959" x="1387.72" y="60.1211"/><ellipse cx="1402.72" cy="76.1211" fill="#EB937F" rx="11" ry="11" style="stroke:#181818;stroke-width:1.0;"/><path d="M1401.5794,76.918 L1401.5794,79.418 L1405.9075,79.418 L1405.9075,78.4961 Q1405.9075,77.8867 1406.1419,77.6211 Q1406.3919,77.3555 1406.7669,77.3555 Q1407.1419,77.3555 1407.3763,77.6211 Q1407.6106,77.8867 1407.6106,78.4961 L1407.6106,81.1211 L1399.6106,81.1211 Q1398.9856,81.1211 1398.72,80.8867 Q1398.47,80.6523 1398.47,80.2617 Q1398.47,79.8867 1398.7356,79.6523 Q1399.0013,79.418 1399.6106,79.418 L1399.8763,79.418 L1399.8763,72.7617 L1399.6106,72.7617 Q1398.9856,72.7617 1398.72,72.5273 Q1398.47,72.293 1398.47,71.9023 Q1398.47,71.5273 1398.72,71.293 Q1398.9856,71.0586 1399.6106,71.0586 L1407.2356,71.0586 L1407.2356,73.6523 Q1407.2356,74.2617 1407.0013,74.5273 Q1406.7825,74.7773 1406.3919,74.7773 Q1406.0169,74.7773 1405.7825,74.5273 Q1405.5481,74.2617 1405.5481,73.6523 L1405.5481,72.7617 L1401.5794,72.7617 L1401.5794,75.2148 L1403.0638,75.2148 Q1403.0638,74.5586 1403.1888,74.3711 Q1403.4544,73.9648 1403.9231,73.9648 Q1404.2981,73.9648 1404.5325,74.2305 Q1404.7669,74.4805 1404.7669,75.0898 L1404.7669,77.0586 Q1404.7669,77.6055 1404.6419,77.793 Q1404.3763,78.1836 1403.9231,78.1836 Q1403.4544,78.1836 1403.1888,77.7773 Q1403.0638,77.5898 1403.0638,76.918 L1401.5794,76.918 Z " fill="#000000"/><text fill="#000000" font-family="sans-serif" font-size="14" lengthAdjust="spacing" textLength="118.2959" x="1416.72" y="81.918">AppointmentStatus</text><line style="stroke:#181818;stroke-width:0.5;" x1="1388.72" x2="1537.0159" y1="92.1211" y2="92.1211"/><text fill="#000000" font-family="sans-serif" font-size="14" lengthAdjust="spacing" textLength="66.165" x="1393.72" y="111.2285">Scheduled</text><text fill="#000000" font-family="sans-serif" font-size="14" lengthAdjust="spacing" textLength="44.3447" x="1393.72" y="129.8496">Arrived</text><text fill="#000000" font-family="sans-serif" font-size="14" lengthAdjust="spacing" textLength="40.4688" x="1393.72" y="148.4707">Ready</text><text fill="#000000" font-family="sans-serif" font-size="14" lengthAdjust="spacing" textLength="67.6963" x="1393.72" y="167.0918">InProgress</text><text fill="#000000" font-family="sans-serif" font-size="14" lengthAdjust="spacing" textLength="69.2686" x="1393.72" y="185.7129">Vaccinated</text><text fill="#000000" font-family="sans-serif" font-size="14" lengthAdjust="spacing" textLength="62.2617" x="1393.72" y="204.334">Cancelled</text><text fill="#000000" font-family="sans-serif" font-size="14" lengthAdjust="spacing" textLength="52.917" x="1393.72" y="222.9551">NoShow</text></g><!--class Appointment--><g id="elem_Appointment"><rect codeLine="87" fill="#F1F1F1" height="141.1055" id="Appointment" rx="2.5" ry="2.5" style="stroke:#181818;stroke-width:0.5;" width="191.3271" x="351.22" y="322.6211"/><ellipse cx="403.3304" cy="338.6211" fill="#ADD1B2" rx="11" ry="11" style="stroke:#181818;stroke-width:1.0;"/><path d="M406.096,334.4961 Q406.2522,334.2773 406.4397,334.168 Q406.6272,334.0586 406.846,334.0586 Q407.221,334.0586 407.4554,334.3242 Q407.6897,334.5742 407.6897,335.1836 L407.6897,336.6367 Q407.6897,337.2461 407.4554,337.5117 Q407.221,337.7773 406.846,337.7773 Q406.5022,337.7773 406.2991,337.5742 Q406.096,337.3867 405.9866,336.8711 Q405.9397,336.5117 405.7522,336.3242 Q405.4241,335.9492 404.8147,335.7305 Q404.2054,335.5117 403.5804,335.5117 Q402.8147,335.5117 402.1741,335.8398 Q401.5491,336.168 401.0491,336.918 Q400.5647,337.668 400.5647,338.6992 L400.5647,339.793 Q400.5647,341.0273 401.4554,341.8555 Q402.346,342.668 403.9397,342.668 Q404.8772,342.668 405.5335,342.418 Q405.9241,342.2617 406.346,341.8242 Q406.6116,341.5586 406.7522,341.4805 Q406.9085,341.4023 407.1116,341.4023 Q407.4397,341.4023 407.6897,341.668 Q407.9554,341.918 407.9554,342.2617 Q407.9554,342.6055 407.6116,343.0117 Q407.1116,343.5898 406.3147,343.918 Q405.2366,344.3711 403.9397,344.3711 Q402.4241,344.3711 401.221,343.7461 Q400.2366,343.2461 399.5491,342.1836 Q398.8616,341.1055 398.8616,339.8242 L398.8616,338.668 Q398.8616,337.3398 399.471,336.1992 Q400.096,335.043 401.1897,334.4336 Q402.2835,333.8086 403.5179,333.8086 Q404.2522,333.8086 404.8929,333.9805 Q405.5491,334.1367 406.096,334.4961 Z " fill="#000000"/><text fill="#000000" font-family="sans-serif" font-size="14" lengthAdjust="spacing" textLength="78.6064" x="423.8304" y="344.418">Appointment</text><line style="stroke:#181818;stroke-width:0.5;" x1="352.22" x2="541.5471" y1="354.6211" y2="354.6211"/><text fill="#000000" font-family="sans-serif" font-size="14" lengthAdjust="spacing" textLength="112.4648" x="357.22" y="373.7285">+id : Integer &#171;PK&#187;</text><line style="stroke:#181818;stroke-width:1.0;" x1="352.22" x2="541.5471" y1="381.2422" y2="381.2422"/><text fill="#000000" font-family="sans-serif" font-size="14" lengthAdjust="spacing" textLength="76.665" x="357.22" y="400.3496">+date : Date</text><text fill="#000000" font-family="sans-serif" font-size="14" lengthAdjust="spacing" textLength="77.4033" x="357.22" y="418.9707">+time : Time</text><text fill="#000000" font-family="sans-serif" font-size="14" lengthAdjust="spacing" textLength="175.4922" x="357.22" y="437.5918">+status : AppointmentStatus</text><text fill="#000000" font-family="sans-serif" font-size="14" lengthAdjust="spacing" textLength="179.3271" x="357.22" y="456.2129">+arrivalDateTime : DateTime</text></g><!--class VaccinationEvent--><g id="elem_VaccinationEvent"><rect codeLine="96" fill="#F1F1F1" height="103.8633" id="VaccinationEvent" rx="2.5" ry="2.5" style="stroke:#181818;stroke-width:0.5;" width="240.3613" x="520.72" y="607.6211"/><ellipse cx="582.5613" cy="623.6211" fill="#ADD1B2" rx="11" ry="11" style="stroke:#181818;stroke-width:1.0;"/><path d="M585.3269,619.4961 Q585.4832,619.2773 585.6707,619.168 Q585.8582,619.0586 586.0769,619.0586 Q586.4519,619.0586 586.6863,619.3242 Q586.9207,619.5742 586.9207,620.1836 L586.9207,621.6367 Q586.9207,622.2461 586.6863,622.5117 Q586.4519,622.7773 586.0769,622.7773 Q585.7332,622.7773 585.5301,622.5742 Q585.3269,622.3867 585.2176,621.8711 Q585.1707,621.5117 584.9832,621.3242 Q584.6551,620.9492 584.0457,620.7305 Q583.4363,620.5117 582.8113,620.5117 Q582.0457,620.5117 581.4051,620.8398 Q580.7801,621.168 580.2801,621.918 Q579.7957,622.668 579.7957,623.6992 L579.7957,624.793 Q579.7957,626.0273 580.6863,626.8555 Q581.5769,627.668 583.1707,627.668 Q584.1082,627.668 584.7644,627.418 Q585.1551,627.2617 585.5769,626.8242 Q585.8426,626.5586 585.9832,626.4805 Q586.1394,626.4023 586.3426,626.4023 Q586.6707,626.4023 586.9207,626.668 Q587.1863,626.918 587.1863,627.2617 Q587.1863,627.6055 586.8426,628.0117 Q586.3426,628.5898 585.5457,628.918 Q584.4676,629.3711 583.1707,629.3711 Q581.6551,629.3711 580.4519,628.7461 Q579.4676,628.2461 578.7801,627.1836 Q578.0926,626.1055 578.0926,624.8242 L578.0926,623.668 Q578.0926,622.3398 578.7019,621.1992 Q579.3269,620.043 580.4207,619.4336 Q581.5144,618.8086 582.7488,618.8086 Q583.4832,618.8086 584.1238,618.9805 Q584.7801,619.1367 585.3269,619.4961 Z " fill="#000000"/><text fill="#000000" font-family="sans-serif" font-size="14" lengthAdjust="spacing" textLength="108.1787" x="603.0613" y="629.418">VaccinationEvent</text><line style="stroke:#181818;stroke-width:0.5;" x1="521.72" x2="760.0813" y1="639.6211" y2="639.6211"/><text fill="#000000" font-family="sans-serif" font-size="14" lengthAdjust="spacing" textLength="112.4648" x="526.72" y="658.7285">+id : Integer &#171;PK&#187;</text><line style="stroke:#181818;stroke-width:1.0;" x1="521.72" x2="760.0813" y1="666.2422" y2="666.2422"/><text fill="#000000" font-family="sans-serif" font-size="14" lengthAdjust="spacing" textLength="120.9961" x="526.72" y="685.3496">+lotNumber : String</text><text fill="#000000" font-family="sans-serif" font-size="14" lengthAdjust="spacing" textLength="228.3613" x="526.72" y="703.9707">+administrationDateTime : DateTime</text></g><!--class AdverseReaction--><g id="elem_AdverseReaction"><rect codeLine="103" fill="#F1F1F1" height="141.1055" id="AdverseReaction" rx="2.5" ry="2.5" style="stroke:#181818;stroke-width:0.5;" width="163.3477" x="398.22" y="855.6211"/><ellipse cx="424.3505" cy="871.6211" fill="#ADD1B2" rx="11" ry="11" style="stroke:#181818;stroke-width:1.0;"/><path d="M427.1161,867.4961 Q427.2723,867.2773 427.4598,867.168 Q427.6473,867.0586 427.8661,867.0586 Q428.2411,867.0586 428.4755,867.3242 Q428.7098,867.5742 428.7098,868.1836 L428.7098,869.6367 Q428.7098,870.2461 428.4755,870.5117 Q428.2411,870.7773 427.8661,870.7773 Q427.5223,870.7773 427.3192,870.5742 Q427.1161,870.3867 427.0067,869.8711 Q426.9598,869.5117 426.7723,869.3242 Q426.4442,868.9492 425.8348,868.7305 Q425.2255,868.5117 424.6005,868.5117 Q423.8348,868.5117 423.1942,868.8398 Q422.5692,869.168 422.0692,869.918 Q421.5848,870.668 421.5848,871.6992 L421.5848,872.793 Q421.5848,874.0273 422.4755,874.8555 Q423.3661,875.668 424.9598,875.668 Q425.8973,875.668 426.5536,875.418 Q426.9442,875.2617 427.3661,874.8242 Q427.6317,874.5586 427.7723,874.4805 Q427.9286,874.4023 428.1317,874.4023 Q428.4598,874.4023 428.7098,874.668 Q428.9755,874.918 428.9755,875.2617 Q428.9755,875.6055 428.6317,876.0117 Q428.1317,876.5898 427.3348,876.918 Q426.2567,877.3711 424.9598,877.3711 Q423.4442,877.3711 422.2411,876.7461 Q421.2567,876.2461 420.5692,875.1836 Q419.8817,874.1055 419.8817,872.8242 L419.8817,871.668 Q419.8817,870.3398 420.4911,869.1992 Q421.1161,868.043 422.2098,867.4336 Q423.3036,866.8086 424.538,866.8086 Q425.2723,866.8086 425.913,866.9805 Q426.5692,867.1367 427.1161,867.4961 Z " fill="#000000"/><text fill="#000000" font-family="sans-serif" font-size="14" lengthAdjust="spacing" textLength="106.6133" x="440.8239" y="877.418">AdverseReaction</text><line style="stroke:#181818;stroke-width:0.5;" x1="399.22" x2="560.5677" y1="887.6211" y2="887.6211"/><text fill="#000000" font-family="sans-serif" font-size="14" lengthAdjust="spacing" textLength="112.4648" x="404.22" y="906.7285">+id : Integer &#171;PK&#187;</text><line style="stroke:#181818;stroke-width:1.0;" x1="399.22" x2="560.5677" y1="914.2422" y2="914.2422"/><text fill="#000000" font-family="sans-serif" font-size="14" lengthAdjust="spacing" textLength="124.1201" x="404.22" y="933.3496">+description : String</text><text fill="#000000" font-family="sans-serif" font-size="14" lengthAdjust="spacing" textLength="104.6514" x="404.22" y="951.9707">+severity : String</text><text fill="#000000" font-family="sans-serif" font-size="14" lengthAdjust="spacing" textLength="151.3477" x="404.22" y="970.5918">+observedAt : DateTime</text><text fill="#000000" font-family="sans-serif" font-size="14" lengthAdjust="spacing" textLength="90.665" x="404.22" y="989.2129">+notes : String</text></g><!--class VaccinationCertificate--><g id="elem_VaccinationCertificate"><rect codeLine="112" fill="#F1F1F1" height="85.2422" id="VaccinationCertificate" rx="2.5" ry="2.5" style="stroke:#181818;stroke-width:0.5;" width="167.3994" x="781.22" y="883.6211"/><ellipse cx="796.22" cy="899.6211" fill="#ADD1B2" rx="11" ry="11" style="stroke:#181818;stroke-width:1.0;"/><path d="M798.9856,895.4961 Q799.1419,895.2773 799.3294,895.168 Q799.5169,895.0586 799.7356,895.0586 Q800.1106,895.0586 800.345,895.3242 Q800.5794,895.5742 800.5794,896.1836 L800.5794,897.6367 Q800.5794,898.2461 800.345,898.5117 Q800.1106,898.7773 799.7356,898.7773 Q799.3919,898.7773 799.1888,898.5742 Q798.9856,898.3867 798.8763,897.8711 Q798.8294,897.5117 798.6419,897.3242 Q798.3138,896.9492 797.7044,896.7305 Q797.095,896.5117 796.47,896.5117 Q795.7044,896.5117 795.0638,896.8398 Q794.4388,897.168 793.9388,897.918 Q793.4544,898.668 793.4544,899.6992 L793.4544,900.793 Q793.4544,902.0273 794.345,902.8555 Q795.2356,903.668 796.8294,903.668 Q797.7669,903.668 798.4231,903.418 Q798.8138,903.2617 799.2356,902.8242 Q799.5013,902.5586 799.6419,902.4805 Q799.7981,902.4023 800.0013,902.4023 Q800.3294,902.4023 800.5794,902.668 Q800.845,902.918 800.845,903.2617 Q800.845,903.6055 800.5013,904.0117 Q800.0013,904.5898 799.2044,904.918 Q798.1263,905.3711 796.8294,905.3711 Q795.3138,905.3711 794.1106,904.7461 Q793.1263,904.2461 792.4388,903.1836 Q791.7513,902.1055 791.7513,900.8242 L791.7513,899.668 Q791.7513,898.3398 792.3606,897.1992 Q792.9856,896.043 794.0794,895.4336 Q795.1731,894.8086 796.4075,894.8086 Q797.1419,894.8086 797.7825,894.9805 Q798.4388,895.1367 798.9856,895.4961 Z " fill="#000000"/><text fill="#000000" font-family="sans-serif" font-size="14" lengthAdjust="spacing" textLength="135.3994" x="810.22" y="905.418">VaccinationCertificate</text><line style="stroke:#181818;stroke-width:0.5;" x1="782.22" x2="947.6194" y1="915.6211" y2="915.6211"/><text fill="#000000" font-family="sans-serif" font-size="14" lengthAdjust="spacing" textLength="112.4648" x="787.22" y="934.7285">+id : Integer &#171;PK&#187;</text><line style="stroke:#181818;stroke-width:1.0;" x1="782.22" x2="947.6194" y1="942.2422" y2="942.2422"/><text fill="#000000" font-family="sans-serif" font-size="14" lengthAdjust="spacing" textLength="111.6719" x="787.22" y="961.3496">+issueDate : Date</text></g><!--class Outbreak--><g id="elem_Outbreak"><rect codeLine="119" fill="#F1F1F1" height="122.4844" id="Outbreak" rx="2.5" ry="2.5" style="stroke:#181818;stroke-width:0.5;" width="126.7959" x="112.22" y="598.6211"/><ellipse cx="143.9645" cy="614.6211" fill="#ADD1B2" rx="11" ry="11" style="stroke:#181818;stroke-width:1.0;"/><path d="M146.7301,610.4961 Q146.8864,610.2773 147.0739,610.168 Q147.2614,610.0586 147.4801,610.0586 Q147.8551,610.0586 148.0895,610.3242 Q148.3239,610.5742 148.3239,611.1836 L148.3239,612.6367 Q148.3239,613.2461 148.0895,613.5117 Q147.8551,613.7773 147.4801,613.7773 Q147.1364,613.7773 146.9332,613.5742 Q146.7301,613.3867 146.6207,612.8711 Q146.5739,612.5117 146.3864,612.3242 Q146.0582,611.9492 145.4489,611.7305 Q144.8395,611.5117 144.2145,611.5117 Q143.4489,611.5117 142.8082,611.8398 Q142.1832,612.168 141.6832,612.918 Q141.1989,613.668 141.1989,614.6992 L141.1989,615.793 Q141.1989,617.0273 142.0895,617.8555 Q142.9801,618.668 144.5739,618.668 Q145.5114,618.668 146.1676,618.418 Q146.5582,618.2617 146.9801,617.8242 Q147.2457,617.5586 147.3864,617.4805 Q147.5426,617.4023 147.7457,617.4023 Q148.0739,617.4023 148.3239,617.668 Q148.5895,617.918 148.5895,618.2617 Q148.5895,618.6055 148.2457,619.0117 Q147.7457,619.5898 146.9489,619.918 Q145.8707,620.3711 144.5739,620.3711 Q143.0582,620.3711 141.8551,619.7461 Q140.8707,619.2461 140.1832,618.1836 Q139.4957,617.1055 139.4957,615.8242 L139.4957,614.668 Q139.4957,613.3398 140.1051,612.1992 Q140.7301,611.043 141.8239,610.4336 Q142.9176,609.8086 144.152,609.8086 Q144.8864,609.8086 145.527,609.9805 Q146.1832,610.1367 146.7301,610.4961 Z " fill="#000000"/><text fill="#000000" font-family="sans-serif" font-size="14" lengthAdjust="spacing" textLength="57.5859" x="161.6855" y="620.418">Outbreak</text><line style="stroke:#181818;stroke-width:0.5;" x1="113.22" x2="238.0159" y1="630.6211" y2="630.6211"/><text fill="#000000" font-family="sans-serif" font-size="14" lengthAdjust="spacing" textLength="112.4648" x="118.22" y="649.7285">+id : Integer &#171;PK&#187;</text><line style="stroke:#181818;stroke-width:1.0;" x1="113.22" x2="238.0159" y1="657.2422" y2="657.2422"/><text fill="#000000" font-family="sans-serif" font-size="14" lengthAdjust="spacing" textLength="91.4375" x="118.22" y="676.3496">+name : String</text><text fill="#000000" font-family="sans-serif" font-size="14" lengthAdjust="spacing" textLength="106.2168" x="118.22" y="694.9707">+startDate : Date</text><text fill="#000000" font-family="sans-serif" font-size="14" lengthAdjust="spacing" textLength="114.7959" x="118.22" y="713.5918">+current : Boolean</text></g><!--reverse link StaffMember to Receptionist--><g id="link_StaffMember_Receptionist"><path d="M1141.4262,232.9439 C1156.6662,286.5039 1171.77,339.5611 1181.27,372.9511 " fill="none" id="StaffMember-backto-Receptionist" style="stroke:#181818;stroke-width:1.0;"/><polygon fill="none" points="1136.5,215.6311,1135.6553,234.5859,1147.1971,231.3018,1136.5,215.6311" style="stroke:#181818;stroke-width:1.0;"/></g><!--reverse link StaffMember to Nurse--><g id="link_StaffMember_Nurse"><path d="M1058.1342,230.4097 C1024.1542,279.2797 990.73,327.3711 965.71,363.3711 " fill="none" id="StaffMember-backto-Nurse" style="stroke:#181818;stroke-width:1.0;"/><polygon fill="none" points="1068.41,215.6311,1053.208,226.9845,1063.0604,233.835,1068.41,215.6311" style="stroke:#181818;stroke-width:1.0;"/></g><!--reverse link StaffMember to DGSAdministrator--><g id="link_StaffMember_DGSAdministrator"><path d="M1194.6209,228.7252 C1245.1409,282.2852 1299.16,339.5611 1330.64,372.9511 " fill="none" id="StaffMember-backto-DGSAdministrator" style="stroke:#181818;stroke-width:1.0;"/><polygon fill="none" points="1182.27,215.6311,1190.2562,232.8422,1198.9856,224.6082,1182.27,215.6311" style="stroke:#181818;stroke-width:1.0;"/></g><!--link VaccinationCenter to VaccineType--><g id="link_VaccinationCenter_VaccineType"><path codeLine="56" d="M312.61,776.6311 C292.94,810.6411 272.43,846.1011 256.39,873.8411 " fill="none" id="VaccinationCenter-VaccineType" style="stroke:#181818;stroke-width:1.0;"/><text fill="#000000" font-family="sans-serif" font-size="13" lengthAdjust="spacing" textLength="49.8608" x="294.72" y="821.6494">supports</text><text fill="#000000" font-family="sans-serif" font-size="13" lengthAdjust="spacing" textLength="7.23" x="301.0998" y="798.7025">1</text><text fill="#000000" font-family="sans-serif" font-size="13" lengthAdjust="spacing" textLength="19.5127" x="240.1638" y="862.7308">0..*</text></g><!--link VaccineType to Vaccine--><g id="link_VaccineType_Vaccine"><path codeLine="74" d="M282.5,978.1211 C314.66,1007.5411 355.29,1044.6911 389,1075.5211 " fill="none" id="VaccineType-Vaccine" style="stroke:#181818;stroke-width:1.0;"/><text fill="#000000" font-family="sans-serif" font-size="13" lengthAdjust="spacing" textLength="78.7744" x="354.72" y="1041.6494">has brands of</text><text fill="#000000" font-family="sans-serif" font-size="13" lengthAdjust="spacing" textLength="7.23" x="282.2408" y="999.9284">1</text><text fill="#000000" font-family="sans-serif" font-size="13" lengthAdjust="spacing" textLength="19.5127" x="361.3134" y="1064.4907">1..*</text></g><!--link SNSUser to Appointment--><g id="link_SNSUser_Appointment"><path codeLine="128" d="M517.31,243.7011 C504.81,269.9911 491.53,297.9011 479.91,322.3411 " fill="none" id="SNSUser-Appointment" style="stroke:#181818;stroke-width:1.0;"/><text fill="#000000" font-family="sans-serif" font-size="13" lengthAdjust="spacing" textLength="58.5381" x="501.72" y="288.6494">schedules</text><text fill="#000000" font-family="sans-serif" font-size="13" lengthAdjust="spacing" textLength="7.23" x="506.6445" y="265.6049">1</text><text fill="#000000" font-family="sans-serif" font-size="13" lengthAdjust="spacing" textLength="19.5127" x="463.3626" y="311.2032">0..*</text></g><!--link Appointment to VaccinationCenter--><g id="link_Appointment_VaccinationCenter"><path codeLine="129" d="M429.03,463.9611 C422.92,488.0711 415.91,515.7611 409.12,542.5611 " fill="none" id="Appointment-VaccinationCenter" style="stroke:#181818;stroke-width:1.0;"/><text fill="#000000" font-family="sans-serif" font-size="13" lengthAdjust="spacing" textLength="10.8418" x="421.72" y="508.6494">at</text><text fill="#000000" font-family="sans-serif" font-size="13" lengthAdjust="spacing" textLength="19.5127" x="407.3626" y="485.8086">0..*</text><text fill="#000000" font-family="sans-serif" font-size="13" lengthAdjust="spacing" textLength="7.23" x="403.7925" y="531.5483">1</text></g><!--link Appointment to VaccineType--><g id="link_Appointment_VaccineType"><path codeLine="130" d="M350.84,401.7711 C260.08,414.6811 128.5,449.3911 64.72,542.6211 C6,628.4511 22.84,681.4211 64.72,776.6211 C81.85,815.5611 114.79,848.7511 146.52,873.8111 " fill="none" id="Appointment-VaccineType" style="stroke:#181818;stroke-width:1.0;"/><text fill="#000000" font-family="sans-serif" font-size="13" lengthAdjust="spacing" textLength="28.1709" x="65.72" y="665.1494">is for</text><text fill="#000000" font-family="sans-serif" font-size="13" lengthAdjust="spacing" textLength="19.5127" x="323.7789" y="398.818">0..*</text><text fill="#000000" font-family="sans-serif" font-size="13" lengthAdjust="spacing" textLength="7.23" x="128.3173" y="862.6968">1</text></g><!--link Appointment to VaccinationEvent--><g id="link_Appointment_VaccinationEvent"><path codeLine="132" d="M497.95,463.9611 C530.95,508.9611 573.13,566.4611 603.06,607.2811 " fill="none" id="Appointment-VaccinationEvent" style="stroke:#181818;stroke-width:1.0;"/><text fill="#000000" font-family="sans-serif" font-size="13" lengthAdjust="spacing" textLength="52.019" x="532.72" y="508.6494">results in</text><text fill="#000000" font-family="sans-serif" font-size="13" lengthAdjust="spacing" textLength="7.23" x="495.6436" y="485.8086">1</text><text fill="#000000" font-family="sans-serif" font-size="13" lengthAdjust="spacing" textLength="21.6836" x="575.9101" y="596.5417">0..1</text></g><!--link VaccinationEvent to Vaccine--><g id="link_VaccinationEvent_Vaccine"><path codeLine="133" d="M639.77,711.6611 C636.66,779.9111 624.51,903.1311 578.72,996.6211 C564.64,1025.3711 542.9,1052.6711 521.54,1075.3511 " fill="none" id="VaccinationEvent-Vaccine" style="stroke:#181818;stroke-width:1.0;"/><text fill="#000000" font-family="sans-serif" font-size="13" lengthAdjust="spacing" textLength="112.0044" x="622.72" y="931.6494">records brand/lot of</text><text fill="#000000" font-family="sans-serif" font-size="13" lengthAdjust="spacing" textLength="19.5127" x="619.4408" y="733.4735">0..*</text><text fill="#000000" font-family="sans-serif" font-size="13" lengthAdjust="spacing" textLength="7.23" x="521.8558" y="1064.3011">1</text></g><!--link VaccinationEvent to AdverseReaction--><g id="link_VaccinationEvent_AdverseReaction"><path codeLine="134" d="M609.49,711.9311 C584.62,752.7911 549.55,810.4111 522.13,855.4411 " fill="none" id="VaccinationEvent-AdverseReaction" style="stroke:#181818;stroke-width:1.0;"/><text fill="#000000" font-family="sans-serif" font-size="13" lengthAdjust="spacing" textLength="49.8608" x="550.72" y="821.6494">captures</text><text fill="#000000" font-family="sans-serif" font-size="13" lengthAdjust="spacing" textLength="7.23" x="598.2493" y="733.3967">1</text><text fill="#000000" font-family="sans-serif" font-size="13" lengthAdjust="spacing" textLength="19.5127" x="506.5324" y="844.3135">0..*</text></g><!--link SNSUser to VaccinationCertificate--><g id="link_SNSUser_VaccinationCertificate"><path codeLine="136" d="M568.72,243.7711 C576.56,311.3111 596.02,400.1011 643.72,463.6211 C685.47,519.2111 737.7,486.5011 778.72,542.6211 C855.24,647.2911 865.5,807.9911 865.74,883.3711 " fill="none" id="SNSUser-VaccinationCertificate" style="stroke:#181818;stroke-width:1.0;"/><text fill="#000000" font-family="sans-serif" font-size="13" lengthAdjust="spacing" textLength="41.9199" x="741.72" y="508.6494">obtains</text><text fill="#000000" font-family="sans-serif" font-size="13" lengthAdjust="spacing" textLength="7.23" x="561.8299" y="265.6801">1</text><text fill="#000000" font-family="sans-serif" font-size="13" lengthAdjust="spacing" textLength="19.5127" x="845.3975" y="872.2353">0..*</text></g><!--link VaccinationEvent to VaccinationCertificate--><g id="link_VaccinationEvent_VaccinationCertificate"><path codeLine="137" d="M658.43,711.7611 C672.2,746.4911 693.83,792.0311 722.72,825.6211 C734.75,839.6011 767.78,862.9811 798.96,883.5711 " fill="none" id="VaccinationEvent-VaccinationCertificate" style="stroke:#181818;stroke-width:1.0;"/><text fill="#000000" font-family="sans-serif" font-size="13" lengthAdjust="spacing" textLength="63.5908" x="723.72" y="821.6494">documents</text><text fill="#000000" font-family="sans-serif" font-size="13" lengthAdjust="spacing" textLength="7.23" x="653.2422" y="733.5863">1</text><text fill="#000000" font-family="sans-serif" font-size="13" lengthAdjust="spacing" textLength="7.23" x="780.9082" y="872.4672">1</text></g><!--link Nurse to VaccinationEvent--><g id="link_Nurse_VaccinationEvent"><path codeLine="138" d="M914.78,422.7011 C888.42,446.9111 849.4,482.4011 814.72,512.6211 C778,544.6111 736.22,579.7211 702.8,607.4811 " fill="none" id="Nurse-VaccinationEvent" style="stroke:#181818;stroke-width:1.0;"/><text fill="#000000" font-family="sans-serif" font-size="13" lengthAdjust="spacing" textLength="66.4663" x="833.72" y="508.6494">administers</text><text fill="#000000" font-family="sans-serif" font-size="13" lengthAdjust="spacing" textLength="7.23" x="901.0316" y="444.2924">1</text><text fill="#000000" font-family="sans-serif" font-size="13" lengthAdjust="spacing" textLength="19.5127" x="690.8756" y="596.3897">0..*</text></g><!--link Nurse to VaccinationCertificate--><g id="link_Nurse_VaccinationCertificate"><path codeLine="139" d="M941.37,422.6711 C927.91,510.8811 886.95,779.4011 871.09,883.3811 " fill="none" id="Nurse-VaccinationCertificate" style="stroke:#181818;stroke-width:1.0;"/><text fill="#000000" font-family="sans-serif" font-size="13" lengthAdjust="spacing" textLength="79.479" x="922.72" y="665.1494">issues on-site</text><text fill="#000000" font-family="sans-serif" font-size="13" lengthAdjust="spacing" textLength="7.23" x="932.8565" y="444.2565">1</text><text fill="#000000" font-family="sans-serif" font-size="13" lengthAdjust="spacing" textLength="19.5127" x="873.6283" y="872.2469">0..*</text></g><!--link StaffMember to VaccinationCenter--><g id="link_StaffMember_VaccinationCenter"><path codeLine="141" d="M1038.04,168.2011 C954.31,194.6111 821.28,245.2011 727.72,322.6211 C648.11,388.4911 676.66,450.9811 593.72,512.6211 C559.88,537.7711 539.95,521.0511 503.72,542.6211 C497.52,546.3111 491.36,550.3611 485.31,554.6711 " fill="none" id="StaffMember-VaccinationCenter" style="stroke:#181818;stroke-width:1.0;"/><text fill="#000000" font-family="sans-serif" font-size="13" lengthAdjust="spacing" textLength="48.4009" x="728.72" y="398.6494">works at</text><text fill="#000000" font-family="sans-serif" font-size="13" lengthAdjust="spacing" textLength="19.5127" x="1010.6534" y="166.6279">0..*</text><text fill="#000000" font-family="sans-serif" font-size="13" lengthAdjust="spacing" textLength="19.5127" x="493.066" y="544.0797">0..*</text></g><!--link Outbreak to VaccineType--><g id="link_Outbreak_VaccineType"><path codeLine="143" d="M187.29,720.6411 C196.2,766.8211 208.37,829.9611 216.83,873.8111 " fill="none" id="Outbreak-VaccineType" style="stroke:#181818;stroke-width:1.0;"/><text fill="#000000" font-family="sans-serif" font-size="13" lengthAdjust="spacing" textLength="58.5317" x="207.72" y="821.6494">defaultFor</text><text fill="#000000" font-family="sans-serif" font-size="13" lengthAdjust="spacing" textLength="21.6836" x="166.4745" y="743.1304">0..1</text><text fill="#000000" font-family="sans-serif" font-size="13" lengthAdjust="spacing" textLength="7.23" x="208.0752" y="862.6968">1</text></g><!--SRC=[nLPDR-Cs4BthLn0-z1FPtLoDD83MRhj14M-mJhTdcXnRH2ZIu8poqQB_lKDIZYLRSepsK5yiaSEPnpTlPaI6B8YxhxTBSI7clfR6YLklmOhlIcis3hIGJekP3m4KWVw-A2gZGTH0bTTOu8DnMnbaBPILY2LHCAk6u4PvjpH_WlXG5D-AduP-OhbOYjyH0Wxl5ybZj8f6ugz2Y1y5EbmqzOhVfsB9iTn6N5tT_NPzpRiN5yd4oHfUTzEAbWIVrnzDe8etvloMVS5ptsxhaQGjjGx0WVjRbNS7Ne79ilqbPOZlx6Oow0EKnTydU22vNezm85T8GIhAHhUGd6OgZ6RlDuvWmqjla_2VBiVeSpQ-W88j6UyCae1d0gUnYwqrMpG1OMY_nNvrjV04rzSSeMnOIO5fquAya4f5UEl6Mb61j9mnpfva0Ddn_DTbgMiJmmT9FWnY66Lw1apNgDx0DNLhSl-oXGJrKyAWP82ymKipNzUDC_Hoou3sp7nbwCR9o4qs_H_I59UUO8M63kng-Ppn0Tv1-EIRi0UL3FmM71l7dHZrtjIvHfJrEBHEaQ1fXwqiy3ygeohnc4Cb8nHIgCo7aax8DdaSzfYmoUM4YH6J3-_U_J1f2ONx70cRxTO7ml7axYvuifjqdURyAEvsuyr46mI91smY2vRcW2gOL0i3TTB6EKS3YlK4GHbf5qTgM8NOVNjB1AfotlhD2xT5tGlTlToEoyikbsnTISnUKVZrE9abisqSrPmO5D-8dn_JmucwwHpWKgG6qzMNgWBTMD3yN8PW7jFJ5v3wXVzlt5tmcoXqVjd98LdCf5DWyxc5NrR-QKzj9z8vzCRct-twP1B9hqh6Z7PwV8EqBIDgQUFn-tnozpXO-eceSs1PJuSZ8eNRDpVsTZ9ggH-vbm6JgP88p-5YIBDv5B8lRcdzLR_YmSifAwaB8FKjxjuuAlksfWEPjL6H_ZEW6SG6vfrSdHYOdnjQ1P0FuhsOmresbauN_Qlzl-h8B12kzWCLgOO_Y5pavQFt5gGxXRT4z5pVaPKneBkld7uBx4gTMs1RJ5XqrrlJLEkJWIaq5PBUFB3hieP7h-S1shFVG-e7o5gV2YxWb0BZYgFTmM3fZF91jwteFHT3x4R7f_ji70X-oXDbIms7BqRu6v7Zb9LD_AMBun4lJnpMNZMfCHRvCsSqvewW_T1xyqW_KYeARjJk8evqlcNdGwh3x82NDlLFFZnW543nMWDj7WVJhtCr_UB3Fm00]--></g></svg>