<svg xmlns="http://www.w3.org/2000/svg" xmlns:xlink="http://www.w3.org/1999/xlink" contentStyleType="text/css" height="567px" preserveAspectRatio="none" style="width:3056px;height:567px;background:#FFFFFF;" version="1.1" viewBox="0 0 3056 567" width="3056px" zoomAndPan="magnify"><title>PVMS - Pandemic Vaccination Management System (Use Case Diagram)</title><defs/><g><text fill="#000000" font-family="sans-serif" font-size="14" font-weight="bold" lengthAdjust="spacing" textLength="480.0469" x="1281.1648" y="25.1074">PVMS - Pandemic Vaccination Management System (Use Case Diagram)</text><!--entity SNS--><g id="elem_SNS"><ellipse cx="1194.6172" cy="53.6211" fill="#F1F1F1" rx="8" ry="8" style="stroke:#181818;stroke-width:0.5;"/><path d="M1194.6172,61.6211 L1194.6172,88.6211 M1181.6172,69.6211 L1207.6172,69.6211 M1194.6172,88.6211 L1181.6172,103.6211 M1194.6172,88.6211 L1207.6172,103.6211 " fill="none" style="stroke:#181818;stroke-width:0.5;"/><text fill="#000000" font-family="sans-serif" font-size="14" lengthAdjust="spacing" textLength="62.2344" x="1163.5" y="120.2285">SNS User</text></g><!--entity REC--><g id="elem_REC"><ellipse cx="1658.5205" cy="53.6211" fill="#F1F1F1" rx="8" ry="8" style="stroke:#181818;stroke-width:0.5;"/><path d="M1658.5205,61.6211 L1658.5205,88.6211 M1645.5205,69.6211 L1671.5205,69.6211 M1658.5205,88.6211 L1645.5205,103.6211 M1658.5205,88.6211 L1671.5205,103.6211 " fill="none" style="stroke:#181818;stroke-width:0.5;"/><text fill="#000000" font-family="sans-serif" font-size="14" lengthAdjust="spacing" textLength="77.041" x="1620" y="120.2285">Receptionist</text></g><!--entity NUR--><g id="elem_NUR"><ellipse cx="432.6724" cy="53.6211" fill="#F1F1F1" rx="8" ry="8" style="stroke:#181818;stroke-width:0.5;"/><path d="M432.6724,61.6211 L432.6724,88.6211 M419.6724,69.6211 L445.6724,69.6211 M432.6724,88.6211 L419.6724,103.6211 M432.6724,88.6211 L445.6724,103.6211 " fill="none" style="stroke:#181818;stroke-width:0.5;"/><text fill="#000000" font-family="sans-serif" font-size="14" lengthAdjust="spacing" textLength="37.3447" x="414" y="120.2285">Nurse</text></g><!--entity ADM--><g id="elem_ADM"><ellipse cx="2557.3481" cy="53.6211" fill="#F1F1F1" rx="8" ry="8" style="stroke:#181818;stroke-width:0.5;"/><path d="M2557.3481,61.6211 L2557.3481,88.6211 M2544.3481,69.6211 L2570.3481,69.6211 M2557.3481,88.6211 L2544.3481,103.6211 M2557.3481,88.6211 L2570.3481,103.6211 " fill="none" style="stroke:#181818;stroke-width:0.5;"/><text fill="#000000" font-family="sans-serif" font-size="14" lengthAdjust="spacing" textLength="116.6963" x="2499" y="120.2285">DGS Administrator</text></g><g id="elem_NOTIF"><ellipse cx="1542.5767" cy="538.7364" fill="#F1F1F1" rx="98.5767" ry="22.1153" style="stroke:#181818;stroke-width:0.5;"/><text fill="#000000" font-family="sans-serif" font-size="14" lengthAdjust="spacing" textLength="154.8271" x="1463.6276" y="543.0836">Time/Notification Service</text></g><g id="elem_UC01"><ellipse cx="1921.6568" cy="223.7525" fill="#F1F1F1" rx="103.6568" ry="23.1314" style="stroke:#181818;stroke-width:0.5;"/><text fill="#000000" font-family="sans-serif" font-size="14" lengthAdjust="spacing" textLength="166.4893" x="1838.336" y="227.5785">UC01 - Register SNS User</text></g><g id="elem_UC02"><ellipse cx="1349.2935" cy="223.3798" fill="#F1F1F1" rx="149.2935" ry="32.2587" style="stroke:#181818;stroke-width:0.5;"/><text fill="#000000" font-family="sans-serif" font-size="14" lengthAdjust="spacing" textLength="265.3779" x="1216.6045" y="227.1767">UC02 - Schedule Vaccination Appointment</text></g><g id="elem_UC03"><ellipse cx="1039.7036" cy="223.5618" fill="#F1F1F1" rx="125.2036" ry="27.4407" style="stroke:#181818;stroke-width:0.5;"/><text fill="#000000" font-family="sans-serif" font-size="14" lengthAdjust="spacing" textLength="213.9785" x="932.7144" y="227.3587">UC03 - Get Vaccination Certificate</text></g><g id="elem_UC04"><ellipse cx="1658.2514" cy="223.7714" fill="#F1F1F1" rx="123.7514" ry="27.1503" style="stroke:#181818;stroke-width:0.5;"/><text fill="#000000" font-family="sans-serif" font-size="14" lengthAdjust="spacing" textLength="210.834" x="1552.8344" y="227.5683">UC04 - Register Arrival / Check-in</text></g><g id="elem_UC05"><ellipse cx="113.4818" cy="223.5174" fill="#F1F1F1" rx="107.4818" ry="23.8964" style="stroke:#181818;stroke-width:0.5;"/><text fill="#000000" font-family="sans-serif" font-size="14" lengthAdjust="spacing" textLength="175.0752" x="25.9442" y="227.3143">UC05 - View Waiting Queue</text></g><g id="elem_UC06"><ellipse cx="432.3543" cy="223.392" fill="#F1F1F1" rx="104.3543" ry="23.2709" style="stroke:#181818;stroke-width:0.5;"/><text fill="#000000" font-family="sans-serif" font-size="14" lengthAdjust="spacing" textLength="168.0615" x="348.3235" y="227.1888">UC06 - Administer Vaccine</text></g><g id="elem_UC07"><ellipse cx="283.5548" cy="389.1321" fill="#F1F1F1" rx="123.0548" ry="27.011" style="stroke:#181818;stroke-width:0.5;"/><text fill="#000000" font-family="sans-serif" font-size="14" lengthAdjust="spacing" textLength="209.3232" x="178.8932" y="392.9289">UC07 - Record Vaccination Event</text></g><g id="elem_UC08"><ellipse cx="573.3337" cy="388.9878" fill="#F1F1F1" rx="122.3337" ry="26.8667" style="stroke:#181818;stroke-width:0.5;"/><text fill="#000000" font-family="sans-serif" font-size="14" lengthAdjust="spacing" textLength="207.7578" x="469.4548" y="392.7847">UC08 - Record Adverse Reaction</text></g><g id="elem_UC09"><ellipse cx="761.6835" cy="223.5578" fill="#F1F1F1" rx="117.6835" ry="25.9367" style="stroke:#181818;stroke-width:0.5;"/><text fill="#000000" font-family="sans-serif" font-size="14" lengthAdjust="spacing" textLength="197.6201" x="662.8734" y="227.3547">UC09 - Issue Certificate On-site</text></g><g id="elem_UC10"><ellipse cx="2208.7162" cy="223.8643" fill="#F1F1F1" rx="131.7162" ry="28.7432" style="stroke:#181818;stroke-width:0.5;"/><text fill="#000000" font-family="sans-serif" font-size="14" lengthAdjust="spacing" textLength="228.0059" x="2094.7133" y="227.6612">UC10 - Manage Vaccination Centers</text></g><g id="elem_UC11"><ellipse cx="2478.3332" cy="223.6877" fill="#F1F1F1" rx="103.3332" ry="23.0666" style="stroke:#181818;stroke-width:0.5;"/><text fill="#000000" font-family="sans-serif" font-size="14" lengthAdjust="spacing" textLength="165.7578" x="2395.2908" y="227.547">UC11 - Manage Personnel</text></g><g id="elem_UC12"><ellipse cx="2584.3621" cy="388.9935" fill="#F1F1F1" rx="144.8621" ry="31.3724" style="stroke:#181818;stroke-width:0.5;"/><text fill="#000000" font-family="sans-serif" font-size="14" lengthAdjust="spacing" textLength="256.0127" x="2456.3558" y="392.7904">UC12 - Manage Vaccine Types &amp; Brands</text></g><g id="elem_UC13"><ellipse cx="2869.4383" cy="223.7088" fill="#F1F1F1" rx="180.9383" ry="38.5877" style="stroke:#181818;stroke-width:0.5;"/><text fill="#000000" font-family="sans-serif" font-size="14" lengthAdjust="spacing" textLength="331.4814" x="2703.6976" y="227.5056">UC13 - Set Current Outbreak &amp; Default Vaccine Type</text></g><g id="elem_UC14"><ellipse cx="1542.4181" cy="388.9047" fill="#F1F1F1" rx="141.9181" ry="30.7836" style="stroke:#181818;stroke-width:0.5;"/><text fill="#000000" font-family="sans-serif" font-size="14" lengthAdjust="spacing" textLength="249.7715" x="1417.5323" y="392.7016">UC14 - Notify Appointment Confirmation</text></g><g id="elem_UC15"><ellipse cx="1270.4697" cy="389.015" fill="#F1F1F1" rx="94.9697" ry="21.3939" style="stroke:#181818;stroke-width:0.5;"/><text fill="#000000" font-family="sans-serif" font-size="14" lengthAdjust="spacing" textLength="146.2754" x="1194.6253" y="393.7322">UC15 - Capacity Check</text></g><g id="elem_GMN42"><path d="M1172,516.1211 L1172,560.7031 A0,0 0 0 0 1172,560.7031 L1369.2935,560.7031 A0,0 0 0 0 1369.2935,560.7031 L1369.2935,526.1211 L1359.2935,516.1211 L1274.5,516.1211 L1270.5,410.6311 L1266.5,516.1211 L1172,516.1211 A0,0 0 0 0 1172,516.1211 " fill="#FEFFDD" style="stroke:#181818;stroke-width:0.5;"/><path d="M1359.2935,516.1211 L1359.2935,526.1211 L1369.2935,526.1211 L1359.2935,516.1211 " fill="#FEFFDD" style="stroke:#181818;stroke-width:0.5;"/><text fill="#000000" font-family="sans-serif" font-size="13" lengthAdjust="spacing" textLength="176.2935" x="1178" y="535.1494">Check center timeslot capacity</text><text fill="#000000" font-family="sans-serif" font-size="13" lengthAdjust="spacing" textLength="117.0381" x="1178" y="552.4404">(max vaccines/hour)</text></g><g id="elem_GMN45"><path d="M486,71.1211 L486,80.6211 L451.19,84.6211 L486,88.6211 L486,98.4121 A0,0 0 0 0 486,98.4121 L708.6079,98.4121 A0,0 0 0 0 708.6079,98.4121 L708.6079,81.1211 L698.6079,71.1211 L486,71.1211 A0,0 0 0 0 486,71.1211 " fill="#FEFFDD" style="stroke:#181818;stroke-width:0.5;"/><path d="M698.6079,71.1211 L698.6079,81.1211 L708.6079,81.1211 L698.6079,71.1211 " fill="#FEFFDD" style="stroke:#181818;stroke-width:0.5;"/><text fill="#000000" font-family="sans-serif" font-size="13" lengthAdjust="spacing" textLength="201.6079" x="492" y="90.1494">Only nurses access full health data</text></g><g id="elem_GMN48"><path d="M1814,358.1211 L1814,419.9941 A0,0 0 0 0 1814,419.9941 L2028.667,419.9941 A0,0 0 0 0 2028.667,419.9941 L2028.667,368.1211 L2018.667,358.1211 L1925.5,358.1211 L1921.5,246.6711 L1917.5,358.1211 L1814,358.1211 A0,0 0 0 0 1814,358.1211 " fill="#FEFFDD" style="stroke:#181818;stroke-width:0.5;"/><path d="M2018.667,358.1211 L2018.667,368.1211 L2028.667,368.1211 L2018.667,358.1211 " fill="#FEFFDD" style="stroke:#181818;stroke-width:0.5;"/><text fill="#000000" font-family="sans-serif" font-size="13" lengthAdjust="spacing" textLength="177.0234" x="1820" y="377.1494">Assumed role, as receptionists</text><text fill="#000000" font-family="sans-serif" font-size="13" lengthAdjust="spacing" textLength="193.667" x="1820" y="394.4404">already provide in-person support</text><text fill="#000000" font-family="sans-serif" font-size="13" lengthAdjust="spacing" textLength="84.5508" x="1820" y="411.7314">for scheduling.</text></g><g id="elem_GMN51"><path d="M2064,341.1211 L2064,437.5762 A0,0 0 0 0 2064,437.5762 L2353.0361,437.5762 A0,0 0 0 0 2353.0361,437.5762 L2353.0361,351.1211 L2343.0361,341.1211 L2212.5,341.1211 L2208.5,252.3611 L2204.5,341.1211 L2064,341.1211 A0,0 0 0 0 2064,341.1211 " fill="#FEFFDD" style="stroke:#181818;stroke-width:0.5;"/><path d="M2343.0361,341.1211 L2343.0361,351.1211 L2353.0361,351.1211 L2343.0361,341.1211 " fill="#FEFFDD" style="stroke:#181818;stroke-width:0.5;"/><text fill="#000000" font-family="sans-serif" font-size="13" lengthAdjust="spacing" textLength="119.2471" x="2070" y="360.1494">Manage center data:</text><text fill="#000000" font-family="sans-serif" font-size="13" lengthAdjust="spacing" textLength="154.6479" x="2070" y="377.4404">- Create/update center info</text><text fill="#000000" font-family="sans-serif" font-size="13" lengthAdjust="spacing" textLength="208.1143" x="2070" y="394.7314">- Configure supported vaccine types</text><text fill="#000000" font-family="sans-serif" font-size="13" lengthAdjust="spacing" textLength="174.1353" x="2070" y="412.0225">- Set capacity, hours, contacts</text><text fill="#000000" font-family="sans-serif" font-size="13" lengthAdjust="spacing" textLength="268.0361" x="2070" y="429.3135">- Restrict CommunityMass to one vaccine type</text></g><!--link SNS to UC02--><g id="link_SNS_UC02"><path d="M1225.87,113.3411 C1251.61,136.1011 1283.5338,164.3181 1310.1738,187.8581 " fill="none" id="SNS-to-UC02" style="stroke:#181818;stroke-width:1.0;"/><polygon fill="#181818" points="1314.67,191.8311,1310.5744,182.8742,1310.9232,188.5203,1305.2771,188.8691,1314.67,191.8311" style="stroke:#181818;stroke-width:1.0;"/></g><!--link SNS to UC03--><g id="link_SNS_UC03"><path d="M1163.13,113.3411 C1135.53,137.7411 1100.1558,169.0077 1073.2158,192.8177 " fill="none" id="SNS-to-UC03" style="stroke:#181818;stroke-width:1.0;"/><polygon fill="#181818" points="1068.72,196.7911,1078.1126,193.8281,1072.4665,193.4799,1072.8147,187.8338,1068.72,196.7911" style="stroke:#181818;stroke-width:1.0;"/></g><!--link REC to UC01--><g id="link_REC_UC01"><path d="M1697.02,105.6911 C1746.68,131.5511 1827.2083,173.5099 1877.1183,199.4999 " fill="none" id="REC-to-UC01" style="stroke:#181818;stroke-width:1.0;"/><polygon fill="#181818" points="1882.44,202.2711,1876.3049,194.5665,1878.0053,199.9618,1872.61,201.6621,1882.44,202.2711" style="stroke:#181818;stroke-width:1.0;"/></g><!--link REC to UC04--><g id="link_REC_UC04"><path d="M1658.5,124.1511 C1658.5,147.2611 1658.5,170.0411 1658.5,190.5011 " fill="none" id="REC-to-UC04" style="stroke:#181818;stroke-width:1.0;"/><polygon fill="#181818" points="1658.5,196.5011,1662.5,187.5011,1658.5,191.5011,1654.5,187.5011,1658.5,196.5011" style="stroke:#181818;stroke-width:1.0;"/></g><!--link REC to UC02--><g id="link_REC_UC02"><path d="M1619.99,102.6911 C1568.3,125.6111 1481.275,164.1992 1419.025,191.7992 " fill="none" id="REC-to-UC02" style="stroke:#181818;stroke-width:1.0;"/><polygon fill="#181818" points="1413.54,194.2311,1423.3889,194.2399,1418.1109,192.2045,1420.1463,186.9265,1413.54,194.2311" style="stroke:#181818;stroke-width:1.0;"/></g><!--link NUR to UC05--><g id="link_NUR_UC05"><path d="M413.94,91.7511 C380.44,102.9911 307.82,128.1311 248.5,154.1211 C215.64,168.5211 184.7385,184.2257 158.1085,198.3757 " fill="none" id="NUR-to-UC05" style="stroke:#181818;stroke-width:1.0;"/><polygon fill="#181818" points="152.81,201.1911,162.6346,200.5004,157.2254,198.845,158.8808,193.4357,152.81,201.1911" style="stroke:#181818;stroke-width:1.0;"/></g><!--link NUR to UC06--><g id="link_NUR_UC06"><path d="M432.5,124.1511 C432.5,148.5211 432.5,173.2111 432.5,193.7911 " fill="none" id="NUR-to-UC06" style="stroke:#181818;stroke-width:1.0;"/><polygon fill="#181818" points="432.5,199.7911,436.5,190.7911,432.5,194.7911,428.5,190.7911,432.5,199.7911" style="stroke:#181818;stroke-width:1.0;"/></g><!--link NUR to UC07--><g id="link_NUR_UC07"><path d="M413.89,94.8711 C386.19,109.7211 334.76,141.6911 310.5,185.1211 C278.77,241.9211 278.2444,315.2622 280.7244,355.8822 " fill="none" id="NUR-to-UC07" style="stroke:#181818;stroke-width:1.0;"/><polygon fill="#181818" points="281.09,361.8711,284.5341,352.6441,280.7853,356.8804,276.549,353.1316,281.09,361.8711" style="stroke:#181818;stroke-width:1.0;"/></g><!--link NUR to UC08--><g id="link_NUR_UC08"><path d="M451.2,107.1611 C456.57,112.9011 462.57,118.9411 468.5,124.1211 C503.79,154.9511 530.33,144.9711 554.5,185.1211 C588.01,240.7711 584.023,314.9924 578.633,355.9424 " fill="none" id="NUR-to-UC08" style="stroke:#181818;stroke-width:1.0;"/><polygon fill="#181818" points="577.85,361.8911,582.9903,353.4901,578.5025,356.9339,575.0587,352.4461,577.85,361.8911" style="stroke:#181818;stroke-width:1.0;"/></g><!--link NUR to UC09--><g id="link_NUR_UC09"><path d="M451.09,110.1311 C456.2,115.4511 462.11,120.5511 468.5,124.1211 C527.09,156.8511 552.81,132.9711 616.5,154.1211 C652.3,166.0111 685.5104,181.7258 713.8404,196.5058 " fill="none" id="NUR-to-UC09" style="stroke:#181818;stroke-width:1.0;"/><polygon fill="#181818" points="719.16,199.2811,713.0308,191.5718,714.727,196.9684,709.3305,198.6646,719.16,199.2811" style="stroke:#181818;stroke-width:1.0;"/></g><!--link ADM to UC10--><g id="link_ADM_UC10"><path d="M2498.69,108.7111 C2435.26,133.6011 2340.305,170.8785 2275.785,196.2085 " fill="none" id="ADM-to-UC10" style="stroke:#181818;stroke-width:1.0;"/><polygon fill="#181818" points="2270.2,198.4011,2280.0393,198.8355,2274.8542,196.5739,2277.1158,191.3888,2270.2,198.4011" style="stroke:#181818;stroke-width:1.0;"/></g><!--link ADM to UC11--><g id="link_ADM_UC11"><path d="M2535.28,124.1511 C2521.05,148.8411 2506.0659,174.8026 2494.2059,195.3826 " fill="none" id="ADM-to-UC11" style="stroke:#181818;stroke-width:1.0;"/><polygon fill="#181818" points="2491.21,200.5811,2499.1695,194.7805,2493.7065,196.249,2492.2381,190.786,2491.21,200.5811" style="stroke:#181818;stroke-width:1.0;"/></g><!--link ADM to UC12--><g id="link_ADM_UC12"><path d="M2578.02,124.1611 C2586.47,142.1511 2595.26,164.1711 2599.5,185.1211 C2611.7,245.3911 2601.6366,311.642 2593.1366,351.662 " fill="none" id="ADM-to-UC12" style="stroke:#181818;stroke-width:1.0;"/><polygon fill="#181818" points="2591.89,357.5311,2597.6726,349.5585,2592.9288,352.6402,2589.8471,347.8964,2591.89,357.5311" style="stroke:#181818;stroke-width:1.0;"/></g><!--link ADM to UC13--><g id="link_ADM_UC13"><path d="M2616.18,111.3911 C2665.96,133.2511 2732.2562,162.3591 2786.7162,186.2691 " fill="none" id="ADM-to-UC13" style="stroke:#181818;stroke-width:1.0;"/><polygon fill="#181818" points="2792.21,188.6811,2785.5772,181.4005,2787.6318,186.6711,2782.3612,188.7256,2792.21,188.6811" style="stroke:#181818;stroke-width:1.0;"/></g><!--link UC02 to UC15--><g id="link_UC02_UC15"><path d="M1334.27,256.1411 C1318.4,288.9911 1296.5998,334.1084 1283.0498,362.1584 " fill="none" id="UC02-to-UC15" style="stroke:#181818;stroke-width:1.0;"/><polygon fill="#181818" points="1280.44,367.5611,1287.9565,361.197,1282.6149,363.0589,1280.753,357.7172,1280.44,367.5611" style="stroke:#181818;stroke-width:1.0;"/></g><!--link UC02 to UC14--><g id="link_UC02_UC14"><path d="M1385.8,255.3711 C1420.85,285.0711 1468.9721,325.8326 1503.4021,355.0026 " fill="none" id="UC02-to-UC14" style="stroke:#181818;stroke-width:1.0;"/><polygon fill="#181818" points="1507.98,358.8811,1503.6988,350.0114,1504.1651,355.649,1498.5275,356.1153,1507.98,358.8811" style="stroke:#181818;stroke-width:1.0;"/></g><!--link UC14 to NOTIF--><g id="link_UC14_NOTIF"><path d="M1542.5,420.3211 C1542.5,448.9811 1542.5,485.3011 1542.5,510.5011 " fill="none" id="UC14-to-NOTIF" style="stroke:#181818;stroke-width:1.0;stroke-dasharray:7.0,7.0;"/><polygon fill="#181818" points="1542.5,516.5011,1546.5,507.5011,1542.5,511.5011,1538.5,507.5011,1542.5,516.5011" style="stroke:#181818;stroke-width:1.0;"/><text fill="#000000" font-family="sans-serif" font-size="13" lengthAdjust="spacing" textLength="46.249" x="1543.5" y="482.1494">external</text></g><!--link UC06 to UC07--><g id="link_UC06_UC07"><path d="M412.09,247.0111 C384.6,277.1811 339.8111,326.3261 310.8811,358.0761 " fill="none" id="UC06-to-UC07" style="stroke:#181818;stroke-width:1.0;"/><polygon fill="#181818" points="306.84,362.5111,315.8583,358.5526,310.2076,358.8152,309.945,353.1645,306.84,362.5111" style="stroke:#181818;stroke-width:1.0;"/></g><!--link UC06 to UC08--><g id="link_UC06_UC08"><path d="M451.61,247.0711 C466.53,264.5511 487.78,289.4211 506.5,311.1211 C521.32,328.2911 534.1275,343.0182 547.1675,357.9782 " fill="none" id="UC06-to-UC08" style="stroke:#181818;stroke-width:1.0;stroke-dasharray:7.0,7.0;"/><polygon fill="#181818" points="551.11,362.5011,548.2116,353.0884,547.8246,358.732,542.181,358.345,551.11,362.5011" style="stroke:#181818;stroke-width:1.0;"/><text fill="#000000" font-family="sans-serif" font-size="13" lengthAdjust="spacing" textLength="56.3608" x="507.5" y="307.1494">if reaction</text></g><!--link UC10 to UC12--><g id="link_UC10_UC12"><path d="M2265.61,249.4511 C2334.53,279.4211 2444.5476,327.2687 2516.0076,358.3387 " fill="none" id="UC10-to-UC12" style="stroke:#181818;stroke-width:1.0;"/><polygon fill="#181818" points="2521.51,360.7311,2514.8513,353.4742,2516.9247,358.7374,2511.6615,360.8108,2521.51,360.7311" style="stroke:#181818;stroke-width:1.0;"/><text fill="#000000" font-family="sans-serif" font-size="13" lengthAdjust="spacing" textLength="41.1963" x="2397.5" y="307.1494">include</text></g><!--SRC=[VLHBSXit4DtZ5BsAgIfHr52YFbouYg4SbwkYJqX9MSEO9eao1fZ2Xo4la0Fa2bbuaRLNtbatoKdI06OaI8jiMDNiXpVT_LxtkutthPkEHgtYseT67GdJZ8B3eU3qKqk-jhnXp4kl4EuUhvSmX3kkQsoaW4SkXDJSIwFXcck-nWQrX-NUUMnWyE0GvaG3LvdcWB5tCFF6ecFJvSqI262dm1rGmAOB5DX6Bkby-dVnOSwcDy4wJE7Dmu9DhpukOLOtCe8i9wwKcbrTiy6zR71qOxnSIP5hMgBTIe47wVNj_QTVOW5zLGvQAxMGBPUE3HxcnnMrji0r4QE5lhpqDYOJP4oGfTXW7MWQPVUpjZLI-zX-_sASNfpGYu_eNu7dQBiYiGUV9F1fMS7CMhdb2aOmtw3uCfIw1vycy8J0ZnB_WD-vz5AluRU0uPbmaZ1dXEcdHPIvY6VCMSASfuyAO-jNHNxO5hsS9-J52t9MRv5qeP2B2E-15mbuIS1FpWKiMuLRFNJofUNBv8PdAP- -FlrjOhD6h-GwT7z4kkgOwBAztenHKrEkuwkE4xPwmTvHqcYDgaSa3QlnMpQ4-trBTlW9VhRax6V2960L1LoIWFDWRJJtRV2VBV8l1B_25G_AlwBf7v_4xfB_dhuQ1ppif98yEZ-IHg6JK_UbStBljk75HAiaTXN5dlEM2-dtsGzzVX8_zAjSntbzeoxYJi2_V_v5EHPDF1o-psuiWXD6gzK7LHcSbi6OqShrmQGCpihWl0mkok2IqM9s0UbJ15KPZCiW3Mw1gk-7vcAH4exb_SkeoQlebAMP7XszpsiEK_Zn3-x87Pgh7zzPteI-sXH5RB9qXCeLsCx82HqTrvMMyrgeK2Fbg3RIZIPV8mX3_jjv0mFSOTCgumwODcJqpyPxqu1PvKgJN22IMy7JaNBAU12TccpGy1riiuNSQ6E2FM2eQuXKB1DQkTxuo1TFuArMUz3nAfBOGg1pi0fAmGQvyXkekUTltvS5aTupMiq6Qx16uM6qaIqkhsDSqJ3gFPr7ivNKfzJ3DgqIk41cjPwjo68kdq4wF4V_zpcIlLksRW2nlYaZDzD7F8v2MyVRq2MbNfcOwsu0zb-aOhi9WO-xol9EzZCyX3WsTvWa8HrZVe5qLQI8IzKqGHFgcjEeI2v3B2NRI_d_0G00]--></g></svg>