<svg xmlns="http://www.w3.org/2000/svg" xmlns:xlink="http://www.w3.org/1999/xlink" contentStyleType="text/css" data-diagram-type="SEQUENCE" height="503px" preserveAspectRatio="none" style="width:882px;height:503px;background:#FFFFFF;" version="1.1" viewBox="0 0 882 503" width="882px" zoomAndPan="magnify"><title>SSD - US20 Register SNS User</title><defs/><g><text fill="#000000" font-family="sans-serif" font-size="14" font-weight="bold" lengthAdjust="spacing" textLength="203.8545" x="337.6636" y="30.1074">SSD - US20 Register SNS User</text><g><title>Receptionist</title><rect fill="#FFFFFF" height="277.9102" style="stroke:#181818;stroke-width:1;" width="10" x="41.5205" y="133.2422"/></g><g><title>.System</title><rect fill="#FFFFFF" height="31.291" style="stroke:#181818;stroke-width:1;" width="10" x="673.4897" y="156.5332"/></g><g><title>.System</title><rect fill="#FFFFFF" height="120.4551" style="stroke:#181818;stroke-width:1;" width="10" x="673.4897" y="219.1152"/></g><g><title>.System</title><rect fill="#FFFFFF" height="31.291" style="stroke:#181818;stroke-width:1;" width="10" x="673.4897" y="370.8613"/></g><g><title>Receptionist</title><rect fill="#000000" fill-opacity="0.00000" height="296.9102" width="8" x="42.5205" y="123.2422"/><line style="stroke:#181818;stroke-width:0.5;stroke-dasharray:5,5;" x1="46" x2="46" y1="123.2422" y2="420.1523"/></g><g><title>.System</title><rect fill="#000000" fill-opacity="0.00000" height="296.9102" width="8" x="674.4897" y="123.2422"/><line style="stroke:#181818;stroke-width:0.5;stroke-dasharray:5,5;" x1="678.207" x2="678.207" y1="123.2422" y2="420.1523"/></g><g class="participant participant-head" data-participant="Rec"><text fill="#000000" font-family="sans-serif" font-size="14" lengthAdjust="spacing" textLength="77.041" x="5" y="119.7285">Receptionist</text><ellipse cx="46.5205" cy="53.1211" fill="#E2E2F0" rx="8" ry="8" style="stroke:#181818;stroke-width:0.5;"/><path d="M46.5205,61.1211 L46.5205,88.1211 M33.5205,69.1211 L59.5205,69.1211 M46.5205,88.1211 L33.5205,103.1211 M46.5205,88.1211 L59.5205,103.1211" fill="none" style="stroke:#181818;stroke-width:0.5;"/></g><g class="participant participant-tail" data-participant="Rec"><text fill="#000000" font-family="sans-serif" font-size="14" lengthAdjust="spacing" textLength="77.041" x="5" y="434.2598">Receptionist</text><ellipse cx="46.5205" cy="446.2734" fill="#E2E2F0" rx="8" ry="8" style="stroke:#181818;stroke-width:0.5;"/><path d="M46.5205,454.2734 L46.5205,481.2734 M33.5205,462.2734 L59.5205,462.2734 M46.5205,481.2734 L33.5205,496.2734 M46.5205,481.2734 L59.5205,496.2734" fill="none" style="stroke:#181818;stroke-width:0.5;"/></g><g class="participant participant-head" data-participant="System"><rect fill="#E2E2F0" height="32.6211" rx="2.5" ry="2.5" style="stroke:#181818;stroke-width:0.5;" width="64.5654" x="646.207" y="89.6211"/><text fill="#000000" font-family="sans-serif" font-size="14" lengthAdjust="spacing" textLength="50.5654" x="653.207" y="111.7285">:System</text></g><g class="participant participant-tail" data-participant="System"><rect fill="#E2E2F0" height="32.6211" rx="2.5" ry="2.5" style="stroke:#181818;stroke-width:0.5;" width="64.5654" x="646.207" y="419.1523"/><text fill="#000000" font-family="sans-serif" font-size="14" lengthAdjust="spacing" textLength="50.5654" x="653.207" y="441.2598">:System</text></g><g><title>Receptionist</title><rect fill="#FFFFFF" height="277.9102" style="stroke:#181818;stroke-width:1;" width="10" x="41.5205" y="133.2422"/></g><g><title>.System</title><rect fill="#FFFFFF" height="31.291" style="stroke:#181818;stroke-width:1;" width="10" x="673.4897" y="156.5332"/></g><g><title>.System</title><rect fill="#FFFFFF" height="120.4551" style="stroke:#181818;stroke-width:1;" width="10" x="673.4897" y="219.1152"/></g><g><title>.System</title><rect fill="#FFFFFF" height="31.291" style="stroke:#181818;stroke-width:1;" width="10" x="673.4897" y="370.8613"/></g><g class="message" data-participant-1="Rec" data-participant-2="System"><polygon fill="#181818" points="661.4897,152.5332,671.4897,156.5332,661.4897,160.5332,665.4897,156.5332" style="stroke:#181818;stroke-width:1;"/><line style="stroke:#181818;stroke-width:1;" x1="51.5205" x2="667.4897" y1="156.5332" y2="156.5332"/><text fill="#000000" font-family="sans-serif" font-size="13" font-weight="bold" lengthAdjust="spacing" textLength="7.23" x="58.5205" y="151.2705">1</text><text fill="#000000" font-family="sans-serif" font-size="13" lengthAdjust="spacing" textLength="185.688" x="69.7505" y="151.2705">asks to register a new SNS user</text></g><g class="message" data-participant-1="System" data-participant-2="Rec"><polygon fill="#181818" points="62.5205,183.8242,52.5205,187.8242,62.5205,191.8242,58.5205,187.8242" style="stroke:#181818;stroke-width:1;"/><line style="stroke:#181818;stroke-width:1;stroke-dasharray:2,2;" x1="56.5205" x2="677.4897" y1="187.8242" y2="187.8242"/><text fill="#000000" font-family="sans-serif" font-size="13" font-weight="bold" lengthAdjust="spacing" textLength="7.23" x="68.5205" y="182.5615">2</text><text fill="#000000" font-family="sans-serif" font-size="13" lengthAdjust="spacing" textLength="586.7393" x="79.7505" y="182.5615">requests data (name, date of birth, sex, address, phone, email, citizen card number, sns user number)</text></g><g class="message" data-participant-1="Rec" data-participant-2="System"><polygon fill="#181818" points="661.4897,215.1152,671.4897,219.1152,661.4897,223.1152,665.4897,219.1152" style="stroke:#181818;stroke-width:1;"/><line style="stroke:#181818;stroke-width:1;" x1="51.5205" x2="667.4897" y1="219.1152" y2="219.1152"/><text fill="#000000" font-family="sans-serif" font-size="13" font-weight="bold" lengthAdjust="spacing" textLength="7.23" x="58.5205" y="213.8525">3</text><text fill="#000000" font-family="sans-serif" font-size="13" lengthAdjust="spacing" textLength="121.418" x="69.7505" y="213.8525">types requested data</text></g><path d="M688,232.1152 L688,311.1152 L875,311.1152 L875,242.1152 L865,232.1152 L688,232.1152" fill="#FEFFDD" style="stroke:#181818;stroke-width:0.5;"/><path d="M865,232.1152 L865,242.1152 L875,242.1152 L865,232.1152" fill="#FEFFDD" style="stroke:#181818;stroke-width:0.5;"/><text fill="#000000" font-family="sans-serif" font-size="13" lengthAdjust="spacing" textLength="101.8735" x="694" y="251.1436">System validates:</text><text fill="#000000" font-family="sans-serif" font-size="13" lengthAdjust="spacing" textLength="166.1816" x="694" y="268.4346">1. Mandatory fields (AC20-2)</text><text fill="#000000" font-family="sans-serif" font-size="13" lengthAdjust="spacing" textLength="118.4727" x="694" y="285.7256">2. Formats (AC20-1)</text><text fill="#000000" font-family="sans-serif" font-size="13" lengthAdjust="spacing" textLength="139.458" x="694" y="303.0166">3. Uniqueness (AC20-3)</text><g class="message" data-participant-1="System" data-participant-2="Rec"><polygon fill="#181818" points="62.5205,335.5703,52.5205,339.5703,62.5205,343.5703,58.5205,339.5703" style="stroke:#181818;stroke-width:1;"/><line style="stroke:#181818;stroke-width:1;stroke-dasharray:2,2;" x1="56.5205" x2="677.4897" y1="339.5703" y2="339.5703"/><text fill="#000000" font-family="sans-serif" font-size="13" font-weight="bold" lengthAdjust="spacing" textLength="7.23" x="68.5205" y="334.3076">4</text><text fill="#000000" font-family="sans-serif" font-size="13" lengthAdjust="spacing" textLength="235.5742" x="79.7505" y="334.3076">shows all data and requests confirmation</text></g><g class="message" data-participant-1="Rec" data-participant-2="System"><polygon fill="#181818" points="661.4897,366.8613,671.4897,370.8613,661.4897,374.8613,665.4897,370.8613" style="stroke:#181818;stroke-width:1;"/><line style="stroke:#181818;stroke-width:1;" x1="51.5205" x2="667.4897" y1="370.8613" y2="370.8613"/><text fill="#000000" font-family="sans-serif" font-size="13" font-weight="bold" lengthAdjust="spacing" textLength="7.23" x="58.5205" y="365.5986">5</text><text fill="#000000" font-family="sans-serif" font-size="13" lengthAdjust="spacing" textLength="99.7153" x="69.7505" y="365.5986">confirms the data</text></g><g class="message" data-participant-1="System" data-participant-2="Rec"><polygon fill="#181818" points="62.5205,398.1523,52.5205,402.1523,62.5205,406.1523,58.5205,402.1523" style="stroke:#181818;stroke-width:1;"/><line style="stroke:#181818;stroke-width:1;stroke-dasharray:2,2;" x1="56.5205" x2="677.4897" y1="402.1523" y2="402.1523"/><text fill="#000000" font-family="sans-serif" font-size="13" font-weight="bold" lengthAdjust="spacing" textLength="7.23" x="68.5205" y="396.8896">6</text><text fill="#000000" font-family="sans-serif" font-size="13" lengthAdjust="spacing" textLength="151.0107" x="79.7505" y="396.8896">informs operation success</text></g><!--SRC=[PL51Ri903Bpd5HOda0A2SEDGgMhLMtiWuW5cOuZLP3TTEr3w-ZgRe4ebXsXtFFRCU9Mr8IZBLrZ2eIpMiASpYrA4ygE4Wr3CiDU0Jlc2IX1yklk-FLefCpn4cEt9KQSSlBNE0CMckAp3gEouGwymsvKtczgcudXCpUFGWPtP3vPFKt5dl4y13H3lVX0yNPEhVd0ryc1fBTQvCzvNJw825Ih2t6DB-N0sooSuSjGw1w7l7B2g8edaqDN16uTQv2O7nye_vC5Xh62CPmrUaje4B1vSwgqZkMjJbSGp7qmryhdMGNjA2_PDdY_OyE1CTWdThE0TlG4Xtk34r5G2y-UNOhqi5ebGhE0jn1RrZcz6VBk2WsUJzfPdAcqN6NaBO1OULYHrk0fWqumxCis_hRdWJpnes2C-f9oAzXurZH7_ZsP_2WCXT1JJ393UERFr2m00]--></g></svg>