<svg xmlns="http://www.w3.org/2000/svg" xmlns:xlink="http://www.w3.org/1999/xlink" contentStyleType="text/css" data-diagram-type="SEQUENCE" height="503px" preserveAspectRatio="none" style="width:904px;height:503px;background:#FFFFFF;" version="1.1" viewBox="0 0 904 503" width="904px" zoomAndPan="magnify"><title>SSD - US20 Register SNS User</title><defs/><g><text fill="#000000" font-family="sans-serif" font-size="14" font-weight="bold" lengthAdjust="spacing" textLength="203.8545" x="348.7153" y="30.1074">SSD - US20 Register SNS User</text><g><title>Receptionist</title><rect fill="#FFFFFF" height="268.9102" style="stroke:#181818;stroke-width:1;" width="10" x="41.5205" y="133.2422"/></g><g><title>.System</title><rect fill="#FFFFFF" height="31.291" style="stroke:#181818;stroke-width:1;" width="10" x="573.0254" y="156.5332"/></g><g><title>.System</title><rect fill="#FFFFFF" height="120.4551" style="stroke:#181818;stroke-width:1;" width="10" x="573.0254" y="219.1152"/></g><g><title>.System</title><rect fill="#FFFFFF" height="31.291" style="stroke:#181818;stroke-width:1;" width="10" x="573.0254" y="370.8613"/></g><g><title>Receptionist</title><rect fill="#000000" fill-opacity="0.00000" height="296.9102" width="8" x="42.5205" y="123.2422"/><line style="stroke:#181818;stroke-width:0.5;stroke-dasharray:5,5;" x1="46" x2="46" y1="123.2422" y2="420.1523"/></g><g><title>.System</title><rect fill="#000000" fill-opacity="0.00000" height="296.9102" width="8" x="574.0254" y="123.2422"/><line style="stroke:#181818;stroke-width:0.5;stroke-dasharray:5,5;" x1="577.7427" x2="577.7427" y1="123.2422" y2="420.1523"/></g><g class="participant participant-head" data-participant="Rec"><text fill="#000000" font-family="sans-serif" font-size="14" lengthAdjust="spacing" textLength="77.041" x="5" y="119.7285">Receptionist</text><ellipse cx="46.5205" cy="53.1211" fill="#E2E2F0" rx="8" ry="8" style="stroke:#181818;stroke-width:0.5;"/><path d="M46.5205,61.1211 L46.5205,88.1211 M33.5205,69.1211 L59.5205,69.1211 M46.5205,88.1211 L33.5205,103.1211 M46.5205,88.1211 L59.5205,103.1211" fill="none" style="stroke:#181818;stroke-width:0.5;"/></g><g class="participant participant-tail" data-participant="Rec"><text fill="#000000" font-family="sans-serif" font-size="14" lengthAdjust="spacing" textLength="77.041" x="5" y="434.2598">Receptionist</text><ellipse cx="46.5205" cy="446.2734" fill="#E2E2F0" rx="8" ry="8" style="stroke:#181818;stroke-width:0.5;"/><path d="M46.5205,454.2734 L46.5205,481.2734 M33.5205,462.2734 L59.5205,462.2734 M46.5205,481.2734 L33.5205,496.2734 M46.5205,481.2734 L59.5205,496.2734" fill="none" style="stroke:#181818;stroke-width:0.5;"/></g><g class="participant participant-head" data-participant="System"><rect fill="#E2E2F0" height="32.6211" rx="2.5" ry="2.5" style="stroke:#181818;stroke-width:0.5;" width="64.5654" x="545.7427" y="89.6211"/><text fill="#000000" font-family="sans-serif" font-size="14" lengthAdjust="spacing" textLength="50.5654" x="552.7427" y="111.7285">:System</text></g><g class="participant participant-tail" data-participant="System"><rect fill="#E2E2F0" height="32.6211" rx="2.5" ry="2.5" style="stroke:#181818;stroke-width:0.5;" width="64.5654" x="545.7427" y="419.1523"/><text fill="#000000" font-family="sans-serif" font-size="14" lengthAdjust="spacing" textLength="50.5654" x="552.7427" y="441.2598">:System</text></g><g><title>Receptionist</title><rect fill="#FFFFFF" height="268.9102" style="stroke:#181818;stroke-width:1;" width="10" x="41.5205" y="133.2422"/></g><g><title>.System</title><rect fill="#FFFFFF" height="31.291" style="stroke:#181818;stroke-width:1;" width="10" x="573.0254" y="156.5332"/></g><g><title>.System</title><rect fill="#FFFFFF" height="120.4551" style="stroke:#181818;stroke-width:1;" width="10" x="573.0254" y="219.1152"/></g><g><title>.System</title><rect fill="#FFFFFF" height="31.291" style="stroke:#181818;stroke-width:1;" width="10" x="573.0254" y="370.8613"/></g><g class="message" data-participant-1="Rec" data-participant-2="System"><polygon fill="#181818" points="561.0254,152.5332,571.0254,156.5332,561.0254,160.5332,565.0254,156.5332" style="stroke:#181818;stroke-width:1;"/><line style="stroke:#181818;stroke-width:1;" x1="51.5205" x2="567.0254" y1="156.5332" y2="156.5332"/><text fill="#000000" font-family="sans-serif" font-size="13" font-weight="bold" lengthAdjust="spacing" textLength="7.23" x="58.5205" y="151.2705">1</text><text fill="#000000" font-family="sans-serif" font-size="13" lengthAdjust="spacing" textLength="185.688" x="69.7505" y="151.2705">asks to register a new SNS user</text></g><g class="message" data-participant-1="System" data-participant-2="Rec"><polygon fill="#181818" points="62.5205,183.8242,52.5205,187.8242,62.5205,191.8242,58.5205,187.8242" style="stroke:#181818;stroke-width:1;"/><line style="stroke:#181818;stroke-width:1;stroke-dasharray:2,2;" x1="56.5205" x2="577.0254" y1="187.8242" y2="187.8242"/><text fill="#000000" font-family="sans-serif" font-size="13" font-weight="bold" lengthAdjust="spacing" textLength="7.23" x="68.5205" y="182.5615">2</text><text fill="#000000" font-family="sans-serif" font-size="13" lengthAdjust="spacing" textLength="486.2749" x="79.7505" y="182.5615">requests data (name, address, sex, phone, email, birthDate, snsNumber, ccNumber)</text></g><g class="message" data-participant-1="Rec" data-participant-2="System"><polygon fill="#181818" points="561.0254,215.1152,571.0254,219.1152,561.0254,223.1152,565.0254,219.1152" style="stroke:#181818;stroke-width:1;"/><line style="stroke:#181818;stroke-width:1;" x1="51.5205" x2="567.0254" y1="219.1152" y2="219.1152"/><text fill="#000000" font-family="sans-serif" font-size="13" font-weight="bold" lengthAdjust="spacing" textLength="7.23" x="58.5205" y="213.8525">3</text><text fill="#000000" font-family="sans-serif" font-size="13" lengthAdjust="spacing" textLength="121.418" x="69.7505" y="213.8525">types requested data</text></g><path d="M588,232.1152 L588,311.1152 L897,311.1152 L897,242.1152 L887,232.1152 L588,232.1152" fill="#FEFFDD" style="stroke:#181818;stroke-width:0.5;"/><path d="M887,232.1152 L887,242.1152 L897,242.1152 L887,232.1152" fill="#FEFFDD" style="stroke:#181818;stroke-width:0.5;"/><text fill="#000000" font-family="sans-serif" font-size="13" font-weight="bold" lengthAdjust="spacing" textLength="109.8335" x="594" y="251.1436">System validates:</text><text fill="#000000" font-family="sans-serif" font-size="13" lengthAdjust="spacing" textLength="258.667" x="594" y="268.4346">1. Mandatory fields (all except Sex - AC20-2)</text><text fill="#000000" font-family="sans-serif" font-size="13" lengthAdjust="spacing" textLength="222.5107" x="594" y="285.7256">2. PT Formats (Phone &amp; CC - AC20-1)</text><text fill="#000000" font-family="sans-serif" font-size="13" lengthAdjust="spacing" textLength="288.2852" x="594" y="303.0166">3. Uniqueness (Phone, Email, CC, SNS - AC20-3)</text><g class="message" data-participant-1="System" data-participant-2="Rec"><polygon fill="#181818" points="62.5205,335.5703,52.5205,339.5703,62.5205,343.5703,58.5205,339.5703" style="stroke:#181818;stroke-width:1;"/><line style="stroke:#181818;stroke-width:1;stroke-dasharray:2,2;" x1="56.5205" x2="577.0254" y1="339.5703" y2="339.5703"/><text fill="#000000" font-family="sans-serif" font-size="13" font-weight="bold" lengthAdjust="spacing" textLength="7.23" x="68.5205" y="334.3076">4</text><text fill="#000000" font-family="sans-serif" font-size="13" lengthAdjust="spacing" textLength="235.5742" x="79.7505" y="334.3076">shows all data and requests confirmation</text></g><g class="message" data-participant-1="Rec" data-participant-2="System"><polygon fill="#181818" points="561.0254,366.8613,571.0254,370.8613,561.0254,374.8613,565.0254,370.8613" style="stroke:#181818;stroke-width:1;"/><line style="stroke:#181818;stroke-width:1;" x1="51.5205" x2="567.0254" y1="370.8613" y2="370.8613"/><text fill="#000000" font-family="sans-serif" font-size="13" font-weight="bold" lengthAdjust="spacing" textLength="7.23" x="58.5205" y="365.5986">5</text><text fill="#000000" font-family="sans-serif" font-size="13" lengthAdjust="spacing" textLength="99.7153" x="69.7505" y="365.5986">confirms the data</text></g><g class="message" data-participant-1="System" data-participant-2="Rec"><polygon fill="#181818" points="57.5205,398.1523,47.5205,402.1523,57.5205,406.1523,53.5205,402.1523" style="stroke:#181818;stroke-width:1;"/><line style="stroke:#181818;stroke-width:1;stroke-dasharray:2,2;" x1="51.5205" x2="577.0254" y1="402.1523" y2="402.1523"/><text fill="#000000" font-family="sans-serif" font-size="13" font-weight="bold" lengthAdjust="spacing" textLength="7.23" x="63.5205" y="396.8896">6</text><text fill="#000000" font-family="sans-serif" font-size="13" lengthAdjust="spacing" textLength="151.0107" x="74.7505" y="396.8896">informs operation success</text></g><!--SRC=[PLBBReCm4Bpp5QCSgYGYKK9kELIgI7jh58Nc0rop1AjWKzlayVTT3AXLmm6PdPdTsJ5U-OgGPJiiSCgI5OvqLiwJHRRFS79a8z5w8wHN5-49HeTltTQV34LSDnQJ8qbgl3AQfHC8nrrar0ZhbLIDq1wJRNRdhdK0-sCGzqqxTiGlB9u7SCkyBmTlO4S_0fgkmLNRkUfvMB24bLlcVRVal4CklC1KYvfYY3otv5mCHxSOJMaq5waMgehngQmlTpoUKUtsOQ4OKlQdsOCXVs_8ZMCe3tCYRTY-LUVImnJZOk1dFXyCNaIbc4fkEvy7PBt4kz1SClQEGb6LEqn5LO5kNOZ8wCPtyP8cgqKo2ufaYSC7teoj1UytFNHhu0bfElBMFM-pn4ahzgTvvu4NuxLVDqtZ4DuWsSmYqZaw_mzHkj9S7JfB8Kis-vkkDBfGdH6-x8U81f3lhQG-d_-jbIvCHp0DsT03hfMIxKOv_VqTVW00]--></g></svg>