<svg xmlns="http://www.w3.org/2000/svg" xmlns:xlink="http://www.w3.org/1999/xlink" contentStyleType="text/css" data-diagram-type="SEQUENCE" height="1055px" preserveAspectRatio="none" style="width:1468px;height:1055px;background:#FFFFFF;" version="1.1" viewBox="0 0 1468 1055" width="1468px" zoomAndPan="magnify"><title>US20 - Register SNS User (SD)</title><defs/><g><text fill="#000000" font-family="sans-serif" font-size="14" font-weight="bold" lengthAdjust="spacing" textLength="203.8408" x="631.0649" y="30.1074">US20 - Register SNS User (SD)</text><g><title>Receptionist</title><rect fill="#FFFFFF" height="821.4395" style="stroke:#181818;stroke-width:1;" width="10" x="41.5205" y="133.2422"/></g><g><title>.RegisterSNSUserView</title><rect fill="#FFFFFF" height="111.1641" style="stroke:#181818;stroke-width:1;" width="10" x="401.0864" y="156.5332"/></g><g><title>.RegisterSNSUserView</title><rect fill="#FFFFFF" height="655.6934" style="stroke:#181818;stroke-width:1;" width="10" x="401.0864" y="298.9883"/></g><g><title>.RegisterSNSUserController</title><rect fill="#FFFFFF" height="31.291" style="stroke:#181818;stroke-width:1;" width="10" x="584.9688" y="187.8242"/></g><g><title>.RegisterSNSUserController</title><rect fill="#FFFFFF" height="472.6563" style="stroke:#181818;stroke-width:1;" width="10" x="584.9688" y="450.7344"/></g><g><title>service</title><rect fill="#FFFFFF" height="410.0742" style="stroke:#181818;stroke-width:1;" width="10" x="750.9546" y="482.0254"/></g><g><title>repoUsers</title><rect fill="#FFFFFF" height="31.291" style="stroke:#181818;stroke-width:1;" width="10" x="1108.3452" y="576.8984"/></g><g><title>repoUsers</title><rect fill="#FFFFFF" height="31.291" style="stroke:#181818;stroke-width:1;" width="10" x="1108.3452" y="829.5176"/></g><g><title>user.SNSUser</title><rect fill="#FFFFFF" height="103.1641" style="stroke:#181818;stroke-width:1;" width="10" x="1241.6553" y="695.0625"/></g><rect fill="none" height="81.873" style="stroke:#000000;stroke-width:1.5;" width="510.4248" x="684.4961" y="534.3164"/><g><title>Receptionist</title><rect fill="#000000" fill-opacity="0.00000" height="849.4395" width="8" x="42.5205" y="123.2422"/><line style="stroke:#181818;stroke-width:0.5;stroke-dasharray:5,5;" x1="46" x2="46" y1="123.2422" y2="972.6816"/></g><g><title>.RegisterSNSUserView</title><rect fill="#000000" fill-opacity="0.00000" height="849.4395" width="8" x="402.0864" y="123.2422"/><line style="stroke:#181818;stroke-width:0.5;stroke-dasharray:5,5;" x1="405.7314" x2="405.7314" y1="123.2422" y2="972.6816"/></g><g><title>.RegisterSNSUserController</title><rect fill="#000000" fill-opacity="0.00000" height="849.4395" width="8" x="585.9688" y="123.2422"/><line style="stroke:#181818;stroke-width:0.5;stroke-dasharray:5,5;" x1="589.4414" x2="589.4414" y1="123.2422" y2="972.6816"/></g><g><title>service</title><rect fill="#000000" fill-opacity="0.00000" height="849.4395" width="8" x="751.9546" y="123.2422"/><line style="stroke:#181818;stroke-width:0.5;stroke-dasharray:5,5;" x1="755.4961" x2="755.4961" y1="123.2422" y2="972.6816"/></g><g><title>dto.SNSUserDto</title><rect fill="#000000" fill-opacity="0.00000" height="559.5293" width="8" x="882.1543" y="413.1523"/><line style="stroke:#181818;stroke-width:0.5;stroke-dasharray:5,5;" x1="885.4131" x2="885.4131" y1="413.1523" y2="972.6816"/></g><g><title>repoUsers</title><rect fill="#000000" fill-opacity="0.00000" height="849.4395" width="8" x="1109.3452" y="123.2422"/><line style="stroke:#181818;stroke-width:0.5;stroke-dasharray:5,5;" x1="1112.7695" x2="1112.7695" y1="123.2422" y2="972.6816"/></g><g><title>user.SNSUser</title><rect fill="#000000" fill-opacity="0.00000" height="315.2012" width="8" x="1242.6553" y="657.4805"/><line style="stroke:#181818;stroke-width:0.5;stroke-dasharray:5,5;" x1="1245.9209" x2="1245.9209" y1="657.4805" y2="972.6816"/></g><g class="participant participant-head" data-participant="Rec"><text fill="#000000" font-family="sans-serif" font-size="14" lengthAdjust="spacing" textLength="77.041" x="5" y="119.7285">Receptionist</text><ellipse cx="46.5205" cy="53.1211" fill="#E2E2F0" rx="8" ry="8" style="stroke:#181818;stroke-width:0.5;"/><path d="M46.5205,61.1211 L46.5205,88.1211 M33.5205,69.1211 L59.5205,69.1211 M46.5205,88.1211 L33.5205,103.1211 M46.5205,88.1211 L59.5205,103.1211" fill="none" style="stroke:#181818;stroke-width:0.5;"/></g><g class="participant participant-tail" data-participant="Rec"><text fill="#000000" font-family="sans-serif" font-size="14" lengthAdjust="spacing" textLength="77.041" x="5" y="986.7891">Receptionist</text><ellipse cx="46.5205" cy="998.8027" fill="#E2E2F0" rx="8" ry="8" style="stroke:#181818;stroke-width:0.5;"/><path d="M46.5205,1006.8027 L46.5205,1033.8027 M33.5205,1014.8027 L59.5205,1014.8027 M46.5205,1033.8027 L33.5205,1048.8027 M46.5205,1033.8027 L59.5205,1048.8027" fill="none" style="stroke:#181818;stroke-width:0.5;"/></g><g class="participant participant-head" data-participant="UI"><rect fill="#E2E2F0" height="32.6211" rx="2.5" ry="2.5" style="stroke:#181818;stroke-width:0.5;" width="158.71" x="326.7314" y="89.6211"/><text fill="#000000" font-family="sans-serif" font-size="14" lengthAdjust="spacing" textLength="144.71" x="333.7314" y="111.7285">:RegisterSNSUserView</text></g><g class="participant participant-tail" data-participant="UI"><rect fill="#E2E2F0" height="32.6211" rx="2.5" ry="2.5" style="stroke:#181818;stroke-width:0.5;" width="158.71" x="326.7314" y="971.6816"/><text fill="#000000" font-family="sans-serif" font-size="14" lengthAdjust="spacing" textLength="144.71" x="333.7314" y="993.7891">:RegisterSNSUserView</text></g><g class="participant participant-head" data-participant="Ctrl"><rect fill="#E2E2F0" height="32.6211" rx="2.5" ry="2.5" style="stroke:#181818;stroke-width:0.5;" width="189.0547" x="495.4414" y="89.6211"/><text fill="#000000" font-family="sans-serif" font-size="14" lengthAdjust="spacing" textLength="175.0547" x="502.4414" y="111.7285">:RegisterSNSUserController</text></g><g class="participant participant-tail" data-participant="Ctrl"><rect fill="#E2E2F0" height="32.6211" rx="2.5" ry="2.5" style="stroke:#181818;stroke-width:0.5;" width="189.0547" x="495.4414" y="971.6816"/><text fill="#000000" font-family="sans-serif" font-size="14" lengthAdjust="spacing" textLength="175.0547" x="502.4414" y="993.7891">:RegisterSNSUserController</text></g><g class="participant participant-head" data-participant="Svc"><rect fill="#E2E2F0" height="51.2422" rx="2.5" ry="2.5" style="stroke:#181818;stroke-width:0.5;" width="122.917" x="694.4961" y="71"/><text fill="#000000" font-family="sans-serif" font-size="14" lengthAdjust="spacing" textLength="44.3447" x="733.7822" y="93.1074">service</text><text fill="#000000" font-family="sans-serif" font-size="14" lengthAdjust="spacing" textLength="108.917" x="701.4961" y="111.7285">:SNSUserService</text></g><g class="participant participant-tail" data-participant="Svc"><rect fill="#E2E2F0" height="51.2422" rx="2.5" ry="2.5" style="stroke:#181818;stroke-width:0.5;" width="122.917" x="694.4961" y="971.6816"/><text fill="#000000" font-family="sans-serif" font-size="14" lengthAdjust="spacing" textLength="44.3447" x="733.7822" y="993.7891">service</text><text fill="#000000" font-family="sans-serif" font-size="14" lengthAdjust="spacing" textLength="108.917" x="701.4961" y="1012.4102">:SNSUserService</text></g><g class="participant participant-tail" data-participant="DTO"><rect fill="#E2E2F0" height="32.6211" rx="2.5" ry="2.5" style="stroke:#181818;stroke-width:0.5;" width="117.4824" x="827.4131" y="971.6816"/><text fill="#000000" font-family="sans-serif" font-size="14" lengthAdjust="spacing" textLength="103.4824" x="834.4131" y="993.7891">dto:SNSUserDto</text></g><g class="participant participant-head" data-participant="Repo"><rect fill="#E2E2F0" height="51.2422" rx="2.5" ry="2.5" style="stroke:#181818;stroke-width:0.5;" width="143.1514" x="1041.7695" y="71"/><text fill="#000000" font-family="sans-serif" font-size="14" lengthAdjust="spacing" textLength="64.5791" x="1081.0557" y="93.1074">repoUsers</text><text fill="#000000" font-family="sans-serif" font-size="14" lengthAdjust="spacing" textLength="129.1514" x="1048.7695" y="111.7285">:SNSUserRepository</text></g><g class="participant participant-tail" data-participant="Repo"><rect fill="#E2E2F0" height="51.2422" rx="2.5" ry="2.5" style="stroke:#181818;stroke-width:0.5;" width="143.1514" x="1041.7695" y="971.6816"/><text fill="#000000" font-family="sans-serif" font-size="14" lengthAdjust="spacing" textLength="64.5791" x="1081.0557" y="993.7891">repoUsers</text><text fill="#000000" font-family="sans-serif" font-size="14" lengthAdjust="spacing" textLength="129.1514" x="1048.7695" y="1012.4102">:SNSUserRepository</text></g><g class="participant participant-tail" data-participant="Dom"><rect fill="#E2E2F0" height="32.6211" rx="2.5" ry="2.5" style="stroke:#181818;stroke-width:0.5;" width="103.4688" x="1194.9209" y="971.6816"/><text fill="#000000" font-family="sans-serif" font-size="14" lengthAdjust="spacing" textLength="89.4688" x="1201.9209" y="993.7891">user:SNSUser</text></g><g><title>Receptionist</title><rect fill="#FFFFFF" height="821.4395" style="stroke:#181818;stroke-width:1;" width="10" x="41.5205" y="133.2422"/></g><g><title>.RegisterSNSUserView</title><rect fill="#FFFFFF" height="111.1641" style="stroke:#181818;stroke-width:1;" width="10" x="401.0864" y="156.5332"/></g><g><title>.RegisterSNSUserView</title><rect fill="#FFFFFF" height="655.6934" style="stroke:#181818;stroke-width:1;" width="10" x="401.0864" y="298.9883"/></g><g><title>.RegisterSNSUserController</title><rect fill="#FFFFFF" height="31.291" style="stroke:#181818;stroke-width:1;" width="10" x="584.9688" y="187.8242"/></g><g><title>.RegisterSNSUserController</title><rect fill="#FFFFFF" height="472.6563" style="stroke:#181818;stroke-width:1;" width="10" x="584.9688" y="450.7344"/></g><g><title>service</title><rect fill="#FFFFFF" height="410.0742" style="stroke:#181818;stroke-width:1;" width="10" x="750.9546" y="482.0254"/></g><g><title>repoUsers</title><rect fill="#FFFFFF" height="31.291" style="stroke:#181818;stroke-width:1;" width="10" x="1108.3452" y="576.8984"/></g><g><title>repoUsers</title><rect fill="#FFFFFF" height="31.291" style="stroke:#181818;stroke-width:1;" width="10" x="1108.3452" y="829.5176"/></g><g><title>user.SNSUser</title><rect fill="#FFFFFF" height="103.1641" style="stroke:#181818;stroke-width:1;" width="10" x="1241.6553" y="695.0625"/></g><g class="message" data-participant-1="Rec" data-participant-2="UI"><polygon fill="#181818" points="389.0864,152.5332,399.0864,156.5332,389.0864,160.5332,393.0864,156.5332" style="stroke:#181818;stroke-width:1;"/><line style="stroke:#181818;stroke-width:1;" x1="51.5205" x2="395.0864" y1="156.5332" y2="156.5332"/><text fill="#000000" font-family="sans-serif" font-size="13" font-weight="bold" lengthAdjust="spacing" textLength="7.23" x="58.5205" y="151.2705">1</text><text fill="#000000" font-family="sans-serif" font-size="13" lengthAdjust="spacing" textLength="187.8462" x="69.7505" y="151.2705">asks to register a new SNS User</text></g><g class="message" data-participant-1="UI" data-participant-2="Ctrl"><polygon fill="#181818" points="572.9688,183.8242,582.9688,187.8242,572.9688,191.8242,576.9688,187.8242" style="stroke:#181818;stroke-width:1;"/><line style="stroke:#181818;stroke-width:1;" x1="411.0864" x2="578.9688" y1="187.8242" y2="187.8242"/><text fill="#000000" font-family="sans-serif" font-size="13" font-weight="bold" lengthAdjust="spacing" textLength="7.23" x="418.0864" y="182.5615">2</text><text fill="#000000" font-family="sans-serif" font-size="13" lengthAdjust="spacing" textLength="33.9409" x="429.3164" y="182.5615">start()</text></g><g class="message" data-participant-1="Ctrl" data-participant-2="UI"><polygon fill="#181818" points="422.0864,215.1152,412.0864,219.1152,422.0864,223.1152,418.0864,219.1152" style="stroke:#181818;stroke-width:1;"/><line style="stroke:#181818;stroke-width:1;stroke-dasharray:2,2;" x1="416.0864" x2="588.9688" y1="219.1152" y2="219.1152"/><text fill="#000000" font-family="sans-serif" font-size="13" font-weight="bold" lengthAdjust="spacing" textLength="7.23" x="428.0864" y="213.8525">3</text><text fill="#000000" font-family="sans-serif" font-size="13" lengthAdjust="spacing" textLength="32.519" x="439.3164" y="213.8525">ready</text></g><g class="message" data-participant-1="UI" data-participant-2="Rec"><polygon fill="#181818" points="62.5205,263.6973,52.5205,267.6973,62.5205,271.6973,58.5205,267.6973" style="stroke:#181818;stroke-width:1;"/><line style="stroke:#181818;stroke-width:1;stroke-dasharray:2,2;" x1="56.5205" x2="405.0864" y1="267.6973" y2="267.6973"/><text fill="#000000" font-family="sans-serif" font-size="13" font-weight="bold" lengthAdjust="spacing" textLength="7.23" x="68.5205" y="253.7891">4</text><text fill="#000000" font-family="sans-serif" font-size="13" lengthAdjust="spacing" textLength="314.3359" x="79.7505" y="245.1436">requests user data (name, address, sex, phone, email,</text><text fill="#000000" font-family="sans-serif" font-size="13" lengthAdjust="spacing" textLength="230.4644" x="79.7505" y="262.4346">birthDate, citizenCard, snsUserNumber)</text></g><g class="message" data-participant-1="Rec" data-participant-2="UI"><polygon fill="#181818" points="389.0864,294.9883,399.0864,298.9883,389.0864,302.9883,393.0864,298.9883" style="stroke:#181818;stroke-width:1;"/><line style="stroke:#181818;stroke-width:1;" x1="51.5205" x2="395.0864" y1="298.9883" y2="298.9883"/><text fill="#000000" font-family="sans-serif" font-size="13" font-weight="bold" lengthAdjust="spacing" textLength="7.23" x="58.5205" y="293.7256">5</text><text fill="#000000" font-family="sans-serif" font-size="13" lengthAdjust="spacing" textLength="121.418" x="69.7505" y="293.7256">types requested data</text></g><path d="M416,311.9883 L416,372.9883 L580,372.9883 L580,321.9883 L570,311.9883 L416,311.9883" fill="#FEFFDD" style="stroke:#181818;stroke-width:0.5;"/><path d="M570,311.9883 L570,321.9883 L580,321.9883 L570,311.9883" fill="#FEFFDD" style="stroke:#181818;stroke-width:0.5;"/><text fill="#000000" font-family="sans-serif" font-size="13" lengthAdjust="spacing" textLength="139.4644" x="422" y="331.0166">AC20-2: Sex is optional.</text><text fill="#000000" font-family="sans-serif" font-size="13" lengthAdjust="spacing" textLength="143.7935" x="422" y="348.3076">Other fields are required.</text><text fill="#000000" font-family="sans-serif" font-size="13" lengthAdjust="spacing" textLength="92.4854" x="422" y="365.5986">UI collects data.</text><g class="message" data-participant-1="UI" data-participant-2="DTO"><polygon fill="#181818" points="815.4131,415.4434,825.4131,419.4434,815.4131,423.4434,819.4131,419.4434" style="stroke:#181818;stroke-width:1;"/><line style="stroke:#181818;stroke-width:1;" x1="411.0864" x2="821.4131" y1="419.4434" y2="419.4434"/><text fill="#000000" font-family="sans-serif" font-size="13" font-weight="bold" lengthAdjust="spacing" textLength="7.23" x="418.0864" y="405.5352">6</text><text fill="#000000" font-family="sans-serif" font-size="13" lengthAdjust="spacing" textLength="239.1797" x="429.3164" y="396.8896">create(name, address, sex, phone, email,</text><text fill="#000000" font-family="sans-serif" font-size="13" lengthAdjust="spacing" textLength="230.4644" x="429.3164" y="414.1807">birthDate, citizenCard, snsUserNumber)</text></g><rect fill="#E2E2F0" height="32.6211" rx="2.5" ry="2.5" style="stroke:#181818;stroke-width:0.5;" width="117.4824" x="827.4131" y="383.8223"/><text fill="#000000" font-family="sans-serif" font-size="14" lengthAdjust="spacing" textLength="103.4824" x="834.4131" y="405.9297">dto:SNSUserDto</text><g class="message" data-participant-1="UI" data-participant-2="Ctrl"><polygon fill="#181818" points="572.9688,446.7344,582.9688,450.7344,572.9688,454.7344,576.9688,450.7344" style="stroke:#181818;stroke-width:1;"/><line style="stroke:#181818;stroke-width:1;" x1="411.0864" x2="578.9688" y1="450.7344" y2="450.7344"/><text fill="#000000" font-family="sans-serif" font-size="13" font-weight="bold" lengthAdjust="spacing" textLength="7.23" x="418.0864" y="445.4717">7</text><text fill="#000000" font-family="sans-serif" font-size="13" lengthAdjust="spacing" textLength="124.2554" x="429.3164" y="445.4717">registerSNSUser(dto)</text></g><g class="message" data-participant-1="Ctrl" data-participant-2="Svc"><polygon fill="#181818" points="738.9546,478.0254,748.9546,482.0254,738.9546,486.0254,742.9546,482.0254" style="stroke:#181818;stroke-width:1;"/><line style="stroke:#181818;stroke-width:1;" x1="594.9688" x2="744.9546" y1="482.0254" y2="482.0254"/><text fill="#000000" font-family="sans-serif" font-size="13" font-weight="bold" lengthAdjust="spacing" textLength="7.23" x="601.9688" y="476.7627">8</text><text fill="#000000" font-family="sans-serif" font-size="13" lengthAdjust="spacing" textLength="70.0781" x="613.1987" y="476.7627">register(dto)</text></g><path d="M698,495.0254 L698,522.0254 L943,522.0254 L943,505.0254 L933,495.0254 L698,495.0254" fill="#FEFFDD" style="stroke:#181818;stroke-width:0.5;"/><path d="M933,495.0254 L933,505.0254 L943,505.0254 L933,495.0254" fill="#FEFFDD" style="stroke:#181818;stroke-width:0.5;"/><text fill="#000000" font-family="sans-serif" font-size="13" lengthAdjust="spacing" textLength="145.939" x="743.2302" y="514.0537">extracting data from DTO</text><path d="M684.4961,534.3164 L919.4814,534.3164 L919.4814,543.6074 L909.4814,553.6074 L684.4961,553.6074 L684.4961,534.3164" fill="#EEEEEE" style="stroke:#000000;stroke-width:1.5;"/><rect fill="none" height="81.873" style="stroke:#000000;stroke-width:1.5;" width="510.4248" x="684.4961" y="534.3164"/><text fill="#000000" font-family="sans-serif" font-size="13" font-weight="bold" lengthAdjust="spacing" textLength="189.9854" x="699.4961" y="549.3447">Verifying Uniqueness (AC20-3)</text><g class="message" data-participant-1="Svc" data-participant-2="Repo"><polygon fill="#181818" points="1096.3452,572.8984,1106.3452,576.8984,1096.3452,580.8984,1100.3452,576.8984" style="stroke:#181818;stroke-width:1;"/><line style="stroke:#181818;stroke-width:1;" x1="760.9546" x2="1102.3452" y1="576.8984" y2="576.8984"/><text fill="#000000" font-family="sans-serif" font-size="13" font-weight="bold" lengthAdjust="spacing" textLength="7.23" x="767.9546" y="571.6357">9</text><text fill="#000000" font-family="sans-serif" font-size="13" lengthAdjust="spacing" textLength="317.1606" x="779.1846" y="571.6357">existsUser(phone, email, citizenCard, snsUserNumber)</text></g><g class="message" data-participant-1="Repo" data-participant-2="Svc"><polygon fill="#181818" points="771.9546,604.1895,761.9546,608.1895,771.9546,612.1895,767.9546,608.1895" style="stroke:#181818;stroke-width:1;"/><line style="stroke:#181818;stroke-width:1;stroke-dasharray:2,2;" x1="765.9546" x2="1112.3452" y1="608.1895" y2="608.1895"/><text fill="#000000" font-family="sans-serif" font-size="13" font-weight="bold" lengthAdjust="spacing" textLength="14.46" x="777.9546" y="602.9268">10</text><text fill="#000000" font-family="sans-serif" font-size="13" lengthAdjust="spacing" textLength="119.9453" x="796.4146" y="602.9268">false (does not exist)</text></g><g class="message" data-participant-1="Svc" data-participant-2="Dom"><polygon fill="#181818" points="1182.9209,659.7715,1192.9209,663.7715,1182.9209,667.7715,1186.9209,663.7715" style="stroke:#181818;stroke-width:1;"/><line style="stroke:#181818;stroke-width:1;" x1="760.9546" x2="1188.9209" y1="663.7715" y2="663.7715"/><text fill="#000000" font-family="sans-serif" font-size="13" font-weight="bold" lengthAdjust="spacing" textLength="14.46" x="767.9546" y="649.8633">11</text><text fill="#000000" font-family="sans-serif" font-size="13" lengthAdjust="spacing" textLength="239.1797" x="786.4146" y="641.2178">create(name, address, sex, phone, email,</text><text fill="#000000" font-family="sans-serif" font-size="13" lengthAdjust="spacing" textLength="230.4644" x="786.4146" y="658.5088">birthDate, citizenCard, snsUserNumber)</text></g><rect fill="#E2E2F0" height="32.6211" rx="2.5" ry="2.5" style="stroke:#181818;stroke-width:0.5;" width="103.4688" x="1194.9209" y="628.1504"/><text fill="#000000" font-family="sans-serif" font-size="14" lengthAdjust="spacing" textLength="89.4688" x="1201.9209" y="650.2578">user:SNSUser</text><g class="message" data-participant-1="Svc" data-participant-2="Dom"><polygon fill="#181818" points="1229.6553,691.0625,1239.6553,695.0625,1229.6553,699.0625,1233.6553,695.0625" style="stroke:#181818;stroke-width:1;"/><line style="stroke:#181818;stroke-width:1;" x1="760.9546" x2="1235.6553" y1="695.0625" y2="695.0625"/><text fill="#000000" font-family="sans-serif" font-size="13" font-weight="bold" lengthAdjust="spacing" textLength="14.46" x="767.9546" y="689.7998">12</text><text fill="#000000" font-family="sans-serif" font-size="13" lengthAdjust="spacing" textLength="53.4663" x="786.4146" y="689.7998">validate()</text></g><path d="M1256,708.0625 L1256,769.0625 L1461,769.0625 L1461,718.0625 L1451,708.0625 L1256,708.0625" fill="#FEFFDD" style="stroke:#181818;stroke-width:0.5;"/><path d="M1451,708.0625 L1451,718.0625 L1461,718.0625 L1451,708.0625" fill="#FEFFDD" style="stroke:#181818;stroke-width:0.5;"/><text fill="#000000" font-family="sans-serif" font-size="13" lengthAdjust="spacing" textLength="142.3589" x="1262" y="727.0908">Validates required fields.</text><text fill="#000000" font-family="sans-serif" font-size="13" lengthAdjust="spacing" textLength="132.939" x="1262" y="744.3818">Validates PT format for</text><text fill="#000000" font-family="sans-serif" font-size="13" lengthAdjust="spacing" textLength="184.9707" x="1262" y="761.6729">Phone &amp; Citizen Card (AC20-1).</text><g class="message" data-participant-1="Dom" data-participant-2="Svc"><polygon fill="#181818" points="771.9546,794.2266,761.9546,798.2266,771.9546,802.2266,767.9546,798.2266" style="stroke:#181818;stroke-width:1;"/><line style="stroke:#181818;stroke-width:1;stroke-dasharray:2,2;" x1="765.9546" x2="1245.6553" y1="798.2266" y2="798.2266"/><text fill="#000000" font-family="sans-serif" font-size="13" font-weight="bold" lengthAdjust="spacing" textLength="14.46" x="777.9546" y="792.9639">13</text><text fill="#000000" font-family="sans-serif" font-size="13" lengthAdjust="spacing" textLength="13.73" x="796.4146" y="792.9639">ok</text></g><g class="message" data-participant-1="Svc" data-participant-2="Repo"><polygon fill="#181818" points="1096.3452,825.5176,1106.3452,829.5176,1096.3452,833.5176,1100.3452,829.5176" style="stroke:#181818;stroke-width:1;"/><line style="stroke:#181818;stroke-width:1;" x1="760.9546" x2="1102.3452" y1="829.5176" y2="829.5176"/><text fill="#000000" font-family="sans-serif" font-size="13" font-weight="bold" lengthAdjust="spacing" textLength="14.46" x="767.9546" y="824.2549">14</text><text fill="#000000" font-family="sans-serif" font-size="13" lengthAdjust="spacing" textLength="61.4072" x="786.4146" y="824.2549">save(user)</text></g><g class="message" data-participant-1="Repo" data-participant-2="Svc"><polygon fill="#181818" points="771.9546,856.8086,761.9546,860.8086,771.9546,864.8086,767.9546,860.8086" style="stroke:#181818;stroke-width:1;"/><line style="stroke:#181818;stroke-width:1;stroke-dasharray:2,2;" x1="765.9546" x2="1112.3452" y1="860.8086" y2="860.8086"/><text fill="#000000" font-family="sans-serif" font-size="13" font-weight="bold" lengthAdjust="spacing" textLength="14.46" x="777.9546" y="855.5459">15</text><text fill="#000000" font-family="sans-serif" font-size="13" lengthAdjust="spacing" textLength="13.73" x="796.4146" y="855.5459">ok</text></g><g class="message" data-participant-1="Svc" data-participant-2="Ctrl"><polygon fill="#181818" points="605.9688,888.0996,595.9688,892.0996,605.9688,896.0996,601.9688,892.0996" style="stroke:#181818;stroke-width:1;"/><line style="stroke:#181818;stroke-width:1;stroke-dasharray:2,2;" x1="599.9688" x2="754.9546" y1="892.0996" y2="892.0996"/><text fill="#000000" font-family="sans-serif" font-size="13" font-weight="bold" lengthAdjust="spacing" textLength="14.46" x="611.9688" y="886.8369">16</text><text fill="#000000" font-family="sans-serif" font-size="13" lengthAdjust="spacing" textLength="13.73" x="630.4287" y="886.8369">ok</text></g><g class="message" data-participant-1="Ctrl" data-participant-2="UI"><polygon fill="#181818" points="422.0864,919.3906,412.0864,923.3906,422.0864,927.3906,418.0864,923.3906" style="stroke:#181818;stroke-width:1;"/><line style="stroke:#181818;stroke-width:1;stroke-dasharray:2,2;" x1="416.0864" x2="588.9688" y1="923.3906" y2="923.3906"/><text fill="#000000" font-family="sans-serif" font-size="13" font-weight="bold" lengthAdjust="spacing" textLength="14.46" x="428.0864" y="918.1279">17</text><text fill="#000000" font-family="sans-serif" font-size="13" lengthAdjust="spacing" textLength="13.73" x="446.5464" y="918.1279">ok</text></g><g class="message" data-participant-1="UI" data-participant-2="Rec"><polygon fill="#181818" points="57.5205,950.6816,47.5205,954.6816,57.5205,958.6816,53.5205,954.6816" style="stroke:#181818;stroke-width:1;"/><line style="stroke:#181818;stroke-width:1;stroke-dasharray:2,2;" x1="51.5205" x2="405.0864" y1="954.6816" y2="954.6816"/><text fill="#000000" font-family="sans-serif" font-size="13" font-weight="bold" lengthAdjust="spacing" textLength="14.46" x="63.5205" y="949.4189">18</text><text fill="#000000" font-family="sans-serif" font-size="13" lengthAdjust="spacing" textLength="151.0107" x="81.9805" y="949.4189">informs operation success</text></g><!--SRC=[jLMxSjim4Epv5JSk4ieZUHodK-6PH6hIs1x9SkK61ayIOWfW052MylMv0v-WBAT9KFW1xZrsiGTuvNE4rVBc6YQmm8ro7YqixvQmSlH7kfoF4b5weylT2zea4T8R2nSBb5XuPJJXBq0u2fL98QnNKXL2UxYODiae5wTwKlWMaAiV7mDdHdjhyXnjWC-ypUC0mkoLn6SzhIEMrKQ0B_U3FZ9l6jpScu2PFzx768k5OO3hSYveoodYUgpf5IQEAGdKWAkiPXVaKNlXCUYHq0-Ot19Zc1BYrO4tO1kD1MXyQvNk8acVX28eZgbJfFDKDnrrY219-3XfibiKsJ79CCQ4F0JXFXZpgqJd7N3ha0al8DLYXsCGMMRHkJ4uF8oXs1fDcxWJAXy_wnTb_NPEESSWbLU_KS-4pGYh7JT-5umnwjTc1dtg_bYWQyfZ5ah7V86MDlIFLPkj1xFcNQZNjzdDzUHc2aiyW79WWkz4VjK2xlsM2AqLvfa3OJ6KKXQp3a9zIFQK9FfSllg2EWjbgmOgqSaSbvVKj2H9FVv3WNerweEriV5Jikeee0Qds92eZloMFTwBxiAYK1w4ThVLr-nvklTo78O01WiFtd82lQdiiRPcTmACHMlMv-gOlavXfHKTj2QvOBP5-Hh1DjQK1JoXLUiZb-c1qoh1wAGhfXjCN1YYZGTY7OHDetFuKFjXojwOqbmFluPAarRejSWTGfePCZ4HhpeupTaRW9EifDbGhXdxYoKWy_BT8PI6-vUVvD3a7V84-8-kxBfw4hdAghw-bqw5WrcKEJR7ymK-rVCuEjCcDRclac0QOrfv-AOSgXTF_ti8NdLxzMt28rwF_TLVu0-Fi3Ps9pp_UXVxmF8Hkrab5h1Q3UdHQVfs2lgRJB_pZOcjt_D7U2fYuH_ezU5nrXAJy-PtOeyfNzzdb3qnti3AvriAaKbKjRkeUc6zaFQ6YP-Y6lpnMwGq7mTVvcW5t-VWIYd9RSDt96fH_W40]--></g></svg>