<svg xmlns="http://www.w3.org/2000/svg" xmlns:xlink="http://www.w3.org/1999/xlink" contentStyleType="text/css" data-diagram-type="SEQUENCE" height="414px" preserveAspectRatio="none" style="width:473px;height:414px;background:#FFFFFF;" version="1.1" viewBox="0 0 473 414" width="473px" zoomAndPan="magnify"><title>US40 - System Sequence Diagram</title><defs/><g><text fill="#000000" font-family="sans-serif" font-size="14" font-weight="bold" lengthAdjust="spacing" textLength="227.2061" x="122.2134" y="30.1074">US40 - System Sequence Diagram</text><g><title>Nurse</title><rect fill="#FFFFFF" height="179.7461" style="stroke:#181818;stroke-width:1;" width="10" x="21.6724" y="133.2422"/></g><g><title>.System</title><rect fill="#FFFFFF" height="31.291" style="stroke:#181818;stroke-width:1;" width="10" x="430.3501" y="156.5332"/></g><g><title>.System</title><rect fill="#FFFFFF" height="31.291" style="stroke:#181818;stroke-width:1;" width="10" x="430.3501" y="219.1152"/></g><g><title>.System</title><rect fill="#FFFFFF" height="31.291" style="stroke:#181818;stroke-width:1;" width="10" x="430.3501" y="281.6973"/></g><g><title>Nurse</title><rect fill="#000000" fill-opacity="0.00000" height="207.7461" width="8" x="22.6724" y="123.2422"/><line style="stroke:#181818;stroke-width:0.5;stroke-dasharray:5,5;" x1="26" x2="26" y1="123.2422" y2="330.9883"/></g><g><title>.System</title><rect fill="#000000" fill-opacity="0.00000" height="207.7461" width="8" x="431.3501" y="123.2422"/><line style="stroke:#181818;stroke-width:0.5;stroke-dasharray:5,5;" x1="435.0674" x2="435.0674" y1="123.2422" y2="330.9883"/></g><g class="participant participant-head" data-participant="Nur"><text fill="#000000" font-family="sans-serif" font-size="14" lengthAdjust="spacing" textLength="37.3447" x="5" y="119.7285">Nurse</text><ellipse cx="26.6724" cy="53.1211" fill="#E2E2F0" rx="8" ry="8" style="stroke:#181818;stroke-width:0.5;"/><path d="M26.6724,61.1211 L26.6724,88.1211 M13.6724,69.1211 L39.6724,69.1211 M26.6724,88.1211 L13.6724,103.1211 M26.6724,88.1211 L39.6724,103.1211" fill="none" style="stroke:#181818;stroke-width:0.5;"/></g><g class="participant participant-tail" data-participant="Nur"><text fill="#000000" font-family="sans-serif" font-size="14" lengthAdjust="spacing" textLength="37.3447" x="5" y="345.0957">Nurse</text><ellipse cx="26.6724" cy="357.1094" fill="#E2E2F0" rx="8" ry="8" style="stroke:#181818;stroke-width:0.5;"/><path d="M26.6724,365.1094 L26.6724,392.1094 M13.6724,373.1094 L39.6724,373.1094 M26.6724,392.1094 L13.6724,407.1094 M26.6724,392.1094 L39.6724,407.1094" fill="none" style="stroke:#181818;stroke-width:0.5;"/></g><g class="participant participant-head" data-participant="System"><rect fill="#E2E2F0" height="32.6211" rx="2.5" ry="2.5" style="stroke:#181818;stroke-width:0.5;" width="64.5654" x="403.0674" y="89.6211"/><text fill="#000000" font-family="sans-serif" font-size="14" lengthAdjust="spacing" textLength="50.5654" x="410.0674" y="111.7285">:System</text></g><g class="participant participant-tail" data-participant="System"><rect fill="#E2E2F0" height="32.6211" rx="2.5" ry="2.5" style="stroke:#181818;stroke-width:0.5;" width="64.5654" x="403.0674" y="329.9883"/><text fill="#000000" font-family="sans-serif" font-size="14" lengthAdjust="spacing" textLength="50.5654" x="410.0674" y="352.0957">:System</text></g><g><title>Nurse</title><rect fill="#FFFFFF" height="179.7461" style="stroke:#181818;stroke-width:1;" width="10" x="21.6724" y="133.2422"/></g><g><title>.System</title><rect fill="#FFFFFF" height="31.291" style="stroke:#181818;stroke-width:1;" width="10" x="430.3501" y="156.5332"/></g><g><title>.System</title><rect fill="#FFFFFF" height="31.291" style="stroke:#181818;stroke-width:1;" width="10" x="430.3501" y="219.1152"/></g><g><title>.System</title><rect fill="#FFFFFF" height="31.291" style="stroke:#181818;stroke-width:1;" width="10" x="430.3501" y="281.6973"/></g><g class="message" data-participant-1="Nur" data-participant-2="System"><polygon fill="#181818" points="418.3501,152.5332,428.3501,156.5332,418.3501,160.5332,422.3501,156.5332" style="stroke:#181818;stroke-width:1;"/><line style="stroke:#181818;stroke-width:1;" x1="31.6724" x2="424.3501" y1="156.5332" y2="156.5332"/><text fill="#000000" font-family="sans-serif" font-size="13" font-weight="bold" lengthAdjust="spacing" textLength="7.23" x="38.6724" y="151.2705">1</text><text fill="#000000" font-family="sans-serif" font-size="13" lengthAdjust="spacing" textLength="204.4771" x="49.9023" y="151.2705">asks to consult the waiting room list</text></g><g class="message" data-participant-1="System" data-participant-2="Nur"><polygon fill="#181818" points="42.6724,183.8242,32.6724,187.8242,42.6724,191.8242,38.6724,187.8242" style="stroke:#181818;stroke-width:1;"/><line style="stroke:#181818;stroke-width:1;stroke-dasharray:2,2;" x1="36.6724" x2="434.3501" y1="187.8242" y2="187.8242"/><text fill="#000000" font-family="sans-serif" font-size="13" font-weight="bold" lengthAdjust="spacing" textLength="7.23" x="48.6724" y="182.5615">2</text><text fill="#000000" font-family="sans-serif" font-size="13" lengthAdjust="spacing" textLength="270.9941" x="59.9023" y="182.5615">requests the selection of the vaccination center</text></g><g class="message" data-participant-1="Nur" data-participant-2="System"><polygon fill="#181818" points="418.3501,215.1152,428.3501,219.1152,418.3501,223.1152,422.3501,219.1152" style="stroke:#181818;stroke-width:1;"/><line style="stroke:#181818;stroke-width:1;" x1="31.6724" x2="424.3501" y1="219.1152" y2="219.1152"/><text fill="#000000" font-family="sans-serif" font-size="13" font-weight="bold" lengthAdjust="spacing" textLength="7.23" x="38.6724" y="213.8525">3</text><text fill="#000000" font-family="sans-serif" font-size="13" lengthAdjust="spacing" textLength="231.9688" x="49.9023" y="213.8525">selects the requested vaccination center</text></g><g class="message" data-participant-1="System" data-participant-2="Nur"><polygon fill="#181818" points="42.6724,246.4063,32.6724,250.4063,42.6724,254.4063,38.6724,250.4063" style="stroke:#181818;stroke-width:1;"/><line style="stroke:#181818;stroke-width:1;stroke-dasharray:2,2;" x1="36.6724" x2="434.3501" y1="250.4063" y2="250.4063"/><text fill="#000000" font-family="sans-serif" font-size="13" font-weight="bold" lengthAdjust="spacing" textLength="7.23" x="48.6724" y="245.1436">4</text><text fill="#000000" font-family="sans-serif" font-size="13" lengthAdjust="spacing" textLength="363.4478" x="59.9023" y="245.1436">shows the waiting list and requests confirmation to refresh/view</text></g><g class="message" data-participant-1="Nur" data-participant-2="System"><polygon fill="#181818" points="418.3501,277.6973,428.3501,281.6973,418.3501,285.6973,422.3501,281.6973" style="stroke:#181818;stroke-width:1;"/><line style="stroke:#181818;stroke-width:1;" x1="31.6724" x2="424.3501" y1="281.6973" y2="281.6973"/><text fill="#000000" font-family="sans-serif" font-size="13" font-weight="bold" lengthAdjust="spacing" textLength="7.23" x="38.6724" y="276.4346">5</text><text fill="#000000" font-family="sans-serif" font-size="13" lengthAdjust="spacing" textLength="100.4199" x="49.9023" y="276.4346">confirms the view</text></g><g class="message" data-participant-1="System" data-participant-2="Nur"><polygon fill="#181818" points="37.6724,308.9883,27.6724,312.9883,37.6724,316.9883,33.6724,312.9883" style="stroke:#181818;stroke-width:1;"/><line style="stroke:#181818;stroke-width:1;stroke-dasharray:2,2;" x1="31.6724" x2="434.3501" y1="312.9883" y2="312.9883"/><text fill="#000000" font-family="sans-serif" font-size="13" font-weight="bold" lengthAdjust="spacing" textLength="7.23" x="43.6724" y="307.7256">6</text><text fill="#000000" font-family="sans-serif" font-size="13" lengthAdjust="spacing" textLength="208.0889" x="54.9023" y="307.7256">displays the sorted list of SNS users</text></g><!--SRC=[RL2zJiGm3Dxp55Rt2WQc3apCjrGyW4dTgqMR5DjfTMzFcbG2xbYYnFv-OsmpmNl_yWmjz3SrMg2dhqJ14xmnNWKNXyaYUkCDZI26yWvf-I1nBi-ZG7D9ejG0AkIRMr6CFQyO39gkofPblHPMLJlGBX_GlfxBBkC-5Io2Zq7JR60JmOvi7AuWCIumivexmxQPcFaTo95QJGjSQQPi4GF4iGmsz9u3bf6dOFHeMpcLVuhHy2_ntbgdkEkVc4T2m33yfCfbHfQb2kLoGgEGJayRq_uGvGHNpOAujnnOrnblPzieHzHYcllsbnwIagXp0_t-wMy0]--></g></svg>