<svg xmlns="http://www.w3.org/2000/svg" xmlns:xlink="http://www.w3.org/1999/xlink" contentStyleType="text/css" data-diagram-type="SEQUENCE" height="790px" preserveAspectRatio="none" style="width:1919px;height:790px;background:#FFFFFF;" version="1.1" viewBox="0 0 1919 790" width="1919px" zoomAndPan="magnify"><title>US40 - SD</title><defs/><g><text fill="#000000" font-family="sans-serif" font-size="14" font-weight="bold" lengthAdjust="spacing" textLength="66.9102" x="927.5669" y="30.1074">US40 - SD</text><g><title>Nurse</title><rect fill="#FFFFFF" height="565.6074" style="stroke:#181818;stroke-width:1;" width="10" x="21.6724" y="133.2422"/></g><g><title>.ConsultWaitingRoomView</title><rect fill="#FFFFFF" height="31.291" style="stroke:#181818;stroke-width:1;" width="10" x="413.6685" y="156.5332"/></g><g><title>.ConsultWaitingRoomView</title><rect fill="#FFFFFF" height="470.7344" style="stroke:#181818;stroke-width:1;" width="10" x="413.6685" y="219.1152"/></g><g><title>.ConsultWaitingRoomController</title><rect fill="#FFFFFF" height="408.1523" style="stroke:#181818;stroke-width:1;" width="10" x="618.5713" y="250.4063"/></g><g><title>.Nurse</title><rect fill="#FFFFFF" height="137.4941" style="stroke:#181818;stroke-width:1;" width="10" x="776.5693" y="281.6973"/></g><g><title>service.CheckInService</title><rect fill="#FFFFFF" height="173.7852" style="stroke:#181818;stroke-width:1;" width="10" x="967.7451" y="453.4824"/></g><g><title>factory.RepositoryFactory</title><rect fill="#FFFFFF" height="31.291" style="stroke:#181818;stroke-width:1;" width="10" x="1144.6309" y="312.9883"/></g><g><title>repo.CheckInRepository</title><rect fill="#FFFFFF" height="31.291" style="stroke:#181818;stroke-width:1;" width="10" x="1323.4717" y="487.7734"/></g><rect fill="none" height="62.9121" style="stroke:#000000;stroke-width:1.5;" width="1030.4365" x="882.6074" y="534.0645"/><g><title>Nurse</title><rect fill="#000000" fill-opacity="0.00000" height="584.6074" width="8" x="22.6724" y="123.2422"/><line style="stroke:#181818;stroke-width:0.5;stroke-dasharray:5,5;" x1="26" x2="26" y1="123.2422" y2="707.8496"/></g><g><title>.ConsultWaitingRoomView</title><rect fill="#000000" fill-opacity="0.00000" height="584.6074" width="8" x="414.6685" y="123.2422"/><line style="stroke:#181818;stroke-width:0.5;stroke-dasharray:5,5;" x1="417.8032" x2="417.8032" y1="123.2422" y2="707.8496"/></g><g><title>.ConsultWaitingRoomController</title><rect fill="#000000" fill-opacity="0.00000" height="584.6074" width="8" x="619.5713" y="123.2422"/><line style="stroke:#181818;stroke-width:0.5;stroke-dasharray:5,5;" x1="623.5337" x2="623.5337" y1="123.2422" y2="707.8496"/></g><g><title>.Nurse</title><rect fill="#000000" fill-opacity="0.00000" height="584.6074" width="8" x="777.5693" y="123.2422"/><line style="stroke:#181818;stroke-width:0.5;stroke-dasharray:5,5;" x1="780.9521" x2="780.9521" y1="123.2422" y2="707.8496"/></g><g><title>service.CheckInService</title><rect fill="#000000" fill-opacity="0.00000" height="323.7598" width="8" x="968.7451" y="384.0898"/><line style="stroke:#181818;stroke-width:0.5;stroke-dasharray:5,5;" x1="972.6074" x2="972.6074" y1="384.0898" y2="707.8496"/></g><g><title>factory.RepositoryFactory</title><rect fill="#000000" fill-opacity="0.00000" height="584.6074" width="8" x="1145.6309" y="123.2422"/><line style="stroke:#181818;stroke-width:0.5;stroke-dasharray:5,5;" x1="1148.8828" x2="1148.8828" y1="123.2422" y2="707.8496"/></g><g><title>repo.CheckInRepository</title><rect fill="#000000" fill-opacity="0.00000" height="584.6074" width="8" x="1324.4717" y="123.2422"/><line style="stroke:#181818;stroke-width:0.5;stroke-dasharray:5,5;" x1="1328.3789" x2="1328.3789" y1="123.2422" y2="707.8496"/></g><g><title>dto.WaitingRoomDTO</title><rect fill="#000000" fill-opacity="0.00000" height="122.6836" width="8" x="1492.0298" y="585.166"/><line style="stroke:#181818;stroke-width:0.5;stroke-dasharray:5,5;" x1="1495.5645" x2="1495.5645" y1="585.166" y2="707.8496"/></g><g class="participant participant-head" data-participant="NurseActor"><text fill="#000000" font-family="sans-serif" font-size="14" lengthAdjust="spacing" textLength="37.3447" x="5" y="119.7285">Nurse</text><ellipse cx="26.6724" cy="53.1211" fill="#E2E2F0" rx="8" ry="8" style="stroke:#181818;stroke-width:0.5;"/><path d="M26.6724,61.1211 L26.6724,88.1211 M13.6724,69.1211 L39.6724,69.1211 M26.6724,88.1211 L13.6724,103.1211 M26.6724,88.1211 L39.6724,103.1211" fill="none" style="stroke:#181818;stroke-width:0.5;"/></g><g class="participant participant-tail" data-participant="NurseActor"><text fill="#000000" font-family="sans-serif" font-size="14" lengthAdjust="spacing" textLength="37.3447" x="5" y="721.957">Nurse</text><ellipse cx="26.6724" cy="733.9707" fill="#E2E2F0" rx="8" ry="8" style="stroke:#181818;stroke-width:0.5;"/><path d="M26.6724,741.9707 L26.6724,768.9707 M13.6724,749.9707 L39.6724,749.9707 M26.6724,768.9707 L13.6724,783.9707 M26.6724,768.9707 L39.6724,783.9707" fill="none" style="stroke:#181818;stroke-width:0.5;"/></g><g class="participant participant-head" data-participant="UI"><rect fill="#E2E2F0" height="32.6211" rx="2.5" ry="2.5" style="stroke:#181818;stroke-width:0.5;" width="179.7305" x="328.8032" y="89.6211"/><text fill="#000000" font-family="sans-serif" font-size="14" lengthAdjust="spacing" textLength="165.7305" x="335.8032" y="111.7285">:ConsultWaitingRoomView</text></g><g class="participant participant-tail" data-participant="UI"><rect fill="#E2E2F0" height="32.6211" rx="2.5" ry="2.5" style="stroke:#181818;stroke-width:0.5;" width="179.7305" x="328.8032" y="706.8496"/><text fill="#000000" font-family="sans-serif" font-size="14" lengthAdjust="spacing" textLength="165.7305" x="335.8032" y="728.957">:ConsultWaitingRoomView</text></g><g class="participant participant-head" data-participant="Ctrl"><rect fill="#E2E2F0" height="32.6211" rx="2.5" ry="2.5" style="stroke:#181818;stroke-width:0.5;" width="210.0752" x="518.5337" y="89.6211"/><text fill="#000000" font-family="sans-serif" font-size="14" lengthAdjust="spacing" textLength="196.0752" x="525.5337" y="111.7285">:ConsultWaitingRoomController</text></g><g class="participant participant-tail" data-participant="Ctrl"><rect fill="#E2E2F0" height="32.6211" rx="2.5" ry="2.5" style="stroke:#181818;stroke-width:0.5;" width="210.0752" x="518.5337" y="706.8496"/><text fill="#000000" font-family="sans-serif" font-size="14" lengthAdjust="spacing" textLength="196.0752" x="525.5337" y="728.957">:ConsultWaitingRoomController</text></g><g class="participant participant-head" data-participant="Nurse"><rect fill="#E2E2F0" height="32.6211" rx="2.5" ry="2.5" style="stroke:#181818;stroke-width:0.5;" width="55.2344" x="753.9521" y="89.6211"/><text fill="#000000" font-family="sans-serif" font-size="14" lengthAdjust="spacing" textLength="41.2344" x="760.9521" y="111.7285">:Nurse</text></g><g class="participant participant-tail" data-participant="Nurse"><rect fill="#E2E2F0" height="32.6211" rx="2.5" ry="2.5" style="stroke:#181818;stroke-width:0.5;" width="55.2344" x="753.9521" y="706.8496"/><text fill="#000000" font-family="sans-serif" font-size="14" lengthAdjust="spacing" textLength="41.2344" x="760.9521" y="728.957">:Nurse</text></g><g class="participant participant-tail" data-participant="Service"><rect fill="#E2E2F0" height="32.6211" rx="2.5" ry="2.5" style="stroke:#181818;stroke-width:0.5;" width="160.2754" x="892.6074" y="706.8496"/><text fill="#000000" font-family="sans-serif" font-size="14" lengthAdjust="spacing" textLength="146.2754" x="899.6074" y="728.957">service:CheckInService</text></g><g class="participant participant-head" data-participant="Factory"><rect fill="#E2E2F0" height="32.6211" rx="2.5" ry="2.5" style="stroke:#181818;stroke-width:0.5;" width="173.4961" x="1062.8828" y="89.6211"/><text fill="#000000" font-family="sans-serif" font-size="14" lengthAdjust="spacing" textLength="159.4961" x="1069.8828" y="111.7285">factory:RepositoryFactory</text></g><g class="participant participant-tail" data-participant="Factory"><rect fill="#E2E2F0" height="32.6211" rx="2.5" ry="2.5" style="stroke:#181818;stroke-width:0.5;" width="173.4961" x="1062.8828" y="706.8496"/><text fill="#000000" font-family="sans-serif" font-size="14" lengthAdjust="spacing" textLength="159.4961" x="1069.8828" y="728.957">factory:RepositoryFactory</text></g><g class="participant participant-head" data-participant="Repo"><rect fill="#E2E2F0" height="32.6211" rx="2.5" ry="2.5" style="stroke:#181818;stroke-width:0.5;" width="164.1855" x="1246.3789" y="89.6211"/><text fill="#000000" font-family="sans-serif" font-size="14" lengthAdjust="spacing" textLength="150.1855" x="1253.3789" y="111.7285">repo:CheckInRepository</text></g><g class="participant participant-tail" data-participant="Repo"><rect fill="#E2E2F0" height="32.6211" rx="2.5" ry="2.5" style="stroke:#181818;stroke-width:0.5;" width="164.1855" x="1246.3789" y="706.8496"/><text fill="#000000" font-family="sans-serif" font-size="14" lengthAdjust="spacing" textLength="150.1855" x="1253.3789" y="728.957">repo:CheckInRepository</text></g><g class="participant participant-tail" data-participant="DTO"><rect fill="#E2E2F0" height="32.6211" rx="2.5" ry="2.5" style="stroke:#181818;stroke-width:0.5;" width="150.9307" x="1420.5645" y="706.8496"/><text fill="#000000" font-family="sans-serif" font-size="14" lengthAdjust="spacing" textLength="136.9307" x="1427.5645" y="728.957">dto:WaitingRoomDTO</text></g><g><title>Nurse</title><rect fill="#FFFFFF" height="565.6074" style="stroke:#181818;stroke-width:1;" width="10" x="21.6724" y="133.2422"/></g><g><title>.ConsultWaitingRoomView</title><rect fill="#FFFFFF" height="31.291" style="stroke:#181818;stroke-width:1;" width="10" x="413.6685" y="156.5332"/></g><g><title>.ConsultWaitingRoomView</title><rect fill="#FFFFFF" height="470.7344" style="stroke:#181818;stroke-width:1;" width="10" x="413.6685" y="219.1152"/></g><g><title>.ConsultWaitingRoomController</title><rect fill="#FFFFFF" height="408.1523" style="stroke:#181818;stroke-width:1;" width="10" x="618.5713" y="250.4063"/></g><g><title>.Nurse</title><rect fill="#FFFFFF" height="137.4941" style="stroke:#181818;stroke-width:1;" width="10" x="776.5693" y="281.6973"/></g><g><title>service.CheckInService</title><rect fill="#FFFFFF" height="173.7852" style="stroke:#181818;stroke-width:1;" width="10" x="967.7451" y="453.4824"/></g><g><title>factory.RepositoryFactory</title><rect fill="#FFFFFF" height="31.291" style="stroke:#181818;stroke-width:1;" width="10" x="1144.6309" y="312.9883"/></g><g><title>repo.CheckInRepository</title><rect fill="#FFFFFF" height="31.291" style="stroke:#181818;stroke-width:1;" width="10" x="1323.4717" y="487.7734"/></g><g class="message" data-participant-1="NurseActor" data-participant-2="UI"><polygon fill="#181818" points="401.6685,152.5332,411.6685,156.5332,401.6685,160.5332,405.6685,156.5332" style="stroke:#181818;stroke-width:1;"/><line style="stroke:#181818;stroke-width:1;" x1="31.6724" x2="407.6685" y1="156.5332" y2="156.5332"/><text fill="#000000" font-family="sans-serif" font-size="13" font-weight="bold" lengthAdjust="spacing" textLength="7.23" x="38.6724" y="151.2705">1</text><text fill="#000000" font-family="sans-serif" font-size="13" lengthAdjust="spacing" textLength="204.4771" x="49.9023" y="151.2705">asks to consult the waiting room list</text></g><g class="message" data-participant-1="UI" data-participant-2="NurseActor"><polygon fill="#181818" points="42.6724,183.8242,32.6724,187.8242,42.6724,191.8242,38.6724,187.8242" style="stroke:#181818;stroke-width:1;"/><line style="stroke:#181818;stroke-width:1;stroke-dasharray:2,2;" x1="36.6724" x2="417.6685" y1="187.8242" y2="187.8242"/><text fill="#000000" font-family="sans-serif" font-size="13" font-weight="bold" lengthAdjust="spacing" textLength="7.23" x="48.6724" y="182.5615">2</text><text fill="#000000" font-family="sans-serif" font-size="13" lengthAdjust="spacing" textLength="270.9941" x="59.9023" y="182.5615">requests the selection of the vaccination center</text></g><g class="message" data-participant-1="NurseActor" data-participant-2="UI"><polygon fill="#181818" points="401.6685,215.1152,411.6685,219.1152,401.6685,223.1152,405.6685,219.1152" style="stroke:#181818;stroke-width:1;"/><line style="stroke:#181818;stroke-width:1;" x1="31.6724" x2="407.6685" y1="219.1152" y2="219.1152"/><text fill="#000000" font-family="sans-serif" font-size="13" font-weight="bold" lengthAdjust="spacing" textLength="7.23" x="38.6724" y="213.8525">3</text><text fill="#000000" font-family="sans-serif" font-size="13" lengthAdjust="spacing" textLength="231.9688" x="49.9023" y="213.8525">selects the requested vaccination center</text></g><g class="message" data-participant-1="UI" data-participant-2="Ctrl"><polygon fill="#181818" points="606.5713,246.4063,616.5713,250.4063,606.5713,254.4063,610.5713,250.4063" style="stroke:#181818;stroke-width:1;"/><line style="stroke:#181818;stroke-width:1;" x1="423.6685" x2="612.5713" y1="250.4063" y2="250.4063"/><text fill="#000000" font-family="sans-serif" font-size="13" font-weight="bold" lengthAdjust="spacing" textLength="7.23" x="430.6685" y="245.1436">4</text><text fill="#000000" font-family="sans-serif" font-size="13" lengthAdjust="spacing" textLength="161.1162" x="441.8984" y="245.1436">getWaitingRoomList(center)</text></g><g class="message" data-participant-1="Ctrl" data-participant-2="Nurse"><polygon fill="#181818" points="764.5693,277.6973,774.5693,281.6973,764.5693,285.6973,768.5693,281.6973" style="stroke:#181818;stroke-width:1;"/><line style="stroke:#181818;stroke-width:1;" x1="628.5713" x2="770.5693" y1="281.6973" y2="281.6973"/><text fill="#000000" font-family="sans-serif" font-size="13" font-weight="bold" lengthAdjust="spacing" textLength="7.23" x="635.5713" y="276.4346">5</text><text fill="#000000" font-family="sans-serif" font-size="13" lengthAdjust="spacing" textLength="117.7681" x="646.8013" y="276.4346">getCheckInService()</text></g><g class="message" data-participant-1="Nurse" data-participant-2="Factory"><polygon fill="#181818" points="1132.6309,308.9883,1142.6309,312.9883,1132.6309,316.9883,1136.6309,312.9883" style="stroke:#181818;stroke-width:1;"/><line style="stroke:#181818;stroke-width:1;" x1="786.5693" x2="1138.6309" y1="312.9883" y2="312.9883"/><text fill="#000000" font-family="sans-serif" font-size="13" font-weight="bold" lengthAdjust="spacing" textLength="7.23" x="793.5693" y="307.7256">6</text><text fill="#000000" font-family="sans-serif" font-size="13" lengthAdjust="spacing" textLength="136.5571" x="804.7993" y="307.7256">getCheckInRepository()</text></g><g class="message" data-participant-1="Factory" data-participant-2="Nurse"><polygon fill="#181818" points="797.5693,340.2793,787.5693,344.2793,797.5693,348.2793,793.5693,344.2793" style="stroke:#181818;stroke-width:1;"/><line style="stroke:#181818;stroke-width:1;stroke-dasharray:2,2;" x1="791.5693" x2="1148.6309" y1="344.2793" y2="344.2793"/><text fill="#000000" font-family="sans-serif" font-size="13" font-weight="bold" lengthAdjust="spacing" textLength="7.23" x="803.5693" y="339.0166">7</text><text fill="#000000" font-family="sans-serif" font-size="13" lengthAdjust="spacing" textLength="26.019" x="814.7993" y="339.0166">repo</text></g><g class="message" data-participant-1="Nurse" data-participant-2="Service"><polygon fill="#181818" points="880.6074,371.5703,890.6074,375.5703,880.6074,379.5703,884.6074,375.5703" style="stroke:#181818;stroke-width:1;"/><line style="stroke:#181818;stroke-width:1;stroke-dasharray:2,2;" x1="786.5693" x2="886.6074" y1="375.5703" y2="375.5703"/><text fill="#000000" font-family="sans-serif" font-size="13" font-weight="bold" lengthAdjust="spacing" textLength="7.23" x="793.5693" y="370.3076">8</text><text fill="#000000" font-family="sans-serif" font-size="13" lengthAdjust="spacing" textLength="70.8081" x="804.7993" y="370.3076">create(repo)</text></g><rect fill="#E2E2F0" height="32.6211" rx="2.5" ry="2.5" style="stroke:#181818;stroke-width:0.5;" width="160.2754" x="892.6074" y="352.2793"/><text fill="#000000" font-family="sans-serif" font-size="14" lengthAdjust="spacing" textLength="146.2754" x="899.6074" y="374.3867">service:CheckInService</text><g class="message" data-participant-1="Nurse" data-participant-2="Ctrl"><polygon fill="#181818" points="639.5713,415.1914,629.5713,419.1914,639.5713,423.1914,635.5713,419.1914" style="stroke:#181818;stroke-width:1;"/><line style="stroke:#181818;stroke-width:1;stroke-dasharray:2,2;" x1="633.5713" x2="780.5693" y1="419.1914" y2="419.1914"/><text fill="#000000" font-family="sans-serif" font-size="13" font-weight="bold" lengthAdjust="spacing" textLength="7.23" x="645.5713" y="413.9287">9</text><text fill="#000000" font-family="sans-serif" font-size="13" lengthAdjust="spacing" textLength="41.1772" x="656.8013" y="413.9287">service</text></g><g class="message" data-participant-1="Ctrl" data-participant-2="Service"><polygon fill="#181818" points="955.7451,449.4824,965.7451,453.4824,955.7451,457.4824,959.7451,453.4824" style="stroke:#181818;stroke-width:1;"/><line style="stroke:#181818;stroke-width:1;" x1="628.5713" x2="961.7451" y1="453.4824" y2="453.4824"/><text fill="#000000" font-family="sans-serif" font-size="13" font-weight="bold" lengthAdjust="spacing" textLength="14.46" x="635.5713" y="448.2197">10</text><text fill="#000000" font-family="sans-serif" font-size="13" lengthAdjust="spacing" textLength="161.1162" x="654.0313" y="448.2197">getWaitingRoomList(center)</text></g><path d="M982,432.1914 L982,459.1914 L1251,459.1914 L1251,442.1914 L1241,432.1914 L982,432.1914" fill="#FEFFDD" style="stroke:#181818;stroke-width:0.5;"/><path d="M1241,432.1914 L1241,442.1914 L1251,442.1914 L1241,432.1914" fill="#FEFFDD" style="stroke:#181818;stroke-width:0.5;"/><text fill="#000000" font-family="sans-serif" font-size="13" lengthAdjust="spacing" textLength="248.5107" x="988" y="451.2197">AC40-1: Logic to sort by arrival time (FIFO)</text><g class="message" data-participant-1="Service" data-participant-2="Repo"><polygon fill="#181818" points="1311.4717,483.7734,1321.4717,487.7734,1311.4717,491.7734,1315.4717,487.7734" style="stroke:#181818;stroke-width:1;"/><line style="stroke:#181818;stroke-width:1;" x1="977.7451" x2="1317.4717" y1="487.7734" y2="487.7734"/><text fill="#000000" font-family="sans-serif" font-size="13" font-weight="bold" lengthAdjust="spacing" textLength="14.46" x="984.7451" y="482.5107">11</text><text fill="#000000" font-family="sans-serif" font-size="13" lengthAdjust="spacing" textLength="119.939" x="1003.2051" y="482.5107">findByCenter(center)</text></g><g class="message" data-participant-1="Repo" data-participant-2="Service"><polygon fill="#181818" points="988.7451,515.0645,978.7451,519.0645,988.7451,523.0645,984.7451,519.0645" style="stroke:#181818;stroke-width:1;"/><line style="stroke:#181818;stroke-width:1;stroke-dasharray:2,2;" x1="982.7451" x2="1327.4717" y1="519.0645" y2="519.0645"/><text fill="#000000" font-family="sans-serif" font-size="13" font-weight="bold" lengthAdjust="spacing" textLength="14.46" x="994.7451" y="513.8018">12</text><text fill="#000000" font-family="sans-serif" font-size="13" lengthAdjust="spacing" textLength="78.7617" x="1013.2051" y="513.8018">list&lt;CheckIn&gt;</text></g><path d="M882.6074,534.0645 L955.042,534.0645 L955.042,543.3555 L945.042,553.3555 L882.6074,553.3555 L882.6074,534.0645" fill="#EEEEEE" style="stroke:#000000;stroke-width:1.5;"/><rect fill="none" height="62.9121" style="stroke:#000000;stroke-width:1.5;" width="1030.4365" x="882.6074" y="534.0645"/><text fill="#000000" font-family="sans-serif" font-size="13" font-weight="bold" lengthAdjust="spacing" textLength="27.4346" x="897.6074" y="549.0928">loop</text><text fill="#000000" font-family="sans-serif" font-size="11" font-weight="bold" lengthAdjust="spacing" textLength="125.9199" x="970.042" y="547.9346">[for each checkIn in list]</text><g class="message" data-participant-1="Service" data-participant-2="DTO"><polygon fill="#181818" points="1408.5645,572.6465,1418.5645,576.6465,1408.5645,580.6465,1412.5645,576.6465" style="stroke:#181818;stroke-width:1;"/><line style="stroke:#181818;stroke-width:1;" x1="977.7451" x2="1414.5645" y1="576.6465" y2="576.6465"/><text fill="#000000" font-family="sans-serif" font-size="13" font-weight="bold" lengthAdjust="spacing" textLength="14.46" x="984.7451" y="571.3838">13</text><text fill="#000000" font-family="sans-serif" font-size="13" lengthAdjust="spacing" textLength="222.5044" x="1003.2051" y="571.3838">create(name, snsNumber, arrivalTime)</text></g><rect fill="#E2E2F0" height="32.6211" rx="2.5" ry="2.5" style="stroke:#181818;stroke-width:0.5;" width="150.9307" x="1420.5645" y="553.3555"/><text fill="#000000" font-family="sans-serif" font-size="14" lengthAdjust="spacing" textLength="136.9307" x="1427.5645" y="575.4629">dto:WaitingRoomDTO</text><path d="M1576.4653,561.5205 L1576.4653,588.5205 L1897.4653,588.5205 L1897.4653,571.5205 L1887.4653,561.5205 L1576.4653,561.5205" fill="#FEFFDD" style="stroke:#181818;stroke-width:0.5;"/><path d="M1887.4653,561.5205 L1887.4653,571.5205 L1897.4653,571.5205 L1887.4653,561.5205" fill="#FEFFDD" style="stroke:#181818;stroke-width:0.5;"/><text fill="#000000" font-family="sans-serif" font-size="13" lengthAdjust="spacing" textLength="300.5488" x="1582.4653" y="580.5488">Extracts name and snsNumber from SNSUser entity</text><g class="message" data-participant-1="Service" data-participant-2="Ctrl"><polygon fill="#181818" points="639.5713,623.2676,629.5713,627.2676,639.5713,631.2676,635.5713,627.2676" style="stroke:#181818;stroke-width:1;"/><line style="stroke:#181818;stroke-width:1;stroke-dasharray:2,2;" x1="633.5713" x2="971.7451" y1="627.2676" y2="627.2676"/><text fill="#000000" font-family="sans-serif" font-size="13" font-weight="bold" lengthAdjust="spacing" textLength="14.46" x="645.5713" y="622.0049">14</text><text fill="#000000" font-family="sans-serif" font-size="13" lengthAdjust="spacing" textLength="136.5381" x="664.0313" y="622.0049">list&lt;WaitingRoomDTO&gt;</text></g><g class="message" data-participant-1="Ctrl" data-participant-2="UI"><polygon fill="#181818" points="434.6685,654.5586,424.6685,658.5586,434.6685,662.5586,430.6685,658.5586" style="stroke:#181818;stroke-width:1;"/><line style="stroke:#181818;stroke-width:1;stroke-dasharray:2,2;" x1="428.6685" x2="622.5713" y1="658.5586" y2="658.5586"/><text fill="#000000" font-family="sans-serif" font-size="13" font-weight="bold" lengthAdjust="spacing" textLength="14.46" x="440.6685" y="653.2959">15</text><text fill="#000000" font-family="sans-serif" font-size="13" lengthAdjust="spacing" textLength="136.5381" x="459.1284" y="653.2959">list&lt;WaitingRoomDTO&gt;</text></g><g class="message" data-participant-1="UI" data-participant-2="NurseActor"><polygon fill="#181818" points="42.6724,685.8496,32.6724,689.8496,42.6724,693.8496,38.6724,689.8496" style="stroke:#181818;stroke-width:1;"/><line style="stroke:#181818;stroke-width:1;stroke-dasharray:2,2;" x1="36.6724" x2="417.6685" y1="689.8496" y2="689.8496"/><text fill="#000000" font-family="sans-serif" font-size="13" font-weight="bold" lengthAdjust="spacing" textLength="14.46" x="48.6724" y="684.5869">16</text><text fill="#000000" font-family="sans-serif" font-size="13" lengthAdjust="spacing" textLength="339.5361" x="67.1323" y="684.5869">displays the waiting list (Name, SNS Number, Arrival Time)</text></g><!--SRC=[XLJ1RXen4BtxAqPS2b5GKoadgqAY94X84KWXD6VZdGKhYxsr3GdVqqC-X1_hsDvbTn5gE80zlFSyCsziiVT6IAyEmYCOpGJjzNwtHikOLxv0M2tlxs08omV626WizEPxwx07ma5SZKEKbS9w9LKfj8SUdnZjzeL_5SehlNasPlTRuNlah6PVOYdYhIaAj94nyRQuu5oaqFtNeJqeYNooHVasqykqZUXgtSNdiQuZVyRIE1MMqnI9b6hTfLY2rleDBUB3jWlElE6jwXvU5X58lx6bgVUjLh9c3SCHDOmJ_Cs1Do1Jhy1l4TwJ95ZIX48vprOp61AXeNEm-6UFphl8S5WWdMSqc3m63a9AfKKCITGUhnwUQ4cYqiFi6ZUSFufsSTXWsz4dIg-VK0F6li5YxL6VFaz_3MG6ec6dJmC79LBst-kk1p6eQuggNLVxWvHmm5GSQCCQSmXP0uQDO32oLg1efNfpmq5Q95_w0J1e8L9rrOXTbYAY3m8m67L0wqAKPa44iq6Rf4-Ldkkg3lnllxIX-R1gi_KSnfFxk-4F3azcesIO26UiX_KHXBKqI0LujKFeJsVJnO1Luk6Sq0SEkTBPh-Cawfxbmr_judaiucVLm15ZXJ4bv3GFAEGMP8g3qcdeW3wjWwZGLlUqsE4jEEtcyKsvhTDyeIm7aTekxl73Mn4cBT10wAnXGcvfofVpvOfQ3vIvyaU6EcDDaMTpOlhT2pTY6PwlMlq8L2PKK_uLAxv2vFVZXrghUdGTUHw-dTgLXSgL3Bjhzp1JhYp4qNLkRZWI-lFO8oeDwYQDAozJbrevqDlv3m00]--></g></svg>