<svg xmlns="http://www.w3.org/2000/svg" xmlns:xlink="http://www.w3.org/1999/xlink" contentStyleType="text/css" height="511px" preserveAspectRatio="none" style="width:571px;height:511px;background:#FFFFFF;" version="1.1" viewBox="0 0 571 511" width="571px" zoomAndPan="magnify"><title>US13 - System Sequence Diagram</title><defs/><g><text fill="#000000" font-family="sans-serif" font-size="14" font-weight="bold" lengthAdjust="spacing" textLength="227.2061" x="171.0652" y="30.1074">US13 - System Sequence Diagram</text><rect fill="#FFFFFF" height="285.9102" style="stroke:#181818;stroke-width:1.0;" width="10" x="61.3481" y="133.2422"/><rect fill="#FFFFFF" height="65.873" style="stroke:#181818;stroke-width:1.0;" width="10" x="529.9985" y="156.5332"/><rect fill="#FFFFFF" height="31.291" style="stroke:#181818;stroke-width:1.0;" width="10" x="529.9985" y="253.6973"/><rect fill="#FFFFFF" height="31.291" style="stroke:#181818;stroke-width:1.0;" width="10" x="529.9985" y="316.2793"/><rect fill="#FFFFFF" height="31.291" style="stroke:#181818;stroke-width:1.0;" width="10" x="529.9985" y="378.8613"/><line style="stroke:#181818;stroke-width:0.5;stroke-dasharray:5.0,5.0;" x1="66" x2="66" y1="123.2422" y2="428.1523"/><line style="stroke:#181818;stroke-width:0.5;stroke-dasharray:5.0,5.0;" x1="534.6606" x2="534.6606" y1="123.2422" y2="428.1523"/><text fill="#000000" font-family="sans-serif" font-size="14" lengthAdjust="spacing" textLength="116.6963" x="5" y="119.7285">DGS Administrator</text><ellipse cx="66.3481" cy="53.1211" fill="#E2E2F0" rx="8" ry="8" style="stroke:#181818;stroke-width:0.5;"/><path d="M66.3481,61.1211 L66.3481,88.1211 M53.3481,69.1211 L79.3481,69.1211 M66.3481,88.1211 L53.3481,103.1211 M66.3481,88.1211 L79.3481,103.1211 " fill="none" style="stroke:#181818;stroke-width:0.5;"/><text fill="#000000" font-family="sans-serif" font-size="14" lengthAdjust="spacing" textLength="116.6963" x="5" y="442.2598">DGS Administrator</text><ellipse cx="66.3481" cy="454.2734" fill="#E2E2F0" rx="8" ry="8" style="stroke:#181818;stroke-width:0.5;"/><path d="M66.3481,462.2734 L66.3481,489.2734 M53.3481,470.2734 L79.3481,470.2734 M66.3481,489.2734 L53.3481,504.2734 M66.3481,489.2734 L79.3481,504.2734 " fill="none" style="stroke:#181818;stroke-width:0.5;"/><rect fill="#E2E2F0" height="32.6211" rx="2.5" ry="2.5" style="stroke:#181818;stroke-width:0.5;" width="60.6758" x="504.6606" y="89.6211"/><text fill="#000000" font-family="sans-serif" font-size="14" lengthAdjust="spacing" textLength="46.6758" x="511.6606" y="111.7285">System</text><rect fill="#E2E2F0" height="32.6211" rx="2.5" ry="2.5" style="stroke:#181818;stroke-width:0.5;" width="60.6758" x="504.6606" y="427.1523"/><text fill="#000000" font-family="sans-serif" font-size="14" lengthAdjust="spacing" textLength="46.6758" x="511.6606" y="449.2598">System</text><rect fill="#FFFFFF" height="285.9102" style="stroke:#181818;stroke-width:1.0;" width="10" x="61.3481" y="133.2422"/><rect fill="#FFFFFF" height="65.873" style="stroke:#181818;stroke-width:1.0;" width="10" x="529.9985" y="156.5332"/><rect fill="#FFFFFF" height="31.291" style="stroke:#181818;stroke-width:1.0;" width="10" x="529.9985" y="253.6973"/><rect fill="#FFFFFF" height="31.291" style="stroke:#181818;stroke-width:1.0;" width="10" x="529.9985" y="316.2793"/><rect fill="#FFFFFF" height="31.291" style="stroke:#181818;stroke-width:1.0;" width="10" x="529.9985" y="378.8613"/><polygon fill="#181818" points="517.9985,152.5332,527.9985,156.5332,517.9985,160.5332,521.9985,156.5332" style="stroke:#181818;stroke-width:1.0;"/><line style="stroke:#181818;stroke-width:1.0;" x1="71.3481" x2="523.9985" y1="156.5332" y2="156.5332"/><text fill="#000000" font-family="sans-serif" font-size="13" font-weight="bold" lengthAdjust="spacing" textLength="7.23" x="78.3481" y="151.2705">1</text><text fill="#000000" font-family="sans-serif" font-size="13" lengthAdjust="spacing" textLength="207.3779" x="89.5781" y="151.2705">asks to register a vaccination center</text><polygon fill="#181818" points="82.3481,218.4063,72.3481,222.4063,82.3481,226.4063,78.3481,222.4063" style="stroke:#181818;stroke-width:1.0;"/><line style="stroke:#181818;stroke-width:1.0;stroke-dasharray:2.0,2.0;" x1="76.3481" x2="533.9985" y1="222.4063" y2="222.4063"/><text fill="#000000" font-family="sans-serif" font-size="13" font-weight="bold" lengthAdjust="spacing" textLength="7.23" x="88.3481" y="199.8525">2</text><text fill="#000000" font-family="sans-serif" font-size="13" lengthAdjust="spacing" textLength="118.5171" x="99.5781" y="182.5615">requests center data</text><text fill="#000000" font-family="sans-serif" font-size="13" lengthAdjust="spacing" textLength="226.897" x="99.5781" y="199.8525">(name, address, phone, email, website,</text><text fill="#000000" font-family="sans-serif" font-size="13" lengthAdjust="spacing" textLength="332.376" x="99.5781" y="217.1436">maxVaccinesPerHour, openingHours, closingHours, type)</text><polygon fill="#181818" points="517.9985,249.6973,527.9985,253.6973,517.9985,257.6973,521.9985,253.6973" style="stroke:#181818;stroke-width:1.0;"/><line style="stroke:#181818;stroke-width:1.0;" x1="71.3481" x2="523.9985" y1="253.6973" y2="253.6973"/><text fill="#000000" font-family="sans-serif" font-size="13" font-weight="bold" lengthAdjust="spacing" textLength="7.23" x="78.3481" y="248.4346">3</text><text fill="#000000" font-family="sans-serif" font-size="13" lengthAdjust="spacing" textLength="161.1606" x="89.5781" y="248.4346">types requested center data</text><polygon fill="#181818" points="82.3481,280.9883,72.3481,284.9883,82.3481,288.9883,78.3481,284.9883" style="stroke:#181818;stroke-width:1.0;"/><line style="stroke:#181818;stroke-width:1.0;stroke-dasharray:2.0,2.0;" x1="76.3481" x2="533.9985" y1="284.9883" y2="284.9883"/><text fill="#000000" font-family="sans-serif" font-size="13" font-weight="bold" lengthAdjust="spacing" textLength="7.23" x="88.3481" y="279.7256">4</text><text fill="#000000" font-family="sans-serif" font-size="13" lengthAdjust="spacing" textLength="423.4204" x="99.5781" y="279.7256">if Community Center, shows vaccine types and asks to select at least one</text><polygon fill="#181818" points="517.9985,312.2793,527.9985,316.2793,517.9985,320.2793,521.9985,316.2793" style="stroke:#181818;stroke-width:1.0;"/><line style="stroke:#181818;stroke-width:1.0;" x1="71.3481" x2="523.9985" y1="316.2793" y2="316.2793"/><text fill="#000000" font-family="sans-serif" font-size="13" font-weight="bold" lengthAdjust="spacing" textLength="7.23" x="78.3481" y="311.0166">5</text><text fill="#000000" font-family="sans-serif" font-size="13" lengthAdjust="spacing" textLength="131.4917" x="89.5781" y="311.0166">selects vaccine type(s)</text><polygon fill="#181818" points="82.3481,343.5703,72.3481,347.5703,82.3481,351.5703,78.3481,347.5703" style="stroke:#181818;stroke-width:1.0;"/><line style="stroke:#181818;stroke-width:1.0;stroke-dasharray:2.0,2.0;" x1="76.3481" x2="533.9985" y1="347.5703" y2="347.5703"/><text fill="#000000" font-family="sans-serif" font-size="13" font-weight="bold" lengthAdjust="spacing" textLength="7.23" x="88.3481" y="342.3076">6</text><text fill="#000000" font-family="sans-serif" font-size="13" lengthAdjust="spacing" textLength="235.5742" x="99.5781" y="342.3076">shows all data and requests confirmation</text><polygon fill="#181818" points="517.9985,374.8613,527.9985,378.8613,517.9985,382.8613,521.9985,378.8613" style="stroke:#181818;stroke-width:1.0;"/><line style="stroke:#181818;stroke-width:1.0;" x1="71.3481" x2="523.9985" y1="378.8613" y2="378.8613"/><text fill="#000000" font-family="sans-serif" font-size="13" font-weight="bold" lengthAdjust="spacing" textLength="7.23" x="78.3481" y="373.5986">7</text><text fill="#000000" font-family="sans-serif" font-size="13" lengthAdjust="spacing" textLength="99.7153" x="89.5781" y="373.5986">confirms the data</text><polygon fill="#181818" points="82.3481,406.1523,72.3481,410.1523,82.3481,414.1523,78.3481,410.1523" style="stroke:#181818;stroke-width:1.0;"/><line style="stroke:#181818;stroke-width:1.0;stroke-dasharray:2.0,2.0;" x1="76.3481" x2="533.9985" y1="410.1523" y2="410.1523"/><text fill="#000000" font-family="sans-serif" font-size="13" font-weight="bold" lengthAdjust="spacing" textLength="7.23" x="88.3481" y="404.8896">8</text><text fill="#000000" font-family="sans-serif" font-size="13" lengthAdjust="spacing" textLength="151.0107" x="99.5781" y="404.8896">informs operation success</text><!--SRC=[TL71JiCm3BttAwnTsAIM2N7R0Gbj4XoHAZZjugNU6f4u9NOtzlTaJM4WbLFYbvVdv-URLhMJrNBPEMJjlRirmI-5FdfYGrLZyH3H5shL4RpMT_TGGNqM9G_rI8BDIC9U0ngrHrI2m4FDlTzHB8g4XmYppLCDZustR4KZ9cW6A1afEengZUsI3vZb7iDhlWuIMJhJY-60wc4ah1BtNK03H3eaUOg0S4HZBAFQm6284rYCxglqSL1O9NuQH5H61ZIe25kUCteg0PicaaW9NHiurUJHkX9Ej1EhL6xPu-VRq8RaXU9pw6C9eIEsVBWKwQTnGQwLdZjQJDY_uF9jXfhVRYPCspsiW_SzMpt3Ug2M86quoJWqZOB8pKyoGewC0YeuGj6q99emabb_TUQoc32H-w5pERDBgskOWVSs-Y7xYIRZSxBLqhypyZvSA2dDc7SelJ5f6SKN]--></g></svg>