<svg xmlns="http://www.w3.org/2000/svg" xmlns:xlink="http://www.w3.org/1999/xlink" contentStyleType="text/css" height="1197px" preserveAspectRatio="none" style="width:1751px;height:1197px;background:#FFFFFF;" version="1.1" viewBox="0 0 1751 1197" width="1751px" zoomAndPan="magnify"><defs/><g><rect fill="#FFFFFF" height="1011.6035" style="stroke:#181818;stroke-width:1.0;" width="10" x="61.3481" y="93.6211"/><rect fill="#FFFFFF" height="253.6191" style="stroke:#181818;stroke-width:1.0;" width="10" x="438.9541" y="116.9121"/><rect fill="#FFFFFF" height="79.873" style="stroke:#181818;stroke-width:1.0;" width="10" x="438.9541" y="433.1133"/><rect fill="#FFFFFF" height="551.9473" style="stroke:#181818;stroke-width:1.0;" width="10" x="438.9541" y="544.2773"/><rect fill="#FFFFFF" height="156.4551" style="stroke:#181818;stroke-width:1.0;" width="10" x="678.8911" y="148.2031"/><rect fill="#FFFFFF" height="489.3652" style="stroke:#181818;stroke-width:1.0;" width="10" x="678.8911" y="575.5684"/><rect fill="#FFFFFF" height="93.873" style="stroke:#181818;stroke-width:1.0;" width="10" x="900.9316" y="179.4941"/><rect fill="#FFFFFF" height="426.7832" style="stroke:#181818;stroke-width:1.0;" width="10" x="900.9316" y="606.8594"/><rect fill="#FFFFFF" height="42.291" style="stroke:#181818;stroke-width:1.0;" width="10" x="905.9316" y="890.4785"/><rect fill="#FFFFFF" height="31.291" style="stroke:#181818;stroke-width:1.0;" width="10" x="1100.0205" y="971.0605"/><rect fill="#FFFFFF" height="31.291" style="stroke:#181818;stroke-width:1.0;" width="10" x="1292.4922" y="210.7852"/><rect fill="#FFFFFF" height="31.291" style="stroke:#181818;stroke-width:1.0;" width="10" x="1292.4922" y="727.0234"/><rect fill="#FFFFFF" height="31.291" style="stroke:#181818;stroke-width:1.0;" width="10" x="1472.1294" y="664.4414"/><rect fill="none" height="144.4551" style="stroke:#000000;stroke-width:1.5;" width="767.4521" x="806.4458" y="621.8594"/><line style="stroke:#181818;stroke-width:0.5;stroke-dasharray:5.0,5.0;" x1="66" x2="66" y1="83.6211" y2="1114.2246"/><line style="stroke:#181818;stroke-width:0.5;stroke-dasharray:5.0,5.0;" x1="443.5718" x2="443.5718" y1="83.6211" y2="1114.2246"/><line style="stroke:#181818;stroke-width:0.5;stroke-dasharray:5.0,5.0;" x1="683.3364" x2="683.3364" y1="83.6211" y2="1114.2246"/><line style="stroke:#181818;stroke-width:0.5;stroke-dasharray:5.0,5.0;" x1="905.4458" x2="905.4458" y1="83.6211" y2="1114.2246"/><line style="stroke:#181818;stroke-width:0.5;stroke-dasharray:5.0,5.0;" x1="1104.4175" x2="1104.4175" y1="83.6211" y2="1114.2246"/><line style="stroke:#181818;stroke-width:0.5;stroke-dasharray:5.0,5.0;" x1="1296.6235" x2="1296.6235" y1="83.6211" y2="1114.2246"/><line style="stroke:#181818;stroke-width:0.5;stroke-dasharray:5.0,5.0;" x1="1476.3608" x2="1476.3608" y1="475.4043" y2="1114.2246"/><line style="stroke:#181818;stroke-width:0.5;stroke-dasharray:5.0,5.0;" x1="1658.8979" x2="1658.8979" y1="844.8965" y2="1114.2246"/><text fill="#000000" font-family="sans-serif" font-size="14" lengthAdjust="spacing" textLength="116.6963" x="5" y="80.1074">DGS Administrator</text><ellipse cx="66.3481" cy="13.5" fill="#E2E2F0" rx="8" ry="8" style="stroke:#181818;stroke-width:0.5;"/><path d="M66.3481,21.5 L66.3481,48.5 M53.3481,29.5 L79.3481,29.5 M66.3481,48.5 L53.3481,63.5 M66.3481,48.5 L79.3481,63.5 " fill="none" style="stroke:#181818;stroke-width:0.5;"/><text fill="#000000" font-family="sans-serif" font-size="14" lengthAdjust="spacing" textLength="116.6963" x="5" y="1128.332">DGS Administrator</text><ellipse cx="66.3481" cy="1140.3457" fill="#E2E2F0" rx="8" ry="8" style="stroke:#181818;stroke-width:0.5;"/><path d="M66.3481,1148.3457 L66.3481,1175.3457 M53.3481,1156.3457 L79.3481,1156.3457 M66.3481,1175.3457 L53.3481,1190.3457 M66.3481,1175.3457 L79.3481,1190.3457 " fill="none" style="stroke:#181818;stroke-width:0.5;"/><rect fill="#E2E2F0" height="32.6211" rx="2.5" ry="2.5" style="stroke:#181818;stroke-width:0.5;" width="214.7646" x="336.5718" y="50"/><text fill="#000000" font-family="sans-serif" font-size="14" lengthAdjust="spacing" textLength="200.7646" x="343.5718" y="72.1074">:RegisterVaccinationCenterView</text><rect fill="#E2E2F0" height="32.6211" rx="2.5" ry="2.5" style="stroke:#181818;stroke-width:0.5;" width="214.7646" x="336.5718" y="1113.2246"/><text fill="#000000" font-family="sans-serif" font-size="14" lengthAdjust="spacing" textLength="200.7646" x="343.5718" y="1135.332">:RegisterVaccinationCenterView</text><rect fill="#E2E2F0" height="32.6211" rx="2.5" ry="2.5" style="stroke:#181818;stroke-width:0.5;" width="245.1094" x="561.3364" y="50"/><text fill="#000000" font-family="sans-serif" font-size="14" lengthAdjust="spacing" textLength="231.1094" x="568.3364" y="72.1074">:RegisterVaccinationCenterController</text><rect fill="#E2E2F0" height="32.6211" rx="2.5" ry="2.5" style="stroke:#181818;stroke-width:0.5;" width="245.1094" x="561.3364" y="1113.2246"/><text fill="#000000" font-family="sans-serif" font-size="14" lengthAdjust="spacing" textLength="231.1094" x="568.3364" y="1135.332">:RegisterVaccinationCenterController</text><rect fill="#E2E2F0" height="51.2422" rx="2.5" ry="2.5" style="stroke:#181818;stroke-width:0.5;" width="178.9717" x="816.4458" y="31.3789"/><text fill="#000000" font-family="sans-serif" font-size="14" lengthAdjust="spacing" textLength="44.3447" x="883.7593" y="53.4863">service</text><text fill="#000000" font-family="sans-serif" font-size="14" lengthAdjust="spacing" textLength="164.9717" x="823.4458" y="72.1074">:VaccinationCenterService</text><rect fill="#E2E2F0" height="51.2422" rx="2.5" ry="2.5" style="stroke:#181818;stroke-width:0.5;" width="178.9717" x="816.4458" y="1113.2246"/><text fill="#000000" font-family="sans-serif" font-size="14" lengthAdjust="spacing" textLength="44.3447" x="883.7593" y="1135.332">service</text><text fill="#000000" font-family="sans-serif" font-size="14" lengthAdjust="spacing" textLength="164.9717" x="823.4458" y="1153.9531">:VaccinationCenterService</text><rect fill="#E2E2F0" height="51.2422" rx="2.5" ry="2.5" style="stroke:#181818;stroke-width:0.5;" width="199.2061" x="1005.4175" y="31.3789"/><text fill="#000000" font-family="sans-serif" font-size="14" lengthAdjust="spacing" textLength="77.041" x="1066.5" y="53.4863">repoCenters</text><text fill="#000000" font-family="sans-serif" font-size="14" lengthAdjust="spacing" textLength="185.2061" x="1012.4175" y="72.1074">:VaccinationCenterRepository</text><rect fill="#E2E2F0" height="51.2422" rx="2.5" ry="2.5" style="stroke:#181818;stroke-width:0.5;" width="199.2061" x="1005.4175" y="1113.2246"/><text fill="#000000" font-family="sans-serif" font-size="14" lengthAdjust="spacing" textLength="77.041" x="1066.5" y="1135.332">repoCenters</text><text fill="#000000" font-family="sans-serif" font-size="14" lengthAdjust="spacing" textLength="185.2061" x="1012.4175" y="1153.9531">:VaccinationCenterRepository</text><rect fill="#E2E2F0" height="51.2422" rx="2.5" ry="2.5" style="stroke:#181818;stroke-width:0.5;" width="165.7373" x="1214.6235" y="31.3789"/><text fill="#000000" font-family="sans-serif" font-size="14" lengthAdjust="spacing" textLength="84.8271" x="1255.0786" y="53.4863">repoVaccines</text><text fill="#000000" font-family="sans-serif" font-size="14" lengthAdjust="spacing" textLength="151.7373" x="1221.6235" y="72.1074">:VaccineTypeRepository</text><rect fill="#E2E2F0" height="51.2422" rx="2.5" ry="2.5" style="stroke:#181818;stroke-width:0.5;" width="165.7373" x="1214.6235" y="1113.2246"/><text fill="#000000" font-family="sans-serif" font-size="14" lengthAdjust="spacing" textLength="84.8271" x="1255.0786" y="1135.332">repoVaccines</text><text fill="#000000" font-family="sans-serif" font-size="14" lengthAdjust="spacing" textLength="151.7373" x="1221.6235" y="1153.9531">:VaccineTypeRepository</text><rect fill="#E2E2F0" height="32.6211" rx="2.5" ry="2.5" style="stroke:#181818;stroke-width:0.5;" width="173.5371" x="1390.3608" y="1113.2246"/><text fill="#000000" font-family="sans-serif" font-size="14" lengthAdjust="spacing" textLength="159.5371" x="1397.3608" y="1135.332">dto:VaccinationCenterDto</text><rect fill="#E2E2F0" height="32.6211" rx="2.5" ry="2.5" style="stroke:#181818;stroke-width:0.5;" width="171.1992" x="1573.8979" y="1113.2246"/><text fill="#000000" font-family="sans-serif" font-size="14" lengthAdjust="spacing" textLength="157.1992" x="1580.8979" y="1135.332">center:VaccinationCenter</text><rect fill="#FFFFFF" height="1011.6035" style="stroke:#181818;stroke-width:1.0;" width="10" x="61.3481" y="93.6211"/><rect fill="#FFFFFF" height="253.6191" style="stroke:#181818;stroke-width:1.0;" width="10" x="438.9541" y="116.9121"/><rect fill="#FFFFFF" height="79.873" style="stroke:#181818;stroke-width:1.0;" width="10" x="438.9541" y="433.1133"/><rect fill="#FFFFFF" height="551.9473" style="stroke:#181818;stroke-width:1.0;" width="10" x="438.9541" y="544.2773"/><rect fill="#FFFFFF" height="156.4551" style="stroke:#181818;stroke-width:1.0;" width="10" x="678.8911" y="148.2031"/><rect fill="#FFFFFF" height="489.3652" style="stroke:#181818;stroke-width:1.0;" width="10" x="678.8911" y="575.5684"/><rect fill="#FFFFFF" height="93.873" style="stroke:#181818;stroke-width:1.0;" width="10" x="900.9316" y="179.4941"/><rect fill="#FFFFFF" height="426.7832" style="stroke:#181818;stroke-width:1.0;" width="10" x="900.9316" y="606.8594"/><rect fill="#FFFFFF" height="42.291" style="stroke:#181818;stroke-width:1.0;" width="10" x="905.9316" y="890.4785"/><rect fill="#FFFFFF" height="31.291" style="stroke:#181818;stroke-width:1.0;" width="10" x="1100.0205" y="971.0605"/><rect fill="#FFFFFF" height="31.291" style="stroke:#181818;stroke-width:1.0;" width="10" x="1292.4922" y="210.7852"/><rect fill="#FFFFFF" height="31.291" style="stroke:#181818;stroke-width:1.0;" width="10" x="1292.4922" y="727.0234"/><rect fill="#FFFFFF" height="31.291" style="stroke:#181818;stroke-width:1.0;" width="10" x="1472.1294" y="664.4414"/><polygon fill="#181818" points="426.9541,112.9121,436.9541,116.9121,426.9541,120.9121,430.9541,116.9121" style="stroke:#181818;stroke-width:1.0;"/><line style="stroke:#181818;stroke-width:1.0;" x1="71.3481" x2="432.9541" y1="116.9121" y2="116.9121"/><text fill="#000000" font-family="sans-serif" font-size="13" font-weight="bold" lengthAdjust="spacing" textLength="7.23" x="78.3481" y="111.6494">1</text><text fill="#000000" font-family="sans-serif" font-size="13" lengthAdjust="spacing" textLength="207.3779" x="89.5781" y="111.6494">asks to register a vaccination center</text><polygon fill="#181818" points="666.8911,144.2031,676.8911,148.2031,666.8911,152.2031,670.8911,148.2031" style="stroke:#181818;stroke-width:1.0;"/><line style="stroke:#181818;stroke-width:1.0;" x1="448.9541" x2="672.8911" y1="148.2031" y2="148.2031"/><text fill="#000000" font-family="sans-serif" font-size="13" font-weight="bold" lengthAdjust="spacing" textLength="7.23" x="455.9541" y="142.9404">2</text><text fill="#000000" font-family="sans-serif" font-size="13" lengthAdjust="spacing" textLength="33.9409" x="467.1841" y="142.9404">start()</text><polygon fill="#181818" points="888.9316,175.4941,898.9316,179.4941,888.9316,183.4941,892.9316,179.4941" style="stroke:#181818;stroke-width:1.0;"/><line style="stroke:#181818;stroke-width:1.0;" x1="688.8911" x2="894.9316" y1="179.4941" y2="179.4941"/><text fill="#000000" font-family="sans-serif" font-size="13" font-weight="bold" lengthAdjust="spacing" textLength="7.23" x="695.8911" y="174.2314">3</text><text fill="#000000" font-family="sans-serif" font-size="13" lengthAdjust="spacing" textLength="108.3799" x="707.1211" y="174.2314">getVaccineTypes()</text><polygon fill="#181818" points="1280.4922,206.7852,1290.4922,210.7852,1280.4922,214.7852,1284.4922,210.7852" style="stroke:#181818;stroke-width:1.0;"/><line style="stroke:#181818;stroke-width:1.0;" x1="910.9316" x2="1286.4922" y1="210.7852" y2="210.7852"/><text fill="#000000" font-family="sans-serif" font-size="13" font-weight="bold" lengthAdjust="spacing" textLength="7.23" x="917.9316" y="205.5225">4</text><text fill="#000000" font-family="sans-serif" font-size="13" lengthAdjust="spacing" textLength="41.1772" x="929.1616" y="205.5225">getAll()</text><polygon fill="#181818" points="921.9316,238.0762,911.9316,242.0762,921.9316,246.0762,917.9316,242.0762" style="stroke:#181818;stroke-width:1.0;"/><line style="stroke:#181818;stroke-width:1.0;stroke-dasharray:2.0,2.0;" x1="915.9316" x2="1296.4922" y1="242.0762" y2="242.0762"/><text fill="#000000" font-family="sans-serif" font-size="13" font-weight="bold" lengthAdjust="spacing" textLength="7.23" x="927.9316" y="236.8135">5</text><text fill="#000000" font-family="sans-serif" font-size="13" lengthAdjust="spacing" textLength="110.5635" x="939.1616" y="236.8135">List&lt;VaccineType&gt;</text><polygon fill="#181818" points="699.8911,269.3672,689.8911,273.3672,699.8911,277.3672,695.8911,273.3672" style="stroke:#181818;stroke-width:1.0;"/><line style="stroke:#181818;stroke-width:1.0;stroke-dasharray:2.0,2.0;" x1="693.8911" x2="904.9316" y1="273.3672" y2="273.3672"/><text fill="#000000" font-family="sans-serif" font-size="13" font-weight="bold" lengthAdjust="spacing" textLength="7.23" x="705.8911" y="268.1045">6</text><text fill="#000000" font-family="sans-serif" font-size="13" lengthAdjust="spacing" textLength="110.5635" x="717.1211" y="268.1045">List&lt;VaccineType&gt;</text><polygon fill="#181818" points="459.9541,300.6582,449.9541,304.6582,459.9541,308.6582,455.9541,304.6582" style="stroke:#181818;stroke-width:1.0;"/><line style="stroke:#181818;stroke-width:1.0;stroke-dasharray:2.0,2.0;" x1="453.9541" x2="682.8911" y1="304.6582" y2="304.6582"/><text fill="#000000" font-family="sans-serif" font-size="13" font-weight="bold" lengthAdjust="spacing" textLength="7.23" x="465.9541" y="299.3955">7</text><text fill="#000000" font-family="sans-serif" font-size="13" lengthAdjust="spacing" textLength="110.5635" x="477.1841" y="299.3955">List&lt;VaccineType&gt;</text><polygon fill="#181818" points="82.3481,366.5313,72.3481,370.5313,82.3481,374.5313,78.3481,370.5313" style="stroke:#181818;stroke-width:1.0;"/><line style="stroke:#181818;stroke-width:1.0;stroke-dasharray:2.0,2.0;" x1="76.3481" x2="442.9541" y1="370.5313" y2="370.5313"/><text fill="#000000" font-family="sans-serif" font-size="13" font-weight="bold" lengthAdjust="spacing" textLength="7.23" x="88.3481" y="347.9775">8</text><text fill="#000000" font-family="sans-serif" font-size="13" lengthAdjust="spacing" textLength="118.5171" x="99.5781" y="330.6865">requests center data</text><text fill="#000000" font-family="sans-serif" font-size="13" lengthAdjust="spacing" textLength="226.897" x="99.5781" y="347.9775">(name, address, phone, email, website,</text><text fill="#000000" font-family="sans-serif" font-size="13" lengthAdjust="spacing" textLength="332.376" x="99.5781" y="365.2686">maxVaccinesPerHour, openingHours, closingHours, type)</text><polygon fill="#181818" points="82.3481,397.8223,72.3481,401.8223,82.3481,405.8223,78.3481,401.8223" style="stroke:#181818;stroke-width:1.0;"/><line style="stroke:#181818;stroke-width:1.0;stroke-dasharray:2.0,2.0;" x1="76.3481" x2="442.9541" y1="401.8223" y2="401.8223"/><text fill="#000000" font-family="sans-serif" font-size="13" font-weight="bold" lengthAdjust="spacing" textLength="7.23" x="88.3481" y="396.5596">9</text><text fill="#000000" font-family="sans-serif" font-size="13" lengthAdjust="spacing" textLength="242.0361" x="99.5781" y="396.5596">if Community Center, select vaccine types</text><polygon fill="#181818" points="426.9541,429.1133,436.9541,433.1133,426.9541,437.1133,430.9541,433.1133" style="stroke:#181818;stroke-width:1.0;"/><line style="stroke:#181818;stroke-width:1.0;" x1="71.3481" x2="432.9541" y1="433.1133" y2="433.1133"/><text fill="#000000" font-family="sans-serif" font-size="13" font-weight="bold" lengthAdjust="spacing" textLength="14.46" x="78.3481" y="427.8506">10</text><text fill="#000000" font-family="sans-serif" font-size="13" lengthAdjust="spacing" textLength="289.7832" x="96.8081" y="427.8506">types all requested data and selects vaccine types</text><polygon fill="#181818" points="1378.3608,477.6953,1388.3608,481.6953,1378.3608,485.6953,1382.3608,481.6953" style="stroke:#181818;stroke-width:1.0;"/><line style="stroke:#181818;stroke-width:1.0;stroke-dasharray:2.0,2.0;" x1="448.9541" x2="1384.3608" y1="481.6953" y2="481.6953"/><text fill="#000000" font-family="sans-serif" font-size="13" font-weight="bold" lengthAdjust="spacing" textLength="14.46" x="455.9541" y="467.7871">11</text><text fill="#000000" font-family="sans-serif" font-size="13" lengthAdjust="spacing" textLength="263.0278" x="474.4141" y="459.1416">create(name, address, phone, email, website,</text><text fill="#000000" font-family="sans-serif" font-size="13" lengthAdjust="spacing" textLength="307.8169" x="474.4141" y="476.4326">maxPerHour, opening, closing, type, vaccineTypeIds)</text><rect fill="#E2E2F0" height="32.6211" rx="2.5" ry="2.5" style="stroke:#181818;stroke-width:0.5;" width="173.5371" x="1390.3608" y="446.0742"/><text fill="#000000" font-family="sans-serif" font-size="14" lengthAdjust="spacing" textLength="159.5371" x="1397.3608" y="468.1816">dto:VaccinationCenterDto</text><polygon fill="#181818" points="82.3481,508.9863,72.3481,512.9863,82.3481,516.9863,78.3481,512.9863" style="stroke:#181818;stroke-width:1.0;"/><line style="stroke:#181818;stroke-width:1.0;stroke-dasharray:2.0,2.0;" x1="76.3481" x2="442.9541" y1="512.9863" y2="512.9863"/><text fill="#000000" font-family="sans-serif" font-size="13" font-weight="bold" lengthAdjust="spacing" textLength="14.46" x="88.3481" y="507.7236">12</text><text fill="#000000" font-family="sans-serif" font-size="13" lengthAdjust="spacing" textLength="235.5742" x="106.8081" y="507.7236">shows all data and requests confirmation</text><polygon fill="#181818" points="426.9541,540.2773,436.9541,544.2773,426.9541,548.2773,430.9541,544.2773" style="stroke:#181818;stroke-width:1.0;"/><line style="stroke:#181818;stroke-width:1.0;" x1="71.3481" x2="432.9541" y1="544.2773" y2="544.2773"/><text fill="#000000" font-family="sans-serif" font-size="13" font-weight="bold" lengthAdjust="spacing" textLength="14.46" x="78.3481" y="539.0146">13</text><text fill="#000000" font-family="sans-serif" font-size="13" lengthAdjust="spacing" textLength="99.7153" x="96.8081" y="539.0146">confirms the data</text><polygon fill="#181818" points="666.8911,571.5684,676.8911,575.5684,666.8911,579.5684,670.8911,575.5684" style="stroke:#181818;stroke-width:1.0;"/><line style="stroke:#181818;stroke-width:1.0;" x1="448.9541" x2="672.8911" y1="575.5684" y2="575.5684"/><text fill="#000000" font-family="sans-serif" font-size="13" font-weight="bold" lengthAdjust="spacing" textLength="14.46" x="455.9541" y="570.3057">14</text><text fill="#000000" font-family="sans-serif" font-size="13" lengthAdjust="spacing" textLength="176.3062" x="474.4141" y="570.3057">registerVaccinationCenter(dto)</text><polygon fill="#181818" points="888.9316,602.8594,898.9316,606.8594,888.9316,610.8594,892.9316,606.8594" style="stroke:#181818;stroke-width:1.0;"/><line style="stroke:#181818;stroke-width:1.0;" x1="688.8911" x2="894.9316" y1="606.8594" y2="606.8594"/><text fill="#000000" font-family="sans-serif" font-size="13" font-weight="bold" lengthAdjust="spacing" textLength="14.46" x="695.8911" y="601.5967">15</text><text fill="#000000" font-family="sans-serif" font-size="13" lengthAdjust="spacing" textLength="70.0781" x="714.3511" y="601.5967">register(dto)</text><path d="M806.4458,621.8594 L878.8804,621.8594 L878.8804,631.1504 L868.8804,641.1504 L806.4458,641.1504 L806.4458,621.8594 " fill="#EEEEEE" style="stroke:#000000;stroke-width:1.5;"/><rect fill="none" height="144.4551" style="stroke:#000000;stroke-width:1.5;" width="767.4521" x="806.4458" y="621.8594"/><text fill="#000000" font-family="sans-serif" font-size="13" font-weight="bold" lengthAdjust="spacing" textLength="27.4346" x="821.4458" y="636.8877">loop</text><text fill="#000000" font-family="sans-serif" font-size="11" font-weight="bold" lengthAdjust="spacing" textLength="128.9868" x="893.8804" y="635.7295">[for each vaccineTypeId]</text><polygon fill="#181818" points="1460.1294,660.4414,1470.1294,664.4414,1460.1294,668.4414,1464.1294,664.4414" style="stroke:#181818;stroke-width:1.0;"/><line style="stroke:#181818;stroke-width:1.0;" x1="910.9316" x2="1466.1294" y1="664.4414" y2="664.4414"/><text fill="#000000" font-family="sans-serif" font-size="13" font-weight="bold" lengthAdjust="spacing" textLength="14.46" x="917.9316" y="659.1787">16</text><text fill="#000000" font-family="sans-serif" font-size="13" lengthAdjust="spacing" textLength="119.2217" x="936.3916" y="659.1787">getVaccineTypeIds()</text><polygon fill="#181818" points="921.9316,691.7324,911.9316,695.7324,921.9316,699.7324,917.9316,695.7324" style="stroke:#181818;stroke-width:1.0;"/><line style="stroke:#181818;stroke-width:1.0;stroke-dasharray:2.0,2.0;" x1="915.9316" x2="1476.1294" y1="695.7324" y2="695.7324"/><text fill="#000000" font-family="sans-serif" font-size="13" font-weight="bold" lengthAdjust="spacing" textLength="14.46" x="927.9316" y="690.4697">17</text><text fill="#000000" font-family="sans-serif" font-size="13" lengthAdjust="spacing" textLength="83.8208" x="946.3916" y="690.4697">vaccineTypeId</text><polygon fill="#181818" points="1280.4922,723.0234,1290.4922,727.0234,1280.4922,731.0234,1284.4922,727.0234" style="stroke:#181818;stroke-width:1.0;"/><line style="stroke:#181818;stroke-width:1.0;" x1="910.9316" x2="1286.4922" y1="727.0234" y2="727.0234"/><text fill="#000000" font-family="sans-serif" font-size="13" font-weight="bold" lengthAdjust="spacing" textLength="14.46" x="917.9316" y="721.7607">18</text><text fill="#000000" font-family="sans-serif" font-size="13" lengthAdjust="spacing" textLength="136.5635" x="936.3916" y="721.7607">getById(vaccineTypeId)</text><polygon fill="#181818" points="921.9316,754.3145,911.9316,758.3145,921.9316,762.3145,917.9316,758.3145" style="stroke:#181818;stroke-width:1.0;"/><line style="stroke:#181818;stroke-width:1.0;stroke-dasharray:2.0,2.0;" x1="915.9316" x2="1296.4922" y1="758.3145" y2="758.3145"/><text fill="#000000" font-family="sans-serif" font-size="13" font-weight="bold" lengthAdjust="spacing" textLength="14.46" x="927.9316" y="753.0518">19</text><text fill="#000000" font-family="sans-serif" font-size="13" lengthAdjust="spacing" textLength="75.1499" x="946.3916" y="753.0518">VaccineType</text><path d="M820,778.3145 L820,805.3145 L1562,805.3145 L1562,788.3145 L1552,778.3145 L820,778.3145 " fill="#FEFFDD" style="stroke:#181818;stroke-width:0.5;"/><path d="M1552,778.3145 L1552,788.3145 L1562,788.3145 L1552,778.3145 " fill="#FEFFDD" style="stroke:#181818;stroke-width:0.5;"/><text fill="#000000" font-family="sans-serif" font-size="13" lengthAdjust="spacing" textLength="145.939" x="1113.7566" y="797.3428">extracting data from DTO</text><polygon fill="#181818" points="1561.8979,847.1875,1571.8979,851.1875,1561.8979,855.1875,1565.8979,851.1875" style="stroke:#181818;stroke-width:1.0;"/><line style="stroke:#181818;stroke-width:1.0;stroke-dasharray:2.0,2.0;" x1="910.9316" x2="1567.8979" y1="851.1875" y2="851.1875"/><text fill="#000000" font-family="sans-serif" font-size="13" font-weight="bold" lengthAdjust="spacing" textLength="14.46" x="917.9316" y="837.2793">20</text><text fill="#000000" font-family="sans-serif" font-size="13" lengthAdjust="spacing" textLength="263.0278" x="936.3916" y="828.6338">create(name, address, phone, email, website,</text><text fill="#000000" font-family="sans-serif" font-size="13" lengthAdjust="spacing" textLength="268.0742" x="936.3916" y="845.9248">maxPerHour, opening, closing, type, vaccines)</text><rect fill="#E2E2F0" height="32.6211" rx="2.5" ry="2.5" style="stroke:#181818;stroke-width:0.5;" width="171.1992" x="1573.8979" y="815.5664"/><text fill="#000000" font-family="sans-serif" font-size="14" lengthAdjust="spacing" textLength="157.1992" x="1580.8979" y="837.6738">center:VaccinationCenter</text><line style="stroke:#181818;stroke-width:1.0;" x1="910.9316" x2="957.9316" y1="877.4785" y2="877.4785"/><line style="stroke:#181818;stroke-width:1.0;" x1="957.9316" x2="957.9316" y1="877.4785" y2="890.4785"/><line style="stroke:#181818;stroke-width:1.0;" x1="916.9316" x2="957.9316" y1="890.4785" y2="890.4785"/><polygon fill="#181818" points="926.9316,886.4785,916.9316,890.4785,926.9316,894.4785,922.9316,890.4785" style="stroke:#181818;stroke-width:1.0;"/><text fill="#000000" font-family="sans-serif" font-size="13" font-weight="bold" lengthAdjust="spacing" textLength="14.46" x="922.9316" y="872.2158">21</text><text fill="#000000" font-family="sans-serif" font-size="13" lengthAdjust="spacing" textLength="89.5972" x="941.3916" y="872.2158">validate(center)</text><line style="stroke:#181818;stroke-width:1.0;stroke-dasharray:2.0,2.0;" x1="915.9316" x2="957.9316" y1="931.7695" y2="931.7695"/><line style="stroke:#181818;stroke-width:1.0;stroke-dasharray:2.0,2.0;" x1="957.9316" x2="957.9316" y1="931.7695" y2="944.7695"/><line style="stroke:#181818;stroke-width:1.0;stroke-dasharray:2.0,2.0;" x1="910.9316" x2="957.9316" y1="944.7695" y2="944.7695"/><polygon fill="#181818" points="920.9316,940.7695,910.9316,944.7695,920.9316,948.7695,916.9316,944.7695" style="stroke:#181818;stroke-width:1.0;"/><text fill="#000000" font-family="sans-serif" font-size="13" font-weight="bold" lengthAdjust="spacing" textLength="14.46" x="922.9316" y="926.5068">22</text><text fill="#000000" font-family="sans-serif" font-size="13" lengthAdjust="spacing" textLength="13.73" x="941.3916" y="926.5068">ok</text><polygon fill="#181818" points="1088.0205,967.0605,1098.0205,971.0605,1088.0205,975.0605,1092.0205,971.0605" style="stroke:#181818;stroke-width:1.0;"/><line style="stroke:#181818;stroke-width:1.0;" x1="910.9316" x2="1094.0205" y1="971.0605" y2="971.0605"/><text fill="#000000" font-family="sans-serif" font-size="13" font-weight="bold" lengthAdjust="spacing" textLength="14.46" x="917.9316" y="965.7979">23</text><text fill="#000000" font-family="sans-serif" font-size="13" lengthAdjust="spacing" textLength="72.249" x="936.3916" y="965.7979">save(center)</text><polygon fill="#181818" points="921.9316,998.3516,911.9316,1002.3516,921.9316,1006.3516,917.9316,1002.3516" style="stroke:#181818;stroke-width:1.0;"/><line style="stroke:#181818;stroke-width:1.0;stroke-dasharray:2.0,2.0;" x1="915.9316" x2="1104.0205" y1="1002.3516" y2="1002.3516"/><text fill="#000000" font-family="sans-serif" font-size="13" font-weight="bold" lengthAdjust="spacing" textLength="14.46" x="927.9316" y="997.0889">24</text><text fill="#000000" font-family="sans-serif" font-size="13" lengthAdjust="spacing" textLength="13.73" x="946.3916" y="997.0889">ok</text><polygon fill="#181818" points="699.8911,1029.6426,689.8911,1033.6426,699.8911,1037.6426,695.8911,1033.6426" style="stroke:#181818;stroke-width:1.0;"/><line style="stroke:#181818;stroke-width:1.0;stroke-dasharray:2.0,2.0;" x1="693.8911" x2="904.9316" y1="1033.6426" y2="1033.6426"/><text fill="#000000" font-family="sans-serif" font-size="13" font-weight="bold" lengthAdjust="spacing" textLength="14.46" x="705.8911" y="1028.3799">25</text><text fill="#000000" font-family="sans-serif" font-size="13" lengthAdjust="spacing" textLength="13.73" x="724.3511" y="1028.3799">ok</text><polygon fill="#181818" points="459.9541,1060.9336,449.9541,1064.9336,459.9541,1068.9336,455.9541,1064.9336" style="stroke:#181818;stroke-width:1.0;"/><line style="stroke:#181818;stroke-width:1.0;stroke-dasharray:2.0,2.0;" x1="453.9541" x2="682.8911" y1="1064.9336" y2="1064.9336"/><text fill="#000000" font-family="sans-serif" font-size="13" font-weight="bold" lengthAdjust="spacing" textLength="14.46" x="465.9541" y="1059.6709">26</text><text fill="#000000" font-family="sans-serif" font-size="13" lengthAdjust="spacing" textLength="13.73" x="484.4141" y="1059.6709">ok</text><polygon fill="#181818" points="82.3481,1092.2246,72.3481,1096.2246,82.3481,1100.2246,78.3481,1096.2246" style="stroke:#181818;stroke-width:1.0;"/><line style="stroke:#181818;stroke-width:1.0;stroke-dasharray:2.0,2.0;" x1="76.3481" x2="442.9541" y1="1096.2246" y2="1096.2246"/><text fill="#000000" font-family="sans-serif" font-size="13" font-weight="bold" lengthAdjust="spacing" textLength="14.46" x="88.3481" y="1090.9619">27</text><text fill="#000000" font-family="sans-serif" font-size="13" lengthAdjust="spacing" textLength="151.0107" x="106.8081" y="1090.9619">informs operation success</text><!--SRC=[jLHDRzim3BthLn2vB2cSvMuC1Te4s0eCsD0ME-MYoamYL1-U92VDlnyjEOuSfyLssCaMoKVoaK_wj0kXzkLYKIjkGgFLPs7rmkFl1et0UINvrd7DU1Ci5q7kUK2m9fvDer_GCKPsws2o-le4TvMMHlhWE9acm7soi9gx88MigGHCoaVSKWowNrm8QNYGrYpHj0Q9XuXwEf9V_oriQKrmLYbC9PV1gI7KezjBWMjJZh1FoPMgflyXrc5jKwY_XdyajvV4zXXJFFRHuom9Y-Sq-7oiyKg2pZlCK0KxhhuADb4-dOOO4SrZM8Q9wqjhJQjYyGFpssu99SM-UWWMN3T_uB0_PuHKXANe5jVElmGVg9FfZB7s6DEbwPQmnP3nznJJkTgeZ7-Cl5EA0Z8hpFDStwcZBrcsstEklfDnJ6efepWEwVbGL9n8IVpfKlZWEyPGyS3NPcgunW9uLJdqle1wPmsTKNEf2ZZW2oqNYxNH_EqaW9_eljd65M1hDD9ismCXXI8XzAT0RSokT24tiBHQDqQ6OxV30Zmg5A5R2qQilxB9Q0Ukr8aBLf45S5DrEVnbago3NcKtDoK8XoIQVs1_oReddBWMfyBj_1ygVusxtzb3wh_l-hmKQpRIwQZ9CVFEIphUOGIpaM3TUy_BbAxUR2pZKtnoCsLj3Hjw296BtP1Bhkz-XfVtW2YJq7ltKERlfhkyBlV7XsewYFxWycJL6PgACMFRrtrFskvYYhnVVADtdHuBiqtZtpYhOVNyWmtlN0JyLuMGDl8PP5DIicfBfWiw6_JLHzbNTZd1r3FfY-_FuBFZ0tol7hAENXMoNRc_XaH2GYIEBZsWlX62HiF-0000]--></g></svg>