<svg xmlns="http://www.w3.org/2000/svg" xmlns:xlink="http://www.w3.org/1999/xlink" contentStyleType="text/css" height="1236px" preserveAspectRatio="none" style="width:1751px;height:1236px;background:#FFFFFF;" version="1.1" viewBox="0 0 1751 1236" width="1751px" zoomAndPan="magnify"><title>US13 - Sequence Diagram</title><defs/><g><text fill="#000000" font-family="sans-serif" font-size="14" font-weight="bold" lengthAdjust="spacing" textLength="173.5098" x="787.7937" y="30.1074">US13 - Sequence Diagram</text><rect fill="#FFFFFF" height="1011.6035" style="stroke:#181818;stroke-width:1.0;" width="10" x="61.3481" y="133.2422"/><rect fill="#FFFFFF" height="253.6191" style="stroke:#181818;stroke-width:1.0;" width="10" x="438.9541" y="156.5332"/><rect fill="#FFFFFF" height="79.873" style="stroke:#181818;stroke-width:1.0;" width="10" x="438.9541" y="472.7344"/><rect fill="#FFFFFF" height="551.9473" style="stroke:#181818;stroke-width:1.0;" width="10" x="438.9541" y="583.8984"/><rect fill="#FFFFFF" height="156.4551" style="stroke:#181818;stroke-width:1.0;" width="10" x="678.8911" y="187.8242"/><rect fill="#FFFFFF" height="489.3652" style="stroke:#181818;stroke-width:1.0;" width="10" x="678.8911" y="615.1895"/><rect fill="#FFFFFF" height="93.873" style="stroke:#181818;stroke-width:1.0;" width="10" x="900.9316" y="219.1152"/><rect fill="#FFFFFF" height="426.7832" style="stroke:#181818;stroke-width:1.0;" width="10" x="900.9316" y="646.4805"/><rect fill="#FFFFFF" height="42.291" style="stroke:#181818;stroke-width:1.0;" width="10" x="905.9316" y="930.0996"/><rect fill="#FFFFFF" height="31.291" style="stroke:#181818;stroke-width:1.0;" width="10" x="1100.0205" y="1010.6816"/><rect fill="#FFFFFF" height="31.291" style="stroke:#181818;stroke-width:1.0;" width="10" x="1292.4922" y="250.4063"/><rect fill="#FFFFFF" height="31.291" style="stroke:#181818;stroke-width:1.0;" width="10" x="1292.4922" y="766.6445"/><rect fill="#FFFFFF" height="31.291" style="stroke:#181818;stroke-width:1.0;" width="10" x="1472.1294" y="704.0625"/><rect fill="none" height="144.4551" style="stroke:#000000;stroke-width:1.5;" width="767.4521" x="806.4458" y="661.4805"/><line style="stroke:#181818;stroke-width:0.5;stroke-dasharray:5.0,5.0;" x1="66" x2="66" y1="123.2422" y2="1153.8457"/><line style="stroke:#181818;stroke-width:0.5;stroke-dasharray:5.0,5.0;" x1="443.5718" x2="443.5718" y1="123.2422" y2="1153.8457"/><line style="stroke:#181818;stroke-width:0.5;stroke-dasharray:5.0,5.0;" x1="683.3364" x2="683.3364" y1="123.2422" y2="1153.8457"/><line style="stroke:#181818;stroke-width:0.5;stroke-dasharray:5.0,5.0;" x1="905.4458" x2="905.4458" y1="123.2422" y2="1153.8457"/><line style="stroke:#181818;stroke-width:0.5;stroke-dasharray:5.0,5.0;" x1="1104.4175" x2="1104.4175" y1="123.2422" y2="1153.8457"/><line style="stroke:#181818;stroke-width:0.5;stroke-dasharray:5.0,5.0;" x1="1296.6235" x2="1296.6235" y1="123.2422" y2="1153.8457"/><line style="stroke:#181818;stroke-width:0.5;stroke-dasharray:5.0,5.0;" x1="1476.3608" x2="1476.3608" y1="515.0254" y2="1153.8457"/><line style="stroke:#181818;stroke-width:0.5;stroke-dasharray:5.0,5.0;" x1="1658.8979" x2="1658.8979" y1="884.5176" y2="1153.8457"/><text fill="#000000" font-family="sans-serif" font-size="14" lengthAdjust="spacing" textLength="116.6963" x="5" y="119.7285">DGS Administrator</text><ellipse cx="66.3481" cy="53.1211" fill="#E2E2F0" rx="8" ry="8" style="stroke:#181818;stroke-width:0.5;"/><path d="M66.3481,61.1211 L66.3481,88.1211 M53.3481,69.1211 L79.3481,69.1211 M66.3481,88.1211 L53.3481,103.1211 M66.3481,88.1211 L79.3481,103.1211 " fill="none" style="stroke:#181818;stroke-width:0.5;"/><text fill="#000000" font-family="sans-serif" font-size="14" lengthAdjust="spacing" textLength="116.6963" x="5" y="1167.9531">DGS Administrator</text><ellipse cx="66.3481" cy="1179.9668" fill="#E2E2F0" rx="8" ry="8" style="stroke:#181818;stroke-width:0.5;"/><path d="M66.3481,1187.9668 L66.3481,1214.9668 M53.3481,1195.9668 L79.3481,1195.9668 M66.3481,1214.9668 L53.3481,1229.9668 M66.3481,1214.9668 L79.3481,1229.9668 " fill="none" style="stroke:#181818;stroke-width:0.5;"/><rect fill="#E2E2F0" height="32.6211" rx="2.5" ry="2.5" style="stroke:#181818;stroke-width:0.5;" width="214.7646" x="336.5718" y="89.6211"/><text fill="#000000" font-family="sans-serif" font-size="14" lengthAdjust="spacing" textLength="200.7646" x="343.5718" y="111.7285">:RegisterVaccinationCenterView</text><rect fill="#E2E2F0" height="32.6211" rx="2.5" ry="2.5" style="stroke:#181818;stroke-width:0.5;" width="214.7646" x="336.5718" y="1152.8457"/><text fill="#000000" font-family="sans-serif" font-size="14" lengthAdjust="spacing" textLength="200.7646" x="343.5718" y="1174.9531">:RegisterVaccinationCenterView</text><rect fill="#E2E2F0" height="32.6211" rx="2.5" ry="2.5" style="stroke:#181818;stroke-width:0.5;" width="245.1094" x="561.3364" y="89.6211"/><text fill="#000000" font-family="sans-serif" font-size="14" lengthAdjust="spacing" textLength="231.1094" x="568.3364" y="111.7285">:RegisterVaccinationCenterController</text><rect fill="#E2E2F0" height="32.6211" rx="2.5" ry="2.5" style="stroke:#181818;stroke-width:0.5;" width="245.1094" x="561.3364" y="1152.8457"/><text fill="#000000" font-family="sans-serif" font-size="14" lengthAdjust="spacing" textLength="231.1094" x="568.3364" y="1174.9531">:RegisterVaccinationCenterController</text><rect fill="#E2E2F0" height="51.2422" rx="2.5" ry="2.5" style="stroke:#181818;stroke-width:0.5;" width="178.9717" x="816.4458" y="71"/><text fill="#000000" font-family="sans-serif" font-size="14" lengthAdjust="spacing" textLength="44.3447" x="883.7593" y="93.1074">service</text><text fill="#000000" font-family="sans-serif" font-size="14" lengthAdjust="spacing" textLength="164.9717" x="823.4458" y="111.7285">:VaccinationCenterService</text><rect fill="#E2E2F0" height="51.2422" rx="2.5" ry="2.5" style="stroke:#181818;stroke-width:0.5;" width="178.9717" x="816.4458" y="1152.8457"/><text fill="#000000" font-family="sans-serif" font-size="14" lengthAdjust="spacing" textLength="44.3447" x="883.7593" y="1174.9531">service</text><text fill="#000000" font-family="sans-serif" font-size="14" lengthAdjust="spacing" textLength="164.9717" x="823.4458" y="1193.5742">:VaccinationCenterService</text><rect fill="#E2E2F0" height="51.2422" rx="2.5" ry="2.5" style="stroke:#181818;stroke-width:0.5;" width="199.2061" x="1005.4175" y="71"/><text fill="#000000" font-family="sans-serif" font-size="14" lengthAdjust="spacing" textLength="77.041" x="1066.5" y="93.1074">repoCenters</text><text fill="#000000" font-family="sans-serif" font-size="14" lengthAdjust="spacing" textLength="185.2061" x="1012.4175" y="111.7285">:VaccinationCenterRepository</text><rect fill="#E2E2F0" height="51.2422" rx="2.5" ry="2.5" style="stroke:#181818;stroke-width:0.5;" width="199.2061" x="1005.4175" y="1152.8457"/><text fill="#000000" font-family="sans-serif" font-size="14" lengthAdjust="spacing" textLength="77.041" x="1066.5" y="1174.9531">repoCenters</text><text fill="#000000" font-family="sans-serif" font-size="14" lengthAdjust="spacing" textLength="185.2061" x="1012.4175" y="1193.5742">:VaccinationCenterRepository</text><rect fill="#E2E2F0" height="51.2422" rx="2.5" ry="2.5" style="stroke:#181818;stroke-width:0.5;" width="165.7373" x="1214.6235" y="71"/><text fill="#000000" font-family="sans-serif" font-size="14" lengthAdjust="spacing" textLength="84.8271" x="1255.0786" y="93.1074">repoVaccines</text><text fill="#000000" font-family="sans-serif" font-size="14" lengthAdjust="spacing" textLength="151.7373" x="1221.6235" y="111.7285">:VaccineTypeRepository</text><rect fill="#E2E2F0" height="51.2422" rx="2.5" ry="2.5" style="stroke:#181818;stroke-width:0.5;" width="165.7373" x="1214.6235" y="1152.8457"/><text fill="#000000" font-family="sans-serif" font-size="14" lengthAdjust="spacing" textLength="84.8271" x="1255.0786" y="1174.9531">repoVaccines</text><text fill="#000000" font-family="sans-serif" font-size="14" lengthAdjust="spacing" textLength="151.7373" x="1221.6235" y="1193.5742">:VaccineTypeRepository</text><rect fill="#E2E2F0" height="32.6211" rx="2.5" ry="2.5" style="stroke:#181818;stroke-width:0.5;" width="173.5371" x="1390.3608" y="1152.8457"/><text fill="#000000" font-family="sans-serif" font-size="14" lengthAdjust="spacing" textLength="159.5371" x="1397.3608" y="1174.9531">dto:VaccinationCenterDto</text><rect fill="#E2E2F0" height="32.6211" rx="2.5" ry="2.5" style="stroke:#181818;stroke-width:0.5;" width="171.1992" x="1573.8979" y="1152.8457"/><text fill="#000000" font-family="sans-serif" font-size="14" lengthAdjust="spacing" textLength="157.1992" x="1580.8979" y="1174.9531">center:VaccinationCenter</text><rect fill="#FFFFFF" height="1011.6035" style="stroke:#181818;stroke-width:1.0;" width="10" x="61.3481" y="133.2422"/><rect fill="#FFFFFF" height="253.6191" style="stroke:#181818;stroke-width:1.0;" width="10" x="438.9541" y="156.5332"/><rect fill="#FFFFFF" height="79.873" style="stroke:#181818;stroke-width:1.0;" width="10" x="438.9541" y="472.7344"/><rect fill="#FFFFFF" height="551.9473" style="stroke:#181818;stroke-width:1.0;" width="10" x="438.9541" y="583.8984"/><rect fill="#FFFFFF" height="156.4551" style="stroke:#181818;stroke-width:1.0;" width="10" x="678.8911" y="187.8242"/><rect fill="#FFFFFF" height="489.3652" style="stroke:#181818;stroke-width:1.0;" width="10" x="678.8911" y="615.1895"/><rect fill="#FFFFFF" height="93.873" style="stroke:#181818;stroke-width:1.0;" width="10" x="900.9316" y="219.1152"/><rect fill="#FFFFFF" height="426.7832" style="stroke:#181818;stroke-width:1.0;" width="10" x="900.9316" y="646.4805"/><rect fill="#FFFFFF" height="42.291" style="stroke:#181818;stroke-width:1.0;" width="10" x="905.9316" y="930.0996"/><rect fill="#FFFFFF" height="31.291" style="stroke:#181818;stroke-width:1.0;" width="10" x="1100.0205" y="1010.6816"/><rect fill="#FFFFFF" height="31.291" style="stroke:#181818;stroke-width:1.0;" width="10" x="1292.4922" y="250.4063"/><rect fill="#FFFFFF" height="31.291" style="stroke:#181818;stroke-width:1.0;" width="10" x="1292.4922" y="766.6445"/><rect fill="#FFFFFF" height="31.291" style="stroke:#181818;stroke-width:1.0;" width="10" x="1472.1294" y="704.0625"/><polygon fill="#181818" points="426.9541,152.5332,436.9541,156.5332,426.9541,160.5332,430.9541,156.5332" style="stroke:#181818;stroke-width:1.0;"/><line style="stroke:#181818;stroke-width:1.0;" x1="71.3481" x2="432.9541" y1="156.5332" y2="156.5332"/><text fill="#000000" font-family="sans-serif" font-size="13" font-weight="bold" lengthAdjust="spacing" textLength="7.23" x="78.3481" y="151.2705">1</text><text fill="#000000" font-family="sans-serif" font-size="13" lengthAdjust="spacing" textLength="207.3779" x="89.5781" y="151.2705">asks to register a vaccination center</text><polygon fill="#181818" points="666.8911,183.8242,676.8911,187.8242,666.8911,191.8242,670.8911,187.8242" style="stroke:#181818;stroke-width:1.0;"/><line style="stroke:#181818;stroke-width:1.0;" x1="448.9541" x2="672.8911" y1="187.8242" y2="187.8242"/><text fill="#000000" font-family="sans-serif" font-size="13" font-weight="bold" lengthAdjust="spacing" textLength="7.23" x="455.9541" y="182.5615">2</text><text fill="#000000" font-family="sans-serif" font-size="13" lengthAdjust="spacing" textLength="33.9409" x="467.1841" y="182.5615">start()</text><polygon fill="#181818" points="888.9316,215.1152,898.9316,219.1152,888.9316,223.1152,892.9316,219.1152" style="stroke:#181818;stroke-width:1.0;"/><line style="stroke:#181818;stroke-width:1.0;" x1="688.8911" x2="894.9316" y1="219.1152" y2="219.1152"/><text fill="#000000" font-family="sans-serif" font-size="13" font-weight="bold" lengthAdjust="spacing" textLength="7.23" x="695.8911" y="213.8525">3</text><text fill="#000000" font-family="sans-serif" font-size="13" lengthAdjust="spacing" textLength="108.3799" x="707.1211" y="213.8525">getVaccineTypes()</text><polygon fill="#181818" points="1280.4922,246.4063,1290.4922,250.4063,1280.4922,254.4063,1284.4922,250.4063" style="stroke:#181818;stroke-width:1.0;"/><line style="stroke:#181818;stroke-width:1.0;" x1="910.9316" x2="1286.4922" y1="250.4063" y2="250.4063"/><text fill="#000000" font-family="sans-serif" font-size="13" font-weight="bold" lengthAdjust="spacing" textLength="7.23" x="917.9316" y="245.1436">4</text><text fill="#000000" font-family="sans-serif" font-size="13" lengthAdjust="spacing" textLength="41.1772" x="929.1616" y="245.1436">getAll()</text><polygon fill="#181818" points="921.9316,277.6973,911.9316,281.6973,921.9316,285.6973,917.9316,281.6973" style="stroke:#181818;stroke-width:1.0;"/><line style="stroke:#181818;stroke-width:1.0;stroke-dasharray:2.0,2.0;" x1="915.9316" x2="1296.4922" y1="281.6973" y2="281.6973"/><text fill="#000000" font-family="sans-serif" font-size="13" font-weight="bold" lengthAdjust="spacing" textLength="7.23" x="927.9316" y="276.4346">5</text><text fill="#000000" font-family="sans-serif" font-size="13" lengthAdjust="spacing" textLength="110.5635" x="939.1616" y="276.4346">List&lt;VaccineType&gt;</text><polygon fill="#181818" points="699.8911,308.9883,689.8911,312.9883,699.8911,316.9883,695.8911,312.9883" style="stroke:#181818;stroke-width:1.0;"/><line style="stroke:#181818;stroke-width:1.0;stroke-dasharray:2.0,2.0;" x1="693.8911" x2="904.9316" y1="312.9883" y2="312.9883"/><text fill="#000000" font-family="sans-serif" font-size="13" font-weight="bold" lengthAdjust="spacing" textLength="7.23" x="705.8911" y="307.7256">6</text><text fill="#000000" font-family="sans-serif" font-size="13" lengthAdjust="spacing" textLength="110.5635" x="717.1211" y="307.7256">List&lt;VaccineType&gt;</text><polygon fill="#181818" points="459.9541,340.2793,449.9541,344.2793,459.9541,348.2793,455.9541,344.2793" style="stroke:#181818;stroke-width:1.0;"/><line style="stroke:#181818;stroke-width:1.0;stroke-dasharray:2.0,2.0;" x1="453.9541" x2="682.8911" y1="344.2793" y2="344.2793"/><text fill="#000000" font-family="sans-serif" font-size="13" font-weight="bold" lengthAdjust="spacing" textLength="7.23" x="465.9541" y="339.0166">7</text><text fill="#000000" font-family="sans-serif" font-size="13" lengthAdjust="spacing" textLength="110.5635" x="477.1841" y="339.0166">List&lt;VaccineType&gt;</text><polygon fill="#181818" points="82.3481,406.1523,72.3481,410.1523,82.3481,414.1523,78.3481,410.1523" style="stroke:#181818;stroke-width:1.0;"/><line style="stroke:#181818;stroke-width:1.0;stroke-dasharray:2.0,2.0;" x1="76.3481" x2="442.9541" y1="410.1523" y2="410.1523"/><text fill="#000000" font-family="sans-serif" font-size="13" font-weight="bold" lengthAdjust="spacing" textLength="7.23" x="88.3481" y="387.5986">8</text><text fill="#000000" font-family="sans-serif" font-size="13" lengthAdjust="spacing" textLength="118.5171" x="99.5781" y="370.3076">requests center data</text><text fill="#000000" font-family="sans-serif" font-size="13" lengthAdjust="spacing" textLength="226.897" x="99.5781" y="387.5986">(name, address, phone, email, website,</text><text fill="#000000" font-family="sans-serif" font-size="13" lengthAdjust="spacing" textLength="332.376" x="99.5781" y="404.8896">maxVaccinesPerHour, openingHours, closingHours, type)</text><polygon fill="#181818" points="82.3481,437.4434,72.3481,441.4434,82.3481,445.4434,78.3481,441.4434" style="stroke:#181818;stroke-width:1.0;"/><line style="stroke:#181818;stroke-width:1.0;stroke-dasharray:2.0,2.0;" x1="76.3481" x2="442.9541" y1="441.4434" y2="441.4434"/><text fill="#000000" font-family="sans-serif" font-size="13" font-weight="bold" lengthAdjust="spacing" textLength="7.23" x="88.3481" y="436.1807">9</text><text fill="#000000" font-family="sans-serif" font-size="13" lengthAdjust="spacing" textLength="242.0361" x="99.5781" y="436.1807">if Community Center, select vaccine types</text><polygon fill="#181818" points="426.9541,468.7344,436.9541,472.7344,426.9541,476.7344,430.9541,472.7344" style="stroke:#181818;stroke-width:1.0;"/><line style="stroke:#181818;stroke-width:1.0;" x1="71.3481" x2="432.9541" y1="472.7344" y2="472.7344"/><text fill="#000000" font-family="sans-serif" font-size="13" font-weight="bold" lengthAdjust="spacing" textLength="14.46" x="78.3481" y="467.4717">10</text><text fill="#000000" font-family="sans-serif" font-size="13" lengthAdjust="spacing" textLength="289.7832" x="96.8081" y="467.4717">types all requested data and selects vaccine types</text><polygon fill="#181818" points="1378.3608,517.3164,1388.3608,521.3164,1378.3608,525.3164,1382.3608,521.3164" style="stroke:#181818;stroke-width:1.0;"/><line style="stroke:#181818;stroke-width:1.0;stroke-dasharray:2.0,2.0;" x1="448.9541" x2="1384.3608" y1="521.3164" y2="521.3164"/><text fill="#000000" font-family="sans-serif" font-size="13" font-weight="bold" lengthAdjust="spacing" textLength="14.46" x="455.9541" y="507.4082">11</text><text fill="#000000" font-family="sans-serif" font-size="13" lengthAdjust="spacing" textLength="263.0278" x="474.4141" y="498.7627">create(name, address, phone, email, website,</text><text fill="#000000" font-family="sans-serif" font-size="13" lengthAdjust="spacing" textLength="307.8169" x="474.4141" y="516.0537">maxPerHour, opening, closing, type, vaccineTypeIds)</text><rect fill="#E2E2F0" height="32.6211" rx="2.5" ry="2.5" style="stroke:#181818;stroke-width:0.5;" width="173.5371" x="1390.3608" y="485.6953"/><text fill="#000000" font-family="sans-serif" font-size="14" lengthAdjust="spacing" textLength="159.5371" x="1397.3608" y="507.8027">dto:VaccinationCenterDto</text><polygon fill="#181818" points="82.3481,548.6074,72.3481,552.6074,82.3481,556.6074,78.3481,552.6074" style="stroke:#181818;stroke-width:1.0;"/><line style="stroke:#181818;stroke-width:1.0;stroke-dasharray:2.0,2.0;" x1="76.3481" x2="442.9541" y1="552.6074" y2="552.6074"/><text fill="#000000" font-family="sans-serif" font-size="13" font-weight="bold" lengthAdjust="spacing" textLength="14.46" x="88.3481" y="547.3447">12</text><text fill="#000000" font-family="sans-serif" font-size="13" lengthAdjust="spacing" textLength="235.5742" x="106.8081" y="547.3447">shows all data and requests confirmation</text><polygon fill="#181818" points="426.9541,579.8984,436.9541,583.8984,426.9541,587.8984,430.9541,583.8984" style="stroke:#181818;stroke-width:1.0;"/><line style="stroke:#181818;stroke-width:1.0;" x1="71.3481" x2="432.9541" y1="583.8984" y2="583.8984"/><text fill="#000000" font-family="sans-serif" font-size="13" font-weight="bold" lengthAdjust="spacing" textLength="14.46" x="78.3481" y="578.6357">13</text><text fill="#000000" font-family="sans-serif" font-size="13" lengthAdjust="spacing" textLength="99.7153" x="96.8081" y="578.6357">confirms the data</text><polygon fill="#181818" points="666.8911,611.1895,676.8911,615.1895,666.8911,619.1895,670.8911,615.1895" style="stroke:#181818;stroke-width:1.0;"/><line style="stroke:#181818;stroke-width:1.0;" x1="448.9541" x2="672.8911" y1="615.1895" y2="615.1895"/><text fill="#000000" font-family="sans-serif" font-size="13" font-weight="bold" lengthAdjust="spacing" textLength="14.46" x="455.9541" y="609.9268">14</text><text fill="#000000" font-family="sans-serif" font-size="13" lengthAdjust="spacing" textLength="176.3062" x="474.4141" y="609.9268">registerVaccinationCenter(dto)</text><polygon fill="#181818" points="888.9316,642.4805,898.9316,646.4805,888.9316,650.4805,892.9316,646.4805" style="stroke:#181818;stroke-width:1.0;"/><line style="stroke:#181818;stroke-width:1.0;" x1="688.8911" x2="894.9316" y1="646.4805" y2="646.4805"/><text fill="#000000" font-family="sans-serif" font-size="13" font-weight="bold" lengthAdjust="spacing" textLength="14.46" x="695.8911" y="641.2178">15</text><text fill="#000000" font-family="sans-serif" font-size="13" lengthAdjust="spacing" textLength="70.0781" x="714.3511" y="641.2178">register(dto)</text><path d="M806.4458,661.4805 L878.8804,661.4805 L878.8804,670.7715 L868.8804,680.7715 L806.4458,680.7715 L806.4458,661.4805 " fill="#EEEEEE" style="stroke:#000000;stroke-width:1.5;"/><rect fill="none" height="144.4551" style="stroke:#000000;stroke-width:1.5;" width="767.4521" x="806.4458" y="661.4805"/><text fill="#000000" font-family="sans-serif" font-size="13" font-weight="bold" lengthAdjust="spacing" textLength="27.4346" x="821.4458" y="676.5088">loop</text><text fill="#000000" font-family="sans-serif" font-size="11" font-weight="bold" lengthAdjust="spacing" textLength="128.9868" x="893.8804" y="675.3506">[for each vaccineTypeId]</text><polygon fill="#181818" points="1460.1294,700.0625,1470.1294,704.0625,1460.1294,708.0625,1464.1294,704.0625" style="stroke:#181818;stroke-width:1.0;"/><line style="stroke:#181818;stroke-width:1.0;" x1="910.9316" x2="1466.1294" y1="704.0625" y2="704.0625"/><text fill="#000000" font-family="sans-serif" font-size="13" font-weight="bold" lengthAdjust="spacing" textLength="14.46" x="917.9316" y="698.7998">16</text><text fill="#000000" font-family="sans-serif" font-size="13" lengthAdjust="spacing" textLength="119.2217" x="936.3916" y="698.7998">getVaccineTypeIds()</text><polygon fill="#181818" points="921.9316,731.3535,911.9316,735.3535,921.9316,739.3535,917.9316,735.3535" style="stroke:#181818;stroke-width:1.0;"/><line style="stroke:#181818;stroke-width:1.0;stroke-dasharray:2.0,2.0;" x1="915.9316" x2="1476.1294" y1="735.3535" y2="735.3535"/><text fill="#000000" font-family="sans-serif" font-size="13" font-weight="bold" lengthAdjust="spacing" textLength="14.46" x="927.9316" y="730.0908">17</text><text fill="#000000" font-family="sans-serif" font-size="13" lengthAdjust="spacing" textLength="83.8208" x="946.3916" y="730.0908">vaccineTypeId</text><polygon fill="#181818" points="1280.4922,762.6445,1290.4922,766.6445,1280.4922,770.6445,1284.4922,766.6445" style="stroke:#181818;stroke-width:1.0;"/><line style="stroke:#181818;stroke-width:1.0;" x1="910.9316" x2="1286.4922" y1="766.6445" y2="766.6445"/><text fill="#000000" font-family="sans-serif" font-size="13" font-weight="bold" lengthAdjust="spacing" textLength="14.46" x="917.9316" y="761.3818">18</text><text fill="#000000" font-family="sans-serif" font-size="13" lengthAdjust="spacing" textLength="136.5635" x="936.3916" y="761.3818">getById(vaccineTypeId)</text><polygon fill="#181818" points="921.9316,793.9355,911.9316,797.9355,921.9316,801.9355,917.9316,797.9355" style="stroke:#181818;stroke-width:1.0;"/><line style="stroke:#181818;stroke-width:1.0;stroke-dasharray:2.0,2.0;" x1="915.9316" x2="1296.4922" y1="797.9355" y2="797.9355"/><text fill="#000000" font-family="sans-serif" font-size="13" font-weight="bold" lengthAdjust="spacing" textLength="14.46" x="927.9316" y="792.6729">19</text><text fill="#000000" font-family="sans-serif" font-size="13" lengthAdjust="spacing" textLength="75.1499" x="946.3916" y="792.6729">VaccineType</text><path d="M820,817.9355 L820,844.9355 L1562,844.9355 L1562,827.9355 L1552,817.9355 L820,817.9355 " fill="#FEFFDD" style="stroke:#181818;stroke-width:0.5;"/><path d="M1552,817.9355 L1552,827.9355 L1562,827.9355 L1552,817.9355 " fill="#FEFFDD" style="stroke:#181818;stroke-width:0.5;"/><text fill="#000000" font-family="sans-serif" font-size="13" lengthAdjust="spacing" textLength="145.939" x="1113.7566" y="836.9639">extracting data from DTO</text><polygon fill="#181818" points="1561.8979,886.8086,1571.8979,890.8086,1561.8979,894.8086,1565.8979,890.8086" style="stroke:#181818;stroke-width:1.0;"/><line style="stroke:#181818;stroke-width:1.0;stroke-dasharray:2.0,2.0;" x1="910.9316" x2="1567.8979" y1="890.8086" y2="890.8086"/><text fill="#000000" font-family="sans-serif" font-size="13" font-weight="bold" lengthAdjust="spacing" textLength="14.46" x="917.9316" y="876.9004">20</text><text fill="#000000" font-family="sans-serif" font-size="13" lengthAdjust="spacing" textLength="263.0278" x="936.3916" y="868.2549">create(name, address, phone, email, website,</text><text fill="#000000" font-family="sans-serif" font-size="13" lengthAdjust="spacing" textLength="268.0742" x="936.3916" y="885.5459">maxPerHour, opening, closing, type, vaccines)</text><rect fill="#E2E2F0" height="32.6211" rx="2.5" ry="2.5" style="stroke:#181818;stroke-width:0.5;" width="171.1992" x="1573.8979" y="855.1875"/><text fill="#000000" font-family="sans-serif" font-size="14" lengthAdjust="spacing" textLength="157.1992" x="1580.8979" y="877.2949">center:VaccinationCenter</text><line style="stroke:#181818;stroke-width:1.0;" x1="910.9316" x2="957.9316" y1="917.0996" y2="917.0996"/><line style="stroke:#181818;stroke-width:1.0;" x1="957.9316" x2="957.9316" y1="917.0996" y2="930.0996"/><line style="stroke:#181818;stroke-width:1.0;" x1="916.9316" x2="957.9316" y1="930.0996" y2="930.0996"/><polygon fill="#181818" points="926.9316,926.0996,916.9316,930.0996,926.9316,934.0996,922.9316,930.0996" style="stroke:#181818;stroke-width:1.0;"/><text fill="#000000" font-family="sans-serif" font-size="13" font-weight="bold" lengthAdjust="spacing" textLength="14.46" x="922.9316" y="911.8369">21</text><text fill="#000000" font-family="sans-serif" font-size="13" lengthAdjust="spacing" textLength="89.5972" x="941.3916" y="911.8369">validate(center)</text><line style="stroke:#181818;stroke-width:1.0;stroke-dasharray:2.0,2.0;" x1="915.9316" x2="957.9316" y1="971.3906" y2="971.3906"/><line style="stroke:#181818;stroke-width:1.0;stroke-dasharray:2.0,2.0;" x1="957.9316" x2="957.9316" y1="971.3906" y2="984.3906"/><line style="stroke:#181818;stroke-width:1.0;stroke-dasharray:2.0,2.0;" x1="910.9316" x2="957.9316" y1="984.3906" y2="984.3906"/><polygon fill="#181818" points="920.9316,980.3906,910.9316,984.3906,920.9316,988.3906,916.9316,984.3906" style="stroke:#181818;stroke-width:1.0;"/><text fill="#000000" font-family="sans-serif" font-size="13" font-weight="bold" lengthAdjust="spacing" textLength="14.46" x="922.9316" y="966.1279">22</text><text fill="#000000" font-family="sans-serif" font-size="13" lengthAdjust="spacing" textLength="13.73" x="941.3916" y="966.1279">ok</text><polygon fill="#181818" points="1088.0205,1006.6816,1098.0205,1010.6816,1088.0205,1014.6816,1092.0205,1010.6816" style="stroke:#181818;stroke-width:1.0;"/><line style="stroke:#181818;stroke-width:1.0;" x1="910.9316" x2="1094.0205" y1="1010.6816" y2="1010.6816"/><text fill="#000000" font-family="sans-serif" font-size="13" font-weight="bold" lengthAdjust="spacing" textLength="14.46" x="917.9316" y="1005.4189">23</text><text fill="#000000" font-family="sans-serif" font-size="13" lengthAdjust="spacing" textLength="72.249" x="936.3916" y="1005.4189">save(center)</text><polygon fill="#181818" points="921.9316,1037.9727,911.9316,1041.9727,921.9316,1045.9727,917.9316,1041.9727" style="stroke:#181818;stroke-width:1.0;"/><line style="stroke:#181818;stroke-width:1.0;stroke-dasharray:2.0,2.0;" x1="915.9316" x2="1104.0205" y1="1041.9727" y2="1041.9727"/><text fill="#000000" font-family="sans-serif" font-size="13" font-weight="bold" lengthAdjust="spacing" textLength="14.46" x="927.9316" y="1036.71">24</text><text fill="#000000" font-family="sans-serif" font-size="13" lengthAdjust="spacing" textLength="13.73" x="946.3916" y="1036.71">ok</text><polygon fill="#181818" points="699.8911,1069.2637,689.8911,1073.2637,699.8911,1077.2637,695.8911,1073.2637" style="stroke:#181818;stroke-width:1.0;"/><line style="stroke:#181818;stroke-width:1.0;stroke-dasharray:2.0,2.0;" x1="693.8911" x2="904.9316" y1="1073.2637" y2="1073.2637"/><text fill="#000000" font-family="sans-serif" font-size="13" font-weight="bold" lengthAdjust="spacing" textLength="14.46" x="705.8911" y="1068.001">25</text><text fill="#000000" font-family="sans-serif" font-size="13" lengthAdjust="spacing" textLength="13.73" x="724.3511" y="1068.001">ok</text><polygon fill="#181818" points="459.9541,1100.5547,449.9541,1104.5547,459.9541,1108.5547,455.9541,1104.5547" style="stroke:#181818;stroke-width:1.0;"/><line style="stroke:#181818;stroke-width:1.0;stroke-dasharray:2.0,2.0;" x1="453.9541" x2="682.8911" y1="1104.5547" y2="1104.5547"/><text fill="#000000" font-family="sans-serif" font-size="13" font-weight="bold" lengthAdjust="spacing" textLength="14.46" x="465.9541" y="1099.292">26</text><text fill="#000000" font-family="sans-serif" font-size="13" lengthAdjust="spacing" textLength="13.73" x="484.4141" y="1099.292">ok</text><polygon fill="#181818" points="82.3481,1131.8457,72.3481,1135.8457,82.3481,1139.8457,78.3481,1135.8457" style="stroke:#181818;stroke-width:1.0;"/><line style="stroke:#181818;stroke-width:1.0;stroke-dasharray:2.0,2.0;" x1="76.3481" x2="442.9541" y1="1135.8457" y2="1135.8457"/><text fill="#000000" font-family="sans-serif" font-size="13" font-weight="bold" lengthAdjust="spacing" textLength="14.46" x="88.3481" y="1130.583">27</text><text fill="#000000" font-family="sans-serif" font-size="13" lengthAdjust="spacing" textLength="151.0107" x="106.8081" y="1130.583">informs operation success</text><!--SRC=[jLHDRzim3BthLn2zB2cS1SDknb2WIu2jm80DJRTJBghC94BruKboslpxqPBZo75QR8UTR95y51_vg7Ux46fVpkUruYOqMhqNLiyz_cxG29nLacyTrop8e11-hZvyX1ciEYyiEozlWkKYo3qF2DR4isdq8ph6o6uTN2s_hE2sqj987nmdqnLmdooivYv88Mig0AxAUznI3BfVN0XfU93MBD2q1edF4RKwa5__BMnXJN1MAKnNBe9JGwX7jvS2rwOSOLV9bMvD_qEimzgcK7y9VqzkBudj8QQuxwF7MH8MJsdmuL3ZXGITTvYX2dPy-pBOHFbu6c94D8zX6IQEBuqrZOh53ynkkY6K5Fla8LXmNV-1m_wK4T8bB4MtkBR_9VX0bKocZBN7c2vrjuGjXeo_fvZErKPb_6FahL8Ka5bXbkVwHXLzohBTd7BrbOnZKaaPnN58puUYOaTAuazBuOFl64F50r-RYU4Q2-1LvT3x0kgTDNH6pQKgu1aVQRXOh8tcBqS1_43trJQk05kZaMRR7WWf50cXFmKgOtgX2hc1XTMwCJ8SkXaMu56X2DrOC6BzXKb6Et2bZbomYYo0cwhBuS-JP1NqAhk-Ba4u9D7y0_jprZtXnBKuNjps_wxobxZxdNrEzVTLduPYpKOw7JKvPjvvISSxZ60s4gnxxNcPqEfDnp8-nYStKzRMiA674BdO3Rda-kvxUBu7H9c4thk7CdyrtVcwV3xSLPD1z1lBaztEq5IC6Tk-xdlITXTJvFNY2xthz5YORMh_nbaDouVlRBXp4V1V5KBQo7kGTKd9ghqoBUXqK5SVPP_OUGTJpQGllZ-1JuutyBrwo3fwLSXsONyDYOI4I1nTUa1z8mIrXlq1]--></g></svg>