<svg xmlns="http://www.w3.org/2000/svg" xmlns:xlink="http://www.w3.org/1999/xlink" contentStyleType="text/css" height="873px" preserveAspectRatio="none" style="width:1513px;height:873px;background:#FFFFFF;" version="1.1" viewBox="0 0 1513 873" width="1513px" zoomAndPan="magnify"><title>US13 - Class Diagram</title><defs/><g><text fill="#000000" font-family="sans-serif" font-size="14" font-weight="bold" lengthAdjust="spacing" textLength="144.7305" x="677.3848" y="25.1074">US13 - Class Diagram</text><!--class RegisterVaccinationCenterView--><g id="elem_RegisterVaccinationCenterView"><rect codeLine="8" fill="#F1F1F1" height="44.6211" id="RegisterVaccinationCenterView" rx="2.5" ry="2.5" style="stroke:#181818;stroke-width:0.5;" width="202.875" x="1094" y="46.6211"/><text fill="#000000" font-family="sans-serif" font-size="14" lengthAdjust="spacing" textLength="196.875" x="1097" y="66.7285">RegisterVaccinationCenterView</text><line style="stroke:#181818;stroke-width:0.5;" x1="1095" x2="1295.875" y1="75.2422" y2="75.2422"/><line style="stroke:#181818;stroke-width:0.5;" x1="1095" x2="1295.875" y1="83.2422" y2="83.2422"/></g><!--class RegisterVaccinationCenterController--><g id="elem_RegisterVaccinationCenterController"><rect codeLine="12" fill="#F1F1F1" height="81.8633" id="RegisterVaccinationCenterController" rx="2.5" ry="2.5" style="stroke:#181818;stroke-width:0.5;" width="401.4707" x="843" y="152.6211"/><text fill="#000000" font-family="sans-serif" font-size="14" lengthAdjust="spacing" textLength="227.2197" x="930.1255" y="172.7285">RegisterVaccinationCenterController</text><line style="stroke:#181818;stroke-width:0.5;" x1="844" x2="1243.4707" y1="181.2422" y2="181.2422"/><line style="stroke:#181818;stroke-width:0.5;" x1="844" x2="1243.4707" y1="189.2422" y2="189.2422"/><text fill="#000000" font-family="sans-serif" font-size="14" lengthAdjust="spacing" textLength="251.7402" x="849" y="208.3496">+getVaccineTypes(): List&lt;VaccineType&gt;</text><text fill="#000000" font-family="sans-serif" font-size="14" lengthAdjust="spacing" textLength="389.4707" x="849" y="226.9707">+registerVaccinationCenter(dto: VaccinationCenterDto): Result</text></g><!--class DGSAdministrator--><g id="elem_DGSAdministrator"><rect codeLine="18" fill="#F1F1F1" height="81.8633" id="DGSAdministrator" rx="2.5" ry="2.5" style="stroke:#181818;stroke-width:0.5;" width="378.9053" x="257" y="304.6211"/><text fill="#000000" font-family="sans-serif" font-size="14" lengthAdjust="spacing" textLength="112.8066" x="390.0493" y="324.7285">DGSAdministrator</text><line style="stroke:#181818;stroke-width:0.5;" x1="258" x2="634.9053" y1="333.2422" y2="333.2422"/><text fill="#000000" font-family="sans-serif" font-size="14" lengthAdjust="spacing" textLength="39.6826" x="263" y="352.3496">-name</text><line style="stroke:#181818;stroke-width:0.5;" x1="258" x2="634.9053" y1="359.8633" y2="359.8633"/><text fill="#000000" font-family="sans-serif" font-size="14" lengthAdjust="spacing" textLength="366.9053" x="263" y="378.9707">+getVaccinationCenterService(): VaccinationCenterService</text></g><!--class VaccinationCenterService--><g id="elem_VaccinationCenterService"><rect codeLine="24" fill="#F1F1F1" height="100.4844" id="VaccinationCenterService" rx="2.5" ry="2.5" style="stroke:#181818;stroke-width:0.5;" width="696.4004" x="695.5" y="295.6211"/><text fill="#000000" font-family="sans-serif" font-size="14" lengthAdjust="spacing" textLength="161.082" x="963.1592" y="315.7285">VaccinationCenterService</text><line style="stroke:#181818;stroke-width:0.5;" x1="696.5" x2="1390.9004" y1="324.2422" y2="324.2422"/><line style="stroke:#181818;stroke-width:0.5;" x1="696.5" x2="1390.9004" y1="332.2422" y2="332.2422"/><text fill="#000000" font-family="sans-serif" font-size="14" lengthAdjust="spacing" textLength="684.4004" x="701.5" y="351.3496">+VaccinationCenterService(centerRepo: VaccinationCenterRepository, vaccineRepo: VaccineTypeRepository)</text><text fill="#000000" font-family="sans-serif" font-size="14" lengthAdjust="spacing" textLength="251.7402" x="701.5" y="369.9707">+getVaccineTypes(): List&lt;VaccineType&gt;</text><text fill="#000000" font-family="sans-serif" font-size="14" lengthAdjust="spacing" textLength="275.0713" x="701.5" y="388.5918">+register(dto: VaccinationCenterDto): Result</text></g><!--class VaccinationCenterDto--><g id="elem_VaccinationCenterDto"><rect codeLine="31" fill="#F1F1F1" height="230.832" id="VaccinationCenterDto" rx="2.5" ry="2.5" style="stroke:#181818;stroke-width:0.5;" width="200.3096" x="996.5" y="474.6211"/><text fill="#000000" font-family="sans-serif" font-size="14" lengthAdjust="spacing" textLength="136.1855" x="1028.562" y="494.7285">VaccinationCenterDto</text><line style="stroke:#181818;stroke-width:0.5;" x1="997.5" x2="1195.8096" y1="503.2422" y2="503.2422"/><text fill="#000000" font-family="sans-serif" font-size="14" lengthAdjust="spacing" textLength="39.6826" x="1002.5" y="522.3496">-name</text><text fill="#000000" font-family="sans-serif" font-size="14" lengthAdjust="spacing" textLength="93.3789" x="1002.5" y="540.9707">-postalAddress</text><text fill="#000000" font-family="sans-serif" font-size="14" lengthAdjust="spacing" textLength="43.5928" x="1002.5" y="559.5918">-phone</text><text fill="#000000" font-family="sans-serif" font-size="14" lengthAdjust="spacing" textLength="38.1172" x="1002.5" y="578.2129">-email</text><text fill="#000000" font-family="sans-serif" font-size="14" lengthAdjust="spacing" textLength="52.1309" x="1002.5" y="596.834">-website</text><text fill="#000000" font-family="sans-serif" font-size="14" lengthAdjust="spacing" textLength="140.0479" x="1002.5" y="615.4551">-maxVaccinesPerHour</text><text fill="#000000" font-family="sans-serif" font-size="14" lengthAdjust="spacing" textLength="91.834" x="1002.5" y="634.0762">-openingHours</text><text fill="#000000" font-family="sans-serif" font-size="14" lengthAdjust="spacing" textLength="85.5859" x="1002.5" y="652.6973">-closingHours</text><text fill="#000000" font-family="sans-serif" font-size="14" lengthAdjust="spacing" textLength="31.124" x="1002.5" y="671.3184">-type</text><text fill="#000000" font-family="sans-serif" font-size="14" lengthAdjust="spacing" textLength="188.3096" x="1002.5" y="689.9395">-vaccineTypeIds : List&lt;String&gt;</text><line style="stroke:#181818;stroke-width:0.5;" x1="997.5" x2="1195.8096" y1="697.4531" y2="697.4531"/></g><!--class VaccinationCenterRepository--><g id="elem_VaccinationCenterRepository"><rect codeLine="45" fill="#F1F1F1" height="79.2031" id="VaccinationCenterRepository" rx="2.5" ry="2.5" style="stroke:#181818;stroke-width:0.5;" width="267.623" x="461.5" y="550.6211"/><text fill="#000000" font-family="sans-serif" font-size="12" font-style="italic" lengthAdjust="spacing" textLength="59.373" x="565.625" y="568.5703">&#171;interface&#187;</text><text fill="#000000" font-family="sans-serif" font-size="14" font-style="italic" lengthAdjust="spacing" textLength="181.3164" x="504.6533" y="586.6895">VaccinationCenterRepository</text><line style="stroke:#181818;stroke-width:0.5;" x1="462.5" x2="728.123" y1="595.2031" y2="595.2031"/><line style="stroke:#181818;stroke-width:0.5;" x1="462.5" x2="728.123" y1="603.2031" y2="603.2031"/><text fill="#000000" font-family="sans-serif" font-size="14" lengthAdjust="spacing" textLength="255.623" x="467.5" y="622.3105">+save(center: VaccinationCenter): Result</text></g><!--class VaccineTypeRepository--><g id="elem_VaccineTypeRepository"><rect codeLine="49" fill="#F1F1F1" height="97.8242" id="VaccineTypeRepository" rx="2.5" ry="2.5" style="stroke:#181818;stroke-width:0.5;" width="220.9336" x="1232" y="541.1211"/><text fill="#000000" font-family="sans-serif" font-size="12" font-style="italic" lengthAdjust="spacing" textLength="59.373" x="1312.7803" y="559.0703">&#171;interface&#187;</text><text fill="#000000" font-family="sans-serif" font-size="14" font-style="italic" lengthAdjust="spacing" textLength="147.8477" x="1268.543" y="577.1895">VaccineTypeRepository</text><line style="stroke:#181818;stroke-width:0.5;" x1="1233" x2="1451.9336" y1="585.7031" y2="585.7031"/><line style="stroke:#181818;stroke-width:0.5;" x1="1233" x2="1451.9336" y1="593.7031" y2="593.7031"/><text fill="#000000" font-family="sans-serif" font-size="14" lengthAdjust="spacing" textLength="179.3682" x="1238" y="612.8105">+getAll(): List&lt;VaccineType&gt;</text><text fill="#000000" font-family="sans-serif" font-size="14" lengthAdjust="spacing" textLength="208.9336" x="1238" y="631.4316">+getById(id: String): VaccineType</text></g><!--class RepositoryFactory--><g id="elem_RepositoryFactory"><rect codeLine="55" fill="#F1F1F1" height="97.8242" id="RepositoryFactory" rx="2.5" ry="2.5" style="stroke:#181818;stroke-width:0.5;" width="419.374" x="7" y="541.1211"/><text fill="#000000" font-family="sans-serif" font-size="12" font-style="italic" lengthAdjust="spacing" textLength="59.373" x="187.0005" y="559.0703">&#171;interface&#187;</text><text fill="#000000" font-family="sans-serif" font-size="14" font-style="italic" lengthAdjust="spacing" textLength="113.5928" x="159.8906" y="577.1895">RepositoryFactory</text><line style="stroke:#181818;stroke-width:0.5;" x1="8" x2="425.374" y1="585.7031" y2="585.7031"/><line style="stroke:#181818;stroke-width:0.5;" x1="8" x2="425.374" y1="593.7031" y2="593.7031"/><text fill="#000000" font-family="sans-serif" font-size="14" lengthAdjust="spacing" textLength="407.374" x="13" y="612.8105">+getVaccinationCenterRepository(): VaccinationCenterRepository</text><text fill="#000000" font-family="sans-serif" font-size="14" lengthAdjust="spacing" textLength="340.4365" x="13" y="631.4316">+getVaccineTypeRepository(): VaccineTypeRepository</text></g><!--class VaccinationCenter--><g id="elem_VaccinationCenter"><rect codeLine="61" fill="#F1F1F1" height="193.5898" id="VaccinationCenter" rx="2.5" ry="2.5" style="stroke:#181818;stroke-width:0.5;" width="152.0479" x="809.5" y="493.1211"/><text fill="#000000" font-family="sans-serif" font-size="14" font-style="italic" lengthAdjust="spacing" textLength="114.3994" x="828.3242" y="513.2285">VaccinationCenter</text><line style="stroke:#181818;stroke-width:0.5;" x1="810.5" x2="960.5479" y1="521.7422" y2="521.7422"/><text fill="#000000" font-family="sans-serif" font-size="14" lengthAdjust="spacing" textLength="39.6826" x="815.5" y="540.8496">-name</text><text fill="#000000" font-family="sans-serif" font-size="14" lengthAdjust="spacing" textLength="93.3789" x="815.5" y="559.4707">-postalAddress</text><text fill="#000000" font-family="sans-serif" font-size="14" lengthAdjust="spacing" textLength="43.5928" x="815.5" y="578.0918">-phone</text><text fill="#000000" font-family="sans-serif" font-size="14" lengthAdjust="spacing" textLength="38.1172" x="815.5" y="596.7129">-email</text><text fill="#000000" font-family="sans-serif" font-size="14" lengthAdjust="spacing" textLength="52.1309" x="815.5" y="615.334">-website</text><text fill="#000000" font-family="sans-serif" font-size="14" lengthAdjust="spacing" textLength="140.0479" x="815.5" y="633.9551">-maxVaccinesPerHour</text><text fill="#000000" font-family="sans-serif" font-size="14" lengthAdjust="spacing" textLength="91.834" x="815.5" y="652.5762">-openingHours</text><text fill="#000000" font-family="sans-serif" font-size="14" lengthAdjust="spacing" textLength="85.5859" x="815.5" y="671.1973">-closingHours</text><line style="stroke:#181818;stroke-width:0.5;" x1="810.5" x2="960.5479" y1="678.7109" y2="678.7109"/></g><!--class CommunityMassVaccinationCenter--><g id="elem_CommunityMassVaccinationCenter"><rect codeLine="72" fill="#F1F1F1" height="44.6211" id="CommunityMassVaccinationCenter" rx="2.5" ry="2.5" style="stroke:#181818;stroke-width:0.5;" width="224.6406" x="773" y="803.1211"/><text fill="#000000" font-family="sans-serif" font-size="14" lengthAdjust="spacing" textLength="218.6406" x="776" y="823.2285">CommunityMassVaccinationCenter</text><line style="stroke:#181818;stroke-width:0.5;" x1="774" x2="996.6406" y1="831.7422" y2="831.7422"/><line style="stroke:#181818;stroke-width:0.5;" x1="774" x2="996.6406" y1="839.7422" y2="839.7422"/></g><!--class HealthcareCenter--><g id="elem_HealthcareCenter"><rect codeLine="73" fill="#F1F1F1" height="44.6211" id="HealthcareCenter" rx="2.5" ry="2.5" style="stroke:#181818;stroke-width:0.5;" width="115.7236" x="1033.5" y="803.1211"/><text fill="#000000" font-family="sans-serif" font-size="14" lengthAdjust="spacing" textLength="109.7236" x="1036.5" y="823.2285">HealthcareCenter</text><line style="stroke:#181818;stroke-width:0.5;" x1="1034.5" x2="1148.2236" y1="831.7422" y2="831.7422"/><line style="stroke:#181818;stroke-width:0.5;" x1="1034.5" x2="1148.2236" y1="839.7422" y2="839.7422"/></g><!--class VaccineType--><g id="elem_VaccineType"><rect codeLine="75" fill="#F1F1F1" height="81.8633" id="VaccineType" rx="2.5" ry="2.5" style="stroke:#181818;stroke-width:0.5;" width="117.8135" x="1186.5" y="784.6211"/><text fill="#000000" font-family="sans-serif" font-size="14" lengthAdjust="spacing" textLength="80.9307" x="1204.9414" y="804.7285">VaccineType</text><line style="stroke:#181818;stroke-width:0.5;" x1="1187.5" x2="1303.3135" y1="813.2422" y2="813.2422"/><text fill="#000000" font-family="sans-serif" font-size="14" lengthAdjust="spacing" textLength="52.917" x="1192.5" y="832.3496">-disease</text><text fill="#000000" font-family="sans-serif" font-size="14" lengthAdjust="spacing" textLength="105.8135" x="1192.5" y="850.9707">-shortDescription</text><line style="stroke:#181818;stroke-width:0.5;" x1="1187.5" x2="1303.3135" y1="858.4844" y2="858.4844"/></g><!--reverse link VaccinationCenter to CommunityMassVaccinationCenter--><g id="link_VaccinationCenter_CommunityMassVaccinationCenter"><path codeLine="80" d="M885.5,705.4411 C885.5,748.1511 885.5,776.6311 885.5,803.0411 " fill="none" id="VaccinationCenter-backto-CommunityMassVaccinationCenter" style="stroke:#181818;stroke-width:1.0;"/><polygon fill="none" points="885.5,687.4411,879.5,705.4411,891.5,705.4411,885.5,687.4411" style="stroke:#181818;stroke-width:1.0;"/></g><!--reverse link VaccinationCenter to HealthcareCenter--><g id="link_VaccinationCenter_HealthcareCenter"><path codeLine="81" d="M973.1897,699.6897 C978.8697,706.3997 972.92,699.2711 978.5,705.6211 C1009.15,740.5111 1046.58,779.2111 1069.73,802.7311 " fill="none" id="VaccinationCenter-backto-HealthcareCenter" style="stroke:#181818;stroke-width:1.0;"/><polygon fill="none" points="961.56,685.9511,968.6102,703.5663,977.7693,695.8131,961.56,685.9511" style="stroke:#181818;stroke-width:1.0;"/></g><!--link VaccinationCenter to VaccineType--><g id="link_VaccinationCenter_VaccineType"><path codeLine="83" d="M953.34,687.3611 C961.17,694.3411 969.58,700.5911 978.5,705.6211 C1062.93,753.2211 1114.19,681.3611 1194.5,735.6211 C1211.62,747.1911 1221.1981,761.083 1229.2881,778.803 " fill="none" id="VaccinationCenter-to-VaccineType" style="stroke:#181818;stroke-width:1.0;"/><polygon fill="#181818" points="1231.78,784.2611,1231.6809,774.4127,1229.7034,779.7127,1224.4035,777.7352,1231.78,784.2611" style="stroke:#181818;stroke-width:1.0;"/><polygon fill="#000000" points="1222.2462,746.8394,1214.5847,741.2045,1212.7358,746.784,1222.2462,746.8394" style="stroke:#000000;stroke-width:1.0;"/><text fill="#000000" font-family="sans-serif" font-size="13" lengthAdjust="spacing" textLength="49.8608" x="1226.5" y="750.6494">supports</text><text fill="#000000" font-family="sans-serif" font-size="13" lengthAdjust="spacing" textLength="7.23" x="950.8703" y="708.8489">1</text><text fill="#000000" font-family="sans-serif" font-size="13" lengthAdjust="spacing" textLength="19.5127" x="1231.1632" y="773.3771">0..*</text></g><!--link CommunityMassVaccinationCenter to VaccineType--><g id="link_CommunityMassVaccinationCenter_VaccineType"><path codeLine="84" d="M934.59,803.1111 C978.46,784.3011 1045.03,758.9611 1106,748.6211 C1141.49,742.6011 1154.75,732.6211 1187,748.6211 C1202.49,756.3111 1211.6371,765.2953 1221.0371,779.2453 " fill="none" id="CommunityMassVaccinationCenter-to-VaccineType" style="stroke:#181818;stroke-width:1.0;"/><polygon fill="#181818" points="1224.39,784.2211,1222.6779,774.5222,1221.596,780.0746,1216.0435,778.9927,1224.39,784.2211" style="stroke:#181818;stroke-width:1.0;"/><polygon fill="#000000" points="1115.9827,744.8515,1106.7249,742.6737,1107.2129,748.5312,1115.9827,744.8515" style="stroke:#000000;stroke-width:1.0;"/><text fill="#000000" font-family="sans-serif" font-size="13" lengthAdjust="spacing" textLength="66.4663" x="1120" y="750.6494">administers</text><text fill="#000000" font-family="sans-serif" font-size="13" lengthAdjust="spacing" textLength="7.23" x="939.9215" y="791.8955">1</text><text fill="#000000" font-family="sans-serif" font-size="13" lengthAdjust="spacing" textLength="19.5127" x="1200.5673" y="773.3307">1..*</text></g><!--link RegisterVaccinationCenterView to RegisterVaccinationCenterController--><g id="link_RegisterVaccinationCenterView_RegisterVaccinationCenterController"><path codeLine="87" d="M1168.68,91.7411 C1147.88,108.5011 1123.1517,128.4261 1098.0617,148.6461 " fill="none" id="RegisterVaccinationCenterView-to-RegisterVaccinationCenterController" style="stroke:#181818;stroke-width:1.0;stroke-dasharray:7.0,7.0;"/><polygon fill="#181818" points="1093.39,152.4111,1102.9076,149.8782,1097.2831,149.2736,1097.8876,143.6492,1093.39,152.4111" style="stroke:#181818;stroke-width:1.0;"/></g><!--link RegisterVaccinationCenterView to VaccineType--><g id="link_RegisterVaccinationCenterView_VaccineType"><path codeLine="88" d="M1297.33,90.0811 C1388.03,110.8611 1506.5,146.7811 1506.5,192.6211 C1506.5,192.6211 1506.5,192.6211 1506.5,591.1211 C1506.5,644.4611 1504.64,664.6311 1470.5,705.6211 C1427.37,757.4011 1361.4473,787.751 1310.6173,805.421 " fill="none" id="RegisterVaccinationCenterView-to-VaccineType" style="stroke:#181818;stroke-width:1.0;stroke-dasharray:7.0,7.0;"/><polygon fill="#181818" points="1304.95,807.3911,1314.7644,808.2141,1309.6728,805.7493,1312.1376,800.6577,1304.95,807.3911" style="stroke:#181818;stroke-width:1.0;"/></g><!--link RegisterVaccinationCenterController to DGSAdministrator--><g id="link_RegisterVaccinationCenterController_DGSAdministrator"><path codeLine="90" d="M884.3,234.6211 C798.12,256.2711 697.7891,281.4787 611.5991,303.1387 " fill="none" id="RegisterVaccinationCenterController-to-DGSAdministrator" style="stroke:#181818;stroke-width:1.0;stroke-dasharray:7.0,7.0;"/><polygon fill="#181818" points="605.78,304.6011,615.4835,306.2869,610.6292,303.3825,613.5337,298.5282,605.78,304.6011" style="stroke:#181818;stroke-width:1.0;"/></g><!--link RegisterVaccinationCenterController to VaccinationCenterService--><g id="link_RegisterVaccinationCenterController_VaccinationCenterService"><path codeLine="91" d="M1043.5,234.8211 C1043.5,253.4811 1043.5,269.8311 1043.5,289.4811 " fill="none" id="RegisterVaccinationCenterController-to-VaccinationCenterService" style="stroke:#181818;stroke-width:1.0;stroke-dasharray:7.0,7.0;"/><polygon fill="#181818" points="1043.5,295.4811,1047.5,286.4811,1043.5,290.4811,1039.5,286.4811,1043.5,295.4811" style="stroke:#181818;stroke-width:1.0;"/></g><!--link VaccinationCenterService to VaccinationCenterRepository--><g id="link_VaccinationCenterService_VaccinationCenterRepository"><path codeLine="93" d="M943.46,395.7411 C896.92,419.0211 841.04,447.6011 791.5,474.6211 C746.87,498.9611 702.6051,524.7811 664.5551,547.4411 " fill="none" id="VaccinationCenterService-to-VaccinationCenterRepository" style="stroke:#181818;stroke-width:1.0;stroke-dasharray:7.0,7.0;"/><polygon fill="#181818" points="659.4,550.5111,669.1793,549.3428,663.6959,547.9527,665.086,542.4693,659.4,550.5111" style="stroke:#181818;stroke-width:1.0;"/></g><!--link VaccinationCenterService to VaccineTypeRepository--><g id="link_VaccinationCenterService_VaccineTypeRepository"><path codeLine="94" d="M1111.95,395.7511 C1143.65,419.0311 1181.51,447.6011 1214.5,474.6211 C1240.22,495.6811 1263.3801,516.0853 1286.3401,536.9553 " fill="none" id="VaccinationCenterService-to-VaccineTypeRepository" style="stroke:#181818;stroke-width:1.0;stroke-dasharray:7.0,7.0;"/><polygon fill="#181818" points="1290.78,540.9911,1286.8106,531.9775,1287.0801,537.628,1281.4296,537.8974,1290.78,540.9911" style="stroke:#181818;stroke-width:1.0;"/></g><!--link VaccinationCenterService to VaccinationCenterDto--><g id="link_VaccinationCenterService_VaccinationCenterDto"><path codeLine="95" d="M1054.23,395.6911 C1059.22,418.5311 1064.0999,440.8692 1070.1599,468.6192 " fill="none" id="VaccinationCenterService-to-VaccinationCenterDto" style="stroke:#181818;stroke-width:1.0;stroke-dasharray:7.0,7.0;"/><polygon fill="#181818" points="1071.44,474.4811,1073.4277,464.8349,1070.3732,469.5962,1065.6119,466.5417,1071.44,474.4811" style="stroke:#181818;stroke-width:1.0;"/></g><!--link VaccinationCenterService to VaccinationCenter--><g id="link_VaccinationCenterService_VaccinationCenter"><path codeLine="96" d="M1011.53,395.6911 C993.31,423.6511 973.1248,454.6236 951.3948,487.9836 " fill="none" id="VaccinationCenterService-to-VaccinationCenter" style="stroke:#181818;stroke-width:1.0;stroke-dasharray:7.0,7.0;"/><polygon fill="#181818" points="948.12,493.0111,956.3839,487.6531,950.849,488.8215,949.6805,483.2867,948.12,493.0111" style="stroke:#181818;stroke-width:1.0;"/></g><!--link DGSAdministrator to RepositoryFactory--><g id="link_DGSAdministrator_RepositoryFactory"><path codeLine="98" d="M408.52,386.6611 C368.33,429.0411 309.0389,491.5577 266.1889,536.7377 " fill="none" id="DGSAdministrator-to-RepositoryFactory" style="stroke:#181818;stroke-width:1.0;"/><polygon fill="#181818" points="262.06,541.0911,271.1556,537.3136,265.5007,537.4633,265.3511,531.8084,262.06,541.0911" style="stroke:#181818;stroke-width:1.0;"/><text fill="#000000" font-family="sans-serif" font-size="13" lengthAdjust="spacing" textLength="27.46" x="367.5" y="440.6494">uses</text><text fill="#000000" font-family="sans-serif" font-size="13" lengthAdjust="spacing" textLength="7.23" x="394.935" y="408.6189">1</text><text fill="#000000" font-family="sans-serif" font-size="13" lengthAdjust="spacing" textLength="7.23" x="261.227" y="529.704">1</text></g><!--link RepositoryFactory to VaccinationCenterRepository--><g id="link_RepositoryFactory_VaccinationCenterRepository"><path codeLine="100" d="M426.36,590.1211 C438.03,590.1211 443.7,590.1211 455.37,590.1211 " fill="none" id="RepositoryFactory-to-VaccinationCenterRepository" style="stroke:#181818;stroke-width:1.0;stroke-dasharray:7.0,7.0;"/><polygon fill="#181818" points="461.37,590.1211,452.37,586.1211,456.37,590.1211,452.37,594.1211,461.37,590.1211" style="stroke:#181818;stroke-width:1.0;"/></g><!--link RepositoryFactory to VaccineTypeRepository--><g id="link_RepositoryFactory_VaccineTypeRepository"><path codeLine="101" d="M273.14,540.9511 C319.96,503.7711 390.05,455.7211 461,435.1211 C539.54,412.3211 1121.95,402.6411 1197,435.1211 C1246.62,456.6011 1283.6806,499.3208 1309.2306,536.1608 " fill="none" id="RepositoryFactory-to-VaccineTypeRepository" style="stroke:#181818;stroke-width:1.0;stroke-dasharray:7.0,7.0;"/><polygon fill="#181818" points="1312.65,541.0911,1310.8078,531.4161,1309.8005,536.9825,1304.2341,535.9752,1312.65,541.0911" style="stroke:#181818;stroke-width:1.0;"/></g><!--link VaccinationCenterRepository to VaccinationCenter--><g id="link_VaccinationCenterRepository_VaccinationCenter"><path codeLine="103" d="M729.89,590.1211 C757.15,590.1211 778.91,590.1211 803.3,590.1211 " fill="none" id="VaccinationCenterRepository-to-VaccinationCenter" style="stroke:#181818;stroke-width:1.0;"/><polygon fill="#181818" points="809.3,590.1211,800.3,586.1211,804.3,590.1211,800.3,594.1211,809.3,590.1211" style="stroke:#181818;stroke-width:1.0;"/><text fill="#000000" font-family="sans-serif" font-size="13" lengthAdjust="spacing" textLength="43.3481" x="748" y="583.1494">records</text><text fill="#000000" font-family="sans-serif" font-size="13" lengthAdjust="spacing" textLength="7.23" x="737.0156" y="586.7134">1</text><text fill="#000000" font-family="sans-serif" font-size="13" lengthAdjust="spacing" textLength="19.5127" x="781.8868" y="605.0206">0..*</text></g><!--link VaccineTypeRepository to VaccineType--><g id="link_VaccineTypeRepository_VaccineType"><path codeLine="104" d="M1336.02,639.1611 C1330.18,672.7811 1319.63,718.0411 1301.5,754.6211 C1296.38,764.9411 1293.2063,770.3838 1286.0663,779.6738 " fill="none" id="VaccineTypeRepository-to-VaccineType" style="stroke:#181818;stroke-width:1.0;"/><polygon fill="#181818" points="1282.41,784.4311,1291.0659,779.7327,1285.4569,780.4667,1284.7229,774.8577,1282.41,784.4311" style="stroke:#181818;stroke-width:1.0;"/><text fill="#000000" font-family="sans-serif" font-size="13" lengthAdjust="spacing" textLength="43.3481" x="1309.5" y="750.6494">records</text><text fill="#000000" font-family="sans-serif" font-size="13" lengthAdjust="spacing" textLength="7.23" x="1327.6989" y="660.9527">1</text><text fill="#000000" font-family="sans-serif" font-size="13" lengthAdjust="spacing" textLength="19.5127" x="1268.0077" y="773.2649">0..*</text></g><!--SRC=[pLPDRzim3BthLn2vDDtcjCLkHcOWIx2rm8ODJTUxAdE9C5io93bTrks_L_97ujYMaswN-PAOVAJ8HzAKuIP1-BQyUWi1p1EgDImuNIcQahErCPaEBowoX0gJfyc4oVI2EKmGLnYovZ42uuebIFGFBZ9gnL20PiOe_f0Rl65IBFalX4j2pk1TtmFt71_xLQHm1hUuujgWkgUCSK4DbsAEmWcSvHFvu_Szby8ecIIe_kw4XlqJ0VkyNg4fKNYtpL2FpqFuP6sd3M5K8fNFwJWsCeIEU66aTNQBEa_CK4upPkHmEekForcSSc6FLzI1ozW343J5CZZOvT68O8bgmncwd7oweS0go61eFhyrlLx0c1LljvZrSUV4cjjKjszWKrQYYIpAiiUSjpauMakeY_cFjLlSVNaPFTPnjte1s4mCJMPnh53hMhQMejPZIdbI_N_41vjshKdfpoez_HNLjSnLfP0P2YvMJb9xP8abx51aB2VLtysUfPjOGyNTqaw-M4L39EmAmL5xsE0kz-_KziL0gM4wtU6YQDT1ccxgRkcfr46PsiUq-iHpW6sRMP8CTOj5lD_Un6CUXr0ISdxGYYUniuKFb1M_npZQczGMti07wEmT-xswTsRwh5kAmN6Gja-59p_wu3vVp81dDFwJkR3fbG7EPPhcWfljP_lMYRO2NIDDp9fHXPNuOF0BwdPvnLmZrNM0UYsLMQ1cYcVEhJkuoydqTn0SYyHZrGsj2nnTZI1GVBKsGGIZoydarUWWz11qdcKsK0qH6GwZvUkgnnUjbXWgvyw_4BMMZ1UkVT-JuIl4P1ATSWKumKjpniafjmfdr5xN9njwbpJnhjbUiyQmdc3Odk-NdMKNsWij2EdSPuhMYUMZA3fdrFC1327Ng5qDsff9qN97Q3XgrYQ13Eqf_zGqvo6qbmmcLQn9_p8wFdkr_JC0]--></g></svg>