<svg xmlns="http://www.w3.org/2000/svg" xmlns:xlink="http://www.w3.org/1999/xlink" contentStyleType="text/css" data-diagram-type="SEQUENCE" height="944px" preserveAspectRatio="none" style="width:1111px;height:944px;background:#FFFFFF;" version="1.1" viewBox="0 0 1111 944" width="1111px" zoomAndPan="magnify"><title>US12 - Sequence Diagram</title><defs/><g><text fill="#000000" font-family="sans-serif" font-size="14" font-weight="bold" lengthAdjust="spacing" textLength="173.5098" x="470.7239" y="30.1074">US12 - Sequence Diagram</text><g><title>.ListVaccinesUI</title><rect fill="#FFFFFF" height="687.1113" style="stroke:#181818;stroke-width:1;" width="10" x="218.186" y="156.5332"/></g><g><title>.ListVaccinesController</title><rect fill="#FFFFFF" height="421.7832" style="stroke:#181818;stroke-width:1;" width="10" x="417.3213" y="187.8242"/></g><g><title>.Company</title><rect fill="#FFFFFF" height="31.291" style="stroke:#181818;stroke-width:1;" width="10" x="675.0073" y="219.1152"/></g><g><title>.Company</title><rect fill="#FFFFFF" height="31.291" style="stroke:#181818;stroke-width:1;" width="10" x="675.0073" y="281.6973"/></g><g><title>store.VaccineStore</title><rect fill="#FFFFFF" height="31.291" style="stroke:#181818;stroke-width:1;" width="10" x="790.0518" y="344.2793"/></g><g><title>vac.Vaccine</title><rect fill="#FFFFFF" height="31.291" style="stroke:#181818;stroke-width:1;" width="10" x="910.9341" y="433.1523"/></g><g><title>vac.Vaccine</title><rect fill="#FFFFFF" height="31.291" style="stroke:#181818;stroke-width:1;" width="10" x="910.9341" y="495.7344"/></g><g><title>vac.Vaccine</title><rect fill="#FFFFFF" height="31.291" style="stroke:#181818;stroke-width:1;" width="10" x="910.9341" y="729.7715"/></g><g><title>type.VaccineType</title><rect fill="#FFFFFF" height="31.291" style="stroke:#181818;stroke-width:1;" width="10" x="1028.3164" y="667.1895"/></g><rect fill="none" height="188.7461" style="stroke:#000000;stroke-width:1.5;" width="636.9399" x="333.7354" y="390.5703"/><rect fill="none" height="188.7461" style="stroke:#000000;stroke-width:1.5;" width="948.0127" x="157.9448" y="624.6074"/><g><title>Administrator</title><rect fill="#000000" fill-opacity="0.00000" height="738.4023" width="8" x="45.2344" y="123.2422"/><line style="stroke:#181818;stroke-width:0.5;stroke-dasharray:5,5;" x1="49" x2="49" y1="123.2422" y2="861.6445"/></g><g><title>.ListVaccinesUI</title><rect fill="#000000" fill-opacity="0.00000" height="738.4023" width="8" x="219.186" y="123.2422"/><line style="stroke:#181818;stroke-width:0.5;stroke-dasharray:5,5;" x1="222.9448" x2="222.9448" y1="123.2422" y2="861.6445"/></g><g><title>.ListVaccinesController</title><rect fill="#000000" fill-opacity="0.00000" height="738.4023" width="8" x="418.3213" y="123.2422"/><line style="stroke:#181818;stroke-width:0.5;stroke-dasharray:5,5;" x1="421.7354" x2="421.7354" y1="123.2422" y2="861.6445"/></g><g><title>.Company</title><rect fill="#000000" fill-opacity="0.00000" height="738.4023" width="8" x="676.0073" y="123.2422"/><line style="stroke:#181818;stroke-width:0.5;stroke-dasharray:5,5;" x1="679.104" x2="679.104" y1="123.2422" y2="861.6445"/></g><g><title>store.VaccineStore</title><rect fill="#000000" fill-opacity="0.00000" height="738.4023" width="8" x="791.0518" y="123.2422"/><line style="stroke:#181818;stroke-width:0.5;stroke-dasharray:5,5;" x1="794.9106" x2="794.9106" y1="123.2422" y2="861.6445"/></g><g><title>vac.Vaccine</title><rect fill="#000000" fill-opacity="0.00000" height="738.4023" width="8" x="911.9341" y="123.2422"/><line style="stroke:#181818;stroke-width:0.5;stroke-dasharray:5,5;" x1="915.1929" x2="915.1929" y1="123.2422" y2="861.6445"/></g><g><title>type.VaccineType</title><rect fill="#000000" fill-opacity="0.00000" height="738.4023" width="8" x="1029.3164" y="123.2422"/><line style="stroke:#181818;stroke-width:0.5;stroke-dasharray:5,5;" x1="1032.6753" x2="1032.6753" y1="123.2422" y2="861.6445"/></g><g class="participant participant-head" data-participant="Admin"><text fill="#000000" font-family="sans-serif" font-size="14" lengthAdjust="spacing" textLength="82.4688" x="5" y="119.7285">Administrator</text><ellipse cx="49.2344" cy="53.1211" fill="#E2E2F0" rx="8" ry="8" style="stroke:#181818;stroke-width:0.5;"/><path d="M49.2344,61.1211 L49.2344,88.1211 M36.2344,69.1211 L62.2344,69.1211 M49.2344,88.1211 L36.2344,103.1211 M49.2344,88.1211 L62.2344,103.1211" fill="none" style="stroke:#181818;stroke-width:0.5;"/></g><g class="participant participant-tail" data-participant="Admin"><text fill="#000000" font-family="sans-serif" font-size="14" lengthAdjust="spacing" textLength="82.4688" x="5" y="875.752">Administrator</text><ellipse cx="49.2344" cy="887.7656" fill="#E2E2F0" rx="8" ry="8" style="stroke:#181818;stroke-width:0.5;"/><path d="M49.2344,895.7656 L49.2344,922.7656 M36.2344,903.7656 L62.2344,903.7656 M49.2344,922.7656 L36.2344,937.7656 M49.2344,922.7656 L62.2344,937.7656" fill="none" style="stroke:#181818;stroke-width:0.5;"/></g><g class="participant participant-head" data-participant="UI"><rect fill="#E2E2F0" height="32.6211" rx="2.5" ry="2.5" style="stroke:#181818;stroke-width:0.5;" width="110.4824" x="167.9448" y="89.6211"/><text fill="#000000" font-family="sans-serif" font-size="14" lengthAdjust="spacing" textLength="96.4824" x="174.9448" y="111.7285">:ListVaccinesUI</text></g><g class="participant participant-tail" data-participant="UI"><rect fill="#E2E2F0" height="32.6211" rx="2.5" ry="2.5" style="stroke:#181818;stroke-width:0.5;" width="110.4824" x="167.9448" y="860.6445"/><text fill="#000000" font-family="sans-serif" font-size="14" lengthAdjust="spacing" textLength="96.4824" x="174.9448" y="882.752">:ListVaccinesUI</text></g><g class="participant participant-head" data-participant="CTRL"><rect fill="#E2E2F0" height="32.6211" rx="2.5" ry="2.5" style="stroke:#181818;stroke-width:0.5;" width="157.1719" x="343.7354" y="89.6211"/><text fill="#000000" font-family="sans-serif" font-size="14" lengthAdjust="spacing" textLength="143.1719" x="350.7354" y="111.7285">:ListVaccinesController</text></g><g class="participant participant-tail" data-participant="CTRL"><rect fill="#E2E2F0" height="32.6211" rx="2.5" ry="2.5" style="stroke:#181818;stroke-width:0.5;" width="157.1719" x="343.7354" y="860.6445"/><text fill="#000000" font-family="sans-serif" font-size="14" lengthAdjust="spacing" textLength="143.1719" x="350.7354" y="882.752">:ListVaccinesController</text></g><g class="participant participant-head" data-participant="COMP"><rect fill="#E2E2F0" height="32.6211" rx="2.5" ry="2.5" style="stroke:#181818;stroke-width:0.5;" width="77.8066" x="641.104" y="89.6211"/><text fill="#000000" font-family="sans-serif" font-size="14" lengthAdjust="spacing" textLength="63.8066" x="648.104" y="111.7285">:Company</text></g><g class="participant participant-tail" data-participant="COMP"><rect fill="#E2E2F0" height="32.6211" rx="2.5" ry="2.5" style="stroke:#181818;stroke-width:0.5;" width="77.8066" x="641.104" y="860.6445"/><text fill="#000000" font-family="sans-serif" font-size="14" lengthAdjust="spacing" textLength="63.8066" x="648.104" y="882.752">:Company</text></g><g class="participant participant-head" data-participant="STORE"><rect fill="#E2E2F0" height="32.6211" rx="2.5" ry="2.5" style="stroke:#181818;stroke-width:0.5;" width="132.2822" x="728.9106" y="89.6211"/><text fill="#000000" font-family="sans-serif" font-size="14" lengthAdjust="spacing" textLength="118.2822" x="735.9106" y="111.7285">store:VaccineStore</text></g><g class="participant participant-tail" data-participant="STORE"><rect fill="#E2E2F0" height="32.6211" rx="2.5" ry="2.5" style="stroke:#181818;stroke-width:0.5;" width="132.2822" x="728.9106" y="860.6445"/><text fill="#000000" font-family="sans-serif" font-size="14" lengthAdjust="spacing" textLength="118.2822" x="735.9106" y="882.752">store:VaccineStore</text></g><g class="participant participant-head" data-participant="VAC"><rect fill="#E2E2F0" height="32.6211" rx="2.5" ry="2.5" style="stroke:#181818;stroke-width:0.5;" width="89.4824" x="871.1929" y="89.6211"/><text fill="#000000" font-family="sans-serif" font-size="14" lengthAdjust="spacing" textLength="75.4824" x="878.1929" y="111.7285">vac:Vaccine</text></g><g class="participant participant-tail" data-participant="VAC"><rect fill="#E2E2F0" height="32.6211" rx="2.5" ry="2.5" style="stroke:#181818;stroke-width:0.5;" width="89.4824" x="871.1929" y="860.6445"/><text fill="#000000" font-family="sans-serif" font-size="14" lengthAdjust="spacing" textLength="75.4824" x="878.1929" y="882.752">vac:Vaccine</text></g><g class="participant participant-head" data-participant="VTYPE"><rect fill="#E2E2F0" height="32.6211" rx="2.5" ry="2.5" style="stroke:#181818;stroke-width:0.5;" width="125.2822" x="970.6753" y="89.6211"/><text fill="#000000" font-family="sans-serif" font-size="14" lengthAdjust="spacing" textLength="111.2822" x="977.6753" y="111.7285">type:VaccineType</text></g><g class="participant participant-tail" data-participant="VTYPE"><rect fill="#E2E2F0" height="32.6211" rx="2.5" ry="2.5" style="stroke:#181818;stroke-width:0.5;" width="125.2822" x="970.6753" y="860.6445"/><text fill="#000000" font-family="sans-serif" font-size="14" lengthAdjust="spacing" textLength="111.2822" x="977.6753" y="882.752">type:VaccineType</text></g><g><title>.ListVaccinesUI</title><rect fill="#FFFFFF" height="687.1113" style="stroke:#181818;stroke-width:1;" width="10" x="218.186" y="156.5332"/></g><g><title>.ListVaccinesController</title><rect fill="#FFFFFF" height="421.7832" style="stroke:#181818;stroke-width:1;" width="10" x="417.3213" y="187.8242"/></g><g><title>.Company</title><rect fill="#FFFFFF" height="31.291" style="stroke:#181818;stroke-width:1;" width="10" x="675.0073" y="219.1152"/></g><g><title>.Company</title><rect fill="#FFFFFF" height="31.291" style="stroke:#181818;stroke-width:1;" width="10" x="675.0073" y="281.6973"/></g><g><title>store.VaccineStore</title><rect fill="#FFFFFF" height="31.291" style="stroke:#181818;stroke-width:1;" width="10" x="790.0518" y="344.2793"/></g><g><title>vac.Vaccine</title><rect fill="#FFFFFF" height="31.291" style="stroke:#181818;stroke-width:1;" width="10" x="910.9341" y="433.1523"/></g><g><title>vac.Vaccine</title><rect fill="#FFFFFF" height="31.291" style="stroke:#181818;stroke-width:1;" width="10" x="910.9341" y="495.7344"/></g><g><title>vac.Vaccine</title><rect fill="#FFFFFF" height="31.291" style="stroke:#181818;stroke-width:1;" width="10" x="910.9341" y="729.7715"/></g><g><title>type.VaccineType</title><rect fill="#FFFFFF" height="31.291" style="stroke:#181818;stroke-width:1;" width="10" x="1028.3164" y="667.1895"/></g><g class="message" data-participant-1="Admin" data-participant-2="UI"><polygon fill="#181818" points="206.186,152.5332,216.186,156.5332,206.186,160.5332,210.186,156.5332" style="stroke:#181818;stroke-width:1;"/><line style="stroke:#181818;stroke-width:1;" x1="49.2344" x2="212.186" y1="156.5332" y2="156.5332"/><text fill="#000000" font-family="sans-serif" font-size="13" font-weight="bold" lengthAdjust="spacing" textLength="7.23" x="56.2344" y="151.2705">1</text><text fill="#000000" font-family="sans-serif" font-size="13" lengthAdjust="spacing" textLength="138.7217" x="67.4644" y="151.2705">requestListOfVaccines()</text></g><g class="message" data-participant-1="UI" data-participant-2="CTRL"><polygon fill="#181818" points="405.3213,183.8242,415.3213,187.8242,405.3213,191.8242,409.3213,187.8242" style="stroke:#181818;stroke-width:1;"/><line style="stroke:#181818;stroke-width:1;" x1="228.186" x2="411.3213" y1="187.8242" y2="187.8242"/><text fill="#000000" font-family="sans-serif" font-size="13" font-weight="bold" lengthAdjust="spacing" textLength="7.23" x="235.186" y="182.5615">2</text><text fill="#000000" font-family="sans-serif" font-size="13" lengthAdjust="spacing" textLength="93.9263" x="246.416" y="182.5615">getAllVaccines()</text></g><g class="message" data-participant-1="CTRL" data-participant-2="COMP"><polygon fill="#181818" points="663.0073,215.1152,673.0073,219.1152,663.0073,223.1152,667.0073,219.1152" style="stroke:#181818;stroke-width:1;"/><line style="stroke:#181818;stroke-width:1;" x1="427.3213" x2="669.0073" y1="219.1152" y2="219.1152"/><text fill="#000000" font-family="sans-serif" font-size="13" font-weight="bold" lengthAdjust="spacing" textLength="7.23" x="434.3213" y="213.8525">3</text><text fill="#000000" font-family="sans-serif" font-size="13" lengthAdjust="spacing" textLength="75.8735" x="445.5513" y="213.8525">getInstance()</text></g><g class="message" data-participant-1="COMP" data-participant-2="CTRL"><polygon fill="#181818" points="438.3213,246.4063,428.3213,250.4063,438.3213,254.4063,434.3213,250.4063" style="stroke:#181818;stroke-width:1;"/><line style="stroke:#181818;stroke-width:1;stroke-dasharray:2,2;" x1="432.3213" x2="679.0073" y1="250.4063" y2="250.4063"/><text fill="#000000" font-family="sans-serif" font-size="13" font-weight="bold" lengthAdjust="spacing" textLength="7.23" x="444.3213" y="245.1436">4</text><text fill="#000000" font-family="sans-serif" font-size="13" lengthAdjust="spacing" textLength="52.749" x="455.5513" y="245.1436">company</text></g><g class="message" data-participant-1="CTRL" data-participant-2="COMP"><polygon fill="#181818" points="663.0073,277.6973,673.0073,281.6973,663.0073,285.6973,667.0073,281.6973" style="stroke:#181818;stroke-width:1;"/><line style="stroke:#181818;stroke-width:1;" x1="427.3213" x2="669.0073" y1="281.6973" y2="281.6973"/><text fill="#000000" font-family="sans-serif" font-size="13" font-weight="bold" lengthAdjust="spacing" textLength="7.23" x="434.3213" y="276.4346">5</text><text fill="#000000" font-family="sans-serif" font-size="13" lengthAdjust="spacing" textLength="104.0508" x="445.5513" y="276.4346">getVaccineStore()</text></g><g class="message" data-participant-1="COMP" data-participant-2="CTRL"><polygon fill="#181818" points="438.3213,308.9883,428.3213,312.9883,438.3213,316.9883,434.3213,312.9883" style="stroke:#181818;stroke-width:1;"/><line style="stroke:#181818;stroke-width:1;stroke-dasharray:2,2;" x1="432.3213" x2="679.0073" y1="312.9883" y2="312.9883"/><text fill="#000000" font-family="sans-serif" font-size="13" font-weight="bold" lengthAdjust="spacing" textLength="7.23" x="444.3213" y="307.7256">6</text><text fill="#000000" font-family="sans-serif" font-size="13" lengthAdjust="spacing" textLength="28.9009" x="455.5513" y="307.7256">store</text></g><g class="message" data-participant-1="CTRL" data-participant-2="STORE"><polygon fill="#181818" points="778.0518,340.2793,788.0518,344.2793,778.0518,348.2793,782.0518,344.2793" style="stroke:#181818;stroke-width:1;"/><line style="stroke:#181818;stroke-width:1;" x1="427.3213" x2="784.0518" y1="344.2793" y2="344.2793"/><text fill="#000000" font-family="sans-serif" font-size="13" font-weight="bold" lengthAdjust="spacing" textLength="7.23" x="434.3213" y="339.0166">7</text><text fill="#000000" font-family="sans-serif" font-size="13" lengthAdjust="spacing" textLength="41.1772" x="445.5513" y="339.0166">getAll()</text></g><g class="message" data-participant-1="STORE" data-participant-2="CTRL"><polygon fill="#181818" points="438.3213,371.5703,428.3213,375.5703,438.3213,379.5703,434.3213,375.5703" style="stroke:#181818;stroke-width:1;"/><line style="stroke:#181818;stroke-width:1;stroke-dasharray:2,2;" x1="432.3213" x2="794.0518" y1="375.5703" y2="375.5703"/><text fill="#000000" font-family="sans-serif" font-size="13" font-weight="bold" lengthAdjust="spacing" textLength="7.23" x="444.3213" y="370.3076">8</text><text fill="#000000" font-family="sans-serif" font-size="13" lengthAdjust="spacing" textLength="64.3081" x="455.5513" y="370.3076">vaccineList</text></g><path d="M333.7354,390.5703 L406.1699,390.5703 L406.1699,399.8613 L396.1699,409.8613 L333.7354,409.8613 L333.7354,390.5703" fill="#EEEEEE" style="stroke:#000000;stroke-width:1.5;"/><rect fill="none" height="188.7461" style="stroke:#000000;stroke-width:1.5;" width="636.9399" x="333.7354" y="390.5703"/><text fill="#000000" font-family="sans-serif" font-size="13" font-weight="bold" lengthAdjust="spacing" textLength="27.4346" x="348.7354" y="405.5986">loop</text><text fill="#000000" font-family="sans-serif" font-size="11" font-weight="bold" lengthAdjust="spacing" textLength="93.5376" x="421.1699" y="404.4404">[for each vaccine]</text><g class="message" data-participant-1="CTRL" data-participant-2="VAC"><polygon fill="#181818" points="898.9341,429.1523,908.9341,433.1523,898.9341,437.1523,902.9341,433.1523" style="stroke:#181818;stroke-width:1;"/><line style="stroke:#181818;stroke-width:1;" x1="427.3213" x2="904.9341" y1="433.1523" y2="433.1523"/><text fill="#000000" font-family="sans-serif" font-size="13" font-weight="bold" lengthAdjust="spacing" textLength="7.23" x="434.3213" y="427.8896">9</text><text fill="#000000" font-family="sans-serif" font-size="13" lengthAdjust="spacing" textLength="55.6309" x="445.5513" y="427.8896">getType()</text></g><g class="message" data-participant-1="VAC" data-participant-2="CTRL"><polygon fill="#181818" points="438.3213,460.4434,428.3213,464.4434,438.3213,468.4434,434.3213,464.4434" style="stroke:#181818;stroke-width:1;"/><line style="stroke:#181818;stroke-width:1;stroke-dasharray:2,2;" x1="432.3213" x2="914.9341" y1="464.4434" y2="464.4434"/><text fill="#000000" font-family="sans-serif" font-size="13" font-weight="bold" lengthAdjust="spacing" textLength="14.46" x="444.3213" y="459.1807">10</text><text fill="#000000" font-family="sans-serif" font-size="13" lengthAdjust="spacing" textLength="24.5718" x="462.7813" y="459.1807">type</text></g><g class="message" data-participant-1="CTRL" data-participant-2="VAC"><polygon fill="#181818" points="898.9341,491.7344,908.9341,495.7344,898.9341,499.7344,902.9341,495.7344" style="stroke:#181818;stroke-width:1;"/><line style="stroke:#181818;stroke-width:1;" x1="427.3213" x2="904.9341" y1="495.7344" y2="495.7344"/><text fill="#000000" font-family="sans-serif" font-size="13" font-weight="bold" lengthAdjust="spacing" textLength="14.46" x="434.3213" y="490.4717">11</text><text fill="#000000" font-family="sans-serif" font-size="13" lengthAdjust="spacing" textLength="61.4199" x="452.7813" y="490.4717">getBrand()</text></g><g class="message" data-participant-1="VAC" data-participant-2="CTRL"><polygon fill="#181818" points="438.3213,523.0254,428.3213,527.0254,438.3213,531.0254,434.3213,527.0254" style="stroke:#181818;stroke-width:1;"/><line style="stroke:#181818;stroke-width:1;stroke-dasharray:2,2;" x1="432.3213" x2="914.9341" y1="527.0254" y2="527.0254"/><text fill="#000000" font-family="sans-serif" font-size="13" font-weight="bold" lengthAdjust="spacing" textLength="14.46" x="444.3213" y="521.7627">12</text><text fill="#000000" font-family="sans-serif" font-size="13" lengthAdjust="spacing" textLength="33.249" x="462.7813" y="521.7627">brand</text></g><g class="message" data-participant-1="CTRL" data-participant-2="CTRL"><line style="stroke:#181818;stroke-width:1;" x1="427.3213" x2="469.3213" y1="558.3164" y2="558.3164"/><line style="stroke:#181818;stroke-width:1;" x1="469.3213" x2="469.3213" y1="558.3164" y2="571.3164"/><line style="stroke:#181818;stroke-width:1;" x1="428.3213" x2="469.3213" y1="571.3164" y2="571.3164"/><polygon fill="#181818" points="438.3213,567.3164,428.3213,571.3164,438.3213,575.3164,434.3213,571.3164" style="stroke:#181818;stroke-width:1;"/><text fill="#000000" font-family="sans-serif" font-size="13" font-weight="bold" lengthAdjust="spacing" textLength="14.46" x="434.3213" y="553.0537">13</text><text fill="#000000" font-family="sans-serif" font-size="13" lengthAdjust="spacing" textLength="205.2261" x="452.7813" y="553.0537">groupAndSort(vaccine, type, brand)</text></g><g class="message" data-participant-1="CTRL" data-participant-2="UI"><polygon fill="#181818" points="239.186,605.6074,229.186,609.6074,239.186,613.6074,235.186,609.6074" style="stroke:#181818;stroke-width:1;"/><line style="stroke:#181818;stroke-width:1;stroke-dasharray:2,2;" x1="233.186" x2="421.3213" y1="609.6074" y2="609.6074"/><text fill="#000000" font-family="sans-serif" font-size="13" font-weight="bold" lengthAdjust="spacing" textLength="14.46" x="245.186" y="604.3447">14</text><text fill="#000000" font-family="sans-serif" font-size="13" lengthAdjust="spacing" textLength="82.3862" x="263.646" y="604.3447">organizedMap</text></g><path d="M157.9448,624.6074 L230.3794,624.6074 L230.3794,633.8984 L220.3794,643.8984 L157.9448,643.8984 L157.9448,624.6074" fill="#EEEEEE" style="stroke:#000000;stroke-width:1.5;"/><rect fill="none" height="188.7461" style="stroke:#000000;stroke-width:1.5;" width="948.0127" x="157.9448" y="624.6074"/><text fill="#000000" font-family="sans-serif" font-size="13" font-weight="bold" lengthAdjust="spacing" textLength="27.4346" x="172.9448" y="639.6357">loop</text><text fill="#000000" font-family="sans-serif" font-size="11" font-weight="bold" lengthAdjust="spacing" textLength="150.3638" x="245.3794" y="638.4775">[for each group and vaccine]</text><g class="message" data-participant-1="UI" data-participant-2="VTYPE"><polygon fill="#181818" points="1016.3164,663.1895,1026.3164,667.1895,1016.3164,671.1895,1020.3164,667.1895" style="stroke:#181818;stroke-width:1;"/><line style="stroke:#181818;stroke-width:1;" x1="228.186" x2="1022.3164" y1="667.1895" y2="667.1895"/><text fill="#000000" font-family="sans-serif" font-size="13" font-weight="bold" lengthAdjust="spacing" textLength="14.46" x="235.186" y="661.9268">15</text><text fill="#000000" font-family="sans-serif" font-size="13" lengthAdjust="spacing" textLength="91.7554" x="253.646" y="661.9268">getDescription()</text></g><g class="message" data-participant-1="VTYPE" data-participant-2="UI"><polygon fill="#181818" points="239.186,694.4805,229.186,698.4805,239.186,702.4805,235.186,698.4805" style="stroke:#181818;stroke-width:1;"/><line style="stroke:#181818;stroke-width:1;stroke-dasharray:2,2;" x1="233.186" x2="1032.3164" y1="698.4805" y2="698.4805"/><text fill="#000000" font-family="sans-serif" font-size="13" font-weight="bold" lengthAdjust="spacing" textLength="14.46" x="245.186" y="693.2178">16</text><text fill="#000000" font-family="sans-serif" font-size="13" lengthAdjust="spacing" textLength="62.8672" x="263.646" y="693.2178">description</text></g><g class="message" data-participant-1="UI" data-participant-2="VAC"><polygon fill="#181818" points="898.9341,725.7715,908.9341,729.7715,898.9341,733.7715,902.9341,729.7715" style="stroke:#181818;stroke-width:1;"/><line style="stroke:#181818;stroke-width:1;" x1="228.186" x2="904.9341" y1="729.7715" y2="729.7715"/><text fill="#000000" font-family="sans-serif" font-size="13" font-weight="bold" lengthAdjust="spacing" textLength="14.46" x="235.186" y="724.5088">17</text><text fill="#000000" font-family="sans-serif" font-size="13" lengthAdjust="spacing" textLength="125.7153" x="253.646" y="724.5088">toString() / getBrand()</text></g><g class="message" data-participant-1="VAC" data-participant-2="UI"><polygon fill="#181818" points="239.186,757.0625,229.186,761.0625,239.186,765.0625,235.186,761.0625" style="stroke:#181818;stroke-width:1;"/><line style="stroke:#181818;stroke-width:1;stroke-dasharray:2,2;" x1="233.186" x2="914.9341" y1="761.0625" y2="761.0625"/><text fill="#000000" font-family="sans-serif" font-size="13" font-weight="bold" lengthAdjust="spacing" textLength="14.46" x="245.186" y="755.7998">18</text><text fill="#000000" font-family="sans-serif" font-size="13" lengthAdjust="spacing" textLength="37.5781" x="263.646" y="755.7998">details</text></g><g class="message" data-participant-1="UI" data-participant-2="UI"><line style="stroke:#181818;stroke-width:1;" x1="228.186" x2="270.186" y1="792.3535" y2="792.3535"/><line style="stroke:#181818;stroke-width:1;" x1="270.186" x2="270.186" y1="792.3535" y2="805.3535"/><line style="stroke:#181818;stroke-width:1;" x1="229.186" x2="270.186" y1="805.3535" y2="805.3535"/><polygon fill="#181818" points="239.186,801.3535,229.186,805.3535,239.186,809.3535,235.186,805.3535" style="stroke:#181818;stroke-width:1;"/><text fill="#000000" font-family="sans-serif" font-size="13" font-weight="bold" lengthAdjust="spacing" textLength="14.46" x="235.186" y="787.0908">19</text><text fill="#000000" font-family="sans-serif" font-size="13" lengthAdjust="spacing" textLength="146.6753" x="253.646" y="787.0908">show(description, details)</text></g><g class="message" data-participant-1="UI" data-participant-2="Admin"><polygon fill="#181818" points="60.2344,839.6445,50.2344,843.6445,60.2344,847.6445,56.2344,843.6445" style="stroke:#181818;stroke-width:1;"/><line style="stroke:#181818;stroke-width:1;stroke-dasharray:2,2;" x1="54.2344" x2="222.186" y1="843.6445" y2="843.6445"/><text fill="#000000" font-family="sans-serif" font-size="13" font-weight="bold" lengthAdjust="spacing" textLength="14.46" x="66.2344" y="838.3818">20</text><text fill="#000000" font-family="sans-serif" font-size="13" lengthAdjust="spacing" textLength="124.9917" x="84.6943" y="838.3818">shows list of vaccines</text></g><!--SRC=[dLHDR-8m4BtxLuoub4f01NlZi5AMze14HTL0fJqEYKaj1Jkr3IlsR-rFs3-sOvi41oAgRav9_DwyUVDXAsp9OPsE9p24b7_ikSmuF0eiDEuOxgsI-zs6QyOmiqf3BybtGWfZDT9d3z20_yCgr5Paea9feJTT4E8Diqn8RjPp3rlFRs1cIbgjofA7aBFLw-82FLCxUZk6u-NpI_lOK39yUegMkWyFJ5VBrwSsye1PZVEGjsJM1jXZrKHQqNj0hNw-F37chSBmEvc1AMXNBcETZ-MsTjA_TvKI1xJSMMP03w69uqmHg-0sASi8xX0DnJltlzpZAOvAXWDrBer5Qj69r-QwiZHKHncUPRDGl-OyvstU3Ssuh5_MzPtvNFKEnYDORYpNa6Ekp5KwlfLD-RhI2CskVmTybCWXk73TwaediADy9YDO_FrJY0mXcOqdm_4KaaBlQLQ0mrBdNA9kuALI5MnfFoZWUotLdCO-QDw22pTRaOsM5JUKyO4ZHLRSYBRE8n-EUbluXqQP_wVond6_B5rFlbRxAf5vghJjdseqy6O68V0v9qugx1oYtZYb2vJYDy-ViMANyzHipXry6z4LPgeIZo3HhU5rZtmoGA9NtGhRwZS-5EoHcqoBoWebk-Okt0rDmJoloJW_SxkcxdIlN4ZxJbcLMYraqR-7XwwsTRQiRjT9sw8e3VkiLK7LKyox-jMFSXxKGOAkRuk34pxSXO5YeAIr0hMjYsbO94Rr_mS0]--></g></svg>