<svg xmlns="http://www.w3.org/2000/svg" xmlns:xlink="http://www.w3.org/1999/xlink" contentStyleType="text/css" data-diagram-type="SEQUENCE" height="952px" preserveAspectRatio="none" style="width:1695px;height:952px;background:#FFFFFF;" version="1.1" viewBox="0 0 1695 952" width="1695px" zoomAndPan="magnify"><title>SD - US12 List All Vaccines</title><defs/><g><text fill="#000000" font-family="sans-serif" font-size="14" font-weight="bold" lengthAdjust="spacing" textLength="182.0684" x="758.3979" y="30.1074">SD - US12 List All Vaccines</text><g><title>Administrator</title><rect fill="#FFFFFF" height="727.0234" style="stroke:#181818;stroke-width:1;" width="10" x="59.2344" y="133.2422"/></g><g><title>.ListVaccinesView</title><rect fill="#FFFFFF" height="687.7324" style="stroke:#181818;stroke-width:1;" width="10" x="368.9331" y="156.5332"/></g><g><title>.ListVaccinesController</title><rect fill="#FFFFFF" height="348.5313" style="stroke:#181818;stroke-width:1;" width="10" x="520.9326" y="187.8242"/></g><g><title>.Administrator</title><rect fill="#FFFFFF" height="137.4941" style="stroke:#181818;stroke-width:1;" width="10" x="677.4897" y="219.1152"/></g><g><title>service.VaccineService</title><rect fill="#FFFFFF" height="117.1641" style="stroke:#181818;stroke-width:1;" width="10" x="867.8896" y="387.9004"/></g><g><title>factory.RepositoryFactory</title><rect fill="#FFFFFF" height="31.291" style="stroke:#181818;stroke-width:1;" width="10" x="1043.9995" y="250.4063"/></g><g><title>repo.VaccineRepository</title><rect fill="#FFFFFF" height="42.9365" style="stroke:#181818;stroke-width:1;" width="10" x="1222.0645" y="419.1914"/></g><g><title>vac.Vaccine</title><rect fill="#FFFFFF" height="31.291" style="stroke:#181818;stroke-width:1;" width="10" x="1491.0669" y="593.9375"/></g><g><title>vac.Vaccine</title><rect fill="#FFFFFF" height="31.291" style="stroke:#181818;stroke-width:1;" width="10" x="1491.0669" y="656.5195"/></g><g><title>vac.Vaccine</title><rect fill="#FFFFFF" height="93.873" style="stroke:#181818;stroke-width:1;" width="10" x="1491.0669" y="719.1016"/></g><g><title>type.VaccineType</title><rect fill="#FFFFFF" height="31.291" style="stroke:#181818;stroke-width:1;" width="10" x="1612.2231" y="750.3926"/></g><rect fill="none" height="300.9102" style="stroke:#000000;stroke-width:1.5;" width="1679.8643" x="10" y="551.3555"/><g><title>Administrator</title><rect fill="#000000" fill-opacity="0.00000" height="746.0234" width="8" x="60.2344" y="123.2422"/><line style="stroke:#181818;stroke-width:0.5;stroke-dasharray:5,5;" x1="64" x2="64" y1="123.2422" y2="869.2656"/></g><g><title>.ListVaccinesView</title><rect fill="#000000" fill-opacity="0.00000" height="746.0234" width="8" x="369.9331" y="123.2422"/><line style="stroke:#181818;stroke-width:0.5;stroke-dasharray:5,5;" x1="373.5195" x2="373.5195" y1="123.2422" y2="869.2656"/></g><g><title>.ListVaccinesController</title><rect fill="#000000" fill-opacity="0.00000" height="746.0234" width="8" x="521.9326" y="123.2422"/><line style="stroke:#181818;stroke-width:0.5;stroke-dasharray:5,5;" x1="525.3467" x2="525.3467" y1="123.2422" y2="869.2656"/></g><g><title>.Administrator</title><rect fill="#000000" fill-opacity="0.00000" height="746.0234" width="8" x="678.4897" y="123.2422"/><line style="stroke:#181818;stroke-width:0.5;stroke-dasharray:5,5;" x1="682.3105" x2="682.3105" y1="123.2422" y2="869.2656"/></g><g><title>service.VaccineService</title><rect fill="#000000" fill-opacity="0.00000" height="547.7578" width="8" x="868.8896" y="321.5078"/><line style="stroke:#181818;stroke-width:0.5;stroke-dasharray:5,5;" x1="872.5278" x2="872.5278" y1="321.5078" y2="869.2656"/></g><g><title>factory.RepositoryFactory</title><rect fill="#000000" fill-opacity="0.00000" height="746.0234" width="8" x="1044.9995" y="123.2422"/><line style="stroke:#181818;stroke-width:0.5;stroke-dasharray:5,5;" x1="1048.2515" x2="1048.2515" y1="123.2422" y2="869.2656"/></g><g><title>repo.VaccineRepository</title><rect fill="#000000" fill-opacity="0.00000" height="746.0234" width="8" x="1223.0645" y="123.2422"/><line style="stroke:#181818;stroke-width:0.5;stroke-dasharray:5,5;" x1="1226.7476" x2="1226.7476" y1="123.2422" y2="869.2656"/></g><g><title>list.List.Vaccine.</title><rect fill="#000000" fill-opacity="0.00000" height="746.0234" width="8" x="1375.8535" y="123.2422"/><line style="stroke:#181818;stroke-width:0.5;stroke-dasharray:5,5;" x1="1379.3813" x2="1379.3813" y1="123.2422" y2="869.2656"/></g><g><title>vac.Vaccine</title><rect fill="#000000" fill-opacity="0.00000" height="746.0234" width="8" x="1492.0669" y="123.2422"/><line style="stroke:#181818;stroke-width:0.5;stroke-dasharray:5,5;" x1="1495.3257" x2="1495.3257" y1="123.2422" y2="869.2656"/></g><g><title>type.VaccineType</title><rect fill="#000000" fill-opacity="0.00000" height="746.0234" width="8" x="1613.2231" y="123.2422"/><line style="stroke:#181818;stroke-width:0.5;stroke-dasharray:5,5;" x1="1616.582" x2="1616.582" y1="123.2422" y2="869.2656"/></g><g class="participant participant-head" data-participant="User"><text fill="#000000" font-family="sans-serif" font-size="14" lengthAdjust="spacing" textLength="82.4688" x="20" y="119.7285">Administrator</text><ellipse cx="64.2344" cy="53.1211" fill="#E2E2F0" rx="8" ry="8" style="stroke:#181818;stroke-width:0.5;"/><path d="M64.2344,61.1211 L64.2344,88.1211 M51.2344,69.1211 L77.2344,69.1211 M64.2344,88.1211 L51.2344,103.1211 M64.2344,88.1211 L77.2344,103.1211" fill="none" style="stroke:#181818;stroke-width:0.5;"/></g><g class="participant participant-tail" data-participant="User"><text fill="#000000" font-family="sans-serif" font-size="14" lengthAdjust="spacing" textLength="82.4688" x="20" y="883.373">Administrator</text><ellipse cx="64.2344" cy="895.3867" fill="#E2E2F0" rx="8" ry="8" style="stroke:#181818;stroke-width:0.5;"/><path d="M64.2344,903.3867 L64.2344,930.3867 M51.2344,911.3867 L77.2344,911.3867 M64.2344,930.3867 L51.2344,945.3867 M64.2344,930.3867 L77.2344,945.3867" fill="none" style="stroke:#181818;stroke-width:0.5;"/></g><g class="participant participant-head" data-participant="System"><rect fill="#E2E2F0" height="32.6211" rx="2.5" ry="2.5" style="stroke:#181818;stroke-width:0.5;" width="126.8271" x="310.5195" y="89.6211"/><text fill="#000000" font-family="sans-serif" font-size="14" lengthAdjust="spacing" textLength="112.8271" x="317.5195" y="111.7285">:ListVaccinesView</text></g><g class="participant participant-tail" data-participant="System"><rect fill="#E2E2F0" height="32.6211" rx="2.5" ry="2.5" style="stroke:#181818;stroke-width:0.5;" width="126.8271" x="310.5195" y="868.2656"/><text fill="#000000" font-family="sans-serif" font-size="14" lengthAdjust="spacing" textLength="112.8271" x="317.5195" y="890.373">:ListVaccinesView</text></g><g class="participant participant-head" data-participant="Ctrl"><rect fill="#E2E2F0" height="32.6211" rx="2.5" ry="2.5" style="stroke:#181818;stroke-width:0.5;" width="157.1719" x="447.3467" y="89.6211"/><text fill="#000000" font-family="sans-serif" font-size="14" lengthAdjust="spacing" textLength="143.1719" x="454.3467" y="111.7285">:ListVaccinesController</text></g><g class="participant participant-tail" data-participant="Ctrl"><rect fill="#E2E2F0" height="32.6211" rx="2.5" ry="2.5" style="stroke:#181818;stroke-width:0.5;" width="157.1719" x="447.3467" y="868.2656"/><text fill="#000000" font-family="sans-serif" font-size="14" lengthAdjust="spacing" textLength="143.1719" x="454.3467" y="890.373">:ListVaccinesController</text></g><g class="participant participant-head" data-participant="Admin"><rect fill="#E2E2F0" height="32.6211" rx="2.5" ry="2.5" style="stroke:#181818;stroke-width:0.5;" width="100.3584" x="632.3105" y="89.6211"/><text fill="#000000" font-family="sans-serif" font-size="14" lengthAdjust="spacing" textLength="86.3584" x="639.3105" y="111.7285">:Administrator</text></g><g class="participant participant-tail" data-participant="Admin"><rect fill="#E2E2F0" height="32.6211" rx="2.5" ry="2.5" style="stroke:#181818;stroke-width:0.5;" width="100.3584" x="632.3105" y="868.2656"/><text fill="#000000" font-family="sans-serif" font-size="14" lengthAdjust="spacing" textLength="86.3584" x="639.3105" y="890.373">:Administrator</text></g><g class="participant participant-tail" data-participant="Service"><rect fill="#E2E2F0" height="32.6211" rx="2.5" ry="2.5" style="stroke:#181818;stroke-width:0.5;" width="158.7236" x="793.5278" y="868.2656"/><text fill="#000000" font-family="sans-serif" font-size="14" lengthAdjust="spacing" textLength="144.7236" x="800.5278" y="890.373">service:VaccineService</text></g><g class="participant participant-head" data-participant="Factory"><rect fill="#E2E2F0" height="32.6211" rx="2.5" ry="2.5" style="stroke:#181818;stroke-width:0.5;" width="173.4961" x="962.2515" y="89.6211"/><text fill="#000000" font-family="sans-serif" font-size="14" lengthAdjust="spacing" textLength="159.4961" x="969.2515" y="111.7285">factory:RepositoryFactory</text></g><g class="participant participant-tail" data-participant="Factory"><rect fill="#E2E2F0" height="32.6211" rx="2.5" ry="2.5" style="stroke:#181818;stroke-width:0.5;" width="173.4961" x="962.2515" y="868.2656"/><text fill="#000000" font-family="sans-serif" font-size="14" lengthAdjust="spacing" textLength="159.4961" x="969.2515" y="890.373">factory:RepositoryFactory</text></g><g class="participant participant-head" data-participant="Repo"><rect fill="#E2E2F0" height="32.6211" rx="2.5" ry="2.5" style="stroke:#181818;stroke-width:0.5;" width="162.6338" x="1145.7476" y="89.6211"/><text fill="#000000" font-family="sans-serif" font-size="14" lengthAdjust="spacing" textLength="148.6338" x="1152.7476" y="111.7285">repo:VaccineRepository</text></g><g class="participant participant-tail" data-participant="Repo"><rect fill="#E2E2F0" height="32.6211" rx="2.5" ry="2.5" style="stroke:#181818;stroke-width:0.5;" width="162.6338" x="1145.7476" y="868.2656"/><text fill="#000000" font-family="sans-serif" font-size="14" lengthAdjust="spacing" textLength="148.6338" x="1152.7476" y="890.373">repo:VaccineRepository</text></g><g class="participant participant-head" data-participant="List"><rect fill="#E2E2F0" height="32.6211" rx="2.5" ry="2.5" style="stroke:#181818;stroke-width:0.5;" width="122.9443" x="1318.3813" y="89.6211"/><text fill="#000000" font-family="sans-serif" font-size="14" lengthAdjust="spacing" textLength="108.9443" x="1325.3813" y="111.7285">list:List&lt;Vaccine&gt;</text></g><g class="participant participant-tail" data-participant="List"><rect fill="#E2E2F0" height="32.6211" rx="2.5" ry="2.5" style="stroke:#181818;stroke-width:0.5;" width="122.9443" x="1318.3813" y="868.2656"/><text fill="#000000" font-family="sans-serif" font-size="14" lengthAdjust="spacing" textLength="108.9443" x="1325.3813" y="890.373">list:List&lt;Vaccine&gt;</text></g><g class="participant participant-head" data-participant="Vac"><rect fill="#E2E2F0" height="32.6211" rx="2.5" ry="2.5" style="stroke:#181818;stroke-width:0.5;" width="89.4824" x="1451.3257" y="89.6211"/><text fill="#000000" font-family="sans-serif" font-size="14" lengthAdjust="spacing" textLength="75.4824" x="1458.3257" y="111.7285">vac:Vaccine</text></g><g class="participant participant-tail" data-participant="Vac"><rect fill="#E2E2F0" height="32.6211" rx="2.5" ry="2.5" style="stroke:#181818;stroke-width:0.5;" width="89.4824" x="1451.3257" y="868.2656"/><text fill="#000000" font-family="sans-serif" font-size="14" lengthAdjust="spacing" textLength="75.4824" x="1458.3257" y="890.373">vac:Vaccine</text></g><g class="participant participant-head" data-participant="Type"><rect fill="#E2E2F0" height="32.6211" rx="2.5" ry="2.5" style="stroke:#181818;stroke-width:0.5;" width="125.2822" x="1554.582" y="89.6211"/><text fill="#000000" font-family="sans-serif" font-size="14" lengthAdjust="spacing" textLength="111.2822" x="1561.582" y="111.7285">type:VaccineType</text></g><g class="participant participant-tail" data-participant="Type"><rect fill="#E2E2F0" height="32.6211" rx="2.5" ry="2.5" style="stroke:#181818;stroke-width:0.5;" width="125.2822" x="1554.582" y="868.2656"/><text fill="#000000" font-family="sans-serif" font-size="14" lengthAdjust="spacing" textLength="111.2822" x="1561.582" y="890.373">type:VaccineType</text></g><g><title>Administrator</title><rect fill="#FFFFFF" height="727.0234" style="stroke:#181818;stroke-width:1;" width="10" x="59.2344" y="133.2422"/></g><g><title>.ListVaccinesView</title><rect fill="#FFFFFF" height="687.7324" style="stroke:#181818;stroke-width:1;" width="10" x="368.9331" y="156.5332"/></g><g><title>.ListVaccinesController</title><rect fill="#FFFFFF" height="348.5313" style="stroke:#181818;stroke-width:1;" width="10" x="520.9326" y="187.8242"/></g><g><title>.Administrator</title><rect fill="#FFFFFF" height="137.4941" style="stroke:#181818;stroke-width:1;" width="10" x="677.4897" y="219.1152"/></g><g><title>service.VaccineService</title><rect fill="#FFFFFF" height="117.1641" style="stroke:#181818;stroke-width:1;" width="10" x="867.8896" y="387.9004"/></g><g><title>factory.RepositoryFactory</title><rect fill="#FFFFFF" height="31.291" style="stroke:#181818;stroke-width:1;" width="10" x="1043.9995" y="250.4063"/></g><g><title>repo.VaccineRepository</title><rect fill="#FFFFFF" height="42.9365" style="stroke:#181818;stroke-width:1;" width="10" x="1222.0645" y="419.1914"/></g><g><title>vac.Vaccine</title><rect fill="#FFFFFF" height="31.291" style="stroke:#181818;stroke-width:1;" width="10" x="1491.0669" y="593.9375"/></g><g><title>vac.Vaccine</title><rect fill="#FFFFFF" height="31.291" style="stroke:#181818;stroke-width:1;" width="10" x="1491.0669" y="656.5195"/></g><g><title>vac.Vaccine</title><rect fill="#FFFFFF" height="93.873" style="stroke:#181818;stroke-width:1;" width="10" x="1491.0669" y="719.1016"/></g><g><title>type.VaccineType</title><rect fill="#FFFFFF" height="31.291" style="stroke:#181818;stroke-width:1;" width="10" x="1612.2231" y="750.3926"/></g><g class="message" data-participant-1="User" data-participant-2="System"><polygon fill="#181818" points="356.9331,152.5332,366.9331,156.5332,356.9331,160.5332,360.9331,156.5332" style="stroke:#181818;stroke-width:1;"/><line style="stroke:#181818;stroke-width:1;" x1="69.2344" x2="362.9331" y1="156.5332" y2="156.5332"/><text fill="#000000" font-family="sans-serif" font-size="13" font-weight="bold" lengthAdjust="spacing" textLength="7.23" x="76.2344" y="151.2705">1</text><text fill="#000000" font-family="sans-serif" font-size="13" lengthAdjust="spacing" textLength="131.4917" x="87.4644" y="151.2705">asks to list all vaccines</text></g><g class="message" data-participant-1="System" data-participant-2="Ctrl"><polygon fill="#181818" points="508.9326,183.8242,518.9326,187.8242,508.9326,191.8242,512.9326,187.8242" style="stroke:#181818;stroke-width:1;"/><line style="stroke:#181818;stroke-width:1;" x1="378.9331" x2="514.9326" y1="187.8242" y2="187.8242"/><text fill="#000000" font-family="sans-serif" font-size="13" font-weight="bold" lengthAdjust="spacing" textLength="7.23" x="385.9331" y="182.5615">2</text><text fill="#000000" font-family="sans-serif" font-size="13" lengthAdjust="spacing" textLength="91.7681" x="397.1631" y="182.5615">getAllGrouped()</text></g><g class="message" data-participant-1="Ctrl" data-participant-2="Admin"><polygon fill="#181818" points="665.4897,215.1152,675.4897,219.1152,665.4897,223.1152,669.4897,219.1152" style="stroke:#181818;stroke-width:1;"/><line style="stroke:#181818;stroke-width:1;" x1="530.9326" x2="671.4897" y1="219.1152" y2="219.1152"/><text fill="#000000" font-family="sans-serif" font-size="13" font-weight="bold" lengthAdjust="spacing" textLength="7.23" x="537.9326" y="213.8525">3</text><text fill="#000000" font-family="sans-serif" font-size="13" lengthAdjust="spacing" textLength="116.3271" x="549.1626" y="213.8525">getVaccineService()</text></g><g class="message" data-participant-1="Admin" data-participant-2="Factory"><polygon fill="#181818" points="1031.9995,246.4063,1041.9995,250.4063,1031.9995,254.4063,1035.9995,250.4063" style="stroke:#181818;stroke-width:1;"/><line style="stroke:#181818;stroke-width:1;" x1="687.4897" x2="1037.9995" y1="250.4063" y2="250.4063"/><text fill="#000000" font-family="sans-serif" font-size="13" font-weight="bold" lengthAdjust="spacing" textLength="7.23" x="694.4897" y="245.1436">4</text><text fill="#000000" font-family="sans-serif" font-size="13" lengthAdjust="spacing" textLength="135.1162" x="705.7197" y="245.1436">getVaccineRepository()</text></g><g class="message" data-participant-1="Factory" data-participant-2="Admin"><polygon fill="#181818" points="698.4897,277.6973,688.4897,281.6973,698.4897,285.6973,694.4897,281.6973" style="stroke:#181818;stroke-width:1;"/><line style="stroke:#181818;stroke-width:1;stroke-dasharray:2,2;" x1="692.4897" x2="1047.9995" y1="281.6973" y2="281.6973"/><text fill="#000000" font-family="sans-serif" font-size="13" font-weight="bold" lengthAdjust="spacing" textLength="7.23" x="704.4897" y="276.4346">5</text><text fill="#000000" font-family="sans-serif" font-size="13" lengthAdjust="spacing" textLength="26.019" x="715.7197" y="276.4346">repo</text></g><g class="message" data-participant-1="Admin" data-participant-2="Service"><polygon fill="#181818" points="781.5278,308.9883,791.5278,312.9883,781.5278,316.9883,785.5278,312.9883" style="stroke:#181818;stroke-width:1;"/><line style="stroke:#181818;stroke-width:1;stroke-dasharray:2,2;" x1="687.4897" x2="787.5278" y1="312.9883" y2="312.9883"/><text fill="#000000" font-family="sans-serif" font-size="13" font-weight="bold" lengthAdjust="spacing" textLength="7.23" x="694.4897" y="307.7256">6</text><text fill="#000000" font-family="sans-serif" font-size="13" lengthAdjust="spacing" textLength="70.8081" x="705.7197" y="307.7256">create(repo)</text></g><rect fill="#E2E2F0" height="32.6211" rx="2.5" ry="2.5" style="stroke:#181818;stroke-width:0.5;" width="158.7236" x="793.5278" y="289.6973"/><text fill="#000000" font-family="sans-serif" font-size="14" lengthAdjust="spacing" textLength="144.7236" x="800.5278" y="311.8047">service:VaccineService</text><g class="message" data-participant-1="Admin" data-participant-2="Ctrl"><polygon fill="#181818" points="541.9326,352.6094,531.9326,356.6094,541.9326,360.6094,537.9326,356.6094" style="stroke:#181818;stroke-width:1;"/><line style="stroke:#181818;stroke-width:1;stroke-dasharray:2,2;" x1="535.9326" x2="681.4897" y1="356.6094" y2="356.6094"/><text fill="#000000" font-family="sans-serif" font-size="13" font-weight="bold" lengthAdjust="spacing" textLength="7.23" x="547.9326" y="351.3467">7</text><text fill="#000000" font-family="sans-serif" font-size="13" lengthAdjust="spacing" textLength="41.1772" x="559.1626" y="351.3467">service</text></g><g class="message" data-participant-1="Ctrl" data-participant-2="Service"><polygon fill="#181818" points="855.8896,383.9004,865.8896,387.9004,855.8896,391.9004,859.8896,387.9004" style="stroke:#181818;stroke-width:1;"/><line style="stroke:#181818;stroke-width:1;" x1="530.9326" x2="861.8896" y1="387.9004" y2="387.9004"/><text fill="#000000" font-family="sans-serif" font-size="13" font-weight="bold" lengthAdjust="spacing" textLength="7.23" x="537.9326" y="382.6377">8</text><text fill="#000000" font-family="sans-serif" font-size="13" lengthAdjust="spacing" textLength="141.6289" x="549.1626" y="382.6377">getAllGroupedByBrand()</text></g><g class="message" data-participant-1="Service" data-participant-2="Repo"><polygon fill="#181818" points="1210.0645,415.1914,1220.0645,419.1914,1210.0645,423.1914,1214.0645,419.1914" style="stroke:#181818;stroke-width:1;"/><line style="stroke:#181818;stroke-width:1;" x1="877.8896" x2="1216.0645" y1="419.1914" y2="419.1914"/><text fill="#000000" font-family="sans-serif" font-size="13" font-weight="bold" lengthAdjust="spacing" textLength="7.23" x="884.8896" y="413.9287">9</text><text fill="#000000" font-family="sans-serif" font-size="13" lengthAdjust="spacing" textLength="44.0654" x="896.1196" y="413.9287">findAll()</text></g><g class="message" data-participant-1="Repo" data-participant-2="Service"><polygon fill="#181818" points="888.8896,458.1279,878.8896,462.1279,888.8896,466.1279,884.8896,462.1279" style="stroke:#181818;stroke-width:1;"/><line style="stroke:#181818;stroke-width:1;stroke-dasharray:2,2;" x1="882.8896" x2="1226.0645" y1="462.1279" y2="462.1279"/><text fill="#000000" font-family="sans-serif" font-size="13" font-weight="bold" lengthAdjust="spacing" textLength="14.46" x="894.8896" y="456.8652">10</text><text fill="#000000" font-family="sans-serif" font-size="13" lengthAdjust="spacing" textLength="15.8882" x="913.3496" y="456.8652">list</text></g><path d="M1237,432.1914 L1237,476.1914 L1424,476.1914 L1424,442.1914 L1414,432.1914 L1237,432.1914" fill="#FEFFDD" style="stroke:#181818;stroke-width:0.5;"/><path d="M1414,432.1914 L1414,442.1914 L1424,442.1914 L1414,432.1914" fill="#FEFFDD" style="stroke:#181818;stroke-width:0.5;"/><text fill="#000000" font-family="sans-serif" font-size="13" lengthAdjust="spacing" textLength="163.2935" x="1243" y="451.2197">Service sorts and groups list</text><text fill="#000000" font-family="sans-serif" font-size="13" lengthAdjust="spacing" textLength="166.1943" x="1243" y="468.5107">by Type and Brand (AC12-1)</text><g class="message" data-participant-1="Service" data-participant-2="Ctrl"><polygon fill="#181818" points="541.9326,501.0645,531.9326,505.0645,541.9326,509.0645,537.9326,505.0645" style="stroke:#181818;stroke-width:1;"/><line style="stroke:#181818;stroke-width:1;stroke-dasharray:2,2;" x1="535.9326" x2="871.8896" y1="505.0645" y2="505.0645"/><text fill="#000000" font-family="sans-serif" font-size="13" font-weight="bold" lengthAdjust="spacing" textLength="14.46" x="547.9326" y="499.8018">11</text><text fill="#000000" font-family="sans-serif" font-size="13" lengthAdjust="spacing" textLength="15.8882" x="566.3926" y="499.8018">list</text></g><g class="message" data-participant-1="Ctrl" data-participant-2="System"><polygon fill="#181818" points="389.9331,532.3555,379.9331,536.3555,389.9331,540.3555,385.9331,536.3555" style="stroke:#181818;stroke-width:1;"/><line style="stroke:#181818;stroke-width:1;stroke-dasharray:2,2;" x1="383.9331" x2="524.9326" y1="536.3555" y2="536.3555"/><text fill="#000000" font-family="sans-serif" font-size="13" font-weight="bold" lengthAdjust="spacing" textLength="14.46" x="395.9331" y="531.0928">12</text><text fill="#000000" font-family="sans-serif" font-size="13" lengthAdjust="spacing" textLength="15.8882" x="414.3931" y="531.0928">list</text></g><path d="M10,551.3555 L82.4346,551.3555 L82.4346,560.6465 L72.4346,570.6465 L10,570.6465 L10,551.3555" fill="#EEEEEE" style="stroke:#000000;stroke-width:1.5;"/><rect fill="none" height="300.9102" style="stroke:#000000;stroke-width:1.5;" width="1679.8643" x="10" y="551.3555"/><text fill="#000000" font-family="sans-serif" font-size="13" font-weight="bold" lengthAdjust="spacing" textLength="27.4346" x="25" y="566.3838">loop</text><text fill="#000000" font-family="sans-serif" font-size="11" font-weight="bold" lengthAdjust="spacing" textLength="113.7705" x="97.4346" y="565.2256">[for each 'vac' in 'list']</text><g class="message" data-participant-1="System" data-participant-2="Vac"><polygon fill="#181818" points="1479.0669,589.9375,1489.0669,593.9375,1479.0669,597.9375,1483.0669,593.9375" style="stroke:#181818;stroke-width:1;"/><line style="stroke:#181818;stroke-width:1;" x1="378.9331" x2="1485.0669" y1="593.9375" y2="593.9375"/><text fill="#000000" font-family="sans-serif" font-size="13" font-weight="bold" lengthAdjust="spacing" textLength="14.46" x="385.9331" y="588.6748">13</text><text fill="#000000" font-family="sans-serif" font-size="13" lengthAdjust="spacing" textLength="61.4199" x="404.3931" y="588.6748">getBrand()</text></g><g class="message" data-participant-1="Vac" data-participant-2="System"><polygon fill="#181818" points="389.9331,621.2285,379.9331,625.2285,389.9331,629.2285,385.9331,625.2285" style="stroke:#181818;stroke-width:1;"/><line style="stroke:#181818;stroke-width:1;stroke-dasharray:2,2;" x1="383.9331" x2="1495.0669" y1="625.2285" y2="625.2285"/><text fill="#000000" font-family="sans-serif" font-size="13" font-weight="bold" lengthAdjust="spacing" textLength="14.46" x="395.9331" y="619.9658">14</text><text fill="#000000" font-family="sans-serif" font-size="13" lengthAdjust="spacing" textLength="33.249" x="414.3931" y="619.9658">brand</text></g><g class="message" data-participant-1="System" data-participant-2="Vac"><polygon fill="#181818" points="1479.0669,652.5195,1489.0669,656.5195,1479.0669,660.5195,1483.0669,656.5195" style="stroke:#181818;stroke-width:1;"/><line style="stroke:#181818;stroke-width:1;" x1="378.9331" x2="1485.0669" y1="656.5195" y2="656.5195"/><text fill="#000000" font-family="sans-serif" font-size="13" font-weight="bold" lengthAdjust="spacing" textLength="14.46" x="385.9331" y="651.2568">15</text><text fill="#000000" font-family="sans-serif" font-size="13" lengthAdjust="spacing" textLength="130.749" x="404.3931" y="651.2568">getCommercialName()</text></g><g class="message" data-participant-1="Vac" data-participant-2="System"><polygon fill="#181818" points="389.9331,683.8105,379.9331,687.8105,389.9331,691.8105,385.9331,687.8105" style="stroke:#181818;stroke-width:1;"/><line style="stroke:#181818;stroke-width:1;stroke-dasharray:2,2;" x1="383.9331" x2="1495.0669" y1="687.8105" y2="687.8105"/><text fill="#000000" font-family="sans-serif" font-size="13" font-weight="bold" lengthAdjust="spacing" textLength="14.46" x="395.9331" y="682.5479">16</text><text fill="#000000" font-family="sans-serif" font-size="13" lengthAdjust="spacing" textLength="101.1309" x="414.3931" y="682.5479">commercialName</text></g><g class="message" data-participant-1="System" data-participant-2="Vac"><polygon fill="#181818" points="1479.0669,715.1016,1489.0669,719.1016,1479.0669,723.1016,1483.0669,719.1016" style="stroke:#181818;stroke-width:1;"/><line style="stroke:#181818;stroke-width:1;" x1="378.9331" x2="1485.0669" y1="719.1016" y2="719.1016"/><text fill="#000000" font-family="sans-serif" font-size="13" font-weight="bold" lengthAdjust="spacing" textLength="14.46" x="385.9331" y="713.8389">17</text><text fill="#000000" font-family="sans-serif" font-size="13" lengthAdjust="spacing" textLength="55.6309" x="404.3931" y="713.8389">getType()</text></g><g class="message" data-participant-1="Vac" data-participant-2="Type"><polygon fill="#181818" points="1600.2231,746.3926,1610.2231,750.3926,1600.2231,754.3926,1604.2231,750.3926" style="stroke:#181818;stroke-width:1;"/><line style="stroke:#181818;stroke-width:1;" x1="1501.0669" x2="1606.2231" y1="750.3926" y2="750.3926"/><text fill="#000000" font-family="sans-serif" font-size="13" font-weight="bold" lengthAdjust="spacing" textLength="14.46" x="1508.0669" y="745.1299">18</text><text fill="#000000" font-family="sans-serif" font-size="13" lengthAdjust="spacing" textLength="73.6963" x="1526.5269" y="745.1299">getDisease()</text></g><g class="message" data-participant-1="Type" data-participant-2="Vac"><polygon fill="#181818" points="1512.0669,777.6836,1502.0669,781.6836,1512.0669,785.6836,1508.0669,781.6836" style="stroke:#181818;stroke-width:1;"/><line style="stroke:#181818;stroke-width:1;stroke-dasharray:2,2;" x1="1506.0669" x2="1616.2231" y1="781.6836" y2="781.6836"/><text fill="#000000" font-family="sans-serif" font-size="13" font-weight="bold" lengthAdjust="spacing" textLength="14.46" x="1518.0669" y="776.4209">19</text><text fill="#000000" font-family="sans-serif" font-size="13" lengthAdjust="spacing" textLength="44.8081" x="1536.5269" y="776.4209">disease</text></g><g class="message" data-participant-1="Vac" data-participant-2="System"><polygon fill="#181818" points="389.9331,808.9746,379.9331,812.9746,389.9331,816.9746,385.9331,812.9746" style="stroke:#181818;stroke-width:1;"/><line style="stroke:#181818;stroke-width:1;stroke-dasharray:2,2;" x1="383.9331" x2="1495.0669" y1="812.9746" y2="812.9746"/><text fill="#000000" font-family="sans-serif" font-size="13" font-weight="bold" lengthAdjust="spacing" textLength="14.46" x="395.9331" y="807.7119">20</text><text fill="#000000" font-family="sans-serif" font-size="13" lengthAdjust="spacing" textLength="44.8081" x="414.3931" y="807.7119">disease</text></g><g class="message" data-participant-1="System" data-participant-2="User"><polygon fill="#181818" points="80.2344,840.2656,70.2344,844.2656,80.2344,848.2656,76.2344,844.2656" style="stroke:#181818;stroke-width:1;"/><line style="stroke:#181818;stroke-width:1;stroke-dasharray:2,2;" x1="74.2344" x2="372.9331" y1="844.2656" y2="844.2656"/><text fill="#000000" font-family="sans-serif" font-size="13" font-weight="bold" lengthAdjust="spacing" textLength="14.46" x="86.2344" y="839.0029">21</text><text fill="#000000" font-family="sans-serif" font-size="13" lengthAdjust="spacing" textLength="257.2388" x="104.6943" y="839.0029">shows disease, brand and commercial name</text></g><!--SRC=[VLF1RY8n3BtdAomkq6hdG8-Z2ebIxLvMUrZQdde98K2qCyae2LJpzsix4sRIBii1ENxFp_OpH1CR3TjdgE1rkto0doP4M3SDl4cbZDL1o7DqKaLpaL63i_osvtQdlH2OTnvcwtrhB1PwYSyPo02l0U5E-cYKwQIDCAj9EOk-6Vt1l6qVecx_mzmu6xrh6frqDz4tdzXVctEcPE4u5wDqFSXkqpEDaEAIV-3D-lgtxbmm57vF6IuPuhB48pNhZsNCfsT9Rd1WtlDng5WnaJ8byI9L5cK6nYKXzjrrhHUCcKK1NoTTZQyXw1kgrU1vZRm_0Q83cWKadloIJvuOn2M_QpZgY3-97zwTExrVt0dA4if6CrpwYXI6Y3Du1LFQQ0yoCw4Q1SdAh4039zNx-ngKrxZGWWXt4qOQSpYokCut57vQuAb_yjBI7WDEL1gfXeEnUoGYHEzfyvfj4jQXdTuSJx7E20JdOm1KX2Cr2CdGTxlh-GwCS4TOh3VBXsevQNoTdTNJt9CJSLOqpdLmm3-Qbke4SppJ773nEQ5p0VWP3uOEyxfvHK8nLwZk2BjHjt5jgxqoilabMtr3G1Ma6qgq-xH-nMumz6o2bY6ZR5ALA_S9-sVVAPOR8am_RBp-oNs4JFcMbcJlnsd1qhWQSsIf-0i0]--></g></svg>